<svg xmlns="http://www.w3.org/2000/svg" width="154" height="154" fill="none"><path fill="#FFD2D2" d="M40.931 78.608a.261.261 0 0 0-.522 0v4.427q.26-.07.522-.137c0-1.388.023-2.931 0-4.29M40.41 127.826a.26.26 0 1 0 .521 0v-15.652q-.26.077-.522.145c0 5.349-.093 10.137 0 15.507"/><path fill="#2755A0" d="M36.478 114.623a21.7 21.7 0 0 0-3.386-1.395 25.2 25.2 0 0 1-7.967-1.019 21.85 21.85 0 0 0-8.015 1.952c-.248.114-.108.481.132.487l19.105.46a.26.26 0 0 0 .247-.193.26.26 0 0 0-.116-.292M16.698 116.641c.18-.284-.272-.546-.45-.263l-7.149 11.314c-.18.285.272.546.45.263zM36.607 116.51c-.011-.335-.533-.337-.522 0l.368 11.313c.01.336.533.337.522 0z"/><path fill="#000" d="M127.194 56.564c-.557-1.028-1.861-.88-2.501-1.883-.217-.34-.356-.723-.549-1.074-.8-1.473-2.537-1.755-4.066-1.695-.976.119-1.962.11-2.935-.024a1.26 1.26 0 0 1-.862-.57c-.482-.927-.174-1.958-.76-2.924a3.27 3.27 0 0 0-1.654-1.33c-1.744-.67-3.58-.131-5.376-.281-2.398-.202-1.593-3.176-3.634-4.497-2.129-1.2-4.527.097-6.718.883-2.757.99-3.647-.423-5.269-.225a3.42 3.42 0 0 0-2.03 1.186 4.09 4.09 0 0 0-1.025 4.374c.88 1.65 1.663 1.704 2.26 3.17.437 1.409-1.233 2.614-.734 4.013.526 1.474 2.379 1.339 3.594 1.822a12 12 0 0 1 1.405-1.562l.01-.019a11.8 11.8 0 0 1 5.295-2.74c3.99-.944 9.251-.291 13.258.978a26 26 0 0 1 2.543.524 80 80 0 0 1 9.938 2.887 1.7 1.7 0 0 0-.19-1.013m-27.827-6.422a3.01 3.01 0 0 1-1.95 2.038 2.526 2.526 0 0 1-3.209-1.526 2.83 2.83 0 0 1 1.162-3.25 2.59 2.59 0 0 1 3.997 2.738"/><path fill="#fff" d="M28.554 78.012c.108-.92-.92-1.939-1.671-2.43a2.7 2.7 0 0 0-1.026-.236 12.8 12.8 0 0 0-3.817 0c2.212 1.127 3.158 3.712 5.512 3.574a1.05 1.05 0 0 0 1.002-.908"/><path fill="#FFF0B3" d="M31.022 76.86a12.48 12.48 0 0 0-9.931-1.864.2.2 0 0 0-.044.019c-.753.174-1.487.426-2.189.75a17.5 17.5 0 0 0-6.199 5.028q-.723.916-1.367 1.89a8 8 0 0 0-.81 1.524 6.866 6.866 0 0 1 9.318-2.72 6.86 6.86 0 0 1 2.72 9.318c-.447.803-1.682 3.129-2.152 4.301 1.381.343 3.873-2.669 5.861-4.404a36.6 36.6 0 0 1 10.086-6.281c-1.304-2.72-2.682-5.623-5.293-7.562m-8.981-1.514a12.8 12.8 0 0 1 3.816 0c.354.011.702.091 1.025.236.743.486 1.78 1.499 1.672 2.429a1.05 1.05 0 0 1-1.002.908c-2.342.139-3.317-2.455-5.511-3.573"/><path fill="#FFC431" d="M43.48 95.334c-4.575 5.126-7.726 8.872-14.844 11.892a33.6 33.6 0 0 1-8.593 2.362 16.2 16.2 0 0 0 7.063 3.135c3.295.597 6.663.679 9.984.244a19.95 19.95 0 0 0 8.338-2.792z"/><path fill="#FFD2D2" d="M112.608 94.802c-2.85-.352-4.729.863-7.043.449-.715-.128-1.67-.452-1.912-1.228a1.635 1.635 0 0 1 1.21-1.898 15 15 0 0 1 2.122-.504c-.798.012-1.534.01-2.36-.057a3.05 3.05 0 0 1-1.56-.46 1.48 1.48 0 0 1-.684-1.37 1.42 1.42 0 0 1 .815-1.062 36 36 0 0 1 4.115-1.282l-2.367.188c-.966.077-2.418.24-2.849-.906-.379-1.007.636-1.64 1.417-1.964a17 17 0 0 1 3.93-1.084c-2.02-2.015-4.045-4.024-6.047-6.056-2.302 3.037-5.154 6.038-8.804 7.136-7.05 2.112-15.078-1.381-19.306-6.623a13.3 13.3 0 0 1-2.204-4.244h-9.668A25.5 25.5 0 0 1 60.3 78.76a.262.262 0 0 1-.512-.069c-.108-2.071.018-3.196-.032-4.854H40.951a.26.26 0 0 0-.26.26L41.82 82.7a27.2 27.2 0 0 1 7.87-.567c1.628.125 3.477.285 4.863 1.231 1.688 1.151.989 2.473-.671 2.752a32 32 0 0 1-4.082.283q.85.25 1.688.542c.725.254 1.711.48 2.18 1.151a1.605 1.605 0 0 1-.449 2.149c-1.162.832-2.4.352-3.644-.056q1.004.587 1.892 1.335c.297.218.54.501.71.828a1.655 1.655 0 0 1-.735 1.981 3.05 3.05 0 0 1-2.609.017 8.3 8.3 0 0 0-2.74-.89c-1.11-.011-1.765.932-2.617 1.883l2.961 22.545a.266.266 0 0 0 .261.261h2.828a34 34 0 0 1-2.076-12.216c.072-4.378 1.228-8.029 4.86-10.742a19.62 19.62 0 0 1 11.432-3.636q.025 0 .049.007c.264-.077 3.003-.025 3.75 0 1.917.077 6.157.427 6.247.433a38.6 38.6 0 0 1 9.5 2.479 13.4 13.4 0 0 1 4.15 2.29c2.123 1.253 3.265 3.774 3.543 6.1.077.621 1.049 12.575 1.056 12.652.436-3.783.613-7.59.532-11.397-.047-2.268-.307-3.035.214-4.232a1.68 1.68 0 0 1 1.458-.901 1.46 1.46 0 0 1 1.211.773c.416.768.653 1.62.696 2.492a2.63 2.63 0 0 1 2.444-.877 2.62 2.62 0 0 1 2.006 1.649c1.431-.873 2.776.391 3.06 2.055a1.85 1.85 0 0 1 1.81 1.637c.721 3.775.744 7.65.068 11.433h9.843a.265.265 0 0 0 .261-.261c-.793-6.025-2.513-19.128-3.032-23.08m-41.72-7.02a3.35 3.35 0 0 1-4.616.332 3.625 3.625 0 0 1-.807-3.978c1.158-3.16 4.793-2.659 5.908-.066a3.59 3.59 0 0 1-.485 3.712m1.986-7.927c-.204.758-1.115.727-1.745.76-.613.033-3.714.205-4.655.223a.262.262 0 0 1-.251-.33 22.6 22.6 0 0 1 2.494-5.099 1.32 1.32 0 0 1 .822-.678.69.69 0 0 1 .82.537 2.47 2.47 0 0 1-.258 1.524q.314-.173.655-.283a1.13 1.13 0 0 1 1.38.341 1.25 1.25 0 0 1-.33 1.476q-.336.336-.709.63.432-.045.866-.015c.266-.008.526.077.737.24a.69.69 0 0 1 .174.674m19.934 16.402c-.062-.213-1.05-3.683-1.444-5.217a.261.261 0 0 1 .503-.139c.063.213 1.049 3.683 1.445 5.217a.262.262 0 0 1-.504.14m1.702.603c-.153.3-.602.036-.45-.263l2.9-5.725c.153-.3.6-.035.45.264zm5.134-.56-4.061 1.443c-.318.113-.454-.392-.139-.504l4.061-1.442c.316-.113.454.391.139.503"/><path fill="#FC9070" d="M98.63 47.632a2.71 2.71 0 0 0-3.26-.23 2.83 2.83 0 0 0-1.174 3.215 2.496 2.496 0 0 0 3.223 1.56c2.025-.684 2.753-3.19 1.211-4.545M94.225 69.219c-1.66-2.455-1.94-4.542-1.601-6.363-.705 2.178-1.062 3.387-2.206 4.939a5.55 5.55 0 0 1-2.163 1.792 3.68 3.68 0 0 1-4.278-1.598 7 7 0 0 1-.69-3.223 49 49 0 0 1-.07-3.168c.037-4.92 1.233-17.67-1.525-20.179a3.15 3.15 0 0 0-3.817.255c-1.09.912-1.348 2.038-1.493 3.447a45 45 0 0 0-.224 3.313c-2.863-2.532-5.365-4.596-8.35-6.12-1.085-.555-3.318-1.572-4.018.068a2.67 2.67 0 0 0 .488 2.388q.671 1.01 1.476 1.915a16.3 16.3 0 0 0-6.091-1.34 4.35 4.35 0 0 0-2.656.75 2.085 2.085 0 0 0-.429 2.697 3.77 3.77 0 0 0 2.2 1.624 5.8 5.8 0 0 0-3.114 1.39 1.97 1.97 0 0 0-.613 2.002 2.5 2.5 0 0 0 1.496 1.512c.73.258 1.498.395 2.273.407 2.644.193 7.326.11 9.982.022.174 6.231.55 17.449 4.486 22.327 4.201 5.211 12.2 8.752 19.306 6.623 3.649-1.093 6.498-4.094 8.803-7.135a56.6 56.6 0 0 1-7.172-8.345m-8.382 13.734h2.915a.26.26 0 1 1 0 .522h-2.915a.261.261 0 0 1 0-.522m-9.647-33.969a.256.256 0 0 1 .432.14c.082.318-.392.269-1.438 2.136a.26.26 0 0 1-.295.12 7.02 7.02 0 0 0-5.299.138c-.306.134-.569-.315-.263-.45a7.57 7.57 0 0 1 5.51-.252 9.5 9.5 0 0 1 1.353-1.832m-14.924 1.422c1.067.02 2.133.046 3.198.117.333.022.335.544 0 .522a51 51 0 0 0-3.198-.118.26.26 0 1 1 0-.521m6.438-2.674 2.85 1.186c.308.127.172.632-.138.503l-2.85-1.186c-.306-.127-.172-.632.138-.503"/><path fill="#FF4848" d="M69.333 51.068c-.306.136-.041.584.264.45a7.02 7.02 0 0 1 5.298-.138.26.26 0 0 0 .297-.12 9 9 0 0 1 1.375-1.906.264.264 0 0 0-.23-.44c-.116.018-.153.09-.23.172a9.2 9.2 0 0 0-1.263 1.73 7.57 7.57 0 0 0-5.51.252M64.47 50.523c-1.065-.071-2.131-.132-3.198-.117a.26.26 0 0 0 0 .521c1.067.023 2.133.046 3.197.118.336.022.334-.5 0-.522M70.56 48.918l-2.85-1.186c-.306-.13-.444.376-.138.503l2.85 1.186c.31.129.445-.376.139-.503"/><path fill="#2755A0" d="M74.085 132.134a25 25 0 0 0-2.674-1.324 40.4 40.4 0 0 1-10.866-1.782 23.9 23.9 0 0 0-6.99 2.24.26.26 0 0 0-.123.258.27.27 0 0 0 .186.219 71 71 0 0 0 15.908 1.211c1.338-.05 4.297-.254 4.491-.314a.262.262 0 0 0 .198-.396.26.26 0 0 0-.13-.112"/><path fill="#C0C195" d="M124.821 72.9c-2.699-4.013-11.924-5.294-12.717-5.539a6.783 6.783 0 0 1 2.795-13.197 28.3 28.3 0 0 0-11.928-1.223c-.901.12-1.786.333-2.642.638.205-.033.33.219.248.391-.622 1.31-.805 3.53-2.532 3.853-1.039.198-1.556-.767-1.765-1.64a.27.27 0 0 1 .057-.236q-.577.525-1.065 1.133a11.66 11.66 0 0 0-2.753 7.745 9.66 9.66 0 0 0 1.705 4.394c3.056 4.51 6.62 7.826 13.216 14.406 4.432-.725 9.214-.23 13.234-1.381 4.885-1.41 6.834-5.347 4.147-9.344"/><path fill="#CCEAFF" d="M87.42 96.736c-2.498-2.261-9.783-4.297-13.196-4.706a3.3 3.3 0 0 0-.58-.043.26.26 0 0 1-.014.495c-.04.01-3.51.94-3.656.983-3.465.98-5.566 2.465-7.855 2.192a1.56 1.56 0 0 1-1.275-.639c-.495-.966 1.068-2.252 1.954-2.882.23-.167.476-.32.717-.475a.8.8 0 0 1 .274-.112.3.3 0 0 0-.048-.007 19.6 19.6 0 0 0-11.432 3.636c-3.614 2.705-4.788 6.341-4.86 10.742a34.2 34.2 0 0 0 2.64 13.663 18 18 0 0 0 2.531 4.367 23 23 0 0 1-.17-6.372 10.18 10.18 0 0 1 4.102-6.836c4.68-3.453 11.496-.733 13.405 6.541.905 3.453.583 7.015.715 10.537.013.336-.51.335-.522 0-.136-3.63.23-7.547-.946-11.248-2.031-6.385-8.652-8.921-13.156-4.757a9.9 9.9 0 0 0-3.2 7.059 30 30 0 0 0 .4 5.79c5.683 5.978 17.075 6.568 25.34 6.057a25.6 25.6 0 0 0 3.75-.492c-2.923-2.149-4.746-5.432-5.857-8.87-1.56-4.824-1.744-10.003-1.631-15.038q.007-1.105.146-2.2c.3-1.732.965-3.38 1.953-4.834a7.94 7.94 0 0 1 8.466-3.294 6.5 6.5 0 0 1 2.006.743"/><path fill="#FC9070" d="M140.749 70.458c-.604-3.614-3.161-7.113-5.914-9.118a32.4 32.4 0 0 0-7.455-3.76 81 81 0 0 0-9.938-2.887c-1.857-.465-2.9-.703-4.286-.473a6.8 6.8 0 0 0-5.628 7.772 6.72 6.72 0 0 0 4.576 5.371c.746.23 10.027 1.54 12.717 5.539 2.689 3.999.738 7.933-4.144 9.34-5.278 1.519-11.674.185-17.163 2.469-.781.324-1.797.957-1.417 1.963.431 1.146 1.883.983 2.849.906l2.367-.188q-2.096.52-4.115 1.282a1.42 1.42 0 0 0-.815 1.063 1.49 1.49 0 0 0 .684 1.369 3.05 3.05 0 0 0 1.56.46c.835.068 1.575.069 2.36.058q-1.079.176-2.122.503a1.63 1.63 0 0 0-1.21 1.898c.242.775 1.197 1.098 1.912 1.228 2.127.384 4.156-.671 6.514-.506 1.702.12 3.611.784 5.336 1.042a19.52 19.52 0 0 0 19.259-8.65c3.636-5.398 4.813-12.254 4.073-16.68m-2.96 8.498a11.8 11.8 0 0 1-1.045 2.888c-.154.298-.604.034-.45-.264.45-.874.783-1.802.992-2.763.072-.326.575-.187.503.14m-25.129 7.361 1.549-.164c.334-.036.33.487 0 .522l-1.549.164c-.333.032-.333-.49 0-.522m1.904 4.68h-1.623a.261.261 0 0 1 0-.522h1.621a.26.26 0 1 1 0 .522z"/><path fill="#FF4848" d="M105.467 106.706a1.85 1.85 0 0 0-1.81-1.637c-.283-1.658-1.626-2.931-3.06-2.056a2.63 2.63 0 0 0-3.344-1.533c-.429.154-.81.416-1.106.761a5.84 5.84 0 0 0-.696-2.492 1.46 1.46 0 0 0-1.208-.772 1.68 1.68 0 0 0-1.458.901c-.517 1.191-.261 1.943-.214 4.232a84 84 0 0 1-.532 11.397c-.14-1.707-.912-11.437-1.056-12.652a9.44 9.44 0 0 0-1.697-4.429 6.17 6.17 0 0 0-3.544-2.365 7.98 7.98 0 0 0-8.79 3.229 12.4 12.4 0 0 0-1.953 4.833q-.14 1.096-.146 2.2c-.114 5.036.071 10.215 1.63 15.038a17.83 17.83 0 0 0 5.319 8.451 11.8 11.8 0 0 0 5.312 2.485c3.797.906 8.064 1.065 11.62-.755 3.78-1.933 5.078-5.677 6.074-9.796 1.143-4.728 1.712-10.27.659-15.04m-1.56.733c-.03.331-.552.334-.521 0q.051-.722 0-1.446c-.018-.336.504-.334.521 0a10 10 0 0 1 0 1.446m-3.507-.92a4.6 4.6 0 0 0 .033-1.657c-.077-.327.431-.466.503-.139a4.26 4.26 0 0 1-.032 1.935.261.261 0 0 1-.504-.139m-10.138 23.22c1.198.006 2.397-.005 3.594.019a.263.263 0 0 1 .176.441.26.26 0 0 1-.176.081c-1.197.017-2.396-.013-3.594-.019a.26.26 0 0 1-.218-.261c0-.062.022-.122.062-.169a.26.26 0 0 1 .156-.091zm5.944-27.017c.013.472.019 1.794-.02 2.868-.012.335-.537.336-.521 0 .033-.934.038-2.018.019-2.868a.262.262 0 0 1 .522 0"/><path fill="#fff" d="M73.645 91.987a1 1 0 0 0-.076-.02 87 87 0 0 0-9.361-.441c-.239-.03-.48.017-.69.135-.242.153-.485.306-.718.474-.886.63-2.448 1.919-1.953 2.883a1.56 1.56 0 0 0 1.274.64c2.225.265 4.613-1.277 7.855-2.194.147-.042 3.615-.972 3.656-.982a.26.26 0 0 0 .013-.495M100.28 53.587a11.6 11.6 0 0 0-3.933 2.341l-.01.02a.27.27 0 0 0-.057.234c.21.876.727 1.842 1.765 1.641 1.725-.326 1.909-2.542 2.532-3.853a.27.27 0 0 0-.025-.287.265.265 0 0 0-.272-.096"/><path fill="#FC9070" d="M93.856 129.758a105 105 0 0 0-3.595-.018.26.26 0 1 0 0 .522c1.198.024 2.397.037 3.595.019a.262.262 0 0 0 0-.523M100.435 104.863c.09.549.079 1.111-.033 1.656a.264.264 0 0 0 .187.305.263.263 0 0 0 .317-.166c.159-.633.17-1.295.032-1.934-.074-.328-.58-.189-.503.139M103.386 105.993q.051.724 0 1.446c-.031.334.491.332.522 0q.051-.722 0-1.446c-.02-.334-.54-.336-.522 0M95.664 105.59c-.012.336.51.336.522 0 .04-1.134.03-2.532.02-2.868a.261.261 0 0 0-.441-.176.26.26 0 0 0-.082.176q.03 1.435-.019 2.868"/><path fill="#FF4848" d="M71.374 84.07c-1.124-2.609-4.757-3.084-5.908.066a3.62 3.62 0 0 0 .806 3.978 3.35 3.35 0 0 0 4.617-.332 3.59 3.59 0 0 0 .485-3.712"/><path fill="#000" d="M72.699 79.182a1.15 1.15 0 0 0-.738-.24 5 5 0 0 0-.865.015q.373-.293.708-.63a1.25 1.25 0 0 0 .331-1.475 1.13 1.13 0 0 0-1.38-.342 4 4 0 0 0-.656.283 2.47 2.47 0 0 0 .259-1.524.69.69 0 0 0-.82-.537 1.32 1.32 0 0 0-.822.678 22.6 22.6 0 0 0-2.495 5.098.263.263 0 0 0 .185.322c.144.038 4.04-.178 4.722-.214.63-.032 1.54 0 1.745-.76a.69.69 0 0 0-.174-.674"/><path fill="#FFD2D2" d="M46.332 118.939v8.887a.26.26 0 1 0 .521 0v-8.887a.26.26 0 0 0-.26-.261.26.26 0 0 0-.261.261M115.117 118.741v9.085a.261.261 0 0 0 .522 0v-9.085a.26.26 0 0 0-.261-.261.26.26 0 0 0-.184.077.26.26 0 0 0-.077.184"/><path fill="#9E647B" d="M54.552 83.36c-1.386-.947-3.235-1.106-4.862-1.231-8.41-.645-16.979 2.915-23.46 8.57-1.904 1.66-4.476 4.748-5.862 4.404.492-1.227 1.786-3.642 2.152-4.301a6.857 6.857 0 0 0-9.354-9.297 6.9 6.9 0 0 0-2.686 2.7c-2.815 4.66-6.982 10.069-6.627 16.112.175 2.988 1.421 6.061 3.937 7.822a10.6 10.6 0 0 0 5.19 1.627 33.15 33.15 0 0 0 24.615-8.205 80 80 0 0 0 6.34-6.74c.59-.665 1.197-1.381 2.162-1.37a8.3 8.3 0 0 1 2.74.89 3.05 3.05 0 0 0 2.61-.017 1.656 1.656 0 0 0 .734-1.982 2.4 2.4 0 0 0-.71-.827 13.7 13.7 0 0 0-1.892-1.336c1.243.408 2.483.888 3.644.056a1.604 1.604 0 0 0 .449-2.148c-.469-.67-1.458-.894-2.18-1.151a33 33 0 0 0-1.688-.543 33 33 0 0 0 4.082-.282c1.653-.277 2.354-1.596.666-2.75m-9.58 6.3c-.33.063-.469-.44-.14-.503a4.8 4.8 0 0 1 1.759-.014c.33.058.19.561-.139.504a4.1 4.1 0 0 0-1.48.012m-.284-3.693a5.5 5.5 0 0 1 1.765-.14c.333.028.335.55 0 .522a5 5 0 0 0-1.623.121c-.33.078-.467-.423-.141-.503M7.18 103.282l1.851 2.531c.198.272-.255.532-.451.264l-1.85-2.532c-.199-.271.252-.532.45-.263"/><path fill="#77751E" d="M139.019 113.89c-.105-.573-2.839-24.072-2.85-24.15-.036-.33-.558-.334-.522 0 .376 3.444 2.818 24.056 2.895 24.431a7.2 7.2 0 0 0 1.995 3.542c1.641 1.863 8.647 10.295 8.647 10.295.217.257.584-.113.369-.369-1.068-1.272-8.917-10.613-9.267-11.034a5.9 5.9 0 0 1-1.267-2.715M129.042 127.955c.201.264.655 0 .451-.263l-7.82-10.281c-.614-.806-1.463-1.641-1.544-2.699a12 12 0 0 1 .019-1.658c.035-.578.644-13.806.797-16.393.02-.335-.502-.335-.522 0-.275 4.653-.786 16.261-.833 17.408a4 4 0 0 0 .231 1.54c.423.925-.019.152 9.221 12.346M106.65 118.672l-1.964 9.082c-.072.328.432.468.503.139l1.964-9.082c.071-.328-.432-.467-.503-.139M123.287 121.398l-1.251 6.356c-.065.328.438.468.503.139l1.251-6.356c.065-.328-.438-.469-.503-.139"/><path fill="#000" d="M22.894 73.09c-.417-.144-.497-.624-.467-1.01.069-.884 1.31-3.612.176-5.875a3.19 3.19 0 0 0-3.211-1.754c-.519.034-.668.191-1.151.016-.682-.247-1.27-.644-1.841-.188-.28.335-.42.765-.393 1.2a2.33 2.33 0 0 0-2.379 1.197 7.2 7.2 0 0 0-.805 2.713 4.56 4.56 0 0 0 .46 3.72c1.5 2.142 4.868.934 9.545.496a.264.264 0 0 0 .066-.516m-2.2-6.026a2.875 2.875 0 0 1 .52 3.439 2.8 2.8 0 0 1-4.335.706c-2.77-2.427 1.63-5.958 3.816-4.145"/><path fill="#FF4848" d="M136.744 81.844c.473-.913.824-1.884 1.045-2.888.072-.327-.431-.467-.503-.139a11.3 11.3 0 0 1-.992 2.763c-.154.298.296.562.45.264"/><path fill="#2755A0" d="M52.85 118.878c.204-5.831 5.352-10.621 10.643-8.653a9.59 9.59 0 0 1 5.711 6.351c1.173 3.683.812 7.581.947 11.247.012.336.537.337.522 0-.132-3.521.19-7.087-.715-10.536-1.91-7.274-8.722-9.992-13.405-6.541a10.16 10.16 0 0 0-4.102 6.836c-.456 3.474.207 6.641.782 10.311.052.331.555.19.503-.139-.534-3.427-.997-5.74-.887-8.876"/><path fill="#FF4848" d="M88.758 82.954h-2.916a.26.26 0 1 0 0 .522h2.916a.261.261 0 0 0 0-.522M114.209 86.15l-1.549.164c-.33.034-.333.557 0 .521l1.549-.164c.33-.035.334-.558 0-.522M114.563 90.475h-1.623a.26.26 0 0 0 0 .521h1.622a.26.26 0 0 0 0-.521z"/><path fill="#9E647B" d="M20.695 67.064c-1.765-1.464-5.064.584-4.662 2.724a2.83 2.83 0 0 0 3.074 2.133 2.75 2.75 0 0 0 2.107-1.419 2.876 2.876 0 0 0-.52-3.438"/><path fill="#000" d="M76.138 38.276V27.652a.26.26 0 0 0-.522 0v10.624a.26.26 0 0 0 .522 0M74.095 38.742a.261.261 0 1 0 .37-.369 176 176 0 0 0-4.138-4.136.261.261 0 0 0-.369.37zM77.302 38.854a155 155 0 0 0 3.85-3.86.261.261 0 0 0-.37-.369 157 157 0 0 0-3.85 3.86.261.261 0 0 0 .37.369"/><path fill="#FFC431" d="M35.678 57.557c-.582-.515-1.364-.337-2.119-.402a16.4 16.4 0 0 0 1.735 1.694.783.783 0 0 0 .384-1.292"/><path fill="#FFD500" d="M61.518 71.145c-.096-2.762-1.31-5.782-3.62-7.32-2.64-1.759-5.783-1.52-8.023-3.568C47.497 58.078 46.034 53.1 47.727 48c1.19-3.578 3.647-7.73 2-11.67a8.6 8.6 0 0 0-3.327-3.928 8.238 8.238 0 0 1-12.08 3.1 18 18 0 0 0-1.688 2.739l2.231-1.075c.302-.145.566.307.264.45-2.784 1.341-2.775 1.352-2.852 1.366a22 22 0 0 0-.686 1.673s1.439 2.415 1.95 3.346a.27.27 0 0 1-.226.393H30.58a18.2 18.2 0 0 0-.16 6.205 12.4 12.4 0 0 0 1.62 4.49 1.82 1.82 0 0 1 1.572-.96c.767-.057 2.12.268 2.505-.66.174-.422-.187-.804-.553-.956a3.3 3.3 0 0 0-1.34-.154c-.805.018-1.923.013-2.094-.997a1.68 1.68 0 0 1 .216-1.164c.806-1.12 2.446-.85 3.82-.68.328.04.33.565 0 .52a16 16 0 0 0-1.722-.141 2.4 2.4 0 0 0-1.364.298 1.06 1.06 0 0 0-.428 1.133c.262 1.084 2.618-.094 3.701 1.107a1.266 1.266 0 0 1-.562 2.016c-1.228.45-1.688-.065-2.811.356a.95.95 0 0 0-.517.942q.251.388.546.744c.74.338 1.165 0 2.466.355a1.24 1.24 0 0 1 .785 1.812 1.5 1.5 0 0 1-.53.54c6.258 4.79 13.416 5.141 19.777 7.597 5.294 2.044 4.032 7.048 4.282 11.885a.262.262 0 0 0 .513.07 21.5 21.5 0 0 0 1.217-7.607M36.932 48.48l-2.448-2.905c-.216-.256.153-.626.369-.37l2.448 2.908c.218.253-.153.624-.37.367m8.01-1.247c-.12.109.286.112-4.58.076a.264.264 0 0 1-.26-.26v-4.397a.265.265 0 0 1 .26-.26h4.396a.264.264 0 0 1 .261.26c.036 4.886.035 4.433-.076 4.58"/><path fill="#FFD2D2" d="M33.539 44.001c-.511-.931-5.423-9.315-5.658-9.711a.263.263 0 0 0-.362-.09c-.082.05.198-.587-5.746 9.801a.264.264 0 0 0 .224.393h11.316a.27.27 0 0 0 .226-.393"/><path fill="#FF4848" d="M44.758 42.393H40.36a.265.265 0 0 0-.26.26v4.397a.264.264 0 0 0 .26.261c4.811.035 4.46.032 4.581-.077.109-.145.112.371.077-4.58a.264.264 0 0 0-.261-.261"/><path fill="#2755A0" d="M41.815 20.946a8.264 8.264 0 1 0 4.334 11.918 8.26 8.26 0 0 0-4.334-11.918M35.475 56.854c-1.273-.35-1.719-.017-2.467-.354a.932.932 0 0 1-.03-1.688c1.112-.417 1.586.092 2.812-.356a1.266 1.266 0 0 0 .563-2.017c-1.075-1.19-3.443-.03-3.702-1.107a1.06 1.06 0 0 1 .428-1.133c.415-.232.89-.335 1.364-.298q.864.024 1.721.142c.332.045.33-.48 0-.521-1.374-.17-3.013-.44-3.819.68a1.68 1.68 0 0 0-.216 1.164c.172 1.009 1.29 1.014 2.095.998.452-.042.908.01 1.339.153.367.153.727.537.553.956-.383.928-1.74.603-2.505.66-2.26.17-2.193 2.867-.173 3.017.23.029.722.03.844.032a2.1 2.1 0 0 1 1.376.363.703.703 0 0 1 0 1.056c-.237.227-.55.355-.878.361a12.6 12.6 0 0 1-2.602.007c-.334-.036-.332.487 0 .522.787.081 1.58.087 2.368.017 2.175-.068 2.436-2.157.929-2.654"/><path fill="#000" d="M7.741 71.816a.26.26 0 0 0 .262-.26 10.07 10.07 0 0 1 .955-5.799c.15-.3-.3-.564-.45-.263a10.6 10.6 0 0 0-1.027 6.061.27.27 0 0 0 .26.261M5.83 71.757a.26.26 0 0 0 .261-.26 10.07 10.07 0 0 1 .956-5.798c.149-.3-.3-.564-.45-.263a10.6 10.6 0 0 0-1.028 6.06.267.267 0 0 0 .261.261M92.808 96.257a.262.262 0 0 0 .503-.139 274 274 0 0 0-1.444-5.217.26.26 0 1 0-.504.139c.292 1.132 1.422 5.14 1.445 5.217M94.51 96.86l2.9-5.724c.154-.3-.298-.564-.45-.264l-2.9 5.725c-.152.299.299.564.45.264M95.447 97.24c-.315.112-.179.613.139.503l4.061-1.443c.315-.112.179-.614-.139-.503zM27.198 32.487q-.272-1.414-.547-2.83c-.064-.329-.567-.19-.503.14l.548 2.828c.063.33.566.19.502-.138M19.608 38.646c.825.247 1.652.488 2.485.705a.261.261 0 0 0 .139-.503 72 72 0 0 0-2.485-.705.261.261 0 0 0-.139.503M18.746 48.48l2.072-1.623c.264-.206-.108-.573-.369-.368l-2.071 1.622c-.265.207.106.574.368.37M28.954 49.226l-.483-2.6c-.06-.33-.564-.191-.502.138l.482 2.6c.06.33.564.19.503-.139M35.127 37.617c.302-.146.037-.596-.265-.45l-2.815 1.355c-.29.14-.058.553.23.46.075-.014-.084.047 2.85-1.365M46.592 89.143a4.8 4.8 0 0 0-1.759.014c-.329.063-.19.566.139.503.489-.094.99-.099 1.48-.013.33.057.47-.445.14-.504M44.828 86.47a5 5 0 0 1 1.623-.12c.335.029.333-.494 0-.522a5.5 5.5 0 0 0-1.765.14c-.323.08-.185.58.142.503M7.181 103.282c-.196-.269-.649-.009-.45.263l1.85 2.532c.196.268.649.008.45-.263z"/><path fill="#77751E" d="M123.536 113.929v-2.609a.26.26 0 0 0-.077-.184.26.26 0 0 0-.445.184v2.609a.263.263 0 0 0 .261.261.26.26 0 0 0 .184-.077.26.26 0 0 0 .077-.184"/><path fill="#000" d="M34.853 45.204c-.218-.257-.585.114-.37.37l2.448 2.907c.217.256.584-.114.37-.37zM16.25 116.378l-7.148 11.314c-.18.285.271.546.45.263l7.148-11.314c.18-.284-.272-.546-.45-.263M36.976 127.826c-.076-2.462-.333-10.256-.367-11.313-.012-.335-.537-.337-.523 0l.369 11.313c.01.333.532.334.521 0M97.384 52.192a3.02 3.02 0 0 0 1.984-2.05c.639-2.302-2.003-4.026-3.997-2.738a2.84 2.84 0 0 0-1.174 3.215 2.497 2.497 0 0 0 3.187 1.573m-2.573-1.442a2.3 2.3 0 0 1 .625-2.745 2.196 2.196 0 0 1 2.691-.108c1.417 1.005.871 3.175-.848 3.78a2.02 2.02 0 0 1-2.468-.927M64.47 50.523c-1.064-.071-2.129-.132-3.196-.117a.261.261 0 0 0 0 .521q1.6.012 3.197.118c.335.022.334-.5 0-.522M70.562 48.918l-2.85-1.186c-.308-.13-.446.376-.14.503l2.85 1.186c.31.129.446-.376.14-.503"/><path fill="#000" d="M36.479 114.623a22 22 0 0 0-3.384-1.395 29.5 29.5 0 0 0 7.315-.91v15.508a.26.26 0 1 0 .522 0v-15.652a17.2 17.2 0 0 0 4.497-2.002c.703 5.352.728 5.864 1.002 7.636l.01.072a.27.27 0 0 0 .261.261h2.828a19.3 19.3 0 0 0 3.087 5.809c.166 1.175.384 2.45.618 3.945.051.33.554.19.502-.139-.16-1.025-.333-2.055-.487-3.087a17.5 17.5 0 0 0 7.296 4.36 24.1 24.1 0 0 0-6.99 2.24.265.265 0 0 0-.062.395.26.26 0 0 0 .124.082 70.3 70.3 0 0 0 20.4.898.27.27 0 0 0 .231-.228.27.27 0 0 0-.164-.281 25 25 0 0 0-2.673-1.324c3.653.215 7.318.021 10.927-.577q.67.497 1.408.888c1.072.522 2.202.917 3.366 1.178 5.537 1.402 12.003.825 15.115-3.871a20.6 20.6 0 0 0 2.576-6.68 45 45 0 0 0 .728-3.606h9.844a.27.27 0 0 0 .184-.077.26.26 0 0 0 .076-.184l-3.03-23.077c1.618.2 3.198.75 4.807.985 11.823 1.8 21.682-7.179 23.298-19.327.322-1.986.334-4.011.036-6.002a13.3 13.3 0 0 0-2.141-5.147c-2.729-4.07-6.575-5.984-11.228-7.734a1.7 1.7 0 0 0-.187-1.013c-.566-1.024-1.846-.877-2.501-1.883-.214-.342-.356-.723-.548-1.074-.801-1.473-2.538-1.755-4.067-1.695a11.4 11.4 0 0 1-2.936-.024 1.26 1.26 0 0 1-.862-.57c-.48-.925-.176-1.962-.759-2.924a3.27 3.27 0 0 0-1.654-1.33c-1.745-.67-3.581-.132-5.376-.282a1.9 1.9 0 0 1-1.643-1.117c-.647-1.228-.636-2.502-1.991-3.376-2.19-1.235-4.68.153-6.718.881-2.757.99-3.647-.422-5.268-.225a3.43 3.43 0 0 0-2.031 1.187 4.09 4.09 0 0 0-1.025 4.373c.85 1.597 1.672 1.726 2.26 3.17.437 1.41-1.233 2.613-.733 4.014.52 1.462 2.406 1.366 3.595 1.825a12.6 12.6 0 0 0-2.32 5.362c-.724 2.34-1.132 3.475-2.198 4.92a5.55 5.55 0 0 1-2.161 1.793 3.7 3.7 0 0 1-4.279-1.599c-2.085-3.529 1.074-19.293-1.611-25.607-1.03-2.465-4.743-1.73-5.641.951a24.7 24.7 0 0 0-.571 5.103c-2.839-2.51-5.405-4.627-8.35-6.12-1.084-.558-3.319-1.572-4.018.068a2.69 2.69 0 0 0 .488 2.388q.677 1.005 1.482 1.909a16.3 16.3 0 0 0-6.091-1.34 4.35 4.35 0 0 0-2.656.75 2.09 2.09 0 0 0-.429 2.697 3.8 3.8 0 0 0 2.2 1.624 5.8 5.8 0 0 0-3.114 1.39 1.97 1.97 0 0 0-.613 2.002 2.53 2.53 0 0 0 1.496 1.512 7.4 7.4 0 0 0 2.273.407c2.641.193 7.3.112 9.982.022.153 5.634.443 12.56 2.281 18.086h-9.667c.103-.891.138-1.79.103-2.686-.083-2.685-1.282-5.765-3.62-7.321-2.585-1.721-5.845-1.574-8.022-3.568-2.434-2.225-3.82-7.325-2.148-12.256 1.16-3.562 3.651-7.673 2-11.67a8.63 8.63 0 0 0-3.328-3.928 8.447 8.447 0 1 0-.252.46 7.53 7.53 0 0 1 3.598 6.723c-.187 4.028-3.066 7.531-3.272 12.238a13.37 13.37 0 0 0 1.259 6.355c2.216 4.72 6.422 3.977 9.59 5.9 2.415 1.574 3.536 4.18 3.67 7.069a19.6 19.6 0 0 1-.731 5.9c.01-2.992.357-6.207-1.59-8.648-1.272-1.597-3.295-2.257-5.172-2.84-5.815-1.814-12.38-2.787-17.376-6.702a1.238 1.238 0 0 0-.653-2.002 5.3 5.3 0 0 0-1.65-.181 13.6 13.6 0 0 1-1.176-1.58.9.9 0 0 1 .33-.28c1.105-.414 1.597.089 2.811-.355a1.266 1.266 0 0 0 .562-2.017c-1.085-1.203-3.452-.021-3.7-1.107a1.05 1.05 0 0 1 .427-1.133c.415-.232.89-.335 1.364-.298q.864.018 1.72.143c.334.04.33-.482 0-.523a6.9 6.9 0 0 0-2.86-.004 1.6 1.6 0 0 0-1.174 1.849c.153 1.011 1.289 1.014 2.095.998a3.3 3.3 0 0 1 1.339.153c.367.153.728.537.552.956-.383.928-1.741.592-2.504.66a2.12 2.12 0 0 0-1.242.5c-1.797-3.127-1.921-6.763-1.265-10.234h2.21a.27.27 0 0 0 .254-.284c-.008-.154-.975-1.734-1.634-2.864q.458-1.342 1.085-2.615l2.108-1.015c.302-.145.038-.596-.264-.45l-1.443.694q.595-1.092 1.34-2.089a9 9 0 0 1-.439-.282 18 18 0 0 0-1.688 2.74l-.584.28c-.29.14-.056.554.23.46a23 23 0 0 0-.69 1.675l-3.708-6.368c-.092-.154-.318-.21-.5.059-.296.44-1.367 2.24-5.608 9.652a.264.264 0 0 0 .225.393h8.584a18.6 18.6 0 0 0-.161 6.204 12.6 12.6 0 0 0 1.62 4.494c-.378.848.096 1.945 1.518 2.066a16.4 16.4 0 0 0 1.738 1.693 9.8 9.8 0 0 1-3.112.118c-.333-.035-.331.487 0 .522.787.08 1.58.087 2.368.017a2.8 2.8 0 0 0 1.182-.301c6.34 4.853 13.524 5.14 19.777 7.595a5.9 5.9 0 0 1 3.797 3.897c.294 1.02.446 2.074.453 3.135H40.952a.26.26 0 0 0-.26.26l1.129 8.602q-.446.093-.89.201v-4.29a.26.26 0 0 0-.521 0v4.428c-1.394.369-2.761.83-4.093 1.38-1.31-2.726-2.68-5.6-5.294-7.558a11.84 11.84 0 0 0-7.342-2.174c-1.666.01-3.311.38-4.823 1.081a17.5 17.5 0 0 0-6.198 5.031 15.5 15.5 0 0 0-2.177 3.414C7.4 89.17 3.518 94.515 3.857 100.319c.173 2.988 1.42 6.062 3.935 7.822a10.6 10.6 0 0 0 5.19 1.627c2.352.21 4.72.15 7.059-.18a14.7 14.7 0 0 0 5.081 2.625c-2.77.135-5.489.796-8.012 1.948-.247.114-.108.481.132.487l19.105.46a.26.26 0 0 0 .248-.193.26.26 0 0 0-.117-.292m7.456-79.926a7.743 7.743 0 1 1 1.05-10.9 7.776 7.776 0 0 1-1.05 10.9M22.45 43.872l5.204-8.932 5.204 8.932zm13.284 14.636-.015.017a16 16 0 0 1-1.437-1.348c.487-.041.974.089 1.375.368a.685.685 0 0 1 .077.963M73.121 132.2a70 70 0 0 1-18.568-.821 22 22 0 0 1 7.233-1.97 38 38 0 0 0 6.88 1.21c1.262.116.926.029 1.445.23q1.546.583 3.01 1.351m2.503-1.871c-7.66.127-17.493-.739-22.503-6.593a26.6 26.6 0 0 1-.27-4.861 9.94 9.94 0 0 1 3.199-7.058c4.434-4.127 11.168-1.662 13.155 4.757 1.188 3.637.811 7.481.946 11.248.014.335.538.337.523 0-.132-3.522.19-7.088-.716-10.536-1.972-7.514-8.9-9.89-13.404-6.542a10.26 10.26 0 0 0-4.102 6.836c-.21 1.781-.2 3.58.034 5.358-2.483-3.423-3.99-9.268-4.373-13.478-.375-4.121-.23-8.707 2.568-12.023 2.932-3.472 7.538-5.008 12.106-5.321q-.389.273-.75.58c-.502.377-.912.861-1.2 1.418a.98.98 0 0 0 .411 1.327c2.155.988 4.947-.859 9.173-2.1.397-.112 2.575-.698 3.093-.83.998-.148 7.735 1.293 11.904 3.482a7.93 7.93 0 0 0-8.465 3.295A12.2 12.2 0 0 0 75 104.122a16 16 0 0 0-.146 2.199c-.19 5.034.071 10.215 1.63 15.039a17.8 17.8 0 0 0 5.32 8.45 38 38 0 0 1-6.18.521zM63.711 92.155a.56.56 0 0 1 .37-.103c2.641-.044 5.282.06 7.911.311-5.387 1.367-6.901 2.701-9.171 2.802a2.57 2.57 0 0 1-1.332-.215.36.36 0 0 1-.213-.337c.063-.356.245-.68.515-.92a9 9 0 0 1 1.92-1.538m41.189 26.628a40.4 40.4 0 0 1-1.852 6.97c-2.068 5.619-7.341 7.289-13.208 6.541a21.3 21.3 0 0 1-5.552-1.485c-2.963-1.426-5.064-4.229-6.406-7.234-1.902-4.246-2.479-9.028-2.553-13.638-.033-2.083.068-4.555.126-5.294a11 11 0 0 1 .979-3.396c1.217-2.757 3.512-4.724 6.51-4.876a6.17 6.17 0 0 1 6.852 4.023c.745 1.764.712 2.851 1.02 6.611.005.077.886 10.947.912 11.024.009.064.041.123.091.165a.259.259 0 0 0 .422-.192c.71-4.983.984-10.019.817-15.05a18 18 0 0 1-.047-1.896 1.67 1.67 0 0 1 .633-1.375.89.89 0 0 1 1.169.076c.349.439.574.962.652 1.517.26 1.422.327 2.873.2 4.313-.012.336.51.335.522 0q.044-1.296.022-2.594c1.008-1.68 3.6-1.474 3.963.43.023.174.212.353.393.225a1.7 1.7 0 0 1 1.096-.396c.301.039.576.189.773.42a3.3 3.3 0 0 1 .763 1.771.26.26 0 0 0 .122.157.26.26 0 0 0 .198.026 1.045 1.045 0 0 1 1.19.556c.237.483.383 1.006.43 1.543a33.1 33.1 0 0 1-.237 11.058m27.369-58.43c4.821 2.541 8.304 7.255 8.178 12.866-.138 13.938-11.309 25.145-25.222 21.591-4.668-1.251-5.167-.217-8.53 0a5 5 0 0 1-1.381-.153 2.3 2.3 0 0 1-.98-.497.76.76 0 0 1-.077-.959c.46-.646 1.116-.705 2.345-.965l4.541-.96c.334-.07.185-.551-.139-.502-1.836.279-3.695.384-5.552.313a7 7 0 0 1-1.57-.17 1.26 1.26 0 0 1-.988-.984c-.03-.445.332-.719.699-.874a52.6 52.6 0 0 1 7.298-1.958.27.27 0 0 0 .143-.11.265.265 0 0 0-.046-.335.26.26 0 0 0-.167-.068l-5.831.46a5 5 0 0 1-1.688 0c-.439-.12-.913-.517-.718-1.022.22-.377.573-.657.99-.784 5.389-2.298 11.319-.966 16.875-2.404a8.52 8.52 0 0 0 5.282-3.468 5.16 5.16 0 0 0 .834-2.74 7.5 7.5 0 0 0-2.268-5.163c-1.508-1.399-5.107-2.925-7.075-3.521-2.36-.69-3.709-.537-5.802-1.429a6.27 6.27 0 0 1 .894-11.573 6.54 6.54 0 0 1 3.81-.022c5.535 1.276 11.105 2.694 16.145 5.43m-39.226-3.877a1.73 1.73 0 0 1-1.201-.926 2.7 2.7 0 0 1 .444-1.933c.338-.61.45-1.322.312-2.006-.342-1.268-1.578-2.018-2.207-3.12-.783-1.375-.109-3.04.91-4.092a2.62 2.62 0 0 1 2.087-.945c.859.077 1.643.502 2.507.576 1.771.154 3.35-.81 4.972-1.35 1.228-.406 2.861-.654 3.956.215 1.028.817 1.051 2.29 1.747 3.33a2.34 2.34 0 0 0 1.704 1.052c.948.088 1.904.077 2.85-.031 1.408-.067 3.268.086 4.001 1.515.584 1.137.043 2.885 1.479 3.5a6.04 6.04 0 0 0 2.672.214 9 9 0 0 1 2.512.071c.72.123 1.362.526 1.786 1.12.403.635.579 1.4 1.197 1.88.716.554 2.129.69 2.091 1.84-5.473-1.994-11.068-2.997-13.066-3.542-3.845-1.05-8.552-1.507-12.156-.654a11.6 11.6 0 0 0-6.368 3.89 20 20 0 0 0-2.229-.604m6.83-2.16c-.211.566-.377 1.15-.625 1.7a2.03 2.03 0 0 1-1.342 1.305c-.645.106-.937-.584-1.08-1.113a10.9 10.9 0 0 1 3.049-1.892zm-6.787 8.889a11.8 11.8 0 0 1 3.285-6.56c.12.435.395.81.774 1.055a1.61 1.61 0 0 0 1.658-.188c1.105-.833 1.218-2.32 1.796-3.478 3.836-1.285 8.683-.798 12.555.183a6.788 6.788 0 0 0-4.58 10.454 6.8 6.8 0 0 0 3.528 2.69c1.508.448 3.412.549 5.819 1.36a26.5 26.5 0 0 1 5.045 2.385c2.39 1.503 3.793 4.874 2.659 7.36-2.509 5.501-11.402 4.211-17.542 5.063-7.391-7.38-9.609-9.398-12.817-13.708a12.6 12.6 0 0 1-2.007-3.836 6.5 6.5 0 0 1-.17-2.78zm-23.772-7.726a.26.26 0 0 0-.26-.26c-2.88.032-7.706.235-10.76-.06a3.84 3.84 0 0 1-2.203-.71 1.43 1.43 0 0 1-.397-1.855 3.54 3.54 0 0 1 1.905-1.34 13 13 0 0 1 2.402-.508c.265-.038.23-.441 0-.503a4.95 4.95 0 0 1-2.769-1.404 1.643 1.643 0 0 1 .142-2.372 3.8 3.8 0 0 1 2.356-.598c2.438.06 4.828.693 6.975 1.848a.262.262 0 0 0 .316-.41 25 25 0 0 1-2.11-2.539 2.9 2.9 0 0 1-.714-1.918c.094-.726.814-.92 1.43-.807a6.6 6.6 0 0 1 2.136.834 33.7 33.7 0 0 1 6.547 4.65q.907.767 1.798 1.556a9.3 9.3 0 0 0-1.263 1.73 7.6 7.6 0 0 0-5.51.252c-.308.136-.042.586.263.45a7.04 7.04 0 0 1 5.298-.137.26.26 0 0 0 .296-.118 9 9 0 0 1 1.376-1.906.7.7 0 0 0 .099-.356c.01-1.618.139-3.234.388-4.833a3.7 3.7 0 0 1 .68-1.57 2.737 2.737 0 0 1 3.529-.843c.331.27.58.627.72 1.031 2.5 6.556-.668 21.721 1.549 25.474a4.04 4.04 0 0 0 6.514.738 9.55 9.55 0 0 0 2.479-4.166 9.86 9.86 0 0 0 1.705 4.394 55 55 0 0 0 6.801 7.98 29 29 0 0 1-3.337 3.76 14.8 14.8 0 0 1-3.905 2.762c-6.445 2.712-13.972.264-19.053-4.814a12.73 12.73 0 0 1-3.452-6.19c-1.569-5.538-1.817-11.392-1.97-17.242M41.256 74.356H59.77c.011 1.43-.067 2.583.023 4.332a.262.262 0 0 0 .512.07 25 25 0 0 0 1.048-4.402h9.915a12.3 12.3 0 0 0 2.018 3.722c4.211 5.222 12.16 8.763 19.306 6.623 3.65-1.094 6.503-4.1 8.804-7.136 2 2.03 4.025 4.038 6.043 6.052-1.344.22-2.66.586-3.926 1.088-.78.327-1.796.957-1.417 1.964.431 1.146 1.883.983 2.849.906l2.367-.187s-.236.053-.528.132c-.661.18-1.315.388-1.974.577q-.828.225-1.612.572a1.41 1.41 0 0 0-.815 1.063 1.488 1.488 0 0 0 .684 1.369c.469.29 1.008.449 1.56.46.831.067 1.578.069 2.36.057q-1.079.177-2.122.504a1.634 1.634 0 0 0-1.21 1.898c.241.774 1.197 1.097 1.912 1.228 2.127.383 4.156-.672 6.514-.506 2.658 20.25 2.97 22.696 2.992 22.873h-9.459a31.1 31.1 0 0 0-.146-10.912 1.85 1.85 0 0 0-1.81-1.638c-.283-1.66-1.627-2.929-3.06-2.055a2.64 2.64 0 0 0-2.007-1.645 2.64 2.64 0 0 0-2.443.873 5.8 5.8 0 0 0-.695-2.492 1.46 1.46 0 0 0-1.21-.769 1.68 1.68 0 0 0-1.457.9c-.518 1.194-.262 1.96-.214 4.233a84 84 0 0 1-.533 11.397c-.14-1.707-.904-11.437-1.056-12.652-.513-4.532-3.475-6.704-7.692-8.39-5.93-2.343-9.606-2.629-15.548-2.886-5.572-.241-10.802.128-15.427 3.6-3.59 2.68-4.78 6.297-4.86 10.741a34 34 0 0 0 1.893 11.695h-2.42l-2.993-22.797c.59-.665 1.197-1.381 2.163-1.37a8.3 8.3 0 0 1 2.74.89 3.05 3.05 0 0 0 2.609-.017 1.655 1.655 0 0 0 .735-1.982 2.4 2.4 0 0 0-.71-.827 13.6 13.6 0 0 0-1.892-1.336c1.243.408 2.482.888 3.644.056a1.604 1.604 0 0 0 .449-2.148c-.47-.67-1.458-.894-2.18-1.151a34 34 0 0 0-1.687-.543 33 33 0 0 0 4.082-.282c1.652-.278 2.365-1.595.67-2.752-1.385-.947-3.235-1.106-4.862-1.232a27 27 0 0 0-7.361.46c-.144-1.034-1.061-8.092-1.08-8.228m-15.399.99c.354.011.703.091 1.026.235q.465.305.85.707c1.282 1.316.885 2.338.097 2.584l.068-.02a2.2 2.2 0 0 1-1.11.021c-1.813-.41-2.839-2.553-4.747-3.53 1.265-.19 2.551-.19 3.816.002m-5.689.46q.475-.167.968-.273.24.055.453.18c1.831.86 2.809 2.936 4.764 3.59 2.365.791 3.864-1.262 1.784-3.386 4.143 1.458 5.892 4.971 7.71 8.696A36.9 36.9 0 0 0 26.23 90.7c-1.841 1.603-4.47 4.75-5.861 4.404.49-1.222 1.699-3.493 2.152-4.301a6.855 6.855 0 0 0-10.135-8.785c2.482-3.442 5.292-5.368 7.782-6.212m-4.012 33.554a21.3 21.3 0 0 1-5.306-.461c-5.166-1.155-8.6-7.493-4.957-15.743a60 60 0 0 1 4.2-7.334q.658-1.166 1.437-2.255a6.339 6.339 0 0 1 10.542 6.97c-.423.754-.808 1.53-1.211 2.294q-.615 1.142-1.074 2.354a.26.26 0 0 0 .12.295c.89.5 1.954-.181 2.661-.707 3.044-2.409 4.143-4.708 10.225-8.07 5.785-3.284 12.596-4.886 19.104-3.779.827.118 1.62.405 2.33.844.311.197.718.484.773.88a.68.68 0 0 1-.377.656 4.84 4.84 0 0 1-2.208.438c-2.315.176-3.8.153-4.492.164a.262.262 0 0 0-.07.513c1.723.394 3.407.944 5.03 1.642a1.033 1.033 0 0 1 .051 1.745 2.57 2.57 0 0 1-2.286.185 9.7 9.7 0 0 0-2.873-.69c-.236.006-.384.378-.131.486a13.9 13.9 0 0 1 3.53 2.161c.284.19.493.472.59.799a1.15 1.15 0 0 1-.43 1.025c-1.78 1.347-4.152-1.723-6.369-.575a7.5 7.5 0 0 0-1.902 1.826c-1.3 1.458-2.573 2.94-3.934 4.342a32.54 32.54 0 0 1-22.972 9.994zm4.604.121a33.6 33.6 0 0 0 7.874-2.258c5.504-2.329 9.393-5.632 13.15-9.981.565-.636 1.127-1.273 1.694-1.908L45.35 109.6a18.8 18.8 0 0 1-7.343 2.705 33 33 0 0 1-9.728.097 17 17 0 0 1-7.517-2.922zm-2.298 4.675a21.45 21.45 0 0 1 8.641-1.436c1.246.245 2.507.4 3.775.465 1.466.298 2.894.759 4.257 1.374z"/><path fill="#000" d="M93.857 129.758c-1.199-.006-2.397-.037-3.595-.018a.26.26 0 1 0 0 .522c1.198.006 2.396.036 3.594.019a.262.262 0 0 0 0-.523M100.436 104.863c.09.549.079 1.111-.032 1.656a.26.26 0 0 0 .186.305.26.26 0 0 0 .317-.166 4.3 4.3 0 0 0 .032-1.934c-.076-.328-.58-.189-.503.139M103.386 105.993q.051.724 0 1.446c-.03.334.491.332.522 0q.051-.722 0-1.446c-.02-.335-.539-.336-.522 0M66.273 88.114a3.366 3.366 0 0 0 4.617-.332 3.595 3.595 0 0 0-2.64-5.845c-2.847.03-4.097 4.343-1.977 6.177m1.493-5.597c2.338-.501 4.187 2.243 3.058 4.459a2.823 2.823 0 0 1-4.182.767c-1.621-1.342-1.033-4.764 1.124-5.226M66.475 80.838c.94-.043 4.044-.192 4.656-.222.629-.034 1.549 0 1.745-.761a.68.68 0 0 0-.176-.672 1.15 1.15 0 0 0-.738-.24 5 5 0 0 0-.865.015q.373-.293.708-.63a1.25 1.25 0 0 0 .332-1.475 1.136 1.136 0 0 0-1.382-.341q-.34.111-.655.283a2.47 2.47 0 0 0 .259-1.526.694.694 0 0 0-.82-.538 1.32 1.32 0 0 0-.822.679 23 23 0 0 0-2.495 5.098.263.263 0 0 0 .253.33m2.694-5.165c.113-.172.267-.43.5-.434.273-.006.203.414.18.584a4.7 4.7 0 0 1-.698 1.647.263.263 0 0 0 .105.356c.313.17.347-.307 1.485-.757.29-.11.87-.284.985.146.116.43-.29.763-.57.998-.407.34-.82.676-1.228 1.013-.207.17.015.507.253.436a5 5 0 0 1 1.534-.21c.164 0 .481-.025.614.099.148.139-.047.349-.175.411a2 2 0 0 1-.767.116l-4.527.218a21 21 0 0 1 2.309-4.623M46.855 127.826v-8.887a.26.26 0 0 0-.522 0v8.887a.26.26 0 1 0 .522 0M115.37 118.49a.26.26 0 0 0-.252.251v9.085a.26.26 0 0 0 .445.185.26.26 0 0 0 .077-.185v-9.085a.268.268 0 0 0-.083-.182.27.27 0 0 0-.187-.069M140.284 116.605a5.9 5.9 0 0 1-1.265-2.715c-.105-.577-2.839-24.07-2.849-24.15-.037-.33-.559-.334-.522 0 .376 3.444 2.818 24.056 2.896 24.431a7.2 7.2 0 0 0 1.994 3.542c1.641 1.863 8.648 10.295 8.648 10.295.216.257.583-.113.369-.369-.147-.171-8.92-10.613-9.271-11.034M129.493 127.692c-.213-.278-7.429-9.767-7.821-10.281-.613-.807-1.462-1.641-1.543-2.699a12 12 0 0 1 .019-1.658c.034-.578.781-16.13.797-16.393.019-.335-.503-.335-.523 0-.274 4.652-.785 16.261-.832 17.408a3.78 3.78 0 0 0 1.011 2.789c1.361 1.719 8.44 11.099 8.44 11.099.202.262.655.002.452-.265M106.651 118.672l-1.964 9.082c-.071.328.432.468.503.139l1.964-9.082c.072-.328-.432-.467-.503-.139M122.541 127.893l1.25-6.356c.065-.328-.438-.469-.503-.139l-1.251 6.356c-.065.329.438.469.504.139M22.604 66.205a3.19 3.19 0 0 0-3.21-1.755c-.515.03-.662.195-1.156.016-.686-.248-1.27-.642-1.842-.188-.279.336-.42.765-.393 1.201a2.31 2.31 0 0 0-2.378 1.196 7.2 7.2 0 0 0-.806 2.713 4.57 4.57 0 0 0 .46 3.72c1.5 2.142 4.869.935 9.546.496a.263.263 0 0 0 .066-.514c-.417-.143-.497-.623-.467-1.008.071-.873 1.317-3.637.18-5.877m-.412 4.556a4.9 4.9 0 0 0-.28 1.64c.02.269.109.528.257.753-2.407.27-3.541.543-5.898.67a3.48 3.48 0 0 1-2.108-.544c-1.047-.798-1.101-2.25-.89-3.432.1-.834.292-1.655.572-2.447.161-.438.442-.822.81-1.11a2.02 2.02 0 0 1 1.534-.27.266.266 0 0 0 .323-.192c.026-.108-.082-1.317.482-1.238q.604.154 1.177.402c.38.072.772.066 1.15-.017a2.74 2.74 0 0 1 2.951 1.749c.4 1.32.373 2.733-.08 4.036M136.745 81.843c.473-.912.824-1.883 1.045-2.887.072-.328-.432-.467-.504-.139-.208.96-.542 1.89-.992 2.762-.153.299.296.563.451.264M85.844 83.478h2.915a.261.261 0 0 0 0-.521h-2.915a.26.26 0 1 0 0 .521M114.21 86.15l-1.549.164c-.331.034-.334.557 0 .521l1.549-.164c.33-.035.334-.558 0-.522M114.565 90.474h-1.623a.26.26 0 1 0 0 .522h1.622a.26.26 0 0 0 0-.522z"/><path fill="#000" d="M20.696 67.064c-1.396-1.157-3.693-.123-4.433 1.332a2.25 2.25 0 0 0 .614 2.813 2.8 2.8 0 0 0 4.336-.707 2.876 2.876 0 0 0-.517-3.438m.336 2.349a2.29 2.29 0 0 1-1.593 1.918c-1.59.455-3.287-.886-2.82-2.447a2.8 2.8 0 0 1 1.43-1.479 2.4 2.4 0 0 1 1.944-.169 2.12 2.12 0 0 1 1.04 2.177M75.617 27.652v10.624a.261.261 0 0 0 .522 0V27.652a.261.261 0 0 0-.522 0M70.329 34.237a.261.261 0 0 0-.37.369l4.138 4.136a.26.26 0 0 0 .368-.369 179 179 0 0 0-4.136-4.136M80.783 34.625a162 162 0 0 0-3.85 3.86.261.261 0 1 0 .37.369l3.849-3.86a.261.261 0 0 0-.37-.369M44.52 47.324c.442-.012.5-.023.512-.48.013-.459.006-1.544-.012-4.19a.263.263 0 0 0-.26-.261h-4.397a.266.266 0 0 0-.261.26v4.397a.264.264 0 0 0 .26.261c2.584.019 3.68.03 4.159.013m-3.896-4.41h3.878v3.875h-3.875zM8.508 65.497a10.57 10.57 0 0 0-1.026 6.061.27.27 0 0 0 .26.261.26.26 0 0 0 .26-.26c-.252-1.986.08-4 .957-5.8.15-.298-.3-.563-.45-.262M6.599 65.436a10.57 10.57 0 0 0-1.027 6.06.267.267 0 0 0 .26.261.26.26 0 0 0 .261-.26c-.253-1.985.08-4 .956-5.798.15-.3-.297-.564-.45-.263M92.81 96.257a.261.261 0 0 0 .502-.139c-.295-1.144-1.42-5.14-1.444-5.217a.261.261 0 0 0-.503.138c.393 1.532 1.382 5.005 1.445 5.218M94.512 96.86c.844-1.67 2.779-5.486 2.899-5.724.153-.3-.298-.564-.45-.264-.844 1.67-2.78 5.487-2.9 5.725-.152.299.299.564.45.264M95.583 97.743l4.062-1.443c.313-.112.178-.614-.14-.503l-4.06 1.442c-.314.112-.18.617.138.504M26.148 29.796l.548 2.829c.063.33.566.19.502-.138q-.272-1.414-.547-2.83c-.064-.33-.564-.19-.503.139M22.409 39.157a.26.26 0 0 0-.176-.306c-.828-.236-1.652-.488-2.485-.706a.261.261 0 0 0-.139.503c.828.235 1.652.489 2.485.706a.26.26 0 0 0 .314-.197M20.45 46.489 18.38 48.11c-.264.208.107.574.369.37l2.071-1.624c.264-.207-.108-.574-.369-.368M28.955 49.226l-.482-2.6c-.062-.33-.564-.191-.503.138l.482 2.6c.061.33.565.19.503-.139M44.834 89.156c-.33.063-.19.566.138.503.49-.095.991-.1 1.481-.013.329.057.47-.445.14-.504a4.8 4.8 0 0 0-1.76.014M44.83 86.47a5 5 0 0 1 1.623-.12c.334.029.332-.494 0-.522a5.5 5.5 0 0 0-1.765.14c-.324.078-.185.58.141.503M7.181 103.282c-.196-.269-.649-.009-.45.263l1.85 2.532c.196.268.649.008.451-.263zM123.536 113.929v-2.609a.26.26 0 0 0-.261-.261.26.26 0 0 0-.26.261v2.609a.26.26 0 0 0 .26.261.26.26 0 0 0 .261-.261M34.484 45.576l2.448 2.907c.216.257.584-.114.369-.37l-2.449-2.906c-.216-.26-.583.11-.368.369"/></svg>