<svg xmlns="http://www.w3.org/2000/svg" width="154" height="154" fill="none"><path fill="#78B5FF" d="M127.837 53.896H96.199a.293.293 0 0 0-.29.29v23.667a.295.295 0 0 0 .29.29h31.638a.294.294 0 0 0 .29-.29c.144-18.43.101-22.612.017-23.57-.008-.102-.012-.392-.307-.388M99.254 75.24q-.658.428-1.272.916c-.289.23-.7-.177-.41-.41q.671-.537 1.389-1.007c.314-.205.603.298.293.5m-.355-17.815q-.77-.71-1.457-1.5c-.244-.28.164-.69.41-.41q.686.791 1.457 1.5c.272.252-.139.661-.41.41m18.96 10.413H106.35a.29.29 0 0 1-.205-.495.3.3 0 0 1 .205-.085h11.509a.29.29 0 0 1 .29.29.289.289 0 0 1-.29.29m-11.352-2.512h11.267a.29.29 0 0 1 .195.49.3.3 0 0 1-.195.09h-11.271a.29.29 0 0 1-.195-.49.3.3 0 0 1 .195-.09zm11.352-1.594h-11.355a.29.29 0 0 1 0-.58h11.351a.29.29 0 0 1 0 .58zm6.459-6.53 1.743-1.639c.272-.255.682.154.41.41l-1.743 1.639c-.279.255-.686-.154-.414-.41zm1.99 18.882-1.458-1.32c-.276-.252.135-.66.41-.41l1.458 1.32c.273.252-.138.66-.414.41zM139.157 54.186a.292.292 0 0 0-.29-.29c-6.732-.049-8.707-.054-9.322 0-.157.013-.391.032-.384.292v23.668a.295.295 0 0 0 .29.29h9.42a.296.296 0 0 0 .29-.29c.029-4.258.026-19.374-.004-23.67m-7.333 16.975h4.407a.29.29 0 0 1 0 .58h-4.407a.29.29 0 0 1 0-.58m4.407-11.775h-4.407a.29.29 0 0 1-.29-.29.29.29 0 0 1 .29-.29h4.407a.29.29 0 0 1 0 .58m0 6.522h-4.407a.29.29 0 0 1-.29-.29.289.289 0 0 1 .29-.29h4.407a.297.297 0 0 1 0 .58m0 3.66h-4.407a.29.29 0 0 1 0-.579h4.407a.29.29 0 0 1 .247.29.294.294 0 0 1-.247.288zm0-5.83h-4.407a.29.29 0 0 1 0-.58h4.407a.29.29 0 1 1 0 .58m0-2.136h-4.407a.29.29 0 0 1-.29-.29.289.289 0 0 1 .29-.29h4.407a.29.29 0 0 1 .237.288.295.295 0 0 1-.237.287z"/><path fill="#CCEAFF" d="M139.157 79.304a.295.295 0 0 0-.29-.29H96.199a.293.293 0 0 0-.29.29c-.055 7.785.105 8.742-.307 10.608a9.17 9.17 0 0 1-4.785 6.254 12.1 12.1 0 0 1-4.665 1.422c-1.753.273-3.576.583-5.005 1.707-3.79 2.984-3.19 7.826-4.494 11.757a.293.293 0 0 0 .28.367h42.668a.295.295 0 0 0 .279-.213c1.21-3.619.762-8.041 3.676-10.922 2.523-2.498 6.223-1.637 9.821-3.407a10.14 10.14 0 0 0 5.161-5.777c.691-2.02.621-4.133.621-6.235-.002-2.706.021-1.747-.002-5.56m-3.827 2.063 2.021-1.114c.326-.181.619.32.292.5l-2.02 1.114c-.327.181-.619-.32-.293-.5m-12.132 5.003a1.59 1.59 0 0 0-1.549.017 1.74 1.74 0 0 0-.667.974c-.537 1.678.254 3.066-.949 4.583a1.94 1.94 0 0 1-2.077.64 2.5 2.5 0 0 1-1.47-1.488c-.557-1.517.267-3.616-.894-4.691a1.84 1.84 0 0 0-1.8-.379c-1.581.486-1.223 2.397-1.326 3.65s-.79 2.786-2.268 2.675a2.48 2.48 0 0 1-2.225-2.547 18 18 0 0 1-.049-4.09c.038-.368.618-.37.58 0a17.5 17.5 0 0 0 .183 4.793c.429 1.381 2.205 1.748 2.824.485.702-1.24.168-2.72.606-4.03a2.385 2.385 0 0 1 2.454-1.581 2.386 2.386 0 0 1 2.149 1.974c.126.81.166 1.632.12 2.45a2.41 2.41 0 0 0 .938 2.054 1.39 1.39 0 0 0 1.919-.418c.676-1.055.405-1.977.518-3.146a2.99 2.99 0 0 1 1.158-2.42 2.305 2.305 0 0 1 2.653.373 2.3 2.3 0 0 1 .537.779c.299.697.436 1.452.402 2.21a27 27 0 0 1-.214 2.685c-.048.366-.624.37-.58 0 .055-.452.108-.905.149-1.358.122-1.363.302-3.418-1.122-4.194m-3.046 13.681H83.878a.29.29 0 0 1-.275-.29.29.29 0 0 1 .275-.29h36.274a.29.29 0 0 1 0 .58m-19.181 3.587h11.47a.29.29 0 0 1 0 .579h-11.47a.29.29 0 0 1-.275-.289.29.29 0 0 1 .275-.29m12.699-.997h-12.085a.3.3 0 0 1-.206-.085.292.292 0 0 1 .206-.495h12.084a.29.29 0 0 1 0 .58zm-29.545.997h6.762a.29.29 0 0 1 0 .579h-6.762a.32.32 0 0 1-.113-.42 2 2 0 0 1 .111-.163zm7.487-.997h-7.124a.29.29 0 0 1-.29-.29.29.29 0 0 1 .29-.29h7.122a.29.29 0 0 1 .29.29.29.29 0 0 1-.29.29zm-2.011-4.48L92.9 97.4c.364-.085.518.474.153.558l-3.299.762c-.364.081-.518-.478-.155-.562zm8.363-17.78q1.15.437 2.232 1.022c.328.178.035.678-.293.5a18 18 0 0 0-2.093-.963c-.344-.134-.194-.694.155-.561zm21.344 17.925c-.348-.127-.197-.69.154-.559l2.493.907c.348.127.197.687-.154.559zM119.113 112.291H76.446a.3.3 0 0 0-.28.212c-.685 2.249-2.274 3.539-4.526 4.254-3.51 1.114-6.645 1.029-9.562 3.387-.203.163-.03.494.205.494 34.272 0 41.181.025 42.542-.014.362-.011.149.051.638-.307 3.553-2.617 8.639-1.895 11.745-4.397a6.52 6.52 0 0 0 2.185-3.261.28.28 0 0 0-.049-.253.29.29 0 0 0-.231-.115M103.526 121.974c-45.868 0-42.753-.071-42.918.143a8.8 8.8 0 0 0-1.54 3.141.29.29 0 0 0 .05.251.29.29 0 0 0 .229.116h42.667a.3.3 0 0 0 .28-.213 8.7 8.7 0 0 1 1.482-3.003c.14-.18-.051-.435-.25-.435"/><path fill="#fff" d="M105.569 35.539V30h-9.08v5.529c.76-.028-2.642.01 9.08.01m-6.291-4.178a.294.294 0 0 1 .29-.29h2.817a.294.294 0 0 1 .29.29v2.818a.293.293 0 0 1-.29.29h-2.817a.295.295 0 0 1-.29-.29zM138.576 35.539V30c-.23.009.964 0-9.886 0v5.538zm-7.841-3.944h5.716a.29.29 0 0 1 .195.49.3.3 0 0 1-.195.09h-5.716a.29.29 0 0 1 0-.58m-.03 1.688h5.716a.29.29 0 0 1 .195.49.3.3 0 0 1-.195.09h-5.716a.29.29 0 0 1 0-.58M128.112 35.539V30H106.15v5.538z"/><path fill="#CCEAFF" d="M101.834 126.552H59.166a.289.289 0 1 0 0 .58h42.668a.29.29 0 0 0 0-.58M101.834 128.278H59.166a.29.29 0 0 0 0 .579h42.668a.289.289 0 0 0 .195-.489.3.3 0 0 0-.195-.09"/><path fill="#2755A0" d="M139.157 29.71a.294.294 0 0 0-.29-.29H96.2a.294.294 0 0 0-.29.29c-.042 5.864 0 23.019 0 23.025a.294.294 0 0 0 .29.29h42.667a.297.297 0 0 0 .29-.29c-.058-8.063.055-15.125 0-23.024m-10.466.29h9.886v5.539h-9.886zm-22.541 0h21.962v5.539H106.15zm-9.66 0h9.08v5.539s-8.6-.028-9.08-.01zm24.419 17.468h-6.752a.29.29 0 0 1-.249-.147.293.293 0 0 1-.001-.289l3.376-5.793a.29.29 0 0 1 .25-.14.29.29 0 0 1 .25.14c.139.24 2.36 4.12 3.376 5.794a.29.29 0 0 1-.003.288.3.3 0 0 1-.247.147"/><path fill="#000" d="M130.735 32.174h5.716a.29.29 0 0 0 .195-.489.3.3 0 0 0-.195-.09h-5.716a.29.29 0 0 0-.195.49.3.3 0 0 0 .195.09M130.705 33.863h5.717a.29.29 0 0 0 .195-.49.3.3 0 0 0-.195-.09h-5.717a.29.29 0 0 0-.195.49.3.3 0 0 0 .195.09"/><path fill="#FFD2D2" d="M102.388 31.074h-2.817a.294.294 0 0 0-.29.29v2.817a.294.294 0 0 0 .29.29c3.087.022 2.888.036 3.022-.086.116-.154.109.194.086-3.02a.293.293 0 0 0-.291-.29"/><path fill="#78B5FF" d="M121.375 85.875a2.99 2.99 0 0 0-1.158 2.42c-.1 1.046.137 2.209-.507 3.127a1.386 1.386 0 0 1-1.908.45c-.154-.095-.9-.531-.958-2.067.046-.819.006-1.64-.12-2.45a2.46 2.46 0 0 0-1.227-1.726 2.385 2.385 0 0 0-3.376 1.332c-.438 1.311.097 2.791-.606 4.03-.619 1.266-2.396.897-2.824-.484a17.6 17.6 0 0 1-.183-4.793c.038-.37-.542-.368-.58 0a18 18 0 0 0 .049 4.09 2.48 2.48 0 0 0 2.225 2.547c1.478.111 2.165-1.43 2.268-2.675s-.255-3.164 1.326-3.65a1.84 1.84 0 0 1 1.801.379c1.167 1.081.325 3.145.893 4.691a2.51 2.51 0 0 0 1.471 1.489c1.605.482 2.742-1.005 2.795-2.723.038-1.199-.097-2.758.897-3.475a1.59 1.59 0 0 1 1.549-.017c1.424.776 1.244 2.83 1.124 4.19a48 48 0 0 1-.149 1.357c-.045.37.532.366.58 0 .117-.89.185-1.784.213-2.685.098-3.266-2.196-4.173-3.595-3.357"/><path fill="#fff" d="M121.159 47.033c-.085-.153-3.267-5.61-3.376-5.793a.292.292 0 0 0-.5 0 967 967 0 0 0-3.376 5.793.293.293 0 0 0 .106.396.3.3 0 0 0 .144.04h6.752a.3.3 0 0 0 .25-.436"/><path fill="#FF4848" d="m119.434 34.238-1.821-3.125c-.102-.168-.354-.23-.532.045-.153.237-.558.931-1.789 3.08a.293.293 0 0 0 .106.395q.067.04.144.041h3.641a.3.3 0 0 0 .251-.436"/><path fill="#2755A0" d="M106.504 63.733h11.351a.29.29 0 0 0 0-.58h-11.351a.29.29 0 0 0 0 .58M106.503 65.908h11.271a.29.29 0 0 0 .195-.49.3.3 0 0 0-.195-.09h-11.271a.29.29 0 0 0 0 .58M106.342 67.839h11.509a.29.29 0 1 0 0-.58h-11.509a.29.29 0 0 0-.29.29.29.29 0 0 0 .29.29M124.724 57.613l1.743-1.639c.272-.255-.138-.665-.41-.41l-1.743 1.64c-.272.255.135.665.41.41M124.848 74.764l1.458 1.322c.275.25.69-.158.41-.41l-1.458-1.321c-.273-.25-.687.158-.41.41M98.899 57.426c.275.252.686-.154.41-.41q-.77-.709-1.457-1.5c-.246-.282-.654.13-.41.41q.686.791 1.457 1.5M97.982 76.157q.615-.488 1.272-.916c.31-.204.02-.706-.294-.501q-.717.47-1.388 1.007c-.291.233.12.64.41.41M136.231 58.806h-4.407a.29.29 0 0 0-.29.29.29.29 0 0 0 .29.29h4.407a.293.293 0 0 0 0-.58M136.231 61.017h-4.407a.29.29 0 0 0-.29.29.29.29 0 0 0 .29.29h4.407a.29.29 0 0 0 0-.58M136.23 63.154h-4.407a.29.29 0 0 0-.195.489.3.3 0 0 0 .195.09h4.407a.29.29 0 0 0 .282-.175.3.3 0 0 0 0-.23.29.29 0 0 0-.282-.175M136.231 65.327h-4.407a.29.29 0 0 0-.29.29.29.29 0 0 0 .29.29h4.407a.29.29 0 0 0 0-.58M136.23 68.988h-4.407a.29.29 0 0 0 0 .58h4.407a.291.291 0 0 0 .181-.483.3.3 0 0 0-.181-.097M136.23 71.161h-4.407a.29.29 0 0 0-.195.49.3.3 0 0 0 .195.09h4.407a.296.296 0 0 0 0-.58"/><path fill="#FFD500" d="M81.636 64.27c0-30.798.09-29.77-.153-30.97a5.195 5.195 0 0 0-4.988-3.88H43.722a5.154 5.154 0 0 0-5.33 5.366v30.372a5.32 5.32 0 0 0 5.534 5.416c34.78-.47 32.58.053 33.435-.096a5.254 5.254 0 0 0 4.269-4.882c.028-.44.006-.886.006-1.326"/><path fill="#FFF0B3" d="M76.281 71.887H44.797a9.57 9.57 0 0 0-7.662 2.88 19.8 19.8 0 0 0-2.502 3.744c-.022.084.027-.123.258-.143h10.5q1.21-1.352 2.582-2.537c2.889-2.514 5.722-2.446 7.443-1.078q.65.65 1.18 1.404c.124.07.063.018.92.384.727.249 1.411.606 2.031 1.059q.406.353.742.771h17.258a.296.296 0 0 1 .261.419c.4-.682.793-1.366 1.199-2.044a3.182 3.182 0 0 0-2.726-4.859"/><path fill="#FFC431" d="M77.55 78.368H60.29q.219.271.384.58c.78 1.24-.3 2.816-2.065 2.527q.436.519.747 1.12c.42.691.599 1.5.51 2.303a1.62 1.62 0 0 1-1.335 1.385 3.3 3.3 0 0 1-2.118-.884 8 8 0 0 1-1.355-1.263A35 35 0 0 1 49 92.51h14.543a10.84 10.84 0 0 0 8.765-4.463c.746-1.045 4.812-8.133 5.494-9.245a.295.295 0 0 0-.254-.434M34.89 78.367a.34.34 0 0 0-.263.162c-.056.077.073-.135-1.315 2.231.23.206 1.626 1.503 1.683 1.59.193.122 1.553 1.592 2.522 2.44.452.4 1.034.626 1.638.635 2.277-.3 2.214-2.588 6.236-7.06-13.884-.003-9.732-.062-10.501.002"/><path fill="#78B5FF" d="M91.61 102.058h-7.124a.29.29 0 0 0-.29.29.29.29 0 0 0 .29.29h7.124a.29.29 0 0 0 .29-.29.29.29 0 0 0-.29-.29M90.886 103.634h-6.763a.29.29 0 0 0 0 .58h6.763a.29.29 0 0 0 0-.58M120.153 99.468H83.878a.29.29 0 0 0 0 .579h36.275a.291.291 0 0 0 .195-.489.3.3 0 0 0-.195-.09M113.669 102.057h-12.085a.29.29 0 0 0 0 .58h12.085a.287.287 0 0 0 .3-.29.286.286 0 0 0-.3-.29M112.44 103.634h-11.469a.3.3 0 0 0-.196.09.292.292 0 0 0 .196.49h11.47a.28.28 0 0 0 .215-.08.288.288 0 0 0-.099-.482.3.3 0 0 0-.116-.018zM89.753 98.717l3.3-.762c.363-.084.209-.643-.154-.559l-3.3.762c-.363.084-.21.643.154.559M121.959 98.654l-2.493-.907c-.351-.127-.503.432-.154.56l2.493.906c.351.128.502-.432.154-.559M97.81 80.937q1.08.413 2.095.963c.327.178.62-.322.292-.5q-1.081-.585-2.232-1.021c-.35-.133-.5.427-.154.558M137.35 80.256l-2.02 1.114c-.327.18-.034.681.293.5l2.02-1.114c.327-.183.034-.684-.293-.5"/><path fill="#000" d="M109.641 34.263a.289.289 0 0 0 .485-.208.29.29 0 0 0-.076-.202 109 109 0 0 0-2.576-2.576.29.29 0 0 0-.4.009.29.29 0 0 0-.01.4 107 107 0 0 0 2.577 2.577M112.054 34.263a.29.29 0 0 0 .411-.41q-1.406-1.452-2.858-2.858a.29.29 0 0 0-.401.01.29.29 0 0 0-.009.4q1.404 1.451 2.857 2.858M122.377 34.263a.29.29 0 0 0 .411-.41 124 124 0 0 0-2.858-2.858.29.29 0 0 0-.411.41q1.4 1.451 2.858 2.858"/><path fill="#2755A0" d="M60.352 46.366c-.7-1.277-2.404-4.13-2.509-4.306a.292.292 0 0 0-.5 0 534 534 0 0 0-2.508 4.306.291.291 0 0 0 .253.437h5.016a.3.3 0 0 0 .248-.437M66.851 46.366c-.7-1.277-2.403-4.13-2.508-4.306a.293.293 0 0 0-.5 0 592 592 0 0 0-2.51 4.306.292.292 0 0 0 .251.435h5.014a.3.3 0 0 0 .286-.29.3.3 0 0 0-.033-.145"/><path fill="#FF4848" d="M59.932 50.042h-3.883a.294.294 0 0 0-.289.29v3.881a.294.294 0 0 0 .29.29c4.143.03 3.989.042 4.1-.104.105-.112.1.077.072-4.066a.293.293 0 0 0-.29-.291"/><path fill="#2755A0" d="M68.78 54.35c-.7-1.276-2.403-4.129-2.508-4.304a.292.292 0 0 0-.5 0 533 533 0 0 0-2.509 4.305.292.292 0 0 0 .25.436h5.018a.3.3 0 0 0 .25-.436"/><path fill="#000" d="m53.9 49.905-3.938 3.937a.29.29 0 0 0 .41.41 165 165 0 0 0 3.938-3.937.29.29 0 0 0-.41-.41M53.9 34.828l-3.938 3.938a.29.29 0 0 0 .41.41 161 161 0 0 0 3.937-3.938.29.29 0 0 0-.41-.41M53.9 42.397a165 165 0 0 0-3.938 3.937.291.291 0 0 0 .41.41 165 165 0 0 0 3.938-3.938.29.29 0 0 0-.41-.41"/><path fill="#FF4848" d="M42.511 35.093v4.16a.29.29 0 0 0 .58 0v-4.16a.29.29 0 0 0-.58 0M42.511 42.746v4.16a.29.29 0 0 0 .58 0v-4.16a.29.29 0 0 0-.58 0M42.511 50.316v4.16a.29.29 0 0 0 .58 0v-4.16a.29.29 0 0 0-.58 0M42.511 57.858v4.16a.29.29 0 0 0 .58 0v-4.16a.29.29 0 0 0-.58 0"/><path fill="#2755A0" d="M56.123 98.05c-.811.091-18.337 1.936-20.409 2.143 3.487 5.294 7.148 10.829 9.994 15.202h10.415a.294.294 0 0 0 .29-.289c.101-12.303.067-15.622.024-16.532-.014-.268-.044-.574-.314-.523M25.396 107.719c-.145.52-.321 1.032-.46 1.548a10.7 10.7 0 0 1-1.075 2.723 7.21 7.21 0 0 1-6.143 3.399c.13.013-1.15.006 10.144.006-.625-2.257-1.497-4.986-2.466-7.676"/><path fill="#000" d="M63.906 97.77a23.44 23.44 0 0 0-5.525 11.854c-.291 1.97-.27 4.095.998 5.739a.29.29 0 0 0 .278.074.3.3 0 0 0 .206-.201c.153-.571 4.527-17.174 4.527-17.187.07-.263-.287-.505-.484-.279M50.337 121.509c-2.54-2.111-5.933-2.671-9.146-2.631-3.709.048-7.377.784-10.818 2.17a.29.29 0 0 0-.201.317.29.29 0 0 0 .278.252c.653.018 19.67.384 19.682.384a.294.294 0 0 0 .206-.492"/><path fill="#FF4848" d="M34.986 82.335c-2.071-2.019-6.237-5.995-9.136-5.908a5.3 5.3 0 0 0-2.584.614c-3.329 1.752-7.642 6.025-10.323 12.046a39 39 0 0 0-2.573 7.926 44 44 0 0 0-.651 8.928 5 5 0 0 0 0 .815c.029-1.75.255-3.492.674-5.192 1.06-4.408 2.346-6.884 4.428-9.514s5.24-4.532 8.578-4.042c2.219.325 3.754 1.713 5.31 3.276 1.81-2.833 3.488-6.18 5.89-8.925a.29.29 0 0 1 .395-.01z"/><path fill="#FC9070" d="M59.296 81.49a1.676 1.676 0 0 0 1.375-2.542 5 5 0 0 0-1.121-1.352 11.3 11.3 0 0 0-2.927-1.423c-.537-.603-.976-1.624-2.493-2.114a5 5 0 0 0-3.07-.013 8.9 8.9 0 0 0-3.08 1.785 31 31 0 0 0-5.04 5.627c-1.504 2.148-2.024 3.737-3.777 3.967a2.53 2.53 0 0 1-1.638-.635c-.816-.713-2.4-2.363-2.522-2.44a.29.29 0 0 0-.394.01c-2.409 2.751-4.062 6.061-5.891 8.924a42 42 0 0 1 3.163 3.663c4.81 2.212 10.675 2.148 15.142-.844 3.398-2.278 6.065-6.377 8.04-9.963.4.472.856.895 1.355 1.263.578.538 1.329.852 2.118.884a1.62 1.62 0 0 0 1.335-1.385 3.66 3.66 0 0 0-.51-2.302c-.828-1.593-1.144-.99-.065-1.11"/><path fill="#FF4848" d="M52.224 75.951a4.62 4.62 0 0 1 2.779.432c.347.136.498-.424.153-.559a5 5 0 0 0-3.086-.431c-.367.062-.211.62.154.558M54.44 79.94c.719.167 1.41.44 2.048.81a.29.29 0 0 0 .293-.5 7.2 7.2 0 0 0-2.187-.869c-.364-.08-.52.479-.155.56"/><path fill="#2755A0" d="M46.739 116.965c-.35-.518-10.895-16.589-11.024-16.772a76 76 0 0 0-6.84-8.747c-1.93-1.97-3.742-3.54-6.512-3.522-3.022.022-5.698 1.798-7.54 4.122a21.25 21.25 0 0 0-4.143 8.377c-.966 3.597-1.67 8.524.22 11.721a6.56 6.56 0 0 0 4.702 3.101c3 .453 4.947-.158 6.468-1.304 1.628-1.228 2.323-2.652 2.863-4.68.138-.516.315-1.029.46-1.548 1.63 4.518 2.366 7.3 2.948 9.47a.3.3 0 0 0 .104.153c.05.039.112.06.175.06H46.49a.3.3 0 0 0 .141-.041.292.292 0 0 0 .109-.39"/><path fill="#FF4848" d="M37.555 94.806h2.737a.29.29 0 0 0 0-.579h-2.737a.29.29 0 0 0 0 .58"/><path fill="#FC9070" d="M29.303 69.945a2.7 2.7 0 0 0-4.563.934 2.4 2.4 0 0 0 1.807 3.038 2.86 2.86 0 0 0 2.788-1.127 2.25 2.25 0 0 0-.032-2.846"/><path fill="#000" d="M32.026 64.686c-.106-1.438-1.832-1.925-3.129-1.248a7.66 7.66 0 0 0-2.839 3.222c-.307.555-.653 1.086-.964 1.638a.292.292 0 0 0 .25.436 35 35 0 0 0 2.524-.22 6.7 6.7 0 0 0 1.912-.504 3.71 3.71 0 0 0 2.246-3.324M13.906 77.435c.153.34.654.046.5-.292-.697-1.534-6.044-13.323-6.121-13.46.041-.098 2.609-5.74 6.121-13.455.154-.337-.346-.632-.5-.292-.71 1.547-5.963 13.022-6.169 13.555a.63.63 0 0 0 .077.549c.045.103 6.017 13.23 6.092 13.395M45.79 52.378l2.953-2.286a.29.29 0 0 0 0-.41.295.295 0 0 0-.41 0s-3.108 2.392-3.21 2.484c-.23.245.008.428.185.566l3.03 2.341a.3.3 0 0 0 .409 0 .29.29 0 0 0 0-.41q-1.484-1.143-2.957-2.285M45.79 44.824l2.953-2.285a.29.29 0 0 0 0-.41.295.295 0 0 0-.41 0c-.962.744-3.108 2.392-3.21 2.484-.23.244.008.429.185.566l3.03 2.34a.297.297 0 0 0 .409 0 .29.29 0 0 0 0-.409zM45.79 37.098l2.953-2.286a.29.29 0 0 0 0-.41.295.295 0 0 0-.41 0c-.962.745-3.108 2.393-3.21 2.485-.23.244.008.428.185.566l3.03 2.341a.3.3 0 0 0 .41 0 .29.29 0 0 0 0-.41zM75.344 52.02 72.32 49.68a.3.3 0 0 0-.41 0 .29.29 0 0 0 0 .41l2.954 2.285-2.954 2.286a.29.29 0 0 0 0 .41.295.295 0 0 0 .41 0s3.109-2.392 3.21-2.484c.227-.242-.008-.425-.185-.566M72.597 45.034c.23-.245-.007-.43-.184-.566l-3.026-2.342a.3.3 0 0 0-.41 0 .29.29 0 0 0 0 .41l2.954 2.286-2.955 2.288a.29.29 0 0 0 0 .41.296.296 0 0 0 .41 0c.963-.747 3.11-2.394 3.211-2.487M65.71 37.098l-2.955 2.285a.29.29 0 0 0 0 .411.296.296 0 0 0 .41 0c.962-.745 3.109-2.392 3.21-2.484.23-.245-.008-.43-.185-.567l-3.025-2.34a.3.3 0 0 0-.41 0 .29.29 0 0 0 0 .41zM143.416 49.932c-.154-.34-.654-.045-.501.292.698 1.535 6.046 13.323 6.122 13.464-.384.91-3.474 7.635-6.122 13.455-.153.337.346.632.501.292.707-1.554 5.963-13.026 6.168-13.559a.63.63 0 0 0-.076-.548z"/><path fill="#CCEAFF" d="M59.015 34.648a2.45 2.45 0 1 0-1.686 4.6 2.45 2.45 0 0 0 1.686-4.6"/><path fill="#000" d="M38.41 26.394a9.12 9.12 0 0 0-3.653 3.97c-.163.333.337.628.5.292a9.1 9.1 0 0 1 3.445-3.764.29.29 0 0 0-.292-.5zM37.93 24.63a9.83 9.83 0 0 0-4.82 4.91c-.154.338.35.633.5.293a9.38 9.38 0 0 1 4.612-4.71c.338-.155.044-.655-.292-.494M7.09 93.516a27.6 27.6 0 0 0-1.014 10.341c.032.368.614.372.58 0-.258-3.428.08-6.875.997-10.188a.29.29 0 0 0-.56-.153zM5.239 93.38c-1.447 3.647-1.588 6.68-1.243 10.477.033.368.614.372.579 0-.42-4.633.069-7.402 1.223-10.323.137-.348-.423-.498-.56-.154M85.452 83.72h-7.078a.29.29 0 0 0 0 .58h7.078a.29.29 0 0 0 .305-.29.29.29 0 0 0-.305-.29M82.598 78.826l-4.456 3.489c-.294.23.119.638.41.41l4.456-3.489c.294-.23-.12-.638-.41-.41M78.579 85.645c-.29-.23-.704.18-.41.41l3.978 3.11c.29.23.703-.18.41-.41a2238 2238 0 0 1-3.978-3.11M96.2 78.144h31.638a.294.294 0 0 0 .29-.29V54.186a.294.294 0 0 0-.29-.29H96.201a.295.295 0 0 0-.29.29v23.667a.294.294 0 0 0 .29.29m.29-22.99c0-.221.012-.452.008-.678 0 0 29.856.032 31.051 0 0 0-.011 22.857-.008 23.084 0 0-30.722-.025-31.05-.014zM129.448 53.896a.295.295 0 0 0-.29.29v23.667a.295.295 0 0 0 .29.29h9.42a.294.294 0 0 0 .29-.29V54.186a.294.294 0 0 0-.29-.29zm9.12 23.668h-8.83s.024-22.217 0-23.088h8.838zM138.869 79.014H96.201a.294.294 0 0 0-.29.29c-.054 7.806.111 8.767-.307 10.608a9.23 9.23 0 0 1-4.784 6.254c-3.472 1.949-7.006 1.03-9.668 3.13-3.823 3.008-3.198 7.845-4.494 11.756a.293.293 0 0 0 .28.367h42.667a.3.3 0 0 0 .28-.213c1.21-3.619.762-8.041 3.676-10.922 2.539-2.512 6.318-1.642 9.821-3.407a10.1 10.1 0 0 0 5.162-5.778c.737-2.19.621-3.734.621-11.795a.293.293 0 0 0-.296-.29m-.6 10.895a9.24 9.24 0 0 1-4.785 6.255c-3.472 1.948-7.006 1.03-9.668 3.129-3.759 2.961-3.222 7.708-4.429 11.544 0 0-41.612-.038-42.055-.021 1.06-3.543.747-7.755 3.558-10.535 2.54-2.512 6.317-1.64 9.82-3.406a10.1 10.1 0 0 0 5.162-5.778c.68-2.024.62-4.132.62-6.235 0-5.72.037-4.592.007-5.27 0 0 41.606.042 42.081.014-.001 7.305.11 8.462-.311 10.306zM119.188 112.3c-.058-.015-14.491-.009-42.737-.009a.3.3 0 0 0-.279.212c-1.485 4.763-6.486 4.461-10.634 5.803a10.5 10.5 0 0 0-3.453 1.838c-.202.164-.028.495.205.495 33.397 0 40.627.043 42.244.008.634-.014.558-.057.628-.094 3.562-2.9 8.743-2.035 12.053-4.635a6.64 6.64 0 0 0 2.185-3.26.3.3 0 0 0 .008-.115.3.3 0 0 0-.22-.243m-10.986 6.006c-1.209.38-2.339.974-3.338 1.753 0 0-41.387-.014-41.663-.021a16.6 16.6 0 0 1 5.606-1.958c1.988-.435 4.1-.876 5.738-2.162a6.74 6.74 0 0 0 2.105-3.048s41.606.033 42.046.021c-1.628 4.364-6.427 4.099-10.494 5.415M103.527 121.973c-34.235 0-40.956-.049-42.338.013-.46.021-.53.064-.559.112a8.6 8.6 0 0 0-1.561 3.159.294.294 0 0 0 .28.367h42.667a.293.293 0 0 0 .279-.212 8.3 8.3 0 0 1 1.482-3.003c.139-.184-.051-.436-.25-.436m-1.724 3.069s-41.61-.024-42.056-.013a8.4 8.4 0 0 1 1.264-2.478s41.561.019 41.952.017a8.7 8.7 0 0 0-1.16 2.477zM96.2 53.025h42.668a.296.296 0 0 0 .291-.29V29.71a.294.294 0 0 0-.291-.29H96.201a.295.295 0 0 0-.29.29v23.024a.294.294 0 0 0 .29.29M128.693 30s9.407.027 9.886.01v5.528h-9.886zm-22.54 0h21.961v5.538h-21.961zm-9.661 0h9.08v5.538s-8.6-.028-9.08-.01zm.01 6.118s41.598.028 42.077.01c0 0-.017 15.72 0 16.316 0 0-41.604-.028-42.084-.009-.003-18.71-.007-15.54.006-16.316M101.836 126.552H59.168a.289.289 0 1 0 0 .58h42.668a.29.29 0 0 0 .29-.29.29.29 0 0 0-.29-.29M101.836 128.278H59.168a.29.29 0 0 0-.29.29.29.29 0 0 0 .29.29h42.668a.29.29 0 0 0 .29-.29.29.29 0 0 0-.29-.29"/><path fill="#000" d="M136.453 31.595h-5.715a.29.29 0 0 0 0 .58h5.715a.29.29 0 0 0 0-.58M136.421 33.284h-5.717a.29.29 0 0 0 0 .58h5.717a.29.29 0 0 0 .195-.49.3.3 0 0 0-.195-.09M99.572 34.469c2.992.02 2.92.041 3.035-.105.103-.109.093.042.072-3.003a.291.291 0 0 0-.29-.29h-2.817a.294.294 0 0 0-.29.29v2.818a.294.294 0 0 0 .29.29m.29-2.819h2.237v2.239h-2.238zM121.376 85.875a2.99 2.99 0 0 0-1.157 2.42c-.111 1.15.147 2.112-.508 3.127a1.396 1.396 0 0 1-1.908.45c-2.013-1.246.213-4.813-2.306-6.243a2.388 2.388 0 0 0-3.376 1.333c-.461 1.322.103 2.777-.606 4.03-.618 1.263-2.395.9-2.824-.485a17.4 17.4 0 0 1-.183-4.793c.038-.37-.542-.368-.58 0-.14 1.36-.124 2.733.049 4.09a2.484 2.484 0 0 0 2.225 2.547c1.479.09 2.165-1.43 2.268-2.675a16.5 16.5 0 0 1 .142-2.285 1.793 1.793 0 0 1 2.145-1.422c.314.067.604.218.839.436a3.1 3.1 0 0 1 .674 2.383c-.07.776.005 1.56.22 2.308a2.48 2.48 0 0 0 1.471 1.488c1.381.415 2.515-.698 2.725-2.11.238-1.343-.216-3.234.966-4.087a1.6 1.6 0 0 1 1.55-.016c1.638.896 1.228 3.573.975 5.546-.045.37.537.367.58 0q.19-1.336.212-2.685a5 5 0 0 0-.4-2.21 2.31 2.31 0 0 0-1.345-1.273 2.3 2.3 0 0 0-1.848.126M114.021 47.43c.094.054-.395.038 6.889.038a.3.3 0 0 0 .243-.15.3.3 0 0 0 .007-.286c-.943-1.716-3.236-5.554-3.376-5.793a.29.29 0 0 0-.295-.138.3.3 0 0 0-.107.04c-.096.059.136-.402-3.473 5.891a.292.292 0 0 0 .024.324q.037.046.088.075m3.514-5.47 2.871 4.929h-5.743c.231-.393 2.642-4.536 2.872-4.928M117.615 31.113a.292.292 0 0 0-.402-.099c-.094.058-.02-.096-1.919 3.223a.292.292 0 0 0 .25.435h3.642a.3.3 0 0 0 .244-.15.3.3 0 0 0 .006-.285zm-1.567 2.982 1.316-2.26 1.317 2.26zM106.504 63.733h11.352a.29.29 0 0 0 0-.58h-11.352a.29.29 0 0 0-.195.49.3.3 0 0 0 .195.09M106.504 65.908h11.271a.29.29 0 0 0 0-.58h-11.272a.29.29 0 0 0-.195.49.3.3 0 0 0 .195.09zM106.343 67.838h11.509a.29.29 0 0 0 .195-.489.3.3 0 0 0-.195-.09h-11.509a.29.29 0 0 0 0 .58M124.725 57.613l1.744-1.639c.272-.255-.138-.665-.41-.41l-1.743 1.64c-.273.255.135.664.409.409M124.85 74.765l1.458 1.32c.276.25.691-.157.41-.409l-1.458-1.321c-.272-.25-.687.159-.41.41M98.9 57.426c.275.252.686-.154.411-.41q-.771-.709-1.458-1.5c-.245-.282-.653.13-.41.41a19 19 0 0 0 1.457 1.5M98.962 74.74q-.719.47-1.388 1.007c-.292.23.121.64.41.41q.614-.488 1.271-.916c.31-.203.02-.705-.293-.501M131.824 59.386h4.407a.294.294 0 0 0 0-.58h-4.407a.29.29 0 0 0-.205.495.3.3 0 0 0 .205.085M136.232 61.017h-4.407a.29.29 0 0 0-.195.49.3.3 0 0 0 .195.09h4.407a.3.3 0 0 0 .215-.08.29.29 0 0 0 .09-.21.288.288 0 0 0-.305-.29M131.824 63.733h4.407a.291.291 0 0 0 .206-.495.3.3 0 0 0-.206-.085h-4.407a.29.29 0 0 0-.205.495.3.3 0 0 0 .205.085M131.825 65.908h4.407a.291.291 0 1 0 0-.581h-4.407a.29.29 0 0 0-.276.29.29.29 0 0 0 .276.29M136.232 68.988h-4.407a.29.29 0 0 0-.195.49.3.3 0 0 0 .195.09h4.407a.295.295 0 0 0 .253-.29.295.295 0 0 0-.253-.29M136.232 71.161h-4.407a.29.29 0 0 0-.195.49.3.3 0 0 0 .195.09h4.407a.296.296 0 0 0 0-.58M38.394 34.786v30.372a5.366 5.366 0 0 0 5.533 5.416c29.301.047 32.581.053 33.436-.096a5.26 5.26 0 0 0 4.268-4.882c.015-.242.144-3.864.01-30.276a10.3 10.3 0 0 0-.154-2.02 5.196 5.196 0 0 0-4.987-3.88H43.723a5.156 5.156 0 0 0-5.33 5.366m5.14-4.785h32.967a4.604 4.604 0 0 1 4.55 4.256c.024.383.023 31.176-.022 31.604a4.697 4.697 0 0 1-4.67 4.133H43.888a4.723 4.723 0 0 1-4.91-4.532c-.005-.14 0-.282 0-.422V34.746A4.584 4.584 0 0 1 43.536 30zM91.612 102.058h-7.124a.29.29 0 0 0-.29.29.29.29 0 0 0 .29.29h7.124a.29.29 0 0 0 .29-.29.29.29 0 0 0-.29-.29M90.887 103.634h-6.762a.29.29 0 0 0 0 .58h6.761a.29.29 0 0 0 0-.58M120.155 99.468H83.88a.29.29 0 0 0 0 .58h36.275a.29.29 0 0 0 .205-.495.3.3 0 0 0-.205-.085M113.671 102.058h-12.084a.29.29 0 0 0-.205.085.288.288 0 0 0 .205.495h12.084a.3.3 0 0 0 .277-.177.293.293 0 0 0-.162-.385.3.3 0 0 0-.115-.018M112.441 103.634h-11.469a.29.29 0 0 0 0 .58h11.471a.3.3 0 0 0 .115-.018.28.28 0 0 0 .166-.158.28.28 0 0 0 0-.228.28.28 0 0 0-.166-.158.3.3 0 0 0-.115-.018zM89.754 98.717l3.3-.762c.363-.084.209-.642-.154-.559l-3.3.762c-.363.084-.21.643.154.559M121.96 98.654l-2.493-.907c-.352-.127-.503.432-.154.559l2.493.907c.351.128.502-.432.154-.559M97.813 80.938a17 17 0 0 1 2.094.962c.328.178.621-.322.292-.5q-1.082-.585-2.231-1.022c-.35-.132-.5.428-.155.56M137.353 80.256l-2.02 1.114c-.327.18-.035.681.292.5l2.02-1.114c.327-.183.035-.683-.292-.5M107.475 31.277a.29.29 0 0 0-.41.41q1.266 1.308 2.576 2.576a.29.29 0 0 0 .406-.003.3.3 0 0 0 .086-.203.3.3 0 0 0-.082-.204 109 109 0 0 0-2.576-2.576M109.608 30.997a.289.289 0 0 0-.485.208.3.3 0 0 0 .075.202l2.858 2.858a.29.29 0 0 0 .41-.41q-1.404-1.455-2.858-2.858M119.929 30.997a.29.29 0 0 0-.411.41q1.405 1.454 2.859 2.858a.29.29 0 0 0 .318.053.291.291 0 0 0 .092-.463z"/><path fill="#000" d="M54.948 46.764c.097.055-.276.18 5.155.037a.3.3 0 0 0 .251-.435c-.701-1.277-2.405-4.129-2.509-4.306a.293.293 0 0 0-.401-.098c-.098.058.093-.23-2.609 4.404a.29.29 0 0 0 .113.398m2.647-3.982 2.004 3.44h-4.008zM61.445 46.764c.097.055-.274.18 5.156.037a.298.298 0 0 0 .25-.435c-.7-1.277-2.405-4.129-2.508-4.306a.293.293 0 0 0-.402-.098c-.108.065.066-.169-2.608 4.404a.29.29 0 0 0 .112.398m2.648-3.982 2.004 3.44H62.09zM59.933 50.042h-3.882a.294.294 0 0 0-.29.29v3.881a.294.294 0 0 0 .29.29c4.36.03 3.948.032 4.086-.086.124-.132.115.12.086-4.085a.294.294 0 0 0-.29-.29m-.29 3.881h-3.299v-3.299h3.3zM65.773 50.045l-2.508 4.306a.293.293 0 0 0 .11.398c.103.058-.222.038 5.157.038a.3.3 0 0 0 .25-.436s-2.405-4.13-2.509-4.306a.292.292 0 0 0-.5 0m-1.754 4.162 2.004-3.44 2.005 3.44zM53.902 49.905l-3.937 3.937a.29.29 0 0 0 .41.41 160 160 0 0 0 3.937-3.937.29.29 0 0 0-.41-.41M50.375 39.176a159 159 0 0 0 3.937-3.938.29.29 0 0 0-.41-.41l-3.937 3.938a.29.29 0 0 0 .41.41M50.375 46.744a166 166 0 0 0 3.937-3.938.29.29 0 0 0-.41-.41 170 170 0 0 0-3.937 3.937.29.29 0 0 0 .41.41M42.813 39.532a.29.29 0 0 0 .28-.28v-4.159a.29.29 0 0 0-.58 0v4.16a.29.29 0 0 0 .3.279M42.813 47.187a.29.29 0 0 0 .28-.28v-4.161a.29.29 0 0 0-.58 0v4.16a.29.29 0 0 0 .3.28M42.814 54.755a.29.29 0 0 0 .279-.28v-4.16a.29.29 0 0 0-.58 0v4.16a.29.29 0 0 0 .301.28M42.813 62.297a.29.29 0 0 0 .28-.28v-4.16a.29.29 0 0 0-.58 0v4.16a.29.29 0 0 0 .3.28M56.126 98.05c-.812.091-18.338 1.936-20.41 2.143a120 120 0 0 0-3.841-5.246 16.8 16.8 0 0 0 9.002 1.421A14.2 14.2 0 0 0 49 92.513h14.543a10.98 10.98 0 0 0 8.765-4.463c.71-1.025-.129.011 6.703-11.306a3.187 3.187 0 0 0-2.728-4.855H44.8a12.3 12.3 0 0 0-3.583.395c-2.87.863-4.645 2.67-6.055 5.33l-.527.898-.005.019c-.06.085-.06.092-1.314 2.231a24 24 0 0 0-5.022-3.711 5.37 5.37 0 0 0-5.024-.01c-4.943 2.583-10.73 9.544-12.897 19.971a44 44 0 0 0-.652 8.928 11.7 11.7 0 0 0 1.186 6.209 6.53 6.53 0 0 0 4.7 3.102c1.228.2 1.009.145 12.262.145.167.597.316 1.197.476 1.794a.3.3 0 0 0 .104.154.3.3 0 0 0 .176.06h17.867a.292.292 0 0 0 .25-.437c-.35-.519-.69-1.046-1.03-1.571h10.415a.29.29 0 0 0 .29-.289V98.342a.265.265 0 0 0-.29-.291m-8.724-4.933c-4.284 3.25-10.593 3.864-16.353.79a37 37 0 0 0-1.927-2.191c1.918-2.993 3.419-6.053 5.707-8.723.701.69 1.386 1.413 2.122 2.072a2.91 2.91 0 0 0 2.803.83 4.92 4.92 0 0 0 2.515-2.36 31.3 31.3 0 0 1 4.726-6.008c.848-.881 1.8-1.656 2.834-2.308 1.795-1.113 4.342-1.21 5.688.456.154.194.28.41.435.605.267.44.546.46 1.002.648.408.165.81.348 1.211.526q.518.224.977.554c.588.517 1.57 1.472 1.059 2.334-.537.9-1.78.582-2.532.22-.274-.13-.627.235-.352.456a5.75 5.75 0 0 1 1.541 1.873c.35.682.719 1.65.266 2.366a.9.9 0 0 1-.888.454 3.05 3.05 0 0 1-1.131-.537 7.4 7.4 0 0 1-1.841-1.688.293.293 0 0 0-.5 0c-2.059 3.458-4.103 7.158-7.362 9.63M73.913 84.3c-.064.09-.097.153-1.2 2.037a10.49 10.49 0 0 1-9.355 5.595H49.593a38.5 38.5 0 0 0 5.464-7.795c.402.471.857.895 1.355 1.263.578.538 1.33.852 2.119.885a1.62 1.62 0 0 0 1.334-1.386 3.66 3.66 0 0 0-.51-2.302 6 6 0 0 0-.746-1.12c1.764.288 2.846-1.285 2.064-2.528 0 0 15.96.004 16.372 0l-3.142 5.357zm-37.635-7.447a8.85 8.85 0 0 1 7.642-4.388c.145 0 32.112-.023 32.711.017a2.626 2.626 0 0 1 2.283 2.593c0 .963-.653 1.798-1.12 2.595l-.408.696H60.293a6 6 0 0 0-.741-.771 7.7 7.7 0 0 0-2.031-1.06c-.283-.118-.921-.375-.921-.375a9 9 0 0 0-1.184-1.408 4.82 4.82 0 0 0-4.362-.707 8.9 8.9 0 0 0-3.08 1.785 26 26 0 0 0-2.581 2.536s-9.587-.021-9.994-.017zm-1.227 2.094H44.9a31 31 0 0 0-3.001 4.084 10 10 0 0 1-1.075 1.497 2.68 2.68 0 0 1-1.67.896 2.5 2.5 0 0 1-1.637-.636c-.844-.72-2.351-2.337-2.58-2.479q.03.016.058.04c-.052-.077-1.167-1.118-1.246-1.19.418-.706.996-1.693 1.3-2.209zm-9.099-1.952a4.1 4.1 0 0 1 1.853.46q1.12.533 2.12 1.265a38.7 38.7 0 0 1 4.464 3.844c-2.35 2.726-4.011 6.017-5.707 8.692-1.526-1.544-3.135-2.948-5.278-3.246l-.235-.167a6.97 6.97 0 0 1-2.735-4.385c-.407-2.751 2.626-6.453 5.518-6.463M12.525 91.643a28.16 28.16 0 0 1 8.96-12.768 6.42 6.42 0 0 0-1.671 4.143 7.22 7.22 0 0 0 2.55 4.905c-3.126.044-5.85 1.932-7.54 4.12a22.4 22.4 0 0 0-4.428 9.515 32 32 0 0 1 2.128-9.915zm8.037 23.171a7.13 7.13 0 0 0 3.306-2.826c.481-.854.843-1.77 1.074-2.723.138-.515.314-1.028.46-1.547a112 112 0 0 1 2.302 7.096zm25.39 2.006s-16.937-.01-17.11-.006c-.9-3.441-1.972-6.833-3.214-10.164-.09-.244-.497-.307-.56 0-.127.636-.338 1.266-.517 1.889a14 14 0 0 1-.946 2.754 6.66 6.66 0 0 1-6.175 3.529c-4.308-.009-6.838-2.261-7.104-7.058-.05-3.746.704-7.46 2.21-10.89a18.1 18.1 0 0 1 4.876-6.559c2.021-1.602 5.044-2.41 7.547-1.233a9.7 9.7 0 0 1 2.302 1.61c5.954 5.625 12.38 16.597 18.69 26.13zm9.875-2.006H45.331c-4.384-6.792-6.153-9.611-9.23-14.075 1.19-.119 19.735-2.077 19.735-2.077 0 18.448.003 15.388-.01 16.154z"/><path fill="#000" d="M59.864 115.236c.154-.572 4.527-17.174 4.527-17.187.07-.265-.287-.508-.484-.281a23.5 23.5 0 0 0-5.525 11.854c-.288 1.969-.27 4.095.998 5.739a.3.3 0 0 0 .277.075.3.3 0 0 0 .207-.2m-.926-5.458a22.75 22.75 0 0 1 4.554-10.588l-4.025 15.269a7.37 7.37 0 0 1-.53-4.681M30.375 121.048a.293.293 0 0 0-.108.494c.051.046.117.073.185.075l19.682.384a.29.29 0 0 0 .263-.181.29.29 0 0 0-.058-.314c-4.88-4.052-14.098-2.816-19.964-.458m1.612.02c5.064-1.744 12.813-2.667 17.253.338zM55.158 75.824a5.03 5.03 0 0 0-3.086-.431c-.368.06-.212.62.153.558.949-.149 1.92.002 2.779.432.348.136.499-.424.154-.559M56.883 80.633a.29.29 0 0 0-.1-.384 7.5 7.5 0 0 0-2.188-.869c-.364-.076-.52.48-.154.56.72.166 1.41.44 2.05.81a.29.29 0 0 0 .392-.118M40.293 94.227h-2.737a.29.29 0 0 0 0 .58h2.737a.29.29 0 0 0 0-.58M26.387 73.876a2.825 2.825 0 0 0 2.95-1.087 2.25 2.25 0 0 0-.032-2.844 2.687 2.687 0 0 0-3.81-.205 2.39 2.39 0 0 0 .892 4.136m-1.143-2.623a2.104 2.104 0 0 1 3.356-1.195 1.66 1.66 0 0 1 .425 2.152 2.25 2.25 0 0 1-2.324 1.151 1.81 1.81 0 0 1-1.457-2.108M25.345 68.734a29 29 0 0 0 2.524-.22 6.7 6.7 0 0 0 1.911-.503 3.74 3.74 0 0 0 2.25-3.325c-.106-1.44-1.824-1.93-3.13-1.248a7.66 7.66 0 0 0-2.839 3.222c-.307.555-.653 1.086-.964 1.638a.292.292 0 0 0 .248.436m4.4-4.987a1.66 1.66 0 0 1 1.343.269c.619.435.384 1.38 0 2.045a3.96 3.96 0 0 1-3.181 1.87q-1.014.135-2.035.197c.983-1.652 2.042-3.955 3.874-4.384zM14.408 77.143c-.083-.186-6.044-13.323-6.12-13.46.124-.297.086-.225.042-.134.235-.505 1.409-3.053 6.078-13.32.154-.338-.346-.633-.5-.293-.707 1.554-5.977 13.02-6.169 13.559a.62.62 0 0 0 .077.548c.223.492 6.062 13.319 6.095 13.396.151.336.65.042.497-.296M45.308 52.732l3.03 2.341a.3.3 0 0 0 .41 0 .29.29 0 0 0 0-.41c-.069-.052-2.039-1.576-2.954-2.286l2.953-2.285a.29.29 0 0 0 0-.41.296.296 0 0 0-.41 0s-3.108 2.392-3.21 2.484c-.23.245.004.43.181.566M45.309 45.179l3.03 2.34a.297.297 0 0 0 .409 0 .29.29 0 0 0 0-.41l-2.957-2.285 2.953-2.285a.29.29 0 0 0 0-.41.294.294 0 0 0-.41 0c-.962.744-3.109 2.392-3.21 2.483-.226.245.008.426.185.567M45.309 37.452l3.03 2.341a.297.297 0 0 0 .409 0 .29.29 0 0 0 0-.41l-2.957-2.285 2.953-2.286a.29.29 0 0 0 0-.41.295.295 0 0 0-.41 0c-.962.745-3.109 2.393-3.21 2.485-.226.244.008.428.185.565M71.91 49.682a.29.29 0 0 0 0 .41l2.955 2.285-2.954 2.286a.29.29 0 0 0 0 .41.296.296 0 0 0 .41 0s3.108-2.392 3.21-2.484c.23-.245-.007-.428-.185-.566l-3.026-2.341a.3.3 0 0 0-.41 0M71.932 44.822l-2.955 2.288a.29.29 0 0 0 0 .41.296.296 0 0 0 .41 0c.962-.745 3.109-2.392 3.21-2.484.23-.245-.007-.429-.185-.565l-3.025-2.342a.3.3 0 0 0-.41 0 .29.29 0 0 0 0 .41zM65.71 37.098l-2.954 2.285a.29.29 0 0 0 0 .41.294.294 0 0 0 .41 0c.962-.744 3.109-2.391 3.21-2.483.23-.245-.008-.43-.184-.567l-3.026-2.34a.3.3 0 0 0-.41 0 .29.29 0 0 0 0 .41zM149.511 63.328l-6.095-13.396c-.153-.34-.653-.045-.5.292 4.693 10.336 5.817 12.755 6.052 13.342.095.238.045.175.026.216l-6.078 13.36c-.153.338.346.632.5.293.708-1.554 5.963-13.026 6.169-13.559a.63.63 0 0 0-.074-.548M57.33 39.247a2.45 2.45 0 1 0 1.683-4.603 2.45 2.45 0 0 0-1.684 4.603m.21-4.062a1.872 1.872 0 0 1 2.159 2.841 1.9 1.9 0 0 1-.897.689 1.873 1.873 0 0 1-1.263-3.525zM34.757 30.363c-.162.334.338.628.5.293a8.95 8.95 0 0 1 3.446-3.764.29.29 0 0 0 .09-.4.286.286 0 0 0-.383-.1 9.15 9.15 0 0 0-3.653 3.97M33.611 29.836a9.5 9.5 0 0 1 4.612-4.71c.338-.154.043-.658-.293-.5a9.87 9.87 0 0 0-4.82 4.914c-.15.341.35.636.501.296M7.436 93.32a.29.29 0 0 0-.344.196 28.4 28.4 0 0 0-1.014 10.341c.032.368.613.372.579 0-.29-3.428.048-6.88.997-10.187a.29.29 0 0 0-.218-.35M5.24 93.38c-1.457 3.642-1.58 6.768-1.243 10.477.033.368.614.371.58 0-.346-3.802-.166-6.785 1.222-10.323.137-.348-.423-.498-.558-.154M78.097 84.02a.29.29 0 0 0 .28.28h7.076a.29.29 0 0 0 0-.58h-7.077a.29.29 0 0 0-.28.3M78.552 82.726l4.457-3.49c.293-.23-.12-.637-.41-.41l-4.456 3.49c-.294.23.118.637.41.41M78.58 85.645c-.29-.23-.703.18-.41.41l3.978 3.111c.291.23.704-.18.41-.41z"/></svg>