<svg xmlns="http://www.w3.org/2000/svg" width="155" height="154" fill="none"><path fill="#000" d="M129.497 34.9c-.733-.418-.987.011-.418-.452 2.09-1.7-.1-2.915-1.995-1.806a.98.98 0 0 0-.4-1.114 2.01 2.01 0 0 0-1.845.04 7.2 7.2 0 0 0-3.748 3.256c2.257-.989 5.064 1.491 3.844 3.662a13.3 13.3 0 0 1 4.014-1.295 1.42 1.42 0 0 0 1.218-.931 1.336 1.336 0 0 0-.67-1.36M88.83 63.8a.26.26 0 0 0 .182.317.263.263 0 0 0 .318-.18l1.365-3.257-.47-.205zM102.83 69.538c-.146.298.299.56.445.261l1.469-2.992-.473-.207z"/><path fill="#FC9070" d="M123.346 34.84a2.583 2.583 0 0 0-3.732 2.354c.23 1.857 2.575 2.97 4.083 2.379a2.44 2.44 0 0 0 1.495-1.79 2.806 2.806 0 0 0-1.846-2.943"/><path fill="#FFD2D2" d="M116.33 67.232c-.936-1.4-1.498-2.446-1.941-3.032l-1.317 3.022c1.231.01 1.7.01 3.258.01M137.611 51.186c-1.37-3.129-4.327-5.547-7.584-6.81a10.66 10.66 0 0 0-4.657-.743 21.6 21.6 0 0 0-5.587.946c.472 2.16.467 4.397-.013 6.555.112.149.185.323.213.506a7.4 7.4 0 0 1-.041 1.535 5.4 5.4 0 0 0 .238 2.387 23 23 0 0 0 2.191 3.836 9.6 9.6 0 0 0 2.064 2.202c1.099.836 2.09.762 2.762-.425.819-1.445.605-1.846 1.219-3.843a4.85 4.85 0 0 1 7.883-1.71 4.85 4.85 0 0 1 1.428 2.772c.077.686.059 1.38-.053 2.062a21.8 21.8 0 0 1-1.704 6.78h3.49a.263.263 0 0 1 .259.257c-.334-4.956-.116-11.76-2.108-16.307m-7.604-4.5a83 83 0 0 0-4.046 1.31c-.315.111-.449-.388-.138-.498 1.336-.471 2.674-.956 4.046-1.311a.26.26 0 0 1 .138.499"/><path fill="#F7DA31" d="M102.675 40.814a.44.44 0 0 0-.406.17c-.35.363-.384 1.857.537 2.713q.203-.958.298-1.933c.021-.334-.091-.893-.429-.95M106.859 42.325c.029-.097.04-.193-.027-.245a.63.63 0 0 0-.336-.092c-.456.026-.578 1.061-.562 1.523.412-.303.732-.713.925-1.186M112.42 46.202a.392.392 0 0 0-.01-.357c-.108-.186-.33-.005-.461.102a20 20 0 0 0-1.569 1.616c.431-.09.841-.26 1.211-.498.36-.194.65-.495.829-.863M109.732 44.414a1 1 0 0 0 .102-.433c.012-.058-.041-.11-.09-.14a.33.33 0 0 0-.264.011c-.742.27-1.005 1.31-.975 2.077a4.7 4.7 0 0 0 1.227-1.515"/><path fill="#F7DA31" d="M111.097 34.02a15.11 15.11 0 0 0-19.54 7c-.257.508-.346.737-1.355 3.05.211-.151.45-.263.702-.328a1.161 1.161 0 0 1 1.253 1.76c-.395.758-.881.804-1.625 1.527-.598.706.588 1.182 1.074 1.404.607.278 1.45.904 1.074 1.68a1.21 1.21 0 0 1-1.27.656c-1.211-.183-2.352-1.52-2.559-1.551q.042.098.102.187c.74 1.34 1.611 1.953 1.765 2.758.106.55-.173 1.262-.837 1.199-.695-.067-1.246-.657-2.13-1.261-.065-.045-.237-.21-.315-.159-.01.005-.01 0 .026.048.037.047.34.49.532.8.293.473.767 1.175.593 1.764a1.198 1.198 0 0 1-1.764.668 8 8 0 0 1-1.083-.92c-.467 1.074-1.422 3.26-1.432 3.285a.26.26 0 0 0 .092.353l27.227 11.87a.264.264 0 0 0 .354-.092l2.405-5.516A2.54 2.54 0 0 0 112.349 63c-.665-.01-1.491.062-1.967-.514a1.1 1.1 0 0 1-.017-1.388c.718-.659 1.586-.681 3.702-1.042a3 3 0 0 0-.661-.107 17 17 0 0 1-2.12-.23 2.46 2.46 0 0 1-1.208-.418 1.16 1.16 0 0 1-.076-1.655 1.17 1.17 0 0 1 .516-.321c1.14-.46 1.835-.09 3.515-.14.05 0 .195.018.159-.076-.027-.077-.181-.095-.252-.12q-.537-.196-1.069-.4c-.508-.193-1.141-.322-1.376-.871a1.12 1.12 0 0 1 .25-1.251c.433-.412 1.185-.314 1.734-.298a8.2 8.2 0 0 1 3.461.848c.432-2.679.49-3.38 1.085-4.05a1.22 1.22 0 0 1 1.212-.196c.029.009.051.026.077.036.178.068.334.184.45.334a15.08 15.08 0 0 0-8.667-17.12m1.48 12.886a3.9 3.9 0 0 1-2.7 1.222 65 65 0 0 0-10.727 15.99c-.143.301-.588.039-.446-.26A65.3 65.3 0 0 1 109.27 48.03a2.02 2.02 0 0 1-1.123-1.232l-.012.007a1.23 1.23 0 0 1-1.25.086 3.7 3.7 0 0 1-1.354-2.469 2.6 2.6 0 0 1-2.361.135 48.5 48.5 0 0 1-7.398 18.09c-.184.276-.632.017-.446-.26a48 48 0 0 0 7.37-18.107c-1.198-.914-1.481-2.706-.871-3.56a.97.97 0 0 1 1.049-.384c.659.185.791 1.063.733 1.641q-.11 1.039-.333 2.06a2.08 2.08 0 0 0 2.182-.16 4.2 4.2 0 0 1 .064-1.351 1.387 1.387 0 0 1 .614-.951.96.96 0 0 1 1.132.22c.517.672-.59 1.842-1.27 2.342.096.797.431 1.547.961 2.15a.9.9 0 0 0 .332.224c.262.004.518-.076.729-.23-.223-1.688.697-2.961 1.616-2.979.614-.011.819.6.655 1.088a4.9 4.9 0 0 1-1.695 2.127 1.41 1.41 0 0 0 1.06 1.078c.563-.624 1.124-1.264 1.735-1.842.226-.258.53-.436.867-.506.762-.043.959 1.067.32 1.66"/><path fill="#78B5FF" d="M63.578 51.07a10.2 10.2 0 0 0-4.936-6.85c-3.664-2.131-8.495-2.363-12.716-1.982a14 14 0 0 0-8.257 3.434c-2.245 2.113-5.885 1.125-6.348-1.132a4.9 4.9 0 0 1-.056-1.507.263.263 0 0 1-.258.258h-9.166a.26.26 0 0 1-.258-.258 12.75 12.75 0 0 0 1.808 8.512c2.488 3.702 6.485 5.69 10.905 6.346-.044 2.2-.21 11.84-.25 14.46a13 13 0 0 1 3.877 2.822c2.933-2.002 3.498-4.922 3.496-8.489 0-4.198.337-.416-.163-14.212a4.8 4.8 0 0 1 0-1.093 1.332 1.332 0 0 1 2.64.222c.225 1.203.48 3.554.575 4.733a3.19 3.19 0 0 1 4.402.311c.707-1.267 2.864-1.099 3.53 1.386.194.547.332 1.113.41 1.688a37.3 37.3 0 0 1-2.658 18.275 25.5 25.5 0 0 1-6.459 9.219 48 48 0 0 1 .99 5.773.2.2 0 0 1-.03.117c.078.212.355.983.414 1.156l9.309.076c0-11.228-.04-10.654.062-10.772.058-.077-.163.077 9.98-6.091.073-7.272.248-21.289-.843-26.402"/><path fill="#000" d="M51.55 28.447c.022-.411-.067-.82-.257-1.186a.1.1 0 0 1-.04-.052 2.57 2.57 0 0 0-1.651-.652 3.67 3.67 0 0 0-1.785.086 1.4 1.4 0 0 0-.782 1.341 26.6 26.6 0 0 0-.011 4.588 2.287 2.287 0 0 1 3.413-1.602c.535.38.903.952 1.03 1.596q.191-2.057.082-4.12M31.64 64.211c-1.653-1.951-4.75-1.534-6.502.194a9.6 9.6 0 0 0-2.131 3.299c-.72 1.803-1.339 3.967-1.563 4.384a11.9 11.9 0 0 1-5.561 4.599c-1.344.53-2.774.797-3.962 1.67a6.1 6.1 0 0 0-2.279 3.303 3.31 3.31 0 0 0 1.26 3.619 5.26 5.26 0 0 0-2.856 2.424c-.984 2.071.236 4.025 1.984 4.123a5.5 5.5 0 0 0-1.27 2.173 2.65 2.65 0 0 0 .62 2.608 2.86 2.86 0 0 0 2.438.57q.08-.013.159-.031c.198-1.036 1.913-9.338 2.225-10.6 1.195-4.827 3.415-9.95 7.452-12.884a12.55 12.55 0 0 1 10.522-1.995c.111.03.407.112.515.154.061-3.29.43-5.864-1.05-7.61m-.637 3.905a2.685 2.685 0 0 1-2.865 2.04 2.77 2.77 0 0 1-2.522-2.694 2.33 2.33 0 0 1 1.727-2.415 3.57 3.57 0 0 1 2.38.195 2.57 2.57 0 0 1 1.28 2.874"/><path fill="#FFD2D2" d="M29.725 65.242a3.11 3.11 0 0 0-3.588.568 2.757 2.757 0 0 0 2 4.346 2.686 2.686 0 0 0 2.866-2.04 2.57 2.57 0 0 0-1.278-2.874M52.816 59.722c.113 1.116-.433 2.309-1.57 2.379a2.14 2.14 0 0 1-1.815-1.233 1.611 1.611 0 0 1-2.862.392c-.08.62.003 1.25.238 1.829.146.297-.3.56-.446.26-.698-1.418.07-2.915-.549-4.072a1.151 1.151 0 0 0-2.025.13 7.7 7.7 0 0 0-.613 3.013c-.032.328-.549.33-.518 0 .133-1.371.173-2.564.889-3.58a1.627 1.627 0 0 1 2.378-.204 2.3 2.3 0 0 0-.161-.485c-.14-.3.306-.561.445-.26.235.714.374 1.455.415 2.206a1.53 1.53 0 0 0 1.057 1.322 1.047 1.047 0 0 0 1.261-.713 4.26 4.26 0 0 0 .122-1.968 6.7 6.7 0 0 0-.331-1.465.26.26 0 0 1 .147-.345.26.26 0 0 1 .338.162c.305.897.441 1.842.402 2.788a.25.25 0 0 1 .044.105 1.87 1.87 0 0 0 1.513 1.603 1.03 1.03 0 0 0 .911-.59c.185-.398.258-.838.21-1.274-.013-.333.504-.33.517 0a9 9 0 0 0-.41-1.688 3.8 3.8 0 0 0-.811-1.525 1.67 1.67 0 0 0-2.72.14 3.19 3.19 0 0 0-4.401-.311c-.094-1.176-.35-3.53-.575-4.734a1.332 1.332 0 0 0-2.64-.221c-.048.788-.033 1.58.045 2.366.43 11.62.114 9.522.117 12.938 0 3.567-.562 6.487-3.496 8.49 3.04 3.17 4.783 7.749 5.775 12.045a25.5 25.5 0 0 0 6.459-9.22 37.2 37.2 0 0 0 2.66-18.28"/><path fill="#9E647B" d="M50.436 30.97a2.3 2.3 0 0 0-3.453 2.12 2.1 2.1 0 0 0 1.596 1.743 2.47 2.47 0 0 0 2.817-1.381 2.29 2.29 0 0 0-.96-2.482"/><path fill="#C0C195" d="M43.7 87.216c-1.523-6.664-4.898-13.765-11.52-15.547a12.55 12.55 0 0 0-10.524 1.994c-4.654 3.382-6.884 9.63-7.98 15.283a2.5 2.5 0 0 0-.088.475 5.394 5.394 0 0 1 8.876-2.845 5.56 5.56 0 0 1 1.787 4.554c-.014.837.054 7.028.072 9.284a44 44 0 0 1 3.063-5.6c2.063-3.258 5.06-6.869 8.856-7.532a6.6 6.6 0 0 1 4.968 1.006 8.64 8.64 0 0 1 3.105 3.906c.122.307.235.614.349.916a.2.2 0 0 0 .03-.117 47 47 0 0 0-.994-5.777"/><path fill="#9E647B" d="M40.775 32.782c.47.06.942.106 1.413.149q.676.102 1.358.07c1.522-.172 1.732-2.212-.646-2.326a10.2 10.2 0 0 1-2.513-.474c.05-.193.997-.209 1.611-.146.41.043.824.022 1.228-.064a.856.856 0 0 0 .525-1.085c-.37-1.092-2.648-1.305-3.842-1.381a18.6 18.6 0 0 0-6.973.787c-6.435 2.045-10.67 8.056-11.356 14.722a.26.26 0 0 0 .259.258h9.169a.264.264 0 0 0 .258-.258A6.7 6.7 0 0 1 33.1 38.8c.443-.433.997-.738 1.366-.245.383.507 1.297 2.858 2.727 1.918 1.525-1.004-.69-3.16.23-4.152a2.08 2.08 0 0 1 1.476-.517c2.028-.031 2.916.82 4.027.8 1.006.047 1.855-.988 1.212-1.8a3 3 0 0 0-1.124-.866 9 9 0 0 0-2.02-.645c-.178-.034-.662-.02-.67-.285s.268-.25.45-.225m-4.77-1.35c.193-.266.644-.007.446.261a1.89 1.89 0 0 0 .405 2.651c.27.192.013.636-.261.446a2.395 2.395 0 0 1-.59-3.36zm-12.68 8.21c.055-.328.553-.188.5.137l-.331 2.003c-.055.328-.552.188-.499-.137z"/><path fill="#000" d="M56.404 24.9a.257.257 0 0 0-.093-.354.26.26 0 0 0-.354.093q-1.455 2.394-2.873 4.81a.259.259 0 0 0 .446.261zM54.997 30.22 57.94 28c.262-.198.005-.646-.26-.446l-2.945 2.225c-.262.193-.005.642.26.442"/><path fill="#2755A0" d="M45.073 94.262a59 59 0 0 0-.762-2.072 8.7 8.7 0 0 0-2.622-3.552c-2.8-2.204-6.327-1.787-9.197.35-3.39 2.526-6.538 7.82-8.173 11.536 0 .455.044 6.941.045 7.114h30.018V94.336zm-7.705 5.502a123 123 0 0 0-2.755 7.457.259.259 0 0 1-.499-.137q1.257-3.772 2.756-7.457c.125-.305.624-.17.498.137m3.146-8.97-1.516-.534c-.312-.11-.177-.608.137-.498l1.517.532c.313.11.178.609-.136.5zm5.917 11.747a18.3 18.3 0 0 1-1.166 4.598.259.259 0 0 1-.5-.134c1.497-4.114 1.803-7.424.077-12.098-.117-.313.388-.445.498-.137a16.6 16.6 0 0 1 1.093 7.771z"/><path fill="#FFD2D2" d="M143.38 89.681c-2.832-2.334-8.256-6.954-10.575-9.812-4.971 3.09-9.55 6.024-12.481 11.125a32.56 32.56 0 0 0 12.613 9.273q.067.018.135.001a.25.25 0 0 0 .116-.068c2.519-2.467 9.294-9.25 10.192-10.154a.26.26 0 0 0 0-.365"/><path fill="#FC9070" d="M91.608 48.434c-.487-.222-1.673-.698-1.074-1.404q.41-.4.895-.707c1.829-1.304.538-3.48-1.227-2.252-.34.237-.659.53-.939.76a21.2 21.2 0 0 0-3.948 3.69 4.46 4.46 0 0 0-.235 5.07q.383.496.872.888.402.413.877.741a1.196 1.196 0 0 0 1.765-.668c.176-.587-.3-1.29-.593-1.765a17 17 0 0 0-.532-.8c-.04-.05-.036-.041-.027-.047.077-.05.25.114.316.16.897.613 1.435 1.193 2.13 1.26.663.063.942-.648.836-1.199a3.8 3.8 0 0 0-.892-1.461q-.547-.703-.975-1.484c.207.03 1.355 1.37 2.558 1.551a1.21 1.21 0 0 0 1.27-.656c.374-.774-.47-1.4-1.077-1.677m-4.204-1.381a.24.24 0 0 1 .176.119c.2.344.419.677.614 1.023a.258.258 0 0 1-.446.26c-.21-.338-.411-.682-.614-1.022a.26.26 0 0 1 .27-.38m-1.783 4.69-.573-.792c-.195-.269.253-.527.446-.26l.572.79c.196.27-.252.528-.445.26z"/><path fill="#2755A0" d="M36.87 99.627a123 123 0 0 0-2.756 7.457.257.257 0 0 0 .18.318.26.26 0 0 0 .318-.181 124 124 0 0 1 2.756-7.457c.125-.307-.374-.442-.498-.137"/><path fill="#FF4848" d="M139.72 67.488a.266.266 0 0 0-.259-.257h-3.49a11.98 11.98 0 0 1-7 6.535c-3.106.958-6.872.146-10.266-3.495a24 24 0 0 1-2.378-3.04s-2.821-.007-3.258-.011l-1.087 2.494a.264.264 0 0 1-.354.093l-.642-.28a27.8 27.8 0 0 0 1.527 5.542c-3.075 2.643-7.268 6.725-8.894 10.435a43.3 43.3 0 0 0-2.992 13.912.26.26 0 0 0 .258.259h16.385a.26.26 0 0 0 .25-.19 22.02 22.02 0 0 1 8.336-14.858 61 61 0 0 1 6.945-4.757c2.762-1.648 5.11-3.66 6.215-6.663.34-.942.566-1.92.672-2.916q.092-1.4.032-2.803m-29.636 13.504a11.5 11.5 0 0 0-1.343 1.792.259.259 0 0 1-.447-.26c.401-.684.879-1.321 1.425-1.897.226-.244.591.122.365.366m6.381-8.45c-.09.2-1.363.843-3.418 2.736-.231.213-.568-.104-.393-.33a28.5 28.5 0 0 1 3.46-2.744c.231-.156.444.13.351.338"/><path fill="#FFD2D2" d="M27.25 110.289a74 74 0 0 1-1.758-.027c-.36-.009-.728-.033-1.091-.02-.022-.868-.168-18.279-.154-19.115a6.8 6.8 0 0 0-.394-2.561 5.36 5.36 0 0 0-7.019-2.993 5.48 5.48 0 0 0-3.264 3.89c-1.434 6.341-2.962 15.167-3.942 20.903a7.3 7.3 0 0 0-3.563.23c-1.99.698-1.888 2.588-.675 2.998.62.168.668.12 3.648.181-.544 2.514-1.182 3.2-.682 4.023a1.33 1.33 0 0 0 1.698.506c.358-.213.685-.473.974-.772 2.138-1.896 4.212-4.46 5.156-3.523.553.724.88 2.471 1.545 3.747a1.14 1.14 0 0 0 1.342.655 1.98 1.98 0 0 0 1.295-1.367c.281-1.035.358-2.581.776-3.026.54-.29 1.16-.395 1.765-.3.826.025 3.873.135 4.568.136a1.77 1.77 0 0 0 1.74-1.353 1.96 1.96 0 0 0-1.965-2.212m-9.409.965a8 8 0 0 0-.92.828c-.23.241-.596-.125-.366-.366a9 9 0 0 1 1.028-.909c.264-.2.52.248.258.447m-4.972-.167-1.385.767c-.292.16-.553-.286-.261-.447l1.386-.767c.291-.16.552.286.26.447m.733-12.603a13 13 0 0 0 .555-2.265c.05-.327.547-.188.499.138-.117.77-.303 1.528-.556 2.265-.107.313-.607.178-.498-.138"/><path fill="#000" d="M118.044 103.47a22.03 22.03 0 0 0-14.534-1.439 18.7 18.7 0 0 0-3.857 1.434.26.26 0 0 0 .12.487h18.141c.241 0 .37-.369.13-.482M146.893 90.925c-3.492 3.499-4.093 4.932-6.291 7.123a17.6 17.6 0 0 1-6.412 4.12.27.27 0 0 0-.157.091.27.27 0 0 0 .15.437c2.65 1.034 6.474.026 9.223-4.03a42 42 0 0 0 3.893-7.428c.107-.253-.181-.538-.406-.313M91.004 34.124c.257.206.625-.154.366-.365l-3.089-2.48c-.256-.205-.624.154-.365.366z"/><path fill="#FC9070" d="M137.728 58.39a4.85 4.85 0 0 0-9.311-1.063c-.597 1.945-.404 2.407-1.219 3.843-.676 1.192-1.673 1.254-2.762.426a9.6 9.6 0 0 1-2.064-2.202 23.7 23.7 0 0 1-2.072-3.554 5.1 5.1 0 0 1-.361-2.669 7.4 7.4 0 0 0 .041-1.534 1.05 1.05 0 0 0-.663-.84c-.028-.011-.049-.028-.077-.037a1.22 1.22 0 0 0-1.212.196c-.294.33-.491.735-.572 1.17-.242.997-.316 1.668-.513 2.88a8.2 8.2 0 0 0-3.461-.848c-.55-.016-1.301-.114-1.734.297a1.12 1.12 0 0 0-.25 1.252c.235.55.868.678 1.376.872q.532.203 1.069.398c.07.026.225.041.252.121.036.097-.109.077-.159.077-1.668.048-2.379-.32-3.515.139a1.163 1.163 0 0 0-.441 1.976c.359.243.776.388 1.209.418a17 17 0 0 0 2.12.23q.336.019.661.107c-2.094.357-2.992.388-3.702 1.042a1.1 1.1 0 0 0 .017 1.388c.476.576 1.304.502 1.967.514 2.401.042 2.584 3.234 6.352 7.276 3.4 3.646 7.167 4.45 10.266 3.495a11.97 11.97 0 0 0 7-6.536 20.9 20.9 0 0 0 1.704-6.78 7.5 7.5 0 0 0 .054-2.055m-17.738 4.392c.16.089 3.831 2.193 3.831 2.193a.256.256 0 0 1 .092.353.257.257 0 0 1-.353.093c-.16-.09-3.831-2.193-3.831-2.193a.257.257 0 0 1-.093-.353.257.257 0 0 1 .354-.093m5.605 8.968a4.15 4.15 0 0 0 2.314-.034c.318-.101.453.398.137.498a4.4 4.4 0 0 1-2.589.035.258.258 0 0 1-.059-.474.26.26 0 0 1 .197-.025m-8.824-14.584c.328.054.188.552-.137.499l-1.293-.21c-.328-.052-.188-.55.137-.498zm-1.287 2.93c.466.139.947.219 1.432.24.332.014.333.53 0 .516a6.4 6.4 0 0 1-1.569-.257.26.26 0 0 1-.156-.121.25.25 0 0 1-.025-.197.258.258 0 0 1 .318-.18"/><path fill="#000" d="m103.968 28.82-.638-4.117c-.052-.327-.55-.187-.499.138l.638 4.115c.051.328.55.188.499-.137M115.875 30.569l2.135-4.35c.146-.297-.3-.559-.447-.26l-2.134 4.35c-.147.296.299.558.446.26M125.961 47.996a82 82 0 0 1 4.045-1.31.26.26 0 0 0 .157-.122.27.27 0 0 0 .024-.197.26.26 0 0 0-.217-.188.3.3 0 0 0-.101.008c-1.372.355-2.711.84-4.046 1.311-.309.11-.177.61.138.498M79.983 43.052a.26.26 0 0 0-.317.18.263.263 0 0 0 .18.318l3.99 1.675a.26.26 0 0 0 .317-.18.263.263 0 0 0-.18-.319zM149.65 62.923h-4.356a.259.259 0 1 0 0 .517h4.356a.26.26 0 0 0 .182-.075.257.257 0 0 0 0-.366.26.26 0 0 0-.182-.076M140.936 52.748h3.168a.26.26 0 0 0 .183-.076.26.26 0 0 0 0-.366.26.26 0 0 0-.183-.075h-3.168a.257.257 0 0 0-.259.258.257.257 0 0 0 .259.258M150.045 47.615h-6.292a.26.26 0 0 0-.173.08.256.256 0 0 0 0 .355.26.26 0 0 0 .173.08h6.292a.26.26 0 0 0 .245-.257.26.26 0 0 0-.245-.258"/><path fill="#FF4848" d="M52.816 59.722c-.014-.33-.531-.333-.517 0a2.4 2.4 0 0 1-.213 1.274 1.03 1.03 0 0 1-.914.588 1.87 1.87 0 0 1-1.51-1.603.25.25 0 0 0-.044-.105 7.7 7.7 0 0 0-.402-2.787.26.26 0 1 0-.485.182c.165.474.277.966.331 1.465.114.657.072 1.33-.121 1.968a1.05 1.05 0 0 1-1.262.713c-1.524-.493-.87-2.245-1.475-3.525-.142-.3-.586-.039-.446.261q.106.233.162.484a1.64 1.64 0 0 0-2.379.204c-.715 1.015-.753 2.185-.888 3.58-.032.33.485.329.517 0 0-1.035.208-2.06.614-3.012a1.15 1.15 0 0 1 2.025-.13c.613 1.15-.148 2.658.548 4.072.147.299.592.037.447-.26a3.64 3.64 0 0 1-.239-1.83 1.61 1.61 0 0 0 2.863-.391 2.14 2.14 0 0 0 1.814 1.232c1.139-.07 1.688-1.277 1.574-2.38"/><path fill="#FFC431" d="M96.68 109.454c0-20.332.043-24.655-.017-25.626-.02-.307-.05-.276-.094-.307-.08-.06-20.666-12.78-20.743-12.827a.26.26 0 0 0-.26 0c-.452.27-20.898 12.683-20.979 12.743-.307.23-.198.224-.205.288 0 27.482-.026 25.989.035 26.203.062.09-1.415-.955 20.839 14.569q.06.037.13.037a.24.24 0 0 0 .13-.037c4.544-3.126 21.005-14.444 21.087-14.517.123-.127.077-.365.077-.526M75.697 71.222S95.756 83.63 95.911 83.728c0 0-20.157 12.103-20.383 12.26-.649-.39-19.643-11.847-20.38-12.271 3.13-1.9 20.474-12.442 20.55-12.495m.125 44.67a.26.26 0 0 1-.076.183.26.26 0 0 1-.441-.183v-13.067a.26.26 0 0 1 .442-.175.26.26 0 0 1 .075.175c.045 2.571.058 9.699 0 13.068z"/><path fill="#2755A0" d="M90.944 82.86a2.76 2.76 0 0 0-2.443-1.216s-25.521-.019-25.883.011A2.55 2.55 0 0 0 60.34 83.1c-.43 1.19.786 2.609 3.074 2.45 0 0 24.637-.005 25.044 0 1.976.02 3.149-1.452 2.485-2.69m-8.047.03a.258.258 0 1 1 .517 0v1.317a.258.258 0 1 1-.517 0zm-15.71 0a.259.259 0 0 1 .517 0v1.222a.259.259 0 0 1-.516 0zM39 90.26l1.515.533c.315.11.45-.389.138-.499l-1.517-.532c-.314-.11-.45.39-.137.498"/><path fill="#000" d="M123.826 64.971s-3.67-2.104-3.831-2.193a.258.258 0 1 0-.26.447s3.671 2.103 3.831 2.192a.26.26 0 0 0 .368-.29.25.25 0 0 0-.108-.156M96.164 112.528v6.138a.26.26 0 0 0 .08.173.256.256 0 0 0 .356 0 .26.26 0 0 0 .08-.173v-6.138a.259.259 0 0 0-.516 0"/><path fill="#FF4848" d="m12.608 110.641-1.385.767c-.292.161-.031.607.26.447l1.386-.767c.292-.162.031-.608-.26-.447"/><path fill="#000" d="M55.56 118.666v-6.138a.257.257 0 0 0-.26-.259.257.257 0 0 0-.258.259v6.138c0 .068.027.134.076.182a.257.257 0 0 0 .365 0 .26.26 0 0 0 .076-.182M75.128 125.992v3.194c0 .068.028.134.076.182a.257.257 0 0 0 .366 0 .26.26 0 0 0 .075-.182v-3.194a.26.26 0 0 0-.075-.183.26.26 0 0 0-.442.183"/><path fill="#FF4848" d="M17.58 110.807a9 9 0 0 0-1.026.909c-.23.241.135.607.365.366q.427-.45.92-.828c.264-.199.007-.647-.258-.447M14.157 96.22a13 13 0 0 1-.554 2.264c-.109.316.39.45.498.138.253-.737.439-1.495.555-2.265.048-.326-.449-.465-.499-.138"/><path fill="#000" d="M75.823 115.893v-13.068a.257.257 0 0 0-.26-.259.257.257 0 0 0-.258.259v13.068a.257.257 0 0 0 .259.259.257.257 0 0 0 .259-.259"/><path fill="#2755A0" d="M45.34 94.77a.26.26 0 0 0-.144-.153c-.182-.077-.44.058-.354.291 1.716 4.638 1.436 7.947-.077 12.098a.259.259 0 0 0 .5.134c.58-1.478.972-3.023 1.166-4.598.263-2.64-.11-5.306-1.091-7.772"/><path fill="#000" d="M36.594 34.788c.274.19.531-.254.261-.446a1.886 1.886 0 0 1-.405-2.65c.198-.268-.253-.528-.446-.261a2.4 2.4 0 0 0 .59 3.357M23.494 41.777l.33-2.002c.054-.326-.444-.465-.498-.138l-.331 2.003c-.054.325.444.465.498.137"/><path fill="#FF4848" d="M127.911 71.712a4.15 4.15 0 0 1-2.314.035.259.259 0 1 0-.137.498 4.4 4.4 0 0 0 2.585-.035c.32-.1.185-.6-.134-.498M115.342 57.452l1.292.21c.326.052.465-.446.138-.5l-1.293-.209c-.323-.052-.465.446-.137.499M116.916 60.339a6 6 0 0 1-1.432-.243.26.26 0 0 0-.272.09.26.26 0 0 0-.021.288.26.26 0 0 0 .156.121c.51.151 1.037.238 1.569.257.333.018.332-.5 0-.513"/><path fill="#FC9070" d="M116.114 72.205a31 31 0 0 0-3.434 2.707.26.26 0 0 0 .012.355.26.26 0 0 0 .354.011 29 29 0 0 1 3.329-2.628c.261-.177.021-.635-.261-.445M109.719 80.628a10.4 10.4 0 0 0-1.425 1.897.26.26 0 0 0-.02.193.256.256 0 0 0 .31.18.26.26 0 0 0 .157-.113q.584-.962 1.343-1.792c.226-.244-.139-.61-.365-.365"/><path fill="#FF4848" d="M85.494 50.69c-.194-.267-.642-.009-.446.26l.572.792c.194.267.642.009.446-.261zM87.75 48.455a.259.259 0 0 0 .446-.261c-.197-.345-.416-.678-.614-1.023a.259.259 0 0 0-.447.261c.204.34.406.684.615 1.023"/><path fill="#000" d="M120.324 38.791c1.43 1.368 3.711 1.483 4.68-.23a13.2 13.2 0 0 1 3.965-1.273c2.065-.438 1.412-2.415.051-2.668 2.274-1.713.273-3.19-1.81-2.153a1.04 1.04 0 0 0-.473-1.015 2.08 2.08 0 0 0-1.934.029 7.3 7.3 0 0 0-3.781 3.272 2.4 2.4 0 0 0-.966.725 2.426 2.426 0 0 0 .268 3.313m6.048-5.583a.36.36 0 0 0 .22.32.36.36 0 0 0 .382-.07c1.011-.93 3.094-.82 2.08.194a6.2 6.2 0 0 1-1.907 1.252c-.383.164-.122.78.267.651l.043-.014c.599-.198 1.419-.469 1.912.035a.6.6 0 0 1 .19.589c-.394.69-1.509.221-4.246 1.458.185-1.673-1.555-3.215-3.299-3.114a6.5 6.5 0 0 1 3.719-2.572.7.7 0 0 1 .748.245c.092.28-.063.437-.109 1.026m-2.47 5.559c-1.476 1.108-4.413-.62-3.514-2.47.892-1.838 3.625-1.22 4.192.751a1.73 1.73 0 0 1-.678 1.719M46.885 33.094A2.23 2.23 0 0 0 49.152 35a2.59 2.59 0 0 0 2.332-1.517c.109-.295.135-.613.077-.921.127-1.368.154-2.743.081-4.115.077-1.42-.656-1.794-2.024-1.983a3.8 3.8 0 0 0-1.841.09 1.5 1.5 0 0 0-.844 1.422 27.4 27.4 0 0 0-.013 4.597q-.045.259-.035.522m4.05-1.801a2.32 2.32 0 0 0-3.385 0 22.6 22.6 0 0 1 .106-3.44.71.71 0 0 1 .332-.62c.293-.105.605-.144.915-.116q.55.008 1.086.137c.756.101 1.033.518.956 1.453q.062 1.292-.01 2.586m-.436.6c.233.278.37.625.39.987-.007.826-1.062 1.466-1.868 1.412a1.595 1.595 0 0 1-1.43-1.209c-.121-1.705 2.062-2.45 2.91-1.19zM28.128 70.251a2.79 2.79 0 0 0 2.968-2.114 2.67 2.67 0 0 0-1.332-2.982 3.22 3.22 0 0 0-3.705.597 2.853 2.853 0 0 0 2.069 4.5m-.892-4.521c1.439-.552 3.137.087 3.208 1.668a2.04 2.04 0 0 1-1.753 2.124 2.15 2.15 0 0 1-2.436-1.786 1.836 1.836 0 0 1 .98-2.006M53.143 29.884a.357.357 0 0 0 .47-.124l2.875-4.815a.355.355 0 0 0-.614-.357A390 390 0 0 0 53 29.402a.35.35 0 0 0 .144.482M55.055 30.298l2.944-2.221c.361-.273-.008-.879-.377-.6l-2.944 2.225c-.363.27.006.874.377.595"/><path fill="#000" d="M143.447 90.114a.359.359 0 0 0-.006-.506c-2.348-1.934-8.031-6.725-10.491-9.712a16.9 16.9 0 0 0 4.314-3.503c1.927-2.217 2.785-5.217 2.55-8.91-.438-6.96-.005-14.591-3.845-19.076a14.45 14.45 0 0 0-8.342-4.776 19.7 19.7 0 0 0-7.778.826 15.203 15.203 0 0 0-28.377-3.48c-.264.523-.39.83-1.347 3.03-.336.23-.652.526-.92.748a21.3 21.3 0 0 0-3.966 3.71 4.8 4.8 0 0 0-.759 4.102c.196.69.597 1.303 1.151 1.757l-1.4 3.212a.36.36 0 0 0 .139.488l5.734 2.5-1.361 3.25a.354.354 0 0 0 .679.2l1.328-3.168 13.395 5.84-1.397 2.85c-.202.41.413.761.618.346l1.428-2.916 6.114 2.665a28 28 0 0 0 1.498 5.448c-3.163 2.724-7.248 6.73-8.867 10.427-1.894 4.325-2.791 10.04-3.001 13.952a.36.36 0 0 0 .355.354h16.386a.36.36 0 0 0 .344-.273 23.5 23.5 0 0 1 2.722-8.337 32.8 32.8 0 0 0 12.569 9.196.36.36 0 0 0 .346-.09c2.541-2.494 9.401-9.364 10.187-10.154m-11.112-9.838c2.594 3.105 8.023 7.702 10.339 9.616-3.453 3.452-5.659 5.87-9.744 9.713a31.9 31.9 0 0 1-12.214-9.08c2.978-4.699 7.193-7.536 11.619-10.25m-31.067 18.788c.234-3.97.996-7.892 2.266-11.662.722-2.099 1.863-4.522 5.298-8.021a64 64 0 0 1 7.492-6.577c.127-.085.177-.119.216-.198a79 79 0 0 1 2.517-1.833c2.978 2.992 6.598 4.118 9.942 3.088a11.88 11.88 0 0 0 6.725-5.917h3.406a11.44 11.44 0 0 1-2.026 7.52c-2.334 3.15-5.376 3.876-11.116 8.286a22.5 22.5 0 0 0-9.015 15.322zm11.066-52.903a1.86 1.86 0 0 1-.795.823 3.5 3.5 0 0 1-.86.403q.635-.728 1.347-1.381c.348-.279.384-.001.308.155m-3.734-.442c.045-1.657 1.151-1.966 1.138-1.738 0 .555-.721 1.363-1.138 1.738m-2.57-2.41a2.5 2.5 0 0 1 .235-1.044c.19-.317.565-.182.505.025a2.6 2.6 0 0 1-.74 1.02m-3.72-2.218a.31.31 0 0 1 .243-.179.31.31 0 0 1 .28.111c.282.45.201.868-.09 2.475a2.29 2.29 0 0 1-.433-2.407m.93 3.6a2.67 2.67 0 0 0 2.226-.124 3.73 3.73 0 0 0 1.381 2.409 1.33 1.33 0 0 0 1.257-.036 2.1 2.1 0 0 0 1.013 1.122 65.5 65.5 0 0 0-10.358 15.467l-2.686-1.168a48.5 48.5 0 0 0 7.167-17.67m6.68 3.533a3.97 3.97 0 0 0 2.722-1.247c.699-.648.476-1.879-.405-1.827-.587.124-.851.384-2.617 2.336a1.33 1.33 0 0 1-.914-.936 5.04 5.04 0 0 0 1.675-2.13.849.849 0 0 0-.75-1.215 1.49 1.49 0 0 0-1.074.573 3.22 3.22 0 0 0-.639 2.451c-.176.124-.386.19-.601.19a.75.75 0 0 1-.289-.2 3.8 3.8 0 0 1-.928-2.044 3.62 3.62 0 0 0 1.385-1.841c.112-.796-.79-1.14-1.404-.844a1.49 1.49 0 0 0-.652 1.012 4.3 4.3 0 0 0-.072 1.324 1.97 1.97 0 0 1-1.971.153q.214-.988.319-1.995c.056-.547-.051-1.534-.802-1.742a1.08 1.08 0 0 0-1.151.421c-.622.873-.384 2.686.844 3.656a47.5 47.5 0 0 1-7.175 17.757c-.955-.419-9.398-4.122-10.415-4.554l1.174-2.692a1.66 1.66 0 0 0 1.568.63 1.3 1.3 0 0 0 .81-.593c.417-.69-.031-1.411-.427-2.049q-.193-.313-.4-.618c.892.614 1.429 1.19 2.148 1.259.696.067 1.068-.65.941-1.311-.142-.735-.767-1.173-1.658-2.58a5.1 5.1 0 0 0 2.24 1.298c1.217.181 2.522-1.49.16-2.558-.638-.288-1.408-.676-.96-1.208q.406-.393.884-.697c1.611-1.15.895-2.945-.417-2.786l.65-1.491a14.494 14.494 0 0 1 27.533 8.54 1.32 1.32 0 0 0-1.292.231c-.607.684-.669 1.357-1.088 3.97a8.3 8.3 0 0 0-3.383-.8c-.591-.017-1.341-.115-1.803.323a1.215 1.215 0 0 0-.273 1.36c.279.648.921.708 2.545 1.339-1.534.034-2.331-.314-3.468.143a1.257 1.257 0 0 0-.461 2.149c.37.25.8.4 1.245.433q1.106.187 2.226.239c-1.433.23-2.49.326-3.205.984a1.2 1.2 0 0 0 .017 1.509c.499.604 1.305.537 2.038.549a2.2 2.2 0 0 1 1.557.69s-2.058 4.68-2.332 5.34l-12.167-5.306a64.6 64.6 0 0 1 10.512-15.595M85.022 51.08l.52.718c.263.366.875.004.602-.373l-.574-.791a.37.37 0 0 0-.484-.104 5.8 5.8 0 0 1 1.976-3.03s.468.783.605 1.005a.356.356 0 0 0 .614-.359c-.199-.349-.412-.673-.614-1.023a.4.4 0 0 0-.083-.097c.67-.581 2.665-2.25 3.096-2.525.14-.09.62-.354.907-.02a.68.68 0 0 1 .016.767c-.33.607-1.058.844-1.524 1.372a1.2 1.2 0 0 0-.287 1.032c.371 1.28 1.88 1.086 2.31 1.898a.34.34 0 0 1-.01.377.67.67 0 0 1-.59.236c-1.003-.237-1.482-.866-2.262-1.433a.644.644 0 0 0-.893.13c-.234.315-.033.654.128.926.974 1.654 1.93 2.24 1.638 2.839-.153.31-.68-.073-.963-.28-.241-.176-.183-.124-.717-.521-.534-.398-.79-.587-1.134-.492a.64.64 0 0 0-.445.78c.08.292.66.852 1.074 1.837a.58.58 0 0 1 .005.586.576.576 0 0 1-.735.183 4 4 0 0 1-.792-.661 5 5 0 0 1-.8-.788 3.8 3.8 0 0 1-.584-2.189m34.468 4.346a21 21 0 0 0 2.268 4.161c.564.826 2.548 3.493 4.421 3.155 1.625-.294 2.287-2.922 2.455-3.726.096-.664.287-1.31.567-1.919a4.25 4.25 0 0 1 5.75-1.715 4.17 4.17 0 0 1 2.216 3.489 12 12 0 0 1-.165 2.122 19.7 19.7 0 0 1-1.798 6.445c-1.611 3.25-4.944 6.091-8.67 6.091-5.274 0-8.824-5.009-11.045-8.788-.735-1.252-1.633-2.353-3.087-2.353-.544 0-1.292.1-1.573-.341-.422-.665.627-.92 1.408-1.07 1.698-.328 2.519-.196 2.515-.933 0-.653-.897-.694-1.377-.717a12 12 0 0 1-2.717-.39.54.54 0 0 1-.362-.498c.021-.39.515-.584.659-.631a4.8 4.8 0 0 1 1.78-.055 6.2 6.2 0 0 0 1.591.013.68.68 0 0 0 .487-.636.679.679 0 0 0-.463-.654c-.359-.14-1.666-.622-1.965-.736a.486.486 0 0 1-.223-.805.5.5 0 0 1 .296-.144 8.05 8.05 0 0 1 4.504.942.36.36 0 0 0 .271.037.351.351 0 0 0 .217-.167 6.4 6.4 0 0 0 .181-1.005c.079-1 .294-1.985.639-2.927a.53.53 0 0 1 .629-.356.5.5 0 0 1 .461.306q.038.091.038.19c-.004 1.818-.303 2.045.092 3.615m-6.273 11.7 1.193-2.737c.376.526.865 1.427 1.74 2.745-.57 0-2.333-.005-2.933-.008m-1.145 2.627.832-1.91h3.731a22 22 0 0 0 1.925 2.413c-1.564 1.103-4.309 3.142-5.598 4.278a27 27 0 0 1-1.285-4.603.36.36 0 0 0 .395-.178m24.043-2.62a21.8 21.8 0 0 0 1.654-6.667 5.48 5.48 0 0 0-.516-3.772 4.954 4.954 0 0 0-8.924.605c-.597 1.943-.405 2.402-1.21 3.824a2.2 2.2 0 0 1-.768.812c-.551.325-1.393-.065-1.853-.416a9.5 9.5 0 0 1-2.044-2.18 25 25 0 0 1-1.572-2.557 9 9 0 0 1-.729-1.643c-.384-1.656.064-1.964-.07-3.513a1.2 1.2 0 0 0-.206-.513c.433-1.958.474-3.983.12-5.957a22.8 22.8 0 0 1 4.154-.832 12.4 12.4 0 0 1 4.25.164 13.37 13.37 0 0 1 8.107 5.874c2.465 4.166 2.258 11.457 2.583 16.772z"/><path fill="#000" d="M96.775 83.805a.4.4 0 0 0-.149-.36c-.094-.072-20.562-12.721-20.751-12.833a.35.35 0 0 0-.36 0l-10.993 6.687c.054-5.525.279-20.95-.85-26.25a10.26 10.26 0 0 0-4.982-6.914c-3.11-1.808-7.407-2.48-12.773-1.995a14.1 14.1 0 0 0-8.314 3.46c-2.201 2.072-5.745 1.09-6.188-1.08-.439-2.141.825-5.383 2.373-6.085.409-.186.643.187.856.579.639 1.173 1.483 2.272 2.602 1.534 1.59-1.046-.61-3.244.243-4.16a1.97 1.97 0 0 1 1.414-.493c1.94-.035 2.926.819 4.02.8 1.093.048 1.987-1.08 1.293-1.954a3.1 3.1 0 0 0-1.16-.896 8.4 8.4 0 0 0-2.183-.669c-.167-.017-.447-.046-.451-.175-.009-.235.277-.113 1.75.02q.688.103 1.382.07a1.203 1.203 0 0 0 1.166-1.515 1.78 1.78 0 0 0-1.812-.998 14 14 0 0 1-2.323-.405c.977-.198 1.573.147 2.67-.092a.956.956 0 0 0 .584-1.207c-.281-.834-1.566-1.305-3.927-1.443a18.6 18.6 0 0 0-7.008.791c-10.382 3.3-14.181 16.55-9.59 23.376 2.31 3.44 6.074 5.642 10.887 6.375q-.132 7.115-.246 14.23-.57-.258-1.164-.453c.062-3.08.428-5.824-1.074-7.6-1.672-1.973-4.823-1.607-6.642.186-1.749 1.723-2.369 3.785-3.193 6.26-.234.707-.42 1.266-.516 1.445a11.78 11.78 0 0 1-5.515 4.559c-1.334.526-2.781.798-3.984 1.682a6.24 6.24 0 0 0-2.315 3.356 3.43 3.43 0 0 0 1.151 3.626 5.13 5.13 0 0 0-2.736 2.398c-.997 2.086.19 4.011 1.87 4.242-.53.6-.926 1.306-1.16 2.071a2.75 2.75 0 0 0 .65 2.709 2.93 2.93 0 0 0 2.514.59c.076-.013.052-.608-2.288 12.993a7.2 7.2 0 0 0-3.515.243c-2.071.726-1.981 2.737-.669 3.181.627.169.686.124 3.554.182-.549 2.473-1.167 3.12-.644 3.979a1.425 1.425 0 0 0 1.829.537c1.01-.601 3.069-2.897 4.332-3.855.3-.256.643-.457 1.012-.595a.63.63 0 0 1 .66.131c.538.7.871 2.455 1.535 3.73a1.24 1.24 0 0 0 1.458.705 2.09 2.09 0 0 0 1.358-1.434c.272-.997.37-2.577.742-2.974a2.53 2.53 0 0 1 1.595-.284l4.68.139a1.79 1.79 0 0 0 1.69-1.046 1.8 1.8 0 0 0-.309-1.964 2.133 2.133 0 0 0-1.601-.747c-.742 0-2.762-.049-2.762-.049a130 130 0 0 1-.034-2.41h29.822v1.535c-.037.222-.026.45.032.668 0 .104-.573-.323 20.888 14.647a.35.35 0 0 0 .364 0s20.617-14.184 21.079-14.513c.194-.036.126 1.327.126-26.268M8.89 116.674q.497-1.552.81-3.152a.355.355 0 0 0-.352-.353c-.668-.011-2.876-.047-3.3-.072a1 1 0 0 1-.792-.325.89.89 0 0 1 .148-1.063c.261-.269.59-.463.95-.562.424-.138.862-.226 1.305-.264q1.095-.014 2.181.118a.36.36 0 0 0 .344-.27c.384-2.249 3.4-20.048 4.314-22.14a4.63 4.63 0 0 1 2.613-2.482 4.8 4.8 0 0 1 6.522 4.43l.163 19.977a.356.356 0 0 0 .36.352c.495-.026 2.378.045 3.102.034a1.41 1.41 0 0 1 1.375 1.132 1.126 1.126 0 0 1-1.041 1.207c-.14.007-4.232-.113-4.61-.133a5.9 5.9 0 0 0-1.505.096 1.63 1.63 0 0 0-.895.525c-.125.188-.219.396-.278.614-.492 1.828-.266 2.212-.755 3a1.08 1.08 0 0 1-.828.497.42.42 0 0 1-.35-.222 9.2 9.2 0 0 1-.89-2.19 4.4 4.4 0 0 0-.988-1.974l-.008-.006c-1.526-1.194-3.726 1.815-6.266 3.976a1.13 1.13 0 0 1-.768.395.77.77 0 0 1-.35-.133.77.77 0 0 1-.32-.653.76.76 0 0 1 .109-.359m.683-23.102a7.8 7.8 0 0 1 1.35-1.83.357.357 0 0 0-.35-.59 1.85 1.85 0 0 1-2.225-1.463 3.17 3.17 0 0 1 1.381-3.056 6.6 6.6 0 0 1 1.9-.982.357.357 0 0 0 0-.68 2.48 2.48 0 0 1-1.466-2.752 5.08 5.08 0 0 1 1.918-3.21c1.095-.874 2.414-1.159 3.722-1.636a12.4 12.4 0 0 0 5.781-4.403c.367-.447.629-.97.767-1.53 1.003-3.058 2.012-6.635 4.992-7.679a3.76 3.76 0 0 1 3.14.236 3.86 3.86 0 0 1 1.606 2.915 36 36 0 0 1 0 4.634 12.2 12.2 0 0 0-4.397-.307c-9.013.997-12.649 10.17-14.108 17.678a797 797 0 0 0-1.578 7.61 2.7 2.7 0 0 1-1.747-.071c-1.1-.445-1.216-1.862-.69-2.884zm30.23-63.163c.104.35.537.456.828.525 1.928.46 3.06.23 3.39.783a.38.38 0 0 1 .045.315.7.7 0 0 1-.652.365c-1.025-.032-2.656-.23-2.724-.241a.86.86 0 0 0-.889 1.208.97.97 0 0 0 .775.471 6.5 6.5 0 0 1 2.73.985 1.01 1.01 0 0 1 .454.63.5.5 0 0 1-.162.307c-.674.59-1.808-.063-2.614-.288-1.284-.358-3.108-.517-4.016.456a1.46 1.46 0 0 0-.395 1.106c.072.573.214 1.135.422 1.674.11.352.264.834.04 1.114a.63.63 0 0 1-1.025-.027c-.939-1.14-.808-1.687-1.647-2.047a1.43 1.43 0 0 0-1.27.28 6.53 6.53 0 0 0-2.4 4.655h-8.449a17.95 17.95 0 0 1 3.08-8.003c3.469-4.979 9.46-7.366 16.028-6.377.377.054.749.148 1.107.277.293.09.831.406.71.69-.043.096-.164.154-.342.174-.997.092-1.467-.16-2.473.077a.746.746 0 0 0-.554.89zM22.162 43.39h8.463c-.328 3.851 4.64 5.371 7.443 2.746 2.563-2.403 6.229-3.53 11.194-3.431 6.036.114 9.898 1.656 12.157 4.854a9.9 9.9 0 0 1 1.564 3.668c.391 2.115.611 4.258.658 6.408.2 5.681.281 9.521.166 20.102-5.993 3.644-9.333 5.66-9.41 5.734-.17.135-.112-.122-.112 10.52l-9.181-.039c-.088-.23-.267-.643-.343-.84.177-.434-.844-5.344-.96-5.862a25.75 25.75 0 0 0 6.446-9.216 37.26 37.26 0 0 0 2.664-18.321 8.5 8.5 0 0 0-.413-1.704 3.9 3.9 0 0 0-.832-1.565 1.78 1.78 0 0 0-2.808.046 3.28 3.28 0 0 0-4.304-.339c-.107-1.254-.348-3.42-.56-4.557a1.428 1.428 0 0 0-2.831-.224c-.05.793-.034 1.589.045 2.379.436 11.811.113 9.398.116 12.935 0 3.606-.575 6.406-3.388 8.364-.954-1-2.06-1.842-3.279-2.495.023-1.517.256-14.775.257-14.877a.354.354 0 0 0-.26-.342h-.014a17 17 0 0 1-7.797-3.033c-3.47-2.49-5.128-6.362-4.68-10.91M37.456 99.8c.174-.427-.505-.63-.676-.21a123 123 0 0 0-2.748 7.436c-.16.012-6.056 0-9.576 0-.004-.998-.025-4.25-.031-5.118a30.8 30.8 0 0 1 2.753-5.537 26.2 26.2 0 0 1 4.623-6.016c4.583-4.334 9.985-2.865 11.922 2.009 1.841 4.63 2.68 8.152 1.529 12.456-.16.596-.495 1.835-.588 2.206H34.78a121 121 0 0 1 2.677-7.226zM52 60.955a.94.94 0 0 1-.821.537c-1.016-.061-1.249-1.103-1.466-1.632a7.8 7.8 0 0 0-.383-2.725.89.89 0 0 1 .885-.651 1.51 1.51 0 0 1 1.17.737c.223.38.393.788.504 1.214q.22.636.314 1.304A2.2 2.2 0 0 1 52 60.955m-9.946 5.136c.16-3.849.12-7.703-.118-11.548-.057-1.333-.103-2.387-.095-2.892.01-.747 1.186-1.067 1.381-.262q.256 1.129.357 2.282c.064.628.293 2.54.322 3.223a.358.358 0 0 0 .61.241 2.618 2.618 0 0 1 4.13.182c.16.465.27.947.323 1.437.11.641.07 1.3-.12 1.923a.95.95 0 0 1-1.14.65c-1.458-.47-.8-2.166-1.418-3.475-.197-.419-.812-.07-.62.343q.05.105.087.214a1.69 1.69 0 0 0-2.293.378c-.736 1.044-.776 2.269-.905 3.626-.044.46.663.471.707.018a7.6 7.6 0 0 1 .61-2.985 1.056 1.056 0 0 1 1.851-.121c.597 1.115-.161 2.628.548 4.066.206.42.817.057.62-.339a3.55 3.55 0 0 1-.252-1.56 1.684 1.684 0 0 0 2.799-.398A2.24 2.24 0 0 0 51.25 62.2c.428-.027.828-.22 1.116-.537.538 9.744-2.878 19.432-8.754 24.808-1.123-4.603-2.78-8.076-5.202-10.904 3.514-2.471 3.583-6.191 3.644-9.476M31.007 90.085c-2.548 2.465-5.103 6.667-6.599 9.894-.005-.642-.077-8.263-.067-8.85a6.9 6.9 0 0 0-.4-2.598 5.474 5.474 0 0 0-9.208-1.569c1.286-5.382 4.638-14.057 12.938-15.011 1.999-.25 4.027.042 5.874.844 6.505 2.846 9.157 11.32 10.233 18.127-3.098-5.006-8.458-5.01-12.771-.837M45.43 94.74l-.007-.018h8.862v12.304H45.41c1.62-4.33 1.624-7.787.018-12.286zm9.905-11.02c11.598-7.054 20.293-12.332 20.366-12.38 1.1.68 18.338 11.344 20.026 12.392-1.856 1.114-19.094 11.464-20.201 12.15-.001 0-18.647-11.245-20.193-12.162zm-.34.635 20.357 12.248a.35.35 0 0 0 .36 0c.139-.083 18.38-11.04 20.356-12.243v25.255c-1.266.868-19.497 13.387-20.687 14.227 0 0-19.6-13.694-20.385-14.23zM118.082 103.383a21.6 21.6 0 0 0-18.447-.016.355.355 0 0 0 .126.681h18.15a.36.36 0 0 0 .339-.268.36.36 0 0 0-.168-.397m-1.938-.044h-14.697a21.14 21.14 0 0 1 14.697 0M146.825 90.857c-3.406 3.413-4.164 5.003-6.291 7.123a17.4 17.4 0 0 1-6.364 4.093.365.365 0 0 0-.021.712c2.627 1.027 6.507.108 9.336-4.067a41.6 41.6 0 0 0 3.903-7.442.354.354 0 0 0-.338-.518.36.36 0 0 0-.225.099m-.886 1.973a42 42 0 0 1-2.639 4.897c-1.478 2.367-3.149 3.783-5.26 4.455a5.8 5.8 0 0 1-2.706.192c5.304-2.312 7.213-5.806 10.605-9.544M87.856 31.72c3.346 2.686 3.135 2.561 3.316 2.561a.342.342 0 0 0 .257-.597l-3.089-2.479c-.354-.285-.845.226-.484.515M103.375 28.971c.069.454.757.286.69-.167l-.638-4.115c-.069-.45-.758-.289-.691.166zM115.96 30.611l2.135-4.35c.201-.408-.415-.76-.619-.344l-2.135 4.35c-.201.409.414.76.619.344M129.844 46.095c-1.372.354-2.72.844-4.053 1.313a.36.36 0 0 0-.241.38.36.36 0 0 0 .318.32c.158 0 1.284-.48 4.161-1.33a.36.36 0 0 0 .205-.17.36.36 0 0 0 .03-.263.36.36 0 0 0-.424-.25zM79.808 43.64c4.343 1.822 3.999 1.687 4.093 1.687a.355.355 0 0 0 .342-.26.36.36 0 0 0-.236-.432l-4-1.678a.354.354 0 0 0-.199.68zM149.65 62.828h-4.36a.355.355 0 0 0 0 .708h4.356a.36.36 0 0 0 .342-.214.353.353 0 0 0-.342-.494zM140.935 52.843h3.176a.355.355 0 0 0 0-.708h-3.176a.355.355 0 0 0 0 .708M150.047 47.519h-6.299a.355.355 0 0 0 0 .708h6.297a.355.355 0 0 0 0-.708z"/><path fill="#000" d="M88.454 85.647a2.86 2.86 0 0 0 2.517-1.193c.753-1.243-.267-2.882-2.474-2.904-1.043 0-25.53-.017-25.892.012a2.64 2.64 0 0 0-2.359 1.508c-.452 1.252.817 2.75 3.164 2.577.25 0 24.645-.007 25.044 0m.374-.726c-.307.028-24.43 0-25.893.017-.882.016-1.966-.404-2.072-1.29 0-1.021 1.18-1.39 2.444-1.39h25.188c.762.009 1.93.349 2.018 1.252.09.813-.878 1.34-1.682 1.41zM40.685 90.204l-1.517-.533c-.433-.153-.633.527-.2.68.528.229 1.076.414 1.635.553a.362.362 0 0 0 .081-.7M119.682 63.307s3.674 2.105 3.836 2.194q.08.044.169.044a.354.354 0 0 0 .331-.484.36.36 0 0 0-.144-.174 791 791 0 0 0-3.837-2.193.354.354 0 0 0-.481.143.36.36 0 0 0 .126.47M96.409 112.182a.357.357 0 0 0-.341.342v6.145a.353.353 0 0 0 .353.338.354.354 0 0 0 .354-.338v-6.141a.36.36 0 0 0-.11-.251.35.35 0 0 0-.256-.095"/><path fill="#000" d="M67.432 82.544a.355.355 0 0 0-.343.346v1.227a.354.354 0 1 0 .71 0V82.89a.35.35 0 0 0-.368-.346M83.142 82.544a.356.356 0 0 0-.342.346v1.32a.354.354 0 1 0 .71 0v-1.326a.353.353 0 0 0-.368-.34M11.358 111.981c.12 0 .044.023 1.557-.81a.354.354 0 0 0-.353-.614l-1.387.768a.355.355 0 0 0 .183.656M54.945 112.528v6.138a.35.35 0 0 0 .355.354.35.35 0 0 0 .354-.354v-6.145a.356.356 0 0 0-.607-.245.36.36 0 0 0-.102.252M75.375 125.648a.355.355 0 0 0-.343.341v3.2a.35.35 0 0 0 .355.354.353.353 0 0 0 .354-.354v-3.2a.35.35 0 0 0-.111-.248.35.35 0 0 0-.255-.093M16.669 112.248c.318.076.301-.211 1.227-.917.362-.276-.007-.878-.377-.6q-.556.42-1.038.921a.37.37 0 0 0-.078.352q.029.092.1.157a.36.36 0 0 0 .166.087M14.19 98.653c.256-.742.443-1.506.56-2.282.067-.45-.619-.622-.69-.165-.117.764-.301 1.516-.552 2.248-.148.438.534.63.682.2M75.564 116.239a.357.357 0 0 0 .354-.346v-13.071a.363.363 0 0 0-.367-.343.359.359 0 0 0-.342.343v13.075a.355.355 0 0 0 .355.342M36.91 34.264a1.79 1.79 0 0 1-.383-2.516c.274-.373-.336-.74-.602-.373a2.493 2.493 0 0 0 .614 3.492c.378.263.746-.337.371-.603M23.23 39.622l-.33 2.002c-.077.45.614.624.69.169l.331-2.003c.072-.447-.614-.624-.69-.168M125.431 72.338a4.5 4.5 0 0 0 2.646-.036.356.356 0 0 0-.196-.68 4.06 4.06 0 0 1-2.261.033.354.354 0 0 0-.189.683M115.325 57.546c1.313.214 1.305.215 1.356.215.405 0 .537-.623.105-.69l-1.293-.21c-.449-.074-.624.612-.168.685M116.92 60.243a5.9 5.9 0 0 1-1.413-.237.356.356 0 0 0-.397.516.36.36 0 0 0 .209.168 6.2 6.2 0 0 0 1.593.261c.468.016.457-.689.008-.708M109.647 80.563a10.5 10.5 0 0 0-1.437 1.918.35.35 0 0 0 .136.478q.081.046.175.047c.418 0 .316-.524 1.632-1.945.311-.339-.193-.837-.506-.498"/></svg>