<svg xmlns="http://www.w3.org/2000/svg" width="100" height="100"><desc>Superman Night 1 Streamline Illustration: https://streamlinehq.com</desc><path fill="#d9edff" d="M1.7 50.7c0 37.182 40.25 60.42 72.45 41.83A48.3 48.3 0 0 0 98.3 50.7c0-37.18-40.25-60.418-72.45-41.828A48.3 48.3 0 0 0 1.7 50.701"/><path fill="#fff" stroke="#000" stroke-linecap="round" stroke-linejoin="round" d="M47.666 11.355c.207-.9.91-1.604 1.811-1.812l3.634-.838a.302.302 0 0 0 0-.588l-3.634-.838a2.42 2.42 0 0 1-1.811-1.81l-.838-3.632a.302.302 0 0 0-.588 0l-.838 3.631c-.208.9-.91 1.604-1.811 1.811l-3.631.838a.302.302 0 0 0 0 .588l3.63.838c.901.208 1.604.911 1.812 1.812l.838 3.633a.302.302 0 0 0 .588 0ZM86.658 66.688a3.52 3.52 0 0 1 2.638-2.639l5.295-1.222a.44.44 0 0 0 0-.857l-5.295-1.222a3.52 3.52 0 0 1-2.638-2.638l-1.222-5.291a.44.44 0 0 0-.857 0l-1.221 5.29a3.52 3.52 0 0 1-2.638 2.64l-5.293 1.221a.44.44 0 0 0 0 .857l5.293 1.222a3.52 3.52 0 0 1 2.638 2.639l1.22 5.294a.44.44 0 0 0 .858 0ZM11.65 36.86a1.9 1.9 0 0 1 1.426-1.427l2.862-.66a.241.241 0 0 0 0-.464l-2.862-.66a1.9 1.9 0 0 1-1.427-1.425l-.66-2.86a.241.241 0 0 0-.463 0l-.66 2.86A1.9 1.9 0 0 1 8.44 33.65l-2.861.659a.241.241 0 0 0 0 .464l2.86.66a1.9 1.9 0 0 1 1.427 1.426l.66 2.862a.241.241 0 0 0 .464 0Z"/><path fill="#ffd500" stroke="#000" stroke-linecap="round" stroke-linejoin="round" d="M3.124 61.782a1.208 1.208 0 0 1-.01-1.977l36.38-25.853c10.619-7.542 25.419-.762 26.641 12.204.17 1.8.05 3.614-.354 5.375L55.658 95.583a1.21 1.21 0 0 1-1.417.912C27.226 91.003 25.568 77.376 3.124 61.782"/><path fill="#ffd500" stroke="#000" stroke-linecap="round" stroke-linejoin="round" d="M39.08 78.729c-1.558 2.034-4.734 1.618-5.717-.748a3.33 3.33 0 0 1 .195-2.946l1.74-2.986a2.237 2.237 0 0 1 3.177-.734l2.166 1.449a2.24 2.24 0 0 1 .535 3.215ZM24.549 69.01c-1.307 2.205.263 4.998 2.825 5.027a3.33 3.33 0 0 0 2.703-1.332l2.096-2.75a2.236 2.236 0 0 0-.536-3.215l-2.167-1.45a2.236 2.236 0 0 0-3.175.735Z"/><path fill="#fff" stroke="#000" stroke-linecap="round" stroke-linejoin="round" d="M38.681 48.58 27.606 65.142a1.12 1.12 0 0 0-.141.946c.69 2.282 2.156 3.26 4.69 2.452.23-.073.43-.219.57-.414l6.86-9.584c.882-1.32 2.862-1.188 3.564.236a2.06 2.06 0 0 1-.137 2.058l-6.236 9.993a1.1 1.1 0 0 0-.166.685c.221 2.657 1.69 3.633 4.059 3.4.333-.034.634-.214.82-.492L52.566 57.86Z"/><path fill="#ffd500" stroke="#000" stroke-linecap="round" stroke-linejoin="round" d="M57.226 32.372c-5.45-3.644-12.82-2.18-16.464 3.269l-5.5 8.224 4.54 3.037-3.139 4.698 3.484 2.33a4.66 4.66 0 0 0 4.89.18 4.66 4.66 0 0 0 2.032 4.45l3.485 2.33 9.87-14.761c2.69 1.8 6.736.467 9.844-4.18l7.945-11.88-4.87-3.261-6.458 9.656a2.237 2.237 0 0 1-3.103.616Z"/><path fill="#fff" stroke="#000" stroke-linecap="round" stroke-linejoin="round" d="m49.759 47.042 13.72-10.182-6.251-4.488a11.8 11.8 0 0 0-3.403-1.57Z"/><path fill="#ffd500" stroke="#000" stroke-linecap="round" stroke-linejoin="round" d="m58.693 33.676-7.342 7.022-1.595 6.344 5.253-3.898z"/><path fill="none" stroke="#000" stroke-linecap="round" stroke-linejoin="round" d="m47.31 35.675-7.507 11.227M49.756 47.042l-4.725 7.065"/><path fill="#fff" stroke="#000" stroke-linecap="round" stroke-linejoin="round" d="m53.823 30.805-1.124 4.49 4.376.791-.764-4.267a11.8 11.8 0 0 0-2.488-1.014M63.477 36.86l-2.215-1.59-4.187.816 2.377 3.76z"/><path fill="#ffd500" stroke="#000" stroke-linecap="round" stroke-linejoin="round" d="M53.823 30.805a11.8 11.8 0 0 0-3.29-.436l-.928 1.087a.36.36 0 0 0-.048.398l.944 1.867c.29.575.077 1.276-.483 1.594l-.805.459c-.42.238-.658.705-.604 1.185l1.15 10.083Z"/><path fill="#ffd500" stroke="#000" stroke-linecap="round" stroke-linejoin="round" d="M49.759 47.042 63.453 36.88l1.438.938-.562 2.595c-.127.59-.67.995-1.272.95l-1.277-.099a1.207 1.207 0 0 0-1.29 1.053l-.12.92c-.061.479-.4.875-.865 1.009Z"/><path fill="#fff" stroke="#000" stroke-linecap="round" stroke-linejoin="round" d="M34.61 46.241c-1.012 1.487-.035 3.512 1.758 3.646a2.34 2.34 0 0 0 2.127-1.048l1.3-1.942-3.885-2.599ZM56.312 31.818l.763 4.268 4.19-.816 3.373-5.007-5.004-3.372zM74.487 23.712a3.7 3.7 0 0 1 5.51-.751 3.864 3.864 0 0 1 .52 5.035l-.53.798a2.464 2.464 0 0 1-3.37.725l-2.082-1.314a2.464 2.464 0 0 1-.742-3.444ZM17.34 57.076l6.538-9.703a1.95 1.95 0 0 1 2.705-.527l14.554 9.807a1.95 1.95 0 0 1 .527 2.707l-6.537 9.701a1.95 1.95 0 0 1-2.707.528l-14.553-9.807a1.95 1.95 0 0 1-.528-2.705Z"/><path fill="none" stroke="#000" stroke-linecap="round" stroke-linejoin="round" d="m29.01 48.481-8.718 12.936M38.711 55.019l-8.717 12.935M30.626 49.57l1.39-2.06a2.387 2.387 0 0 1 3.314-.647l2.507 1.69a2.39 2.39 0 0 1 .646 3.316l-1.389 2.056M17.34 57.076l6.538-9.703a1.95 1.95 0 0 1 2.705-.527l14.554 9.807a1.95 1.95 0 0 1 .527 2.707l-6.537 9.701a1.95 1.95 0 0 1-2.707.528l-14.553-9.807a1.95 1.95 0 0 1-.528-2.705Z"/><path fill="#fff" stroke="#000" stroke-linecap="round" stroke-linejoin="round" d="M71.293 31.103a1.59 1.59 0 0 0-.212-1.996l.572-.855c3.3-4.932.022-11.587-5.9-11.979a7.71 7.71 0 0 0-6.915 3.406l-.573.855a1.57 1.57 0 0 0-1.596 2.68c-2.222 5.502 2.346 11.346 8.222 10.52a7.7 7.7 0 0 0 4.324-2.131 1.59 1.59 0 0 0 2.078-.5"/><path d="M63.107 23.701a.966.966 0 1 1-1.608-1.07.966.966 0 0 1 1.608 1.07M66.31 25.843a.966.966 0 1 0 1.604 1.078.966.966 0 0 0-1.603-1.078"/><path fill="#ffd500" d="M60.611 25.122a.966.966 0 1 1-1.608-1.07.966.966 0 0 1 1.608 1.07M67.553 29.765a.966.966 0 1 1-1.609-1.07.966.966 0 0 1 1.61 1.07"/><path fill="none" stroke="#000" stroke-linecap="round" stroke-linejoin="round" d="M60.397 27.755a3.47 3.47 0 0 0 3.203 2.14"/><path fill="#fff" stroke="#000" stroke-linecap="round" stroke-linejoin="round" d="M73.257 27.01c3.573-5.344.02-12.552-6.395-12.974a8.35 8.35 0 0 0-7.49 3.692l-1.43 2.135a6.63 6.63 0 0 0 5.881-.704c1.649 4.015 5.874 6.244 9.434 7.852"/><path fill="none" stroke="#000" stroke-linecap="round" stroke-linejoin="round" d="M63.473 17.376a4.1 4.1 0 0 0 .354 1.783"/></svg>