<svg xmlns="http://www.w3.org/2000/svg" width="100" height="100"><desc>Ad Target Browser Streamline Illustration: https://streamlinehq.com</desc><path fill="#d9edff" d="M1.661 50a40 40 0 1 0 80 0 40 40 0 1 0-80 0"/><path fill="#ffd500" d="M27.021 80.218a13.511 1.654 0 1 0 27.022 0 13.511 1.654 0 1 0-27.022 0M69.225 72.856H11.838a2.917 2.917 0 0 1-2.918-2.918V30.059h63.223v39.879a2.917 2.917 0 0 1-2.918 2.918"/><path fill="#fff" stroke="#000" stroke-linecap="round" stroke-linejoin="round" d="M69.225 21.305H11.838a2.92 2.92 0 0 0-2.918 2.918v5.836h63.223v-5.836a2.92 2.92 0 0 0-2.918-2.918"/><path fill="none" stroke="#000" stroke-linecap="round" stroke-linejoin="round" d="M69.225 72.856H11.838a2.917 2.917 0 0 1-2.918-2.918V30.059h63.223v39.879a2.917 2.917 0 0 1-2.918 2.918"/><path fill="#ffd500" stroke="#000" stroke-linecap="round" stroke-linejoin="round" d="M18.777 54.375a20.859 20.859 0 1 0 41.718 0 20.859 20.859 0 1 0-41.718 0"/><path fill="#fff" stroke="#000" stroke-linecap="round" stroke-linejoin="round" d="M25.73 54.375a13.906 13.906 0 1 0 27.812 0 13.906 13.906 0 1 0-27.812 0"/><path fill="#ffd500" stroke="#000" stroke-linecap="round" stroke-linejoin="round" d="M32.683 54.375a6.953 6.953 0 1 0 13.906 0 6.953 6.953 0 1 0-13.906 0"/><path fill="#ffd500" d="M89.335 27.5a19.3 19.3 0 0 0-10.507 10.641 20.13 20.13 0 0 0 15.047-.03l4.464-1.811-4.41-4.416-.149-6.239Z"/><path fill="#fff" d="m93.929 31.886-.149-6.239-4.445 1.853a19.3 19.3 0 0 0-10.507 10.641Z"/><path fill="none" stroke="#000" stroke-linecap="round" stroke-linejoin="round" d="M89.335 27.5a19.3 19.3 0 0 0-10.507 10.641 20.13 20.13 0 0 0 15.047-.03l4.464-1.811-4.41-4.416-.149-6.239ZM93.929 31.886 39.636 54.375"/><path fill="#ffd500" stroke="#000" stroke-linecap="round" stroke-linejoin="round" d="M11.838 25.682a1.459 1.459 0 1 0 2.918 0 1.459 1.459 0 1 0-2.918 0M17.528 25.682a1.459 1.459 0 1 0 2.918 0 1.459 1.459 0 1 0-2.918 0M23.218 25.682a1.459 1.459 0 1 0 2.918 0 1.459 1.459 0 1 0-2.918 0"/></svg>