<svg xmlns="http://www.w3.org/2000/svg" width="100" height="100"><desc>Documents Question Streamline Illustration: https://streamlinehq.com</desc><path fill="#d9edff" d="M4.09 50c0 36.531 39.546 59.363 71.182 41.098A47.46 47.46 0 0 0 99 50C99 13.469 59.454-9.363 27.817 8.903A47.46 47.46 0 0 0 4.089 50"/><path fill="#ffd500" d="M72.284 33.381a2.037 2.037 0 0 0-1.837-2.22l-22.304-2.098-2.556-7.73a2.036 2.036 0 0 0-2.574-1.295L2.398 33.468a2.036 2.036 0 0 0-1.295 2.573L19.65 92.126a2.036 2.036 0 0 0 2.573 1.296l7.938-2.625 34.372 3.234a2.037 2.037 0 0 0 2.219-1.837Z"/><path fill="#ffd500" d="m9.518 23.275 46.847-.52.701 63.143-46.847.52Z"/><path fill="#fff" stroke="#000" stroke-linecap="round" stroke-linejoin="round" d="m19.241 86.175 5.7-60.843 44.617 4.18-5.699 60.843Z"/><path fill="none" stroke="#000" stroke-linecap="round" stroke-linejoin="round" d="m30.454 31.986 8.113.76M29.885 38.07l18.252 1.71M29.315 44.155l12.168 1.139M28.745 50.239l14.196 1.33M28.175 56.323l6.084.57M27.605 62.407l22.31 2.09M27.035 68.491l14.196 1.33M26.466 74.576l26.365 2.469M25.895 80.66l12.169 1.14M42.623 33.126l10.14.95M38.315 57.273l10.14.95M42.12 82.18l10.141.95"/><path fill="#fff" stroke="#000" stroke-linecap="round" stroke-linejoin="round" d="m2.018 31.627 42.74-13.47L63.128 76.44 20.386 89.91Z"/><path fill="none" stroke="#000" stroke-linecap="round" stroke-linejoin="round" d="m9.683 35.618 7.771-2.45M11.52 41.446l17.485-5.51M13.357 47.275 25.014 43.6M15.194 53.102l13.6-4.285M17.03 58.931l5.83-1.836M18.867 64.76l21.37-6.735M20.704 70.587l13.599-4.285M22.541 76.416l25.256-7.96M24.378 82.245l11.656-3.675M21.34 31.944l9.714-3.06M26.745 55.87l9.714-3.062M39.92 77.346l9.713-3.06"/><path fill="#fff" stroke="#000" stroke-linecap="round" stroke-linejoin="round" d="M12.203 22.23h44.813v61.11H12.203Z"/><path fill="#ffd500" d="M67.537 21.49c0 10.298 11.148 16.735 20.067 11.585a13.38 13.38 0 0 0 6.688-11.585c0-10.298-11.148-16.734-20.066-11.585a13.38 13.38 0 0 0-6.689 11.585M88.544 38.874a.624.624 0 0 0-.949-.173c-1.002.842-2.986 2.64-3.203 3.83a2.943 2.943 0 0 0 2.366 3.423l-.965-.176a1.963 1.963 0 0 0-2.282 1.578l-5.64 30.88a1.96 1.96 0 0 0 1.579 2.282l1.93.356a1.963 1.963 0 0 0 2.282-1.578l5.642-30.88a1.96 1.96 0 0 0-1.577-2.285l-.965-.175a2.943 2.943 0 0 0 3.424-2.373c.217-1.184-1.002-3.566-1.642-4.709"/><path fill="#ffd500" stroke="#000" stroke-linecap="round" stroke-linejoin="round" d="M81.202 79.106a1.96 1.96 0 0 1-2.283 1.577l-1.93-.356a1.96 1.96 0 0 1-1.577-2.282l5.642-30.88a1.96 1.96 0 0 1 2.283-1.575l1.93.356a1.96 1.96 0 0 1 1.577 2.283Z"/><path fill="none" stroke="#000" stroke-linecap="round" stroke-linejoin="round" d="m77.179 68.397 5.79 1.058M75.416 78.047a3.923 3.923 0 0 1-3.155-4.565l2.116-11.58"/><path fill="#fff" stroke="#000" stroke-linecap="round" stroke-linejoin="round" d="M87.727 43.4c-.407 2.229-3.074 3.18-4.8 1.713a2.94 2.94 0 0 1-.99-2.771c.292-1.6 3.777-4.296 3.777-4.296s2.307 3.755 2.013 5.354"/><path fill="#ffd500" stroke="#000" stroke-linecap="round" stroke-linejoin="round" d="M30.234 69.724c-.005 2.87 3.098 4.668 5.586 3.237a3.73 3.73 0 0 0 1.869-3.237c.005-2.87-3.099-4.668-5.586-3.238a3.73 3.73 0 0 0-1.87 3.238M34.05 63.126a2.72 2.72 0 0 1-2.718-2.717v-2.473a7.64 7.64 0 0 1 5.093-7.163 7.074 7.074 0 0 0 4.515-8.191c-1.197-5.3-7.681-7.318-11.673-3.632a7.06 7.06 0 0 0-2.27 5.174c.044 2.09-2.192 3.445-4.025 2.438a2.72 2.72 0 0 1-1.407-2.438c-.003-6.9 5.597-12.49 12.497-12.476 8.58 0 11.668 7.3 12.194 9.827a12.457 12.457 0 0 1-8.001 14.413 2.2 2.2 0 0 0-1.49 2.048v2.473a2.72 2.72 0 0 1-2.716 2.717"/><path fill="#fff" stroke="#000" stroke-linecap="round" stroke-linejoin="round" d="M91.57 29.95c1.59 1.53 4.241.765 4.771-1.378a2.87 2.87 0 0 0-.716-2.676l-4.73-4.733-4.054 4.053Z"/><path fill="#fff" stroke="#000" stroke-linecap="round" stroke-linejoin="round" d="M90.218 24.54c-6.761 6.762-18.308 3.669-20.783-5.568s5.977-17.69 15.214-15.215a12.4 12.4 0 0 1 5.57 3.215c4.852 4.851 4.852 12.717 0 17.568"/><path fill="#ffd500" stroke="#000" stroke-linecap="round" stroke-linejoin="round" d="M72.834 15.756c0 6.62 7.167 10.758 12.9 7.448a8.6 8.6 0 0 0 4.3-7.448c0-6.62-7.166-10.758-12.9-7.448a8.6 8.6 0 0 0-4.3 7.448"/></svg>