<svg xmlns="http://www.w3.org/2000/svg" width="48" height="48" fill="none"><g fill="#333"><path d="M12 5a1 1 0 1 1 2 0v6a1 1 0 1 1-2 0zM28 5a1 1 0 1 1 2 0v6a1 1 0 1 1-2 0z"/><g fill-rule="evenodd" clip-rule="evenodd"><path d="M14 23h-2v2h2zm-2-2a2 2 0 0 0-2 2v2a2 2 0 0 0 2 2h2a2 2 0 0 0 2-2v-2a2 2 0 0 0-2-2zM22 23h-2v2h2zm-2-2a2 2 0 0 0-2 2v2a2 2 0 0 0 2 2h2a2 2 0 0 0 2-2v-2a2 2 0 0 0-2-2zM30 23h-2v2h2zm-2-2a2 2 0 0 0-2 2v2a2 2 0 0 0 2 2h2a2 2 0 0 0 2-2v-2a2 2 0 0 0-2-2zM14 31h-2v2h2zm-2-2a2 2 0 0 0-2 2v2a2 2 0 0 0 2 2h2a2 2 0 0 0 2-2v-2a2 2 0 0 0-2-2zM22 31h-2v2h2zm-2-2a2 2 0 0 0-2 2v2a2 2 0 0 0 2 2h2a2 2 0 0 0 2-2v-2a2 2 0 0 0-2-2z"/><path d="M9 10h24a2 2 0 0 1 2 2v16c.69 0 1.36.088 2 .252V12a4 4 0 0 0-4-4H9a4 4 0 0 0-4 4v24a4 4 0 0 0 4 4h19.07a8 8 0 0 1-.818-2H9a2 2 0 0 1-2-2V12a2 2 0 0 1 2-2"/></g><path d="M5 12a4 4 0 0 1 4-4h24a4 4 0 0 1 4 4v7H5z"/><path fill-rule="evenodd" d="M33 10H9a2 2 0 0 0-2 2v5h28v-5a2 2 0 0 0-2-2M9 8a4 4 0 0 0-4 4v7h32v-7a4 4 0 0 0-4-4z" clip-rule="evenodd"/><path fill-rule="evenodd" d="M36 19H6v-2h30zM35 42a6 6 0 1 0 0-12 6 6 0 0 0 0 12m0 2a8 8 0 1 0 0-16 8 8 0 0 0 0 16" clip-rule="evenodd"/><path fill-rule="evenodd" d="M35 31.179a1 1 0 0 1 1 1v4.298l2.452 1.702a1 1 0 1 1-1.141 1.642L34 37.524V32.18a1 1 0 0 1 1-1" clip-rule="evenodd"/></g></svg>