<svg xmlns="http://www.w3.org/2000/svg" width="20" height="20" fill="none"><path fill="#212121" d="M4.027 2.5V3H2.5a.5.5 0 0 0-.5.5v13a.5.5 0 0 0 .5.5h15a.5.5 0 0 0 .5-.5v-13a.5.5 0 0 0-.5-.5h-1.527v-.5a.5.5 0 0 0-.5-.5h-3.028c-.942 0-1.825.405-2.445 1.09A3.3 3.3 0 0 0 7.555 2H4.527a.5.5 0 0 0-.5.5m10.946.964a1 1 0 0 0 0 .072V13.94H12.62a3.4 3.4 0 0 0-2.12.743V4.08A2.3 2.3 0 0 1 12.445 3h2.528zm1 .536H17v12h-6.373a2.42 2.42 0 0 1 1.993-1.059h2.853a.5.5 0 0 0 .5-.5zM7.38 14.941c.799 0 1.541.4 1.993 1.059H3V4h1.027v10.441a.5.5 0 0 0 .5.5zm-2.353-1V3.536a1 1 0 0 0 0-.072V3h2.528c.786 0 1.519.407 1.945 1.079v10.606a3.4 3.4 0 0 0-2.12-.744z"/></svg>