<svg xmlns="http://www.w3.org/2000/svg" width="111" height="111" fill="none"><path fill="#FFD2D2" d="M35.108 6.925c-2.117-.49-3.325 3.714-.94 4.926.301.123.646.152.97.082a1.42 1.42 0 0 0 .797-.464 3 3 0 0 0 .658-1.873c.061-.963-.148-2.363-1.485-2.671"/><path fill="#FC9070" d="M60.257 18.978c-2.668-1.483-5.64-2.55-8.772-3.148a26.75 26.75 0 0 0-12.221.272c-.007 0-.011.007-.018.01a.4.4 0 0 1 .138.002.3.3 0 0 1 .122.055 7.7 7.7 0 0 1 1.596 1.66c.62.894 1.435 2.61-.166 3.13a4 4 0 0 1-2.091.03c-1.797-.46-3.049-1.419-4.573-2.488a.23.23 0 0 1-.066-.086.2.2 0 0 1 .025-.198.3.3 0 0 1 .086-.072l-.014.005c-2.385 1.382-4.323 3.228-5.641 5.377-3.107 5.096-1.655 10.302 1.111 15.503 1.552 3 3.689 5.77 6.325 8.197a20 20 0 0 1 2.192-3.844c1.599-2.19 4.625-4.876 7.632-5.3a7.9 7.9 0 0 1 2.594.096 7.2 7.2 0 0 1 2.345.923c2.126 1.278 3.69 3.374 4.994 5.286a50.2 50.2 0 0 1 4.471-10.063c2.25-3.925 5.326-7.486 9.087-10.517a249 249 0 0 0-9.156-4.83M48.53 37.895c-3.657-3.37-7.398-6.792-12.224-8.924-.322-.142-.036-.545.284-.402 4.892 2.164 8.646 5.59 12.342 8.997.24.224-.159.554-.402.33"/><path fill="#000" d="M40.338 3.561c-.328-.181-.331-.024-.154-.215.124-.135.19-.3.185-.47a.68.68 0 0 0-.21-.462 1.6 1.6 0 0 0-.824-.238 1.63 1.63 0 0 0-.835.208c.321-.345.594-.717.31-1.158-.43-.667-1.383-.25-1.848.135a14.5 14.5 0 0 0-2.93 2.849.867.867 0 0 0-.097.951c.113.11.255.198.416.255s.335.083.51.075a26 26 0 0 0 4.636-.529c.486-.082 1.153-.096 1.26-.588a.68.68 0 0 0-.063-.458.87.87 0 0 0-.357-.355"/><path fill="#2755A0" d="M39.504 16.17a.366.366 0 0 0-.333-.044 20.4 20.4 0 0 0-4.847 2.007l-.012.01a.3.3 0 0 0-.086.073.2.2 0 0 0-.04.096.2.2 0 0 0 .015.101.2.2 0 0 0 .066.086c1.614 1.132 3.904 2.884 6.116 2.583 2.779-.376 1.175-3.302-.88-4.912"/><path fill="#A982F4" d="M31.883 14.735c-.13-.01-3.651.702-5.63-1.279-1.576-1.578-1.062-4.457 2.502-6.285.308-.158.023-.566-.285-.403-3.875 2.03-4.306 5.036-2.856 6.757.606.646 1.406 1.15 2.32 1.462.915.312 1.912.421 2.892.316-9.46 5.906-10.911 17.006-4.865 25.786q2.448 3.301 5.301 6.373h.704a75 75 0 0 1-5.07-5.986c-6.574-8.853-5.136-20.533 5.129-26.302a.25.25 0 0 0 .107-.115.2.2 0 0 0 .008-.146.24.24 0 0 0-.095-.122.33.33 0 0 0-.162-.056"/><path fill="#E6DEFF" d="M14.671 95.568q-.07-.022-.143-.041a2.54 2.54 0 0 0-1.217-.048 2.24 2.24 0 0 0-1.047.515h3.084a1.9 1.9 0 0 0-.677-.426"/><path fill="#E6DEFF" d="M90.484 52.49c-1.087.123-2.388.172-3.354-.339-.45-.236-.773-.607-.9-1.035a1.14 1.14 0 0 1 .047-.562c.063-.183.171-.353.318-.499.795-.89 2.279-1.577 3.578-2.12-1.365-.003-36.227-.004-36.227-.004-.076.288-.07.326-.127.388a10.8 10.8 0 0 1-1.177 2.675c-.373.558-1.123 1.13-1.946.832a2.5 2.5 0 0 1-.773-.543 2 2 0 0 1-.459-.748 11 11 0 0 1-.425-1.387c-.065.868-.223 2.06-.966 2.663a1.87 1.87 0 0 1-1.18.416 1.9 1.9 0 0 1-1.19-.39 4.26 4.26 0 0 1-1.074-1.84 9 9 0 0 1-.355-1.11c-.213.953-.706 1.849-1.434 2.608-.47.463-1.31.762-1.903.254a1.7 1.7 0 0 1-.456-.736 6.9 6.9 0 0 1-.235-3.082h-4.051a.3.3 0 0 1-.125-.025.3.3 0 0 1-.099-.068.2.2 0 0 1-.052-.097.2.2 0 0 1 .004-.106c.023-.057.052-.115.076-.172H23.366a.3.3 0 0 0-.159.038.22.22 0 0 0-.098.11c-.046.058.202-.493-9.082 21.444h30.167c.075 0 .146.025.199.07a.22.22 0 0 1 .083.163c.007.707-.09 9.725 0 19.309a.22.22 0 0 1-.084.164.32.32 0 0 1-.198.07H5.657c-2.373 5.607 3.042-7.179-2.906 6.867a.2.2 0 0 0-.004.106.2.2 0 0 0 .053.096q.04.044.098.068a.3.3 0 0 0 .125.025h5.143c-1.242-1.385-.417-3.455-.187-4.948.044-.295.61-.297.565 0-.25 1.639-1.095 3.816.365 4.948h2.502c.652-.445 1.37-1.218 2.885-1.002.36.051.7.168 1 .341.298.173.547.4.728.661h58.143a.34.34 0 0 0 .17-.05.25.25 0 0 0 .103-.122c.634-1.619 2.62-6.193 2.912-6.88h-2.535a.3.3 0 0 1-.19-.073.22.22 0 0 1-.079-.161c0-.06.028-.118.078-.162a.3.3 0 0 1 .191-.072s2.572 0 2.734-.005L88.297 63.08c-.085-.02-.173-.034-.255-.058a.3.3 0 0 1-.168-.11.2.2 0 0 1-.03-.177l4.474-10.569q-.903.218-1.834.324M75.104 97.786v12.098a.22.22 0 0 0 .088.157.3.3 0 0 0 .195.065.3.3 0 0 0 .195-.065.22.22 0 0 0 .087-.157V97.786a.22.22 0 0 0-.087-.158.32.32 0 0 0-.195-.064.32.32 0 0 0-.195.064.22.22 0 0 0-.088.158"/><path fill="#FFD2D2" d="M101.04 49.96a13.2 13.2 0 0 0-2.102-3.517 71 71 0 0 0-5.258-5.825c-.684 2.726-1.275 4.642-1.956 7.141-.034.126-.154.167-.31.173q-.627.018-1.252.01c-1.267.532-2.791 1.24-3.569 2.113a1.3 1.3 0 0 0-.318.499 1.14 1.14 0 0 0-.047.562c.127.428.45.799.9 1.035.966.514 2.267.46 3.354.339q.931-.105 1.832-.32L87.843 62.74a.2.2 0 0 0 .028.176.3.3 0 0 0 .169.111 3.7 3.7 0 0 0 1.587.155 3.5 3.5 0 0 0 1.47-.517c-.056.297.028.6.235.847.207.246.522.417.878.476.685.087 1.09-.394 1.401-.82q.165-.225.306-.46c.005.474.169.938.473 1.34.653.645 1.503-.1 1.787-.62.33-.604 2.767-5.148 3.62-6.829 1.061-2.079 1.964-4.379 1.244-6.639m-7.062 1.731 1.816-.762c.324-.136.61.268.285.403l-1.815.762c-.324.137-.61-.267-.286-.403m1.096 4.802-1.333 2.337c-.156.273-.643.035-.487-.235l1.334-2.338c.154-.272.641-.035.486.236m2.16 0-1.468 2.786c-.145.276-.632.038-.486-.235l1.468-2.787c.143-.275.63-.037.486.236"/><path fill="#E6DEFF" d="M92.333 66v29.347a.22.22 0 0 0 .087.158.32.32 0 0 0 .195.065.32.32 0 0 0 .195-.065.22.22 0 0 0 .088-.157V66a.22.22 0 0 0-.088-.158.32.32 0 0 0-.195-.064.32.32 0 0 0-.195.064.22.22 0 0 0-.088.158M2.738 100.126v9.757c.004.06.035.117.088.158a.3.3 0 0 0 .195.065.3.3 0 0 0 .195-.065.22.22 0 0 0 .087-.158v-9.757a.22.22 0 0 0-.087-.158.32.32 0 0 0-.195-.065.32.32 0 0 0-.195.065.22.22 0 0 0-.088.158"/><path fill="#FFD500" d="M44.476 69.29c0-.062-.03-.121-.083-.165a.32.32 0 0 0-.199-.069H1.034a.32.32 0 0 0-.198.07.22.22 0 0 0-.084.164v19.308c0 .062.03.121.083.165a.32.32 0 0 0 .2.069c11.087-.014 42.967.01 43.058 0 .445-.043.387-.148.385-.6-.029-4.078.03-15.364-.002-18.942"/><path fill="#C0C195" d="M96.175 27.038c-.166-3.609-2.72-5.848-5.231-6.326a6.45 6.45 0 0 0-3.283.245 10.9 10.9 0 0 0-3.454 1.948c-.546-.808-1.32-1.497-2.254-2.007a8 8 0 0 0-3.116-.925c-7.228-.452-15.3 8.825-18.503 14.348a50.2 50.2 0 0 0-4.472 10.063 28 28 0 0 1 1.936 3.247.2.2 0 0 1 .004.106.2.2 0 0 1-.052.097.3.3 0 0 1-.1.068.3.3 0 0 1-.124.025c19 0 33.896.009 33.96-.005a.3.3 0 0 0 .154-.05.2.2 0 0 0 .084-.117c.968-3.548 2.572-8.598 4.174-17.29.222-1.133.315-2.28.276-3.427"/><path fill="#77751E" d="M81.923 25.238c.112.287.658.163.545-.124l-.861-2.185c-.112-.288-.659-.164-.545.124z"/><path fill="#FFD2D2" d="M57.798 47.635a32 32 0 0 0-3.411-5.27c-.923-1.256-2.116-2.361-3.518-3.263a7.2 7.2 0 0 0-2.345-.923 7.9 7.9 0 0 0-2.595-.097c-3.007.424-6.027 3.1-7.631 5.301a20.7 20.7 0 0 0-2.375 4.252.2.2 0 0 0-.005.106.2.2 0 0 0 .053.097q.04.044.099.068a.3.3 0 0 0 .125.025h4.052a6.9 6.9 0 0 0 .235 3.082 1.7 1.7 0 0 0 .456.736c.594.508 1.434.209 1.903-.254.729-.759 1.222-1.654 1.435-2.607q.142.562.355 1.11c.184.672.551 1.301 1.073 1.84.32.255.748.395 1.192.39a1.87 1.87 0 0 0 1.179-.416c.738-.598.9-1.776.966-2.663q.165.704.425 1.388c.092.272.248.526.46.748.211.221.474.406.773.543.82.297 1.57-.275 1.946-.833.518-.85.913-1.749 1.175-2.677a.3.3 0 0 1-.163.07.34.34 0 0 1-.181-.024.27.27 0 0 1-.127-.11.2.2 0 0 1-.022-.151 16.3 16.3 0 0 0 .563-3.384c.017-.3.582-.3.565 0a16 16 0 0 1-.51 3.212c1.329-.017 1.39-.035 3.58 0a.3.3 0 0 0 .125-.024.3.3 0 0 0 .1-.068.2.2 0 0 0 .053-.097.2.2 0 0 0-.005-.107M48.72 45.68l-.077-1.98c-.011-.302.556-.3.566 0l.076 1.98c.012.302-.553.3-.565 0m-4.924 0q-.021-.99 0-1.98a.22.22 0 0 1 .087-.158.32.32 0 0 1 .195-.065c.073 0 .143.024.195.065a.22.22 0 0 1 .088.158q.021.99 0 1.98a.22.22 0 0 1-.088.158.32.32 0 0 1-.195.065.32.32 0 0 1-.195-.065.22.22 0 0 1-.087-.158"/><path fill="#FF4848" d="M54.456 44.72c.017-.301-.548-.3-.565 0a16.4 16.4 0 0 1-.565 3.383.2.2 0 0 0-.002.093q.012.047.043.087a.3.3 0 0 0 .08.067q.047.027.104.037a.3.3 0 0 0 .2-.025.3.3 0 0 0 .076-.058.2.2 0 0 0 .044-.077c.32-1.152.517-2.326.585-3.508M43.793 43.7q-.02.99 0 1.98a.22.22 0 0 0 .088.159.32.32 0 0 0 .195.064.32.32 0 0 0 .195-.064.22.22 0 0 0 .087-.158q.021-.99 0-1.98a.22.22 0 0 0-.087-.159.32.32 0 0 0-.195-.064.32.32 0 0 0-.195.064.22.22 0 0 0-.088.158M48.643 43.7l.077 1.98c.012.3.577.302.565 0l-.076-1.98c-.012-.3-.577-.3-.566 0"/><path fill="#77751E" d="M31.897 92.415h-3.23V89.95a.22.22 0 0 0-.088-.158.32.32 0 0 0-.195-.064.32.32 0 0 0-.195.064.22.22 0 0 0-.087.158v2.465H17.125V89.95a.22.22 0 0 0-.088-.158.32.32 0 0 0-.195-.064.32.32 0 0 0-.195.064.22.22 0 0 0-.087.158v2.465h-3.358a.3.3 0 0 0-.191.072.22.22 0 0 0-.078.162c0 .06.028.117.078.161s.118.07.19.072h18.696c.521-.002.37-.558 0-.467M18.221 81.773h6.4a.3.3 0 0 0 .19-.072.22.22 0 0 0 .078-.162.22.22 0 0 0-.078-.161.3.3 0 0 0-.19-.073h-6.4a.3.3 0 0 0-.19.073.22.22 0 0 0-.079.161c0 .06.028.118.078.162.05.043.119.069.191.072M18.221 83.642h6.4a.3.3 0 0 0 .19-.073.22.22 0 0 0 .078-.161.22.22 0 0 0-.078-.161.3.3 0 0 0-.19-.073h-6.4a.3.3 0 0 0-.19.073.22.22 0 0 0-.079.16c0 .061.028.119.078.162s.119.07.191.073M18.221 85.616h6.4a.3.3 0 0 0 .19-.073.22.22 0 0 0 .078-.161.22.22 0 0 0-.078-.161.3.3 0 0 0-.19-.073h-6.4a.3.3 0 0 0-.19.073.22.22 0 0 0-.079.16c0 .061.028.119.078.162s.119.07.191.073"/><path fill="#A982F4" d="M24.714 62.364v5.473a.22.22 0 0 0 .087.158.32.32 0 0 0 .195.064.32.32 0 0 0 .195-.064.22.22 0 0 0 .088-.158v-5.463q-.283.02-.565-.01"/><path fill="#fff" d="m72.867 53.914 4.915 9.81 7.421-2.546c-.18-.361-4.378-8.732-4.914-9.81z"/><path fill="#78B5FF" d="m85.843 61.241-5.13-10.238c-.053-.105-.193-.216-.348-.163l-2.069.71-7.002.663c-.139.014-.3.097-.282.234l1.529 11.01c.016.115.117.25.282.234.89-.085 3.425-.332 4.133-.403l.4.798c.052.105.193.217.347.163 8.447-2.897 7.94-2.717 7.983-2.747a.3.3 0 0 0 .09-.035.2.2 0 0 0 .064-.064.16.16 0 0 0 .002-.162m-8.062 2.482-4.915-9.81 7.421-2.545 4.915 9.81z"/><path fill="#78B5FF" d="M76.526 56.056c1.158-.41 2.32-.82 3.5-1.186.338-.104.192-.556-.15-.45-1.226.38-2.432.805-3.636 1.232-.333.118-.045.52.285.404M77.394 58.094c1.158-.41 2.32-.819 3.5-1.185.338-.104.192-.556-.15-.45-1.226.38-2.432.805-3.635 1.232-.334.118-.046.52.285.403M78.516 59.968c1.158-.41 2.32-.82 3.501-1.185.337-.104.192-.557-.15-.451-1.227.38-2.433.805-3.637 1.232-.333.118-.046.521.286.404"/><path fill="#fff" d="M26.318 54.05c-1.613-.666-3.313.058-4.15 1.312-2.385 3.564.535 7.66 3.636 6.935 3.671-.858 4.027-6.794.514-8.246m-1.604 6.935v-3.737a.22.22 0 0 1 .087-.158.32.32 0 0 1 .195-.065c.073 0 .143.023.195.065a.22.22 0 0 1 .088.157v3.738a.22.22 0 0 1-.088.158.32.32 0 0 1-.195.064.32.32 0 0 1-.195-.064.22.22 0 0 1-.087-.158"/><path fill="#A982F4" d="M81.593 77.638c-23.217.31-22.093-.23-22.35.179l-8.073 9.085c.208-.075-.98-.05 22.235-.05a.3.3 0 0 1 .132.032q.061.03.1.08.038.05.046.108a.2.2 0 0 1-.02.113c.311-.33 2.357-2.65 8.174-9.193.15-.15-.049-.355-.244-.355"/><path fill="#A982F4" d="M73.405 86.85c-23.538 0-22.013-.017-22.191.032-.135.047.4-.172-4.036 1.718a.25.25 0 0 0-.114.114.2.2 0 0 0-.01.147q.024.073.096.123.074.048.167.052h22.049c.1 0-.183.085 4.178-1.75a.25.25 0 0 0 .114-.113.2.2 0 0 0 .011-.147.24.24 0 0 0-.097-.124.3.3 0 0 0-.167-.052"/><path fill="#000" d="M67.577 81.335c-1.749 1.33-3.31 2.409-3.4 2.509a.2.2 0 0 0-.054.07.17.17 0 0 0 .01.163.2.2 0 0 0 .063.065c.143.148.254.123 3.456.098a.32.32 0 0 0 .198-.07.22.22 0 0 0 .085-.163c.03-.836.083-1.671.125-2.507a.2.2 0 0 0-.05-.127.3.3 0 0 0-.127-.085.34.34 0 0 0-.161-.014.3.3 0 0 0-.145.061"/><path fill="#A982F4" d="M51.26 89.948v2.944a.22.22 0 0 0 .088.158.32.32 0 0 0 .195.065.32.32 0 0 0 .195-.065.22.22 0 0 0 .087-.158v-2.944a.22.22 0 0 0-.087-.158.32.32 0 0 0-.195-.065.32.32 0 0 0-.195.065.22.22 0 0 0-.088.158M72.825 89.948v2.944c.003.06.034.117.087.158a.32.32 0 0 0 .195.065.32.32 0 0 0 .195-.065.22.22 0 0 0 .088-.158v-2.944a.22.22 0 0 0-.088-.158.32.32 0 0 0-.195-.065.32.32 0 0 0-.195.065.22.22 0 0 0-.087.158"/><path fill="#FF4848" d="M36.589 28.568c-.32-.142-.606.261-.285.402 4.845 2.14 8.606 5.586 12.227 8.925.243.224.642-.108.4-.33-3.687-3.398-7.447-6.831-12.342-8.997"/><path fill="#A982F4" d="M24.714 57.248v3.738c.004.06.035.116.087.157a.32.32 0 0 0 .195.065.32.32 0 0 0 .195-.065.22.22 0 0 0 .088-.157v-3.738a.22.22 0 0 0-.088-.158.32.32 0 0 0-.195-.064.32.32 0 0 0-.195.064.22.22 0 0 0-.087.158"/><path fill="#000" d="M107.021 48.633c-.139-.562-.306-1.118-.447-1.68-.073-.294-.625-.169-.544.124.838 3.084 1.326 5.433-.074 8.409a10.4 10.4 0 0 1-2.271 3.062c-.237.225.16.557.4.33 3.1-2.94 3.859-6.466 2.936-10.245M107.14 60.37c3.557-3.37 4.482-7.445 3.39-11.882-.157-.644-.351-1.281-.511-1.925-.07-.294-.626-.169-.545.125.973 3.58 1.543 6.3-.076 9.76-.627 1.316-1.526 2.532-2.657 3.592-.24.226.159.558.399.33"/><path fill="#77751E" d="M68.466 40.272a56.6 56.6 0 0 1 6.011-10.49.2.2 0 0 0 .017-.171.25.25 0 0 0-.127-.134.33.33 0 0 0-.205-.027.3.3 0 0 0-.171.095c-4.005 5.494-6.905 11.49-8.588 17.752a.2.2 0 0 0 .033.172c.037.052.097.09.167.106s.146.009.21-.02a.25.25 0 0 0 .135-.134 52.6 52.6 0 0 1 2.518-7.149"/><path fill="#2755A0" d="M65.467 54.757H34.318a.32.32 0 0 0-.199.069.22.22 0 0 0-.083.164v8.253c0 .062.03.12.083.164a.32.32 0 0 0 .2.07c31.674.185 31.24.045 31.36-.084.105-.093.146.432.07-8.403-.001-.062-.031-.12-.084-.164a.32.32 0 0 0-.198-.07m-30.898 4.126c.578-.008 6.245 0 6.823 0v-2.916a.22.22 0 0 1 .088-.157.32.32 0 0 1 .195-.065c.073 0 .142.023.195.065a.22.22 0 0 1 .088.157v2.916h7.384v-2.916a.22.22 0 0 1 .087-.157.32.32 0 0 1 .195-.065c.073 0 .143.023.195.065a.22.22 0 0 1 .088.157v2.916h6.972v-2.916a.22.22 0 0 1 .087-.157.32.32 0 0 1 .195-.065c.073 0 .142.023.195.065a.22.22 0 0 1 .087.157v2.916h7.011c.073.003.14.029.19.072.05.044.079.101.079.162 0 .06-.028.117-.078.16a.3.3 0 0 1-.191.073c-.486.007-6.533 0-7.016 0v2.916a.22.22 0 0 1-.088.157.32.32 0 0 1-.194.065.32.32 0 0 1-.195-.065.22.22 0 0 1-.088-.157v-2.913h-6.966v2.915a.22.22 0 0 1-.088.158.32.32 0 0 1-.195.064.32.32 0 0 1-.195-.064.22.22 0 0 1-.087-.158v-2.916H41.96v2.916a.22.22 0 0 1-.087.158.32.32 0 0 1-.195.064.32.32 0 0 1-.195-.064.22.22 0 0 1-.088-.158v-2.916H34.57a.3.3 0 0 1-.19-.072.22.22 0 0 1-.079-.161c0-.06.028-.118.078-.162a.3.3 0 0 1 .191-.072z"/><path fill="#E6DEFF" d="M90.412 64.062c.12-.288-.425-.407-.545-.124L79.327 88.67q.266.08.516.193c.133-.32 10.523-24.698 10.569-24.802M76.06 96.338c-.12.287.425.406.545.124l3.053-7.162a3.3 3.3 0 0 0-.517-.19c-.04.085-3.057 7.163-3.08 7.228M3.022 97.553a.3.3 0 0 0-.19.072.21.21 0 0 0-.079.161c0 .06.028.118.078.162.05.043.119.07.191.072h12.492q.169-.218.257-.467c-17.357 0-11.518-.02-12.749 0M73.405 98.02a.3.3 0 0 0 .19-.072.22.22 0 0 0 .079-.162.22.22 0 0 0-.078-.161.3.3 0 0 0-.191-.072H16.333q-.06.242-.186.467c67.857 0 55.832.02 57.258 0"/><path fill="#000" d="M64.454 58.883h-7.013v-2.916a.22.22 0 0 0-.09-.162.32.32 0 0 0-.203-.063.3.3 0 0 0-.19.067.21.21 0 0 0-.082.159c-.016.769-.025 1.836-.026 2.915h-6.943v-2.916a.22.22 0 0 0-.088-.157.32.32 0 0 0-.195-.065.32.32 0 0 0-.195.065.22.22 0 0 0-.087.157c-.017.77-.024 1.837-.025 2.916H41.96v-2.916a.22.22 0 0 0-.087-.157.32.32 0 0 0-.195-.065.32.32 0 0 0-.195.065.22.22 0 0 0-.088.157c-.016.77-.024 1.837-.025 2.916h-6.769a.3.3 0 0 0-.11.013.3.3 0 0 0-.094.047.24.24 0 0 0-.066.073.2.2 0 0 0-.011.179.2.2 0 0 0 .056.078.3.3 0 0 0 .089.055q.05.02.107.022h6.798c0 1.107.01 2.185.025 2.916a.22.22 0 0 0 .088.157.32.32 0 0 0 .195.065.32.32 0 0 0 .195-.065.22.22 0 0 0 .087-.157v-2.913h7.357c0 1.106.01 2.185.025 2.915a.22.22 0 0 0 .087.158.32.32 0 0 0 .195.064.32.32 0 0 0 .195-.064.22.22 0 0 0 .088-.158v-2.916h6.943c0 1.107.01 2.186.026 2.916a.22.22 0 0 0 .087.158.32.32 0 0 0 .195.064.32.32 0 0 0 .195-.064.22.22 0 0 0 .088-.158v-2.916c1.115 0 6.616.006 7.016 0a.3.3 0 0 0 .19-.072.22.22 0 0 0 .079-.161.22.22 0 0 0-.078-.162.3.3 0 0 0-.191-.072z"/><path fill="#FF4848" d="m93.74 58.83 1.334-2.337c.155-.27-.332-.508-.486-.236l-1.334 2.338c-.156.27.33.507.487.235M95.767 59.28l1.467-2.787c.144-.273-.343-.511-.487-.236l-1.468 2.787c-.144.273.342.51.487.236M94.264 52.095l1.815-.762c.325-.136.04-.54-.285-.402l-1.816.761c-.324.136-.038.54.286.403"/><path fill="#77751E" d="M85.256 29.453c-.118 2.012-.609 5.06-.982 7.035a84 84 0 0 1-2.945 11.146.2.2 0 0 0-.004.092q.009.046.039.086t.076.068.101.037a.33.33 0 0 0 .205-.024.24.24 0 0 0 .128-.134 82.6 82.6 0 0 0 3.336-13.377c.476-2.959 1.073-6.596.117-9.401a.23.23 0 0 0-.065-.09.3.3 0 0 0-.106-.058.34.34 0 0 0-.246.018c-.49.247.57.811.346 4.602M93.629 25.812c.163.269.65.032.486-.236L92.858 23.5c-.163-.27-.65-.033-.487.235z"/><path fill="#000" d="M34.169 11.851c.3.122.645.151.969.081s.607-.234.797-.463c.437-.557.665-1.209.658-1.873.062-.963-.146-2.363-1.485-2.671-2.077-.48-3.35 3.687-.94 4.926m1.104-4.346c.21.139.382.313.504.511.122.199.19.416.202.639.121.66.064 1.335-.167 1.975-.152.535-.727 1.07-1.358.815-2.07-1.062-.665-4.895.819-3.94M38.809 1.226c-.43-.667-1.38-.247-1.848.135a14.5 14.5 0 0 0-2.93 2.849.867.867 0 0 0-.097.951c.114.11.256.198.417.255s.335.083.51.074a26.3 26.3 0 0 0 4.636-.528c.486-.082 1.153-.096 1.26-.588a.7.7 0 0 0-.066-.457.87.87 0 0 0-.356-.354c-.325-.176-.331-.029-.153-.216a.67.67 0 0 0 .183-.47.68.68 0 0 0-.208-.462 1.6 1.6 0 0 0-.824-.237 1.63 1.63 0 0 0-.835.208c.32-.346.594-.72.31-1.16m.724 1.425c.268.036.333.23.198.412-.208.2-.496.332-.812.37a.28.28 0 0 0-.162.112.2.2 0 0 0-.024.174c.02.058.065.107.128.138s.137.041.208.028c.309-.035.797-.102 1.03.121.07.066.11.15.11.238-.008.136-.156.155-.293.176-.823.13-4.795.89-5.49.506-.342-.645 2.481-2.852 2.937-3.234.203-.166.951-.632.987-.115.029.407-.518.722-.764 1.035a.205.205 0 0 0 .002.233q.038.054.102.086.064.03.14.033c.827.03.979-.34 1.703-.313M75.104 97.786v12.097c.004.06.035.117.088.158a.3.3 0 0 0 .195.065.3.3 0 0 0 .195-.065.22.22 0 0 0 .087-.158V97.786a.22.22 0 0 0-.087-.158.32.32 0 0 0-.195-.064.32.32 0 0 0-.195.064.22.22 0 0 0-.088.158M92.333 66v29.347a.22.22 0 0 0 .087.158.32.32 0 0 0 .195.065.32.32 0 0 0 .195-.065.22.22 0 0 0 .088-.157V66a.22.22 0 0 0-.088-.158.32.32 0 0 0-.195-.064.32.32 0 0 0-.195.064.22.22 0 0 0-.088.158M3.305 100.126a.22.22 0 0 0-.087-.158.32.32 0 0 0-.195-.065.32.32 0 0 0-.195.065.22.22 0 0 0-.088.158v9.757c.004.06.035.117.088.158a.3.3 0 0 0 .195.065.3.3 0 0 0 .195-.065.22.22 0 0 0 .087-.158zM93.629 25.812c.163.269.65.032.486-.236L92.858 23.5c-.163-.27-.651-.033-.487.235zM81.923 25.238c.112.287.658.163.545-.124l-.861-2.185c-.113-.288-.659-.164-.545.124zM44.066 43.475a.3.3 0 0 0-.192.067.21.21 0 0 0-.081.158 51 51 0 0 0 0 1.98.22.22 0 0 0 .088.158.32.32 0 0 0 .195.065.32.32 0 0 0 .195-.065.22.22 0 0 0 .087-.158q.021-.99 0-1.98a.2.2 0 0 0-.024-.09.2.2 0 0 0-.064-.074.3.3 0 0 0-.095-.047.3.3 0 0 0-.11-.014M48.643 43.7q.038.99.077 1.98c.012.3.577.302.566 0l-.078-1.98c-.011-.3-.576-.3-.565 0M31.897 92.415h-3.23V89.95a.22.22 0 0 0-.088-.158.32.32 0 0 0-.195-.064.32.32 0 0 0-.195.064.22.22 0 0 0-.087.158v2.465H17.125V89.95a.22.22 0 0 0-.088-.158.32.32 0 0 0-.195-.064.32.32 0 0 0-.195.064.22.22 0 0 0-.087.158v2.465h-3.358a.3.3 0 0 0-.191.072.22.22 0 0 0-.078.162c0 .06.028.117.078.161s.118.07.19.072h18.696c.517-.002.379-.56 0-.467M24.62 81.305h-6.399a.3.3 0 0 0-.19.073.22.22 0 0 0-.079.161c0 .06.028.118.078.162.05.043.119.069.191.072h6.4a.3.3 0 0 0 .19-.072.22.22 0 0 0 .078-.162.22.22 0 0 0-.078-.161.3.3 0 0 0-.19-.073M24.62 83.174h-6.399a.3.3 0 0 0-.19.072.22.22 0 0 0-.079.162c0 .06.028.118.078.161s.119.07.191.073h6.4a.3.3 0 0 0 .19-.073.22.22 0 0 0 .078-.161.22.22 0 0 0-.078-.162.3.3 0 0 0-.19-.072M24.62 85.148h-6.399a.3.3 0 0 0-.19.073.22.22 0 0 0-.079.16c0 .06.028.119.078.162s.119.07.191.073h6.4a.3.3 0 0 0 .19-.073.22.22 0 0 0 .078-.161.22.22 0 0 0-.078-.162.3.3 0 0 0-.19-.072M72.543 63.457c.016.115.117.25.282.234l4.136-.393.396.79c.053.105.194.217.348.163 8.427-2.888 7.94-2.717 7.983-2.746a.3.3 0 0 0 .091-.036.2.2 0 0 0 .064-.065.16.16 0 0 0 0-.163c-.615-1.146-4.918-9.815-5.13-10.238-.053-.105-.193-.216-.348-.163l-2.058.706-7.013.667c-.139.014-.3.097-.282.234zm7.746-12.089 4.914 9.81-7.421 2.544-4.915-9.809zm-3.87.825-3.993 1.37c-.127.043-.262.16-.198.287l4.51 9.001-3.666.349-1.466-10.55zM26.318 54.05c-1.594-.666-3.309.051-4.15 1.311-2.067 3.086-.117 6.713 2.546 7.003v5.473c.004.06.035.116.087.157a.32.32 0 0 0 .195.065.32.32 0 0 0 .195-.064.22.22 0 0 0 .088-.158v-5.463c2.287-.146 3.482-2.347 3.494-4.284-.01-1.501-.706-3.325-2.455-4.04m1.89 4.04c-.009 1.323-.576 2.922-2.08 3.596-1.345.609-2.804-.046-3.504-1.147-2.019-3.105.37-6.834 3.03-6.205.787.226 1.439.695 1.818 1.309.496.75.749 1.593.736 2.447"/><path fill="#000" d="M76.525 56.055c1.159-.41 2.321-.819 3.502-1.185.337-.104.191-.556-.151-.45-1.226.38-2.433.805-3.636 1.232-.333.118-.046.52.285.403M77.394 58.094c1.158-.41 2.32-.819 3.5-1.185.338-.104.192-.556-.15-.45-1.226.379-2.432.804-3.636 1.231-.333.119-.046.521.285.404M78.516 59.968c1.158-.41 2.32-.82 3.5-1.185.338-.104.192-.556-.149-.451-1.227.38-2.432.805-3.637 1.232-.333.118-.045.521.286.404M67.766 81.27c-.181.004.022-.07-3.572 2.554l-.017.02a.2.2 0 0 0-.054.07.17.17 0 0 0 .01.163.2.2 0 0 0 .063.065c.143.148.25.123 3.456.099a.32.32 0 0 0 .198-.07.22.22 0 0 0 .085-.164l.124-2.507a.2.2 0 0 0-.024-.09.24.24 0 0 0-.065-.075.3.3 0 0 0-.094-.05.3.3 0 0 0-.11-.015m-.385 2.503H65.11l2.359-1.734zM51.533 89.722a.3.3 0 0 0-.19.068.22.22 0 0 0-.083.158v2.944a.22.22 0 0 0 .088.158.32.32 0 0 0 .195.065.32.32 0 0 0 .195-.065.22.22 0 0 0 .087-.158v-2.944a.22.22 0 0 0-.09-.163.32.32 0 0 0-.202-.063M73.097 89.722a.3.3 0 0 0-.19.068.22.22 0 0 0-.082.158v2.944a.22.22 0 0 0 .087.158.32.32 0 0 0 .195.065.32.32 0 0 0 .195-.065.22.22 0 0 0 .088-.158v-2.944a.22.22 0 0 0-.09-.163.32.32 0 0 0-.203-.063M48.53 37.896c.244.224.643-.108.4-.33-3.737-3.447-7.436-6.823-12.34-8.999-.322-.14-.607.262-.286.403 4.804 2.121 8.61 5.589 12.227 8.926M24.987 57.023a.3.3 0 0 0-.19.068.22.22 0 0 0-.083.157v3.738c.004.06.035.116.087.157a.32.32 0 0 0 .195.065.32.32 0 0 0 .195-.065.22.22 0 0 0 .088-.157v-3.738a.22.22 0 0 0-.09-.163.32.32 0 0 0-.202-.062M107.021 48.633c-.132-.563-.306-1.118-.447-1.68-.073-.294-.617-.172-.544.124q.492 1.667.737 3.37a8.8 8.8 0 0 1-.514 4.318c-.53 1.394-1.405 2.682-2.568 3.782-.237.227.162.559.4.331 3.02-2.837 3.889-6.483 2.936-10.245M107.14 60.37c3.541-3.325 4.489-7.58 3.39-11.882-.152-.645-.351-1.281-.511-1.925-.074-.294-.618-.172-.545.124q.57 1.929.855 3.9a10.3 10.3 0 0 1-.593 5.038c-.618 1.628-1.638 3.131-2.995 4.415-.239.227.161.559.399.33M65.413 63.476h.054a.32.32 0 0 0 .198-.07.22.22 0 0 0 .084-.163V54.99a.22.22 0 0 0-.084-.164.32.32 0 0 0-.198-.07H34.319a.32.32 0 0 0-.199.07.22.22 0 0 0-.084.164v8.253c0 .062.03.12.084.164a.32.32 0 0 0 .199.07c33.332.195 30.691.01 31.094 0m-30.812-.478v-3.646h6.794v2.916c.004.06.035.116.088.158a.32.32 0 0 0 .195.064.32.32 0 0 0 .195-.064.22.22 0 0 0 .087-.158v-2.916h7.382v2.916a.22.22 0 0 0 .087.158.32.32 0 0 0 .195.064.32.32 0 0 0 .195-.064.22.22 0 0 0 .088-.158v-2.916h6.972v2.916c.003.06.034.116.087.158a.32.32 0 0 0 .195.064.32.32 0 0 0 .195-.064.22.22 0 0 0 .087-.158v-2.916c.434 0 6.584.007 7.017 0a.3.3 0 0 0 .19-.072.21.21 0 0 0 .078-.161.21.21 0 0 0-.078-.162.3.3 0 0 0-.19-.072h-7.02V55.97a.22.22 0 0 0-.087-.158.32.32 0 0 0-.195-.065.32.32 0 0 0-.195.065.22.22 0 0 0-.087.158v2.915h-6.969V55.97a.22.22 0 0 0-.088-.158.32.32 0 0 0-.195-.065.32.32 0 0 0-.195.065.22.22 0 0 0-.087.158v2.915H41.96V55.97a.22.22 0 0 0-.087-.158.32.32 0 0 0-.195-.065.32.32 0 0 0-.195.065.22.22 0 0 0-.088.158v2.915h-6.794v-3.661s30.255.021 30.583.011v7.774s-30.254-.021-30.583-.011M94.586 56.257l-1.333 2.338c-.155.27.332.507.486.235l1.334-2.337c.156-.27-.33-.508-.487-.236M95.767 59.28l1.467-2.787c.144-.273-.343-.511-.487-.236l-1.468 2.787c-.145.273.342.51.487.236M94.264 52.095l1.815-.762c.325-.136.039-.54-.285-.402l-1.816.761c-.324.136-.038.54.286.403"/></svg>