<svg xmlns="http://www.w3.org/2000/svg" width="102" height="86" fill="none"><path fill="#000" d="m25.378 5.29.478-4.964c.034-.352.475-.357.441 0l-.479 4.964c-.034.352-.474.357-.44 0M11.706 8.571l-1.6-4.886c-.11-.331.317-.476.424-.149l1.601 4.887c.109.331-.317.476-.425.148M9.101 11.37 5.803 7.556c-.21-.242.103-.636.312-.394l3.298 3.812c.21.242-.102.636-.312.394M3.403 40.316.374 42.065c-.256.148-.48-.334-.225-.483l3.029-1.749c.258-.148.482.334.225.483"/><path fill="#2755A0" d="M11.123 58.023q.264-.047.53-.008c.616.071 22.06 1.86 23.136 1.952.18 1.078.685 2.024 1.407 2.64a6.5 6.5 0 0 0 2.169 1.273c-5.797-.412-7.885-.812-9.736.327l-17.461-3.02c-.295-.058-.564-.246-.76-.531a1.87 1.87 0 0 1-.313-1.027 1.9 1.9 0 0 1 .283-1.04c.188-.294.452-.494.745-.566"/><path fill="#000" d="M75.418 11.234c1.606-3.09 4.521-4.208 7.3-3.702 2.39.433 4.37 2.755 3.886 5.803a10 10 0 0 0-.277 2.101c.011.289.095.565.239.79.143.224.339.385.56.46 1.043.329 1.523-.119 2.793.245.558.228 1.034.699 1.343 1.33.309.63.431 1.38.346 2.114-.156.91-.53 1.486-.282 1.92q.119.153.277.232.16.076.329.063c.631.038 1.263-.098 1.897-.08 1.105.03 2.21.651 2.54 2.006.064.463.05.938-.043 1.393a3.7 3.7 0 0 1-.492 1.246c1.035-.095 2.115-.038 2.935.872.393.43.638 1.038.685 1.693.004.325-.043.646-.138.947a2.6 2.6 0 0 1-.414.808 5 5 0 0 1-1.32 1.195q-.526.333-1.075.593c-1.79-2.693-4.01-4.873-6.515-6.397s-5.236-2.356-8.013-2.441c-.211-.024-.247.005-.365-.005-2.598-.028-3.927-.167-6.12.266a27 27 0 0 1-1.285-5.65c-.346-2.7.083-5.468 1.21-7.802m2.251 4.959c.105.727.39 1.393.815 1.9.424.508.965.83 1.544.92 1.232.204 2.638-.697 2.93-2.303a4.8 4.8 0 0 0-.035-2.343c-.205-.757-.59-1.415-1.104-1.88a2.43 2.43 0 0 0-1.558-.527c-.549.017-1.082.231-1.537.62-.431.41-.76.968-.947 1.61a4.45 4.45 0 0 0-.106 2.003z"/><path fill="#FC9070" d="M78.727 12.58c.456-.388.989-.603 1.537-.62a2.43 2.43 0 0 1 1.558.527c.514.465.9 1.123 1.104 1.88s.217 1.577.035 2.343c-.292 1.606-1.698 2.507-2.93 2.303-.579-.09-1.12-.412-1.544-.92-.424-.507-.71-1.173-.814-1.9a4.45 4.45 0 0 1 .106-2.004c.187-.641.517-1.2.948-1.61"/><path fill="#FFD2D2" d="M61.782 36.166c1.58-3.157 3.692-5.835 6.181-7.841 2.49-2.007 5.298-3.293 8.225-3.769.199-.03 1.057-.138 1.126-.12a.2.2 0 0 0-.09.036.25.25 0 0 0-.07.08.347.347 0 0 0-.032.23c.137.545.403 1.023.762 1.37.358.346.793.544 1.243.566a2.8 2.8 0 0 0 1.518-.525 3.8 3.8 0 0 0 1.156-1.353.33.33 0 0 0 .008-.26.3.3 0 0 0-.067-.102.2.2 0 0 0-.097-.052q.166-.02.331 0c10.987.245 19.985 12.45 19.988 27.759V69.27a.33.33 0 0 1-.066.195.2.2 0 0 1-.154.084c-6.078.114-24.725.433-24.784.441-.057.022-4.76 2.144-5.06 2.234a.26.26 0 0 0 .113-.133c.024-.06.031-.13.019-.195-1.377-7.062-3.62-13.778-7.35-19.346.26-.129 26.021-13.25 26.257-13.37.26-.133.146-.673-.117-.538-7.09 3.613-32.533 16.578-32.77 16.7.058-7.054.248-12.404 3.73-19.177m15.163 29.9a13 13 0 0 1-2.641 1.398.24.24 0 0 0-.126.133.35.35 0 0 0-.018.207c.015.07.05.129.099.165a.18.18 0 0 0 .162.034 13.2 13.2 0 0 0 2.746-1.455c.25-.172.027-.654-.222-.482m4.069.51c-.264.125-.149.664.117.538l14.504-6.834c.263-.124.149-.664-.117-.538z"/><path fill="#FF4848" d="M77.317 24.436c.588-.113 3.699-.023 4.297-.016q.06.001.11.038.05.038.08.103a.34.34 0 0 1 0 .279 3.8 3.8 0 0 1-1.156 1.353 2.8 2.8 0 0 1-1.518.525c-.45-.022-.884-.22-1.243-.567-.359-.346-.625-.824-.762-1.369a.35.35 0 0 1 .032-.23.25.25 0 0 1 .07-.08.2.2 0 0 1 .09-.036"/><path fill="#000" d="m45.827 15.146 4.357-8.23c.157-.298.538-.019.38.284l-3.815 7.21c2.753-2.09 9.765-7.44 10.607-8.048a.18.18 0 0 1 .168-.03.24.24 0 0 1 .135.129c.03.064.038.14.024.212a.28.28 0 0 1-.102.171c-2.87 2.236-9.748 7.409-10.697 8.126l6.898-.338c.281-.013.281.545 0 .559-5.893.285-7.71.379-7.778.376a.2.2 0 0 1-.108-.04.26.26 0 0 1-.078-.105.34.34 0 0 1 .01-.276"/><path fill="#FF4848" d="M95.522 59.741c.266-.125.38.415.117.539L81.13 67.113c-.265.125-.38-.414-.117-.539z"/><path fill="#FC9070" fill-opacity=".8" d="M28.626 64.203a5.6 5.6 0 0 1 2.742-.747c1.009-.033 1.325.017 6.995.42-2.961-1.03-3.939-3.495-3.489-5.085.57-2.01 2.724-2.14 4.408-2.204q3.438-.188 6.874.08c4.319.332 6.99 1.034 7.343 1.02 0 0 29.263-14.94 37.324-19.045.264-.134.378.406.117.538-.236.12-25.999 13.242-26.257 13.37 3.721 5.555 5.978 12.298 7.35 19.347a.36.36 0 0 1-.024.209.25.25 0 0 1-.13.134c-3.82 1.69-29.495 12.829-30.077 13.076-1.04.564-2.182.761-3.304.57-1.407-.385-2.679-2.547-1.632-4.204.686-1.086 2.754-2.435 3.736-3.056-2.431.899-4.094 1.526-6.734 1.649a3.18 3.18 0 0 1-1.955-.405c-.477-.369-.841-.93-1.035-1.594a3.95 3.95 0 0 1-.035-2.064c.383-1.432 1.323-1.91 2.465-2.312a171 171 0 0 0 4.251-1.64 25.5 25.5 0 0 1-4.687-.35 13.5 13.5 0 0 1-2.897-.868 6.3 6.3 0 0 1-2.097-1.465c-1.471-1.517-1.344-4.088.747-5.374M44.25 77.43l2.082-.62c.322-.097.185-.725-.137-.629l-2.082.622c-.322.096-.184.724.137.627m-2.755-5.899a28 28 0 0 1 2.87-.738.24.24 0 0 0 .09-.057.3.3 0 0 0 .065-.096.4.4 0 0 0 .024-.247.33.33 0 0 0-.122-.194.22.22 0 0 0-.194-.034q-1.448.286-2.87.738a.28.28 0 0 0-.146.156.4.4 0 0 0-.021.241c.017.08.059.15.115.193a.21.21 0 0 0 .19.038"/><path fill="#FC9070" d="M41.358 70.903a26 26 0 0 1 2.87-.738.22.22 0 0 1 .194.034.33.33 0 0 1 .122.194.4.4 0 0 1-.024.247.3.3 0 0 1-.066.096.24.24 0 0 1-.09.057c-.964.19-1.92.443-2.87.738a.21.21 0 0 1-.188-.038.33.33 0 0 1-.115-.193.4.4 0 0 1 .02-.241.28.28 0 0 1 .147-.156M46.329 76.81l-2.082.62c-.322.097-.459-.531-.137-.627l2.082-.622c.322-.096.46.532.137.629"/><path fill="#77751E" d="M25.91 44.354c.394-.863.868-1.66 1.238-2.54a.26.26 0 0 1 .08-.102.2.2 0 0 1 .11-.038q.058 0 .11.038.05.038.08.102c.354.89.768 1.74 1.238 2.54.116.195-.063.422-.19.42-2.526-.052-2.449.012-2.506-.007a.2.2 0 0 1-.098-.05.3.3 0 0 1-.068-.103.35.35 0 0 1 .006-.26m2.25-.138a23 23 0 0 1-.83-1.693c-.257.528-.653 1.302-.844 1.693z"/><path fill="#A982F4" d="M10.659 33.724c-.253.087-.52.076-.768-.032a1.38 1.38 0 0 1-.62-.575 2.04 2.04 0 0 1-.224-1.072c.023-.38.146-.737.35-1.016.186-.228.418-.389.67-.465s.515-.065.763.032c.244.142.448.375.585.668.138.293.201.631.183.97-.02.34-.119.665-.287.931a1.36 1.36 0 0 1-.652.56m.242-2.45a.79.79 0 0 0-.618-.2.87.87 0 0 0-.575.35 1.1 1.1 0 0 0-.18.359 1.32 1.32 0 0 0 .023.833q.073.197.2.342a.8.8 0 0 0 .29.214.68.68 0 0 0 .657-.063q.152-.1.261-.268c.14-.227.21-.51.2-.798a1.38 1.38 0 0 0-.26-.77z"/><path fill="#FF4848" d="M74.304 67.464c.915-.355 1.8-.823 2.641-1.398.249-.172.472.31.225.482a13.2 13.2 0 0 1-2.746 1.454.18.18 0 0 1-.162-.033.28.28 0 0 1-.1-.165.35.35 0 0 1 .02-.207.24.24 0 0 1 .125-.133z"/><path fill="#000" d="M25.598 5.616a.2.2 0 0 1-.099-.025.3.3 0 0 1-.083-.07.3.3 0 0 1-.056-.106.4.4 0 0 1-.019-.125L25.82.326a.4.4 0 0 1 .076-.228.24.24 0 0 1 .18-.098c.068 0 .134.034.182.095a.38.38 0 0 1 .075.231l-.478 4.964a.4.4 0 0 1-.077.228.24.24 0 0 1-.18.098M11.671 8.583l-1.602-4.886a.4.4 0 0 1 .025-.247.28.28 0 0 1 .155-.154.22.22 0 0 1 .194.034.33.33 0 0 1 .122.194l1.601 4.887a.4.4 0 0 1-.025.246.28.28 0 0 1-.154.154.21.21 0 0 1-.194-.034.33.33 0 0 1-.122-.194M9.076 11.403 5.778 7.59c-.245-.285.12-.743.363-.46l3.299 3.811c.245.282-.12.741-.364.46M3.163 39.793c.299-.173.563.388.26.562l-3.03 1.749c-.298.173-.562-.389-.258-.562zM80.025 19.059c-.587-.092-1.134-.418-1.564-.93-.43-.514-.719-1.187-.826-1.923a4.5 4.5 0 0 1 .11-2.033c.19-.65.524-1.217.962-1.633.46-.393 1-.61 1.555-.626s1.102.168 1.577.533c1.141.9 1.43 2.692 1.155 4.277-.192.775-.598 1.437-1.143 1.865-.545.429-1.193.596-1.826.47m1.796-5.815a2.15 2.15 0 0 0-.89-.55 1.83 1.83 0 0 0-.99-.026 2.1 2.1 0 0 0-.905.506c-.27.25-.493.57-.655.941a3.63 3.63 0 0 0-.138 2.445c.119.395.304.753.543 1.05.239.295.526.521.84.662 1.11.483 2.579-.165 2.876-1.723.131-.577.137-1.189.017-1.77a3.64 3.64 0 0 0-.698-1.535"/><path fill="#000" d="M11.652 57.968c.616.071 22.032 1.859 23.092 1.948a3 3 0 0 1 .093-1.141c.578-2.012 2.757-2.197 4.445-2.237a57.3 57.3 0 0 1 14.208 1.101c.235-.09-.811.41 4.528-2.331l.015-1.792c-.056-6.261.919-11.933 3.718-17.377 1.52-3.025 3.524-5.611 5.883-7.592s5.02-3.31 7.81-3.905a26.4 26.4 0 0 1-1.272-5.609c-.353-3.382.25-6.99 2.215-9.33.86-.943 1.875-1.632 2.972-2.016a6.1 6.1 0 0 1 3.368-.2c2.42.387 4.434 2.889 3.912 5.86a9.7 9.7 0 0 0-.276 2.089c.011.279.093.546.232.762s.329.371.542.442c1.058.334 1.512-.121 2.794.246.567.23 1.052.709 1.366 1.35s.439 1.404.35 2.15c-.13.874-.53 1.45-.288 1.88a.75.75 0 0 0 .265.219q.151.072.312.058c.632.038 1.264-.097 1.898-.08 1.132.032 2.242.673 2.574 2.04a4.1 4.1 0 0 1-.032 1.367 3.7 3.7 0 0 1-.469 1.23c1.024-.086 2.09-.02 2.893.891.402.437.652 1.057.696 1.726a3.1 3.1 0 0 1-.14.965c-.097.307-.24.587-.423.823-.382.5-.832.907-1.33 1.202q-.502.324-1.031.571c3.537 5.273 5.463 11.981 5.428 18.903v17.085a.4.4 0 0 1-.077.229.24.24 0 0 1-.18.097c-21.117.397-24.785.442-24.785.442S42.365 85.12 41.81 85.358c-1.048.566-2.196.763-3.325.57-1.429-.39-2.712-2.59-1.655-4.272.265-.404.58-.753.93-1.033a21 21 0 0 1 2.458-1.81 19 19 0 0 1-6.355 1.506 3.2 3.2 0 0 1-1.973-.412c-.482-.376-.85-.945-1.047-1.618a4 4 0 0 1-.037-2.091c.205-.75.63-1.372 1.185-1.738.951-.589 1.688-.662 5.335-2.158a25.6 25.6 0 0 1-4.467-.35 13 13 0 0 1-2.897-.868 6.2 6.2 0 0 1-2.113-1.478 3.3 3.3 0 0 1-.757-1.246 4.1 4.1 0 0 1-.218-1.548c.03-.071.036-1.524 1.624-2.588l-17.345-3a1.15 1.15 0 0 1-.498-.224 1.5 1.5 0 0 1-.388-.456 1.9 1.9 0 0 1-.214-.612 2.1 2.1 0 0 1-.006-.67c.034-.221.103-.432.203-.618.1-.187.23-.345.38-.466a1.16 1.16 0 0 1 .494-.239c.175-.036.355-.026.528.029m86.447-26.393c1.712-1.569.723-3.737-1.304-3.851a8 8 0 0 0-1.398.081.22.22 0 0 1-.128-.045.3.3 0 0 1-.093-.12.4.4 0 0 1 0-.325 5.4 5.4 0 0 0 .762-1.938c.033-.31 0-.625-.096-.912a1.74 1.74 0 0 0-.45-.723c-1.53-1.461-4 .367-4.55-1.325-.217-.667.136-1.305.263-1.935a3.14 3.14 0 0 0-.111-1.593c-.173-.501-.47-.918-.846-1.185-1.168-.832-2.692.326-3.827-.915a2.3 2.3 0 0 1-.388-.804c-.081-.3-.11-.62-.084-.936.105-1.42.655-2.434.146-3.978a4.9 4.9 0 0 0-.959-1.637 3.7 3.7 0 0 0-1.405-.993 5.8 5.8 0 0 0-3.224-.367c-1.083.188-2.118.683-3.028 1.45-.816.782-1.485 1.781-1.961 2.928a10.7 10.7 0 0 0-.794 3.706c-.196 2.896.458 5.706 1.333 8.392q1.156-.195 2.32-.2c6.74-.117 12.478.755 17.935 8.41a6.7 6.7 0 0 0 1.886-1.184m-20.36-6.562c.69 1.606 2.346 1.258 3.334 0-1.11-.019-2.223-.05-3.334.003zM77.22 69.38c2.304-.045 24.03-.456 24.266-.449 0-15.206.045-17.547-.102-19.549-.978-13.176-9.008-24.197-19.619-24.356-1.27 2.123-3.801 2.482-4.624.028-9.138.805-16.199 9.81-18.075 20.937-.563 3.347-.507 5.475-.535 9.055 8.74-4.483 31.155-15.868 32.28-16.45a.21.21 0 0 1 .195.032c.06.043.103.113.122.196a.4.4 0 0 1-.027.246.29.29 0 0 1-.153.155c-.236.12-25.96 13.22-26.202 13.339 3.522 5.278 5.966 12.197 7.293 18.962 5.386-2.362 4.722-2.138 5.181-2.146m-49.834-2.512c-.293 3.576 5.444 4.69 8.285 4.746 1.072.051 2.145.02 3.218.036a.23.23 0 0 1 .167.083.398.398 0 0 1 .045.424.27.27 0 0 1-.145.135c-3.625 1.542-2.693 1.106-5.72 2.272-.69.153-1.312.624-1.745 1.323a3.15 3.15 0 0 0-.257 1.763c.084.608.339 1.157.717 1.546.514.386 1.11.556 1.706.486 3.116-.072 5.273-1.064 9.202-2.516a.21.21 0 0 1 .178.024.3.3 0 0 1 .122.166.4.4 0 0 1 .008.226.33.33 0 0 1-.11.179q-2.552 1.485-4.942 3.352c-.607.522-1.3 1.2-1.122 2.243.078.434.245.834.484 1.16.239.328.54.569.876.7 1.097.445 2.251-.025 3.3-.471.551-.234 29.47-12.81 29.86-12.983-1.714-8.643-4.334-14.618-7.267-18.943-2.656 1.351-10.361 5.35-10.651 5.468-.592.11-5.935-1.524-14.225-1.1-1.09.055-2.342.034-3.325.745a1.8 1.8 0 0 0-.55.648c-.139.27-.223.58-.245.9.074 3.311 4.228 4.386 6.809 4.611.328.029.332.675 0 .652-2.223-.159-8.77-.624-9.82-.683a6.6 6.6 0 0 0-2.942.44c-.457.141-.875.436-1.21.853-.337.417-.579.94-.7 1.515m2.09-3.123c1.729-.58 2.989-.336 8.6.063-1.328-.516-2.682-1.535-3.197-3.234l-23.32-1.964a.65.65 0 0 0-.57.105 1 1 0 0 0-.366.566c-.062.24-.05.5.032.73s.23.412.412.511c.164.092-1.062-.153 18.41 3.223M53.777 15.234c-6.272.305-7.71.38-7.78.375a.2.2 0 0 1-.124-.048.3.3 0 0 1-.088-.12.39.39 0 0 1 .008-.318l4.358-8.232c.183-.346.628-.02.443.33l-3.727 7.04c2.651-2.011 9.62-7.33 10.467-7.943a.21.21 0 0 1 .193-.03c.065.023.12.077.154.15a.4.4 0 0 1 .028.244.33.33 0 0 1-.115.199c-2.83 2.147-9.861 7.504-10.552 8.03l6.733-.329c.333-.016.332.636.002.652"/><path fill="#000" d="m81.002 66.531 14.507-6.837c.31-.142.445.483.137.629l-14.507 6.834c-.31.148-.444-.48-.137-.626M41.357 70.903a26 26 0 0 1 2.87-.738.22.22 0 0 1 .194.034.33.33 0 0 1 .122.194.4.4 0 0 1-.024.247.3.3 0 0 1-.066.096.24.24 0 0 1-.09.057q-1.446.285-2.87.738a.21.21 0 0 1-.191-.036.33.33 0 0 1-.118-.194.4.4 0 0 1 .023-.244.28.28 0 0 1 .15-.154M44.112 76.802l2.082-.621c.322-.096.459.531.137.628l-2.083.62c-.322.098-.458-.53-.136-.627M28.577 44.82h-2.476a.22.22 0 0 1-.126-.047.3.3 0 0 1-.092-.12.4.4 0 0 1-.004-.323c.383-.87.869-1.66 1.238-2.54a.3.3 0 0 1 .094-.12.2.2 0 0 1 .128-.045q.069 0 .129.044a.3.3 0 0 1 .093.121c.354.89.768 1.74 1.238 2.54.13.217-.048.498-.222.49m-1.25-2.202c-.253.521-.523 1.03-.776 1.551h1.537c-.27-.503-.53-1.02-.762-1.551M10.837 30.55c.275.128.51.365.67.676.16.31.238.678.221 1.049s-.128.724-.316 1.009a1.36 1.36 0 0 1-.729.571 1.1 1.1 0 0 1-.853-.092 1.53 1.53 0 0 1-.642-.719 2.1 2.1 0 0 1-.178-1.062c.033-.369.158-.715.357-.986.192-.234.429-.4.687-.477.259-.079.529-.068.783.031m-1.093 2.346q.121.15.28.226a.65.65 0 0 0 .649-.048.9.9 0 0 0 .257-.266c.133-.218.2-.489.19-.764a1.33 1.33 0 0 0-.246-.738.76.76 0 0 0-.592-.185.84.84 0 0 0-.55.335 1.1 1.1 0 0 0-.17.333 1.26 1.26 0 0 0 .005.779q.064.186.177.328M74.293 67.42a12.7 12.7 0 0 0 2.632-1.394c.29-.2.55.361.26.562a13.3 13.3 0 0 1-2.758 1.46.21.21 0 0 1-.189-.04.33.33 0 0 1-.115-.192.4.4 0 0 1 .021-.24.28.28 0 0 1 .146-.156z"/><path fill="#FFD500" d="M13.218 47.99c0-28.632-.066-27.676.113-28.792.212-1.027.685-1.937 1.346-2.589.662-.651 1.474-1.009 2.311-1.017h24.038a3.1 3.1 0 0 1 1.524.334c.484.243.923.61 1.29 1.078a5.1 5.1 0 0 1 .842 1.643c.189.616.275 1.274.253 1.933v28.237a6.1 6.1 0 0 1-.29 1.967 5.2 5.2 0 0 1-.882 1.66c-.38.472-.832.84-1.328 1.082a3.2 3.2 0 0 1-1.558.326c-25.51-.437-23.897.05-24.523-.09-.848-.203-1.617-.76-2.184-1.583s-.902-1.863-.948-2.955c-.02-.41-.004-.824-.004-1.233"/><path fill="#2755A0" d="M28.829 31.346c.514-1.187 1.763-3.84 1.84-4.003a.25.25 0 0 1 .078-.096.2.2 0 0 1 .105-.035.2.2 0 0 1 .106.035q.049.035.078.096.927 1.995 1.84 4.003a.33.33 0 0 1-.001.27.25.25 0 0 1-.078.1.2.2 0 0 1-.107.036h-3.68a.2.2 0 0 1-.102-.042.3.3 0 0 1-.075-.099.34.34 0 0 1-.004-.265M24.062 31.346c.514-1.187 1.763-3.84 1.84-4.003a.25.25 0 0 1 .078-.096.2.2 0 0 1 .105-.035.2.2 0 0 1 .106.035q.049.034.078.096a599 599 0 0 1 1.84 4.003.33.33 0 0 1-.001.268.25.25 0 0 1-.077.1.2.2 0 0 1-.106.037h-3.678a.2.2 0 0 1-.104-.04.26.26 0 0 1-.076-.098.34.34 0 0 1-.005-.267"/><path fill="#FF4848" d="M29.137 34.763h2.848c.056.001.11.03.149.08.04.05.062.119.063.19v3.608c-.001.071-.024.14-.063.19a.2.2 0 0 1-.15.08c-3.038.027-2.926.04-3.007-.097-.077-.104-.074.071-.053-3.78 0-.072.024-.14.063-.19.04-.051.094-.08.15-.08"/><path fill="#2755A0" d="M22.647 38.77c.513-1.188 1.763-3.84 1.84-4.003a.25.25 0 0 1 .078-.096.2.2 0 0 1 .105-.035.2.2 0 0 1 .105.035q.05.035.079.096a549 549 0 0 1 1.84 4.002.33.33 0 0 1-.002.27.25.25 0 0 1-.077.098.2.2 0 0 1-.105.038h-3.68a.2.2 0 0 1-.103-.041.3.3 0 0 1-.075-.099.34.34 0 0 1-.005-.266"/><path fill="#000" d="m33.561 34.636 2.888 3.66a.3.3 0 0 1 .054.187.3.3 0 0 1-.063.183.2.2 0 0 1-.144.08.19.19 0 0 1-.148-.068q-1.468-1.8-2.888-3.661a.3.3 0 0 1-.055-.188.3.3 0 0 1 .062-.184.2.2 0 0 1 .146-.08.19.19 0 0 1 .148.071M33.561 20.62l2.888 3.66c.039.051.06.12.06.19a.3.3 0 0 1-.062.188.2.2 0 0 1-.15.08.2.2 0 0 1-.149-.077 139 139 0 0 1-2.887-3.66.3.3 0 0 1-.056-.189.3.3 0 0 1 .063-.184.2.2 0 0 1 .145-.079.19.19 0 0 1 .148.07M33.561 27.656q1.468 1.799 2.888 3.66a.3.3 0 0 1 .054.187.3.3 0 0 1-.063.183.2.2 0 0 1-.144.08.19.19 0 0 1-.148-.069q-1.468-1.8-2.888-3.66a.3.3 0 0 1-.055-.188.3.3 0 0 1 .062-.185.2.2 0 0 1 .146-.079.19.19 0 0 1 .148.07"/><path fill="#FF4848" d="M41.914 20.866v3.866a.3.3 0 0 1-.066.182.2.2 0 0 1-.146.074.2.2 0 0 1-.147-.074.3.3 0 0 1-.066-.182v-3.866a.3.3 0 0 1 .066-.182.2.2 0 0 1 .147-.074c.054 0 .107.026.146.074.04.047.063.113.066.181M41.914 27.98v3.867a.3.3 0 0 1-.066.182.2.2 0 0 1-.146.074.2.2 0 0 1-.147-.074.3.3 0 0 1-.066-.182V27.98a.3.3 0 0 1 .066-.181.2.2 0 0 1 .147-.075c.054 0 .107.027.146.075.04.047.063.112.066.181M41.914 35.018v3.867a.3.3 0 0 1-.066.182.2.2 0 0 1-.146.074.2.2 0 0 1-.147-.074.3.3 0 0 1-.066-.182v-3.867a.3.3 0 0 1 .066-.182.2.2 0 0 1 .147-.074c.054 0 .107.026.146.074.04.048.063.113.066.182M41.914 42.03v3.866a.3.3 0 0 1-.066.182.2.2 0 0 1-.146.074.2.2 0 0 1-.147-.074.3.3 0 0 1-.066-.182V42.03a.3.3 0 0 1 .066-.181.2.2 0 0 1 .147-.074c.054 0 .107.026.146.074.04.047.063.113.066.181"/><path fill="#000" d="m39.51 36.935-2.167-2.125a.3.3 0 0 1-.062-.19c0-.072.023-.14.062-.191a.2.2 0 0 1 .15-.077c.057 0 .11.027.15.077 0 0 2.281 2.224 2.355 2.31.17.227-.005.397-.135.525L37.64 39.44a.2.2 0 0 1-.15.076.2.2 0 0 1-.15-.076.3.3 0 0 1-.063-.19.3.3 0 0 1 .063-.191 917 917 0 0 0 2.168-2.125M39.51 29.913l-2.167-2.125a.3.3 0 0 1-.062-.19.3.3 0 0 1 .062-.191.2.2 0 0 1 .15-.077c.057 0 .11.027.15.077.706.692 2.281 2.224 2.355 2.309.17.227-.005.399-.135.526L37.64 32.42a.2.2 0 0 1-.15.076.2.2 0 0 1-.15-.076.3.3 0 0 1-.063-.19.3.3 0 0 1 .063-.191zM39.51 22.73l-2.167-2.125a.3.3 0 0 1-.062-.19.3.3 0 0 1 .062-.191.2.2 0 0 1 .15-.077c.057 0 .11.027.15.077.706.692 2.281 2.224 2.355 2.31.17.226-.005.398-.135.525l-2.222 2.177a.2.2 0 0 1-.15.076.2.2 0 0 1-.152-.076.3.3 0 0 1-.046-.087.33.33 0 0 1 .046-.294zM17.833 36.603l2.219-2.177a.2.2 0 0 1 .15-.076c.056 0 .11.027.15.076.04.05.062.119.062.19s-.022.14-.062.191l-2.166 2.124 2.166 2.126a.3.3 0 0 1 .062.19.3.3 0 0 1-.062.191.2.2 0 0 1-.15.077.2.2 0 0 1-.15-.077s-2.28-2.224-2.355-2.31c-.166-.224.006-.395.136-.525M19.847 30.107c-.169-.227.006-.399.136-.526l2.219-2.177a.2.2 0 0 1 .15-.075c.056 0 .11.027.15.075a.3.3 0 0 1 .063.19.3.3 0 0 1-.063.191l-2.166 2.125 2.168 2.127c.04.051.062.12.062.191a.3.3 0 0 1-.062.19.2.2 0 0 1-.15.077.2.2 0 0 1-.151-.076c-.707-.695-2.281-2.226-2.356-2.312M24.9 22.73l2.166 2.124c.04.051.062.12.062.191s-.022.14-.062.191a.2.2 0 0 1-.15.076.2.2 0 0 1-.15-.076c-.706-.693-2.28-2.224-2.355-2.31-.169-.227.006-.398.136-.526l2.219-2.176a.2.2 0 0 1 .15-.076c.056 0 .11.027.15.076a.3.3 0 0 1 .062.19.3.3 0 0 1-.062.19z"/><path fill="#CCEAFF" d="M29.81 20.452a1.44 1.44 0 0 1 1.116-.05c.368.135.691.414.924.798.234.383.364.851.373 1.336.01.484-.104.96-.322 1.356-.219.398-.532.696-.893.852a1.44 1.44 0 0 1-1.118.018c-.365-.145-.684-.434-.91-.824a2.7 2.7 0 0 1-.349-1.346c0-.467.112-.923.323-1.305.21-.383.51-.675.855-.835"/><path fill="#000" d="M44.923 12.778c1.166.86 2.1 2.146 2.679 3.69.12.311-.248.585-.367.273-.562-1.449-1.438-2.663-2.527-3.5a.28.28 0 0 1-.09-.164.33.33 0 0 1 .022-.198.23.23 0 0 1 .125-.123.17.17 0 0 1 .158.02zM45.274 11.138c1.574.932 2.83 2.553 3.536 4.565.112.314-.257.589-.367.272-.673-1.93-1.875-3.486-3.383-4.379-.248-.143-.032-.608.214-.459M44.756 20.58v28.237a6.2 6.2 0 0 1-.3 1.96 5.2 5.2 0 0 1-.883 1.654c-.379.47-.829.839-1.323 1.083a3.2 3.2 0 0 1-1.553.338c-21.49.044-23.896.05-24.523-.09-.847-.203-1.616-.761-2.183-1.584s-.901-1.863-.948-2.954c-.01-.225-.105-3.592-.007-28.147-.01-.63.027-1.26.113-1.88.212-1.026.686-1.936 1.347-2.588s1.473-1.009 2.31-1.017h24.041c.52-.023 1.04.09 1.523.334.485.243.924.61 1.291 1.078s.654 1.028.842 1.643a6 6 0 0 1 .253 1.933m-3.77-4.449h-24.18c-.846.01-1.659.421-2.277 1.154s-.996 1.733-1.06 2.803c-.018.357-.017 28.984.016 29.382.101 1.06.506 2.038 1.137 2.746.63.708 1.445 1.098 2.288 1.097h23.817c.455.023.909-.068 1.336-.267s.82-.503 1.154-.894c.334-.392.605-.863.795-1.386.191-.524.299-1.09.317-1.667.003-.13 0-.262 0-.392V20.543a5.3 5.3 0 0 0-.22-1.672 4.5 4.5 0 0 0-.716-1.432 3.5 3.5 0 0 0-1.1-.964 2.77 2.77 0 0 0-1.31-.344z"/><path fill="#000" d="M32.614 31.716c-.07.051.202.167-3.78.035a.2.2 0 0 1-.105-.04.26.26 0 0 1-.075-.099.34.34 0 0 1-.005-.266c.514-1.187 1.764-3.839 1.84-4.003a.23.23 0 0 1 .133-.123.18.18 0 0 1 .162.031c.071.054-.069-.214 1.913 4.095a.32.32 0 0 1 .02.206.3.3 0 0 1-.039.095.2.2 0 0 1-.064.069m-1.941-3.702-1.47 3.198h2.94zM27.849 31.716c-.071.051.201.167-3.782.035a.2.2 0 0 1-.104-.04.26.26 0 0 1-.076-.099.34.34 0 0 1-.003-.266c.514-1.187 1.764-3.839 1.84-4.003a.3.3 0 0 1 .056-.079.2.2 0 0 1 .076-.045.2.2 0 0 1 .083-.004.2.2 0 0 1 .08.036c.079.06-.05-.156 1.913 4.095a.33.33 0 0 1 .019.206.3.3 0 0 1-.038.095.2.2 0 0 1-.064.069m-1.942-3.702-1.47 3.198h2.94zM28.958 34.763h2.847c.056.001.11.03.15.08s.062.119.063.19v3.608c-.001.071-.024.14-.063.19a.2.2 0 0 1-.15.08c-3.197.029-2.896.03-2.997-.08-.09-.123-.084.112-.063-3.798 0-.072.023-.14.063-.19s.094-.079.15-.08m.213 3.609h2.42v-3.068h-2.42zM24.675 34.767l1.84 4.003a.33.33 0 0 1 .02.206.3.3 0 0 1-.038.095.2.2 0 0 1-.064.069c-.075.053.163.035-3.782.035a.2.2 0 0 1-.103-.041.26.26 0 0 1-.076-.099.34.34 0 0 1-.004-.265l1.84-4.004a.25.25 0 0 1 .078-.096.2.2 0 0 1 .105-.035.2.2 0 0 1 .106.035q.049.035.078.096m1.286 3.869-1.47-3.198-1.47 3.198zM33.382 34.636l2.887 3.66a.3.3 0 0 1 .056.188.3.3 0 0 1-.063.184.2.2 0 0 1-.145.08.19.19 0 0 1-.148-.071 138 138 0 0 1-2.888-3.66.3.3 0 0 1-.06-.19.3.3 0 0 1 .062-.188.2.2 0 0 1 .15-.079c.055 0 .109.027.149.076M35.969 24.661a137 137 0 0 1-2.888-3.66.3.3 0 0 1-.06-.19.3.3 0 0 1 .062-.189.2.2 0 0 1 .15-.079c.055 0 .109.027.149.076l2.887 3.661a.3.3 0 0 1 .056.188.3.3 0 0 1-.063.184.2.2 0 0 1-.145.08.19.19 0 0 1-.148-.07M35.969 31.697q-1.47-1.8-2.888-3.66a.3.3 0 0 1-.06-.19c0-.071.023-.139.062-.189a.2.2 0 0 1 .149-.079c.056 0 .11.027.15.076q1.467 1.8 2.887 3.66c.039.051.06.12.06.19a.3.3 0 0 1-.062.189.2.2 0 0 1-.149.079.2.2 0 0 1-.15-.076M41.515 24.992a.2.2 0 0 1-.143-.079.3.3 0 0 1-.062-.18v-3.867a.3.3 0 0 1 .065-.182.2.2 0 0 1 .147-.074c.055 0 .107.026.146.074.04.047.064.113.066.182v3.866a.3.3 0 0 1-.019.103.3.3 0 0 1-.048.085.2.2 0 0 1-.07.055.2.2 0 0 1-.082.017M41.515 32.109a.2.2 0 0 1-.143-.079.3.3 0 0 1-.062-.181V27.98a.3.3 0 0 1 .065-.181.2.2 0 0 1 .147-.075c.055 0 .107.027.146.075.04.047.064.112.066.181v3.867a.3.3 0 0 1-.018.103.3.3 0 0 1-.049.086.2.2 0 0 1-.07.056.2.2 0 0 1-.082.017M41.514 39.145a.2.2 0 0 1-.143-.08.3.3 0 0 1-.062-.18v-3.867a.3.3 0 0 1 .066-.182.2.2 0 0 1 .147-.074c.055 0 .107.026.146.074.04.048.064.113.066.182v3.867a.3.3 0 0 1-.019.103.3.3 0 0 1-.049.085.2.2 0 0 1-.07.055.2.2 0 0 1-.082.017M41.515 46.157a.2.2 0 0 1-.143-.08.3.3 0 0 1-.062-.18V42.03a.3.3 0 0 1 .065-.182.2.2 0 0 1 .147-.074c.055 0 .107.026.146.074.04.048.064.113.066.182v3.867a.3.3 0 0 1-.067.187.19.19 0 0 1-.152.073M39.685 37.264l-2.222 2.177a.2.2 0 0 1-.15.076.2.2 0 0 1-.15-.076.3.3 0 0 1-.063-.19.3.3 0 0 1 .062-.19l2.166-2.127-2.166-2.124a.3.3 0 0 1-.062-.19c0-.072.022-.14.062-.191a.2.2 0 0 1 .15-.077c.056 0 .11.027.15.077 0 0 2.281 2.224 2.355 2.31.17.227-.002.398-.133.525M39.684 30.242l-2.222 2.176a.2.2 0 0 1-.15.077.2.2 0 0 1-.15-.077.3.3 0 0 1-.062-.19.3.3 0 0 1 .062-.19l2.169-2.125-2.166-2.125a.3.3 0 0 1-.062-.19.3.3 0 0 1 .062-.191.2.2 0 0 1 .15-.077c.056 0 .11.027.15.077.706.692 2.28 2.224 2.355 2.309.166.227-.006.395-.136.526M39.684 23.059l-2.222 2.176a.2.2 0 0 1-.15.076.2.2 0 0 1-.15-.076.3.3 0 0 1-.062-.19.3.3 0 0 1 .062-.19l2.169-2.126-2.166-2.124a.3.3 0 0 1-.062-.191.3.3 0 0 1 .062-.19.2.2 0 0 1 .15-.077c.056 0 .11.027.15.077.706.692 2.28 2.224 2.355 2.31.166.226-.006.397-.136.525M20.173 34.429c.04.05.062.119.062.19s-.022.14-.062.191l-2.167 2.124 2.167 2.125c.04.051.062.12.062.191s-.022.14-.062.19a.2.2 0 0 1-.15.077.2.2 0 0 1-.15-.076s-2.28-2.224-2.355-2.31c-.169-.227.005-.398.135-.526l2.22-2.176a.2.2 0 0 1 .15-.076c.055 0 .11.027.15.075M20.157 29.91l2.168 2.128c.04.05.062.119.062.19s-.023.14-.062.191a.2.2 0 0 1-.15.077.2.2 0 0 1-.151-.077c-.706-.692-2.28-2.224-2.355-2.31-.168-.227.006-.398.136-.525l2.219-2.177a.2.2 0 0 1 .15-.076c.056 0 .11.027.15.076q.03.037.047.087a.33.33 0 0 1-.046.294zM24.721 22.73l2.167 2.124a.3.3 0 0 1 .062.19.3.3 0 0 1-.062.191.2.2 0 0 1-.15.078.2.2 0 0 1-.15-.078c-.707-.692-2.281-2.223-2.355-2.309-.17-.227.005-.398.135-.526l2.22-2.176a.2.2 0 0 1 .15-.076c.055 0 .109.027.15.076a.3.3 0 0 1 .062.19.3.3 0 0 1-.062.19zM30.868 24.728a1.44 1.44 0 0 1-1.041.074 1.77 1.77 0 0 1-.899-.671 2.57 2.57 0 0 1-.453-1.191c-.055-.445-.004-.9.145-1.31.15-.408.391-.75.694-.985.304-.235.655-.35 1.01-.332s.698.17.985.435.505.632.628 1.055a2.84 2.84 0 0 1-.056 1.743c-.1.272-.24.516-.414.719s-.377.36-.6.462m-.154-3.777a1.1 1.1 0 0 0-.648-.085 1.2 1.2 0 0 0-.606.302c-.18.16-.327.374-.429.622a2.1 2.1 0 0 0-.154.802 2.1 2.1 0 0 0 .253 1c.163.294.392.517.657.64.343.155.72.13 1.048-.067.328-.198.581-.552.704-.986a2.17 2.17 0 0 0-.05-1.328c-.155-.417-.434-.739-.775-.895zM47.423 16.468c.12.311-.247.584-.367.273-.556-1.453-1.434-2.669-2.526-3.5a.28.28 0 0 1-.094-.168.33.33 0 0 1 .027-.204.22.22 0 0 1 .126-.118.17.17 0 0 1 .156.025c1.165.861 2.099 2.148 2.678 3.692M48.264 15.978c-.679-1.925-1.878-3.479-3.382-4.379-.249-.143-.032-.611.214-.465 1.573.936 2.827 2.557 3.535 4.569.11.317-.256.592-.367.275"/></svg>