<svg xmlns="http://www.w3.org/2000/svg" width="83" height="82" fill="none"><path fill="#FFF0B3" d="M5.498 68.446V75.6a.6.6 0 0 0 .098.337c.062.09.145.14.231.144 1.567-.017-5.728.22 15.575 0 .087-.002.17-.054.232-.143a.6.6 0 0 0 .098-.338V58.83a.6.6 0 0 0-.098-.337c-.062-.09-.145-.14-.232-.142-1.36-.015-2.762 0-11.537 0 17.79-41.102 17.103-39.55 17.169-39.652.033-.054.08-.086.13-.09.05-.003.1.022.136.07.066.088-.066-.177 12.098 27.928-.628.743-1.146 1.662-1.525 2.703a12 12 0 0 0-.68 3.356c-.033 1.166.41 3.106 1.46 2.84.644-.162.909-1.266 1.197-1.985.194-.48.417-.945.624-1.417a19.3 19.3 0 0 0-.416 4.62c-2.048-.013-4.069.69-5.892 2.048-.42.274-.783.7-1.055 1.24a5 5 0 0 0-.499 1.834v10.769c.006 1.787 1.16 3.063 2.29 3.8 2.789 1.818 6.249 1.932 9.248 1.153 1.276-.328 2.495-1.027 3.581-2.058.338-.312.623-.73.833-1.226.211-.495.342-1.052.384-1.632.009-.14.006.101.006-3.966 0 0 5.156 11.88 5.48 12.662a.3.3 0 0 0-.152.02.4.4 0 0 0-.135.103.6.6 0 0 0-.098.17.8.8 0 0 0-.045.213 2 2 0 0 0 0 .142s-53.02.01-53.618 0c.02-.194 0-.392-.056-.57a.5.5 0 0 0-.14-.2.3.3 0 0 0-.19-.079z"/><path fill="#FC9070" d="M47.344 64.967a5 5 0 0 0 .948-1.057v3.25z"/><path fill="#FC9070" d="M45.41 34.53c.002-7.08 1.887-13.886 5.259-18.986s7.969-8.099 12.826-8.366 9.596 2.217 13.222 6.933c3.627 4.715 5.858 11.293 6.227 18.355.035.688.066 1.386.053 2.077v34.335c0 .072-.02.14-.055.191s-.082.08-.13.08H49.153l-.198-.463c0-7.243.01-6.82-.01-6.916 0-1.656-1.13-2.766-2.168-3.464.075-.87.339-1.683.754-2.32.219-.243.482-.387.757-.414s.549.064.789.262a11.6 11.6 0 0 1 1.597 1.878c3.055 3.73 6.741 6.197 10.674 7.144s7.967.34 11.683-1.76a.2.2 0 0 0 .074-.059.3.3 0 0 0 .048-.1.4.4 0 0 0-.01-.239c-1.648-3.328-3.56-6.628-9.203-17.057a.2.2 0 0 0-.083-.073.13.13 0 0 0-.098.003c-2.015 1.127-4.234.127-6.22-.654-4.02-1.582-7.983-3.39-12.13-2.444zm27.748 27.903a.6.6 0 0 0 .058.168q.04.076.098.123.056.048.122.06a.23.23 0 0 0 .129-.015c.33-.192.663-.4.989-.62a.4.4 0 0 0 .097-.124.6.6 0 0 0 .056-.169.7.7 0 0 0-.034-.365.38.38 0 0 0-.203-.22.25.25 0 0 0-.25.047q-.411.276-.831.521a.4.4 0 0 0-.198.23.7.7 0 0 0-.033.364M64.2 45.941a.6.6 0 0 0 .058.169q.04.075.098.123.057.046.122.059a.23.23 0 0 0 .13-.014c.835-.49 1.571-1.28 2.14-2.298.57-1.016.954-2.227 1.115-3.518a.7.7 0 0 0-.033-.364.4.4 0 0 0-.198-.228.23.23 0 0 0-.129-.015.27.27 0 0 0-.123.06.4.4 0 0 0-.097.123.6.6 0 0 0-.058.168c-.132 1.13-.456 2.193-.945 3.092s-1.124 1.604-1.848 2.05a.4.4 0 0 0-.198.228.7.7 0 0 0-.034.365"/><path fill="#FFF0B3" d="m43.277 55.575.423.975.016.48a6.4 6.4 0 0 0-.911-.173c.09-.246.405-1.103.472-1.282M47.344 64.967l.948 2.191v3.266a5.4 5.4 0 0 0-1.237-1.329c-2.672-1.978-6.125-2.209-9.08-1.584-1.577.333-3.6 1.24-4.7 2.93v-6.51c2.769 3.843 10.711 3.922 14.07 1.036"/><path fill="#000" d="M49.983 1.62c.294-.447.647-.8 1.039-1.04A2.27 2.27 0 0 1 52.26.234c.424.009.843.145 1.23.4.387.256.733.624 1.018 1.083l.01.024a.14.14 0 0 0-.09-.062.12.12 0 0 0-.097.033c-.066.023-.063.042-5.021 3.87-.144.13-.059.392-.096.246a6.6 6.6 0 0 1 .017-2.245c.135-.735.393-1.41.752-1.962"/><path fill="#FFD2D2" d="M49.225 5.862a.4.4 0 0 1 .012-.16.27.27 0 0 1 .073-.12c4.976-3.843 4.954-3.847 5.02-3.87a.12.12 0 0 1 .11-.031.16.16 0 0 1 .097.081c.31.51.535 1.116.66 1.772.126.656.148 1.344.065 2.014a5.8 5.8 0 0 1-.544 1.853c-.275.55-.632 1.003-1.044 1.323s-.87.5-1.336.527a2.27 2.27 0 0 1-1.36-.373c-.428-.272-.808-.682-1.112-1.2a5.5 5.5 0 0 1-.642-1.785z"/><path fill="#000" d="M48.09 6.251c.375-.288.71.542.333.833l-2.74 2.113c-.376.288-.71-.542-.334-.833zM73.389 61.84q.42-.249.831-.522a.25.25 0 0 1 .25-.047c.085.033.157.111.203.22a.69.69 0 0 1 .035.365.6.6 0 0 1-.057.17.4.4 0 0 1-.097.124c-.326.219-.66.422-.99.62a.23.23 0 0 1-.128.013.27.27 0 0 1-.123-.059.4.4 0 0 1-.097-.123.6.6 0 0 1-.058-.168.7.7 0 0 1 .033-.364.4.4 0 0 1 .198-.23M64.605 46.278a.23.23 0 0 1-.13.014.3.3 0 0 1-.122-.06.4.4 0 0 1-.097-.122.6.6 0 0 1-.058-.169.7.7 0 0 1 .033-.365.4.4 0 0 1 .198-.228c.725-.446 1.36-1.151 1.849-2.05s.813-1.962.945-3.092a.6.6 0 0 1 .057-.169.4.4 0 0 1 .098-.123.27.27 0 0 1 .123-.059.23.23 0 0 1 .128.015.4.4 0 0 1 .198.228.7.7 0 0 1 .034.364c-.162 1.291-.545 2.502-1.115 3.518-.569 1.017-1.306 1.807-2.141 2.298"/><path fill="#FFD2D2" d="M21.734 47.1v-.48h5.093v7.898c0 .127.035.25.097.34.061.09.145.14.233.14.087 0 .171-.05.233-.14a.6.6 0 0 0 .096-.34v-7.9h5.126v.48a.6.6 0 0 0 .078.291.34.34 0 0 0 .183.163.24.24 0 0 0 .213-.031.43.43 0 0 0 .157-.213c-.04.126-4.465 6.091-5.836 7.958a.3.3 0 0 1-.233.128.3.3 0 0 1-.234-.128c-1.865-2.54-5.798-7.84-5.835-7.958a.43.43 0 0 0 .156.213.24.24 0 0 0 .213.032.34.34 0 0 0 .182-.162.6.6 0 0 0 .078-.29"/><path fill="#000" d="M32.612 47.1v-9.444l.565-.769a.5.5 0 0 0 .077-.168.6.6 0 0 0 .016-.2c.004.095.025 10.555-.028 10.79a.43.43 0 0 1-.156.212.24.24 0 0 1-.213.031.34.34 0 0 1-.182-.162.6.6 0 0 1-.079-.29M21.734 37.656V47.1a.6.6 0 0 1-.09.344c-.059.093-.142.147-.23.15-.087.005-.172-.042-.235-.13a.6.6 0 0 1-.104-.335c-.006-.18-.007-10.425 0-10.609a.6.6 0 0 0 .016.2.5.5 0 0 0 .077.168zM26.94 44.72a.3.3 0 0 0 .234.127.3.3 0 0 0 .233-.127l.082-.11v9.908c0 .127-.035.25-.097.34-.061.09-.145.14-.233.14-.087 0-.17-.05-.233-.14a.6.6 0 0 1-.096-.34v-9.954z"/><path fill="#A982F4" d="M21.403 36.067c12.317-.086 11.609-.054 11.74.11a.5.5 0 0 1 .088.152q.033.09.038.193a.7.7 0 0 1-.019.197.6.6 0 0 1-.073.17l-5.77 7.827a.32.32 0 0 1-.269.123c-.18-.013.252.462-5.968-7.95a.6.6 0 0 1-.085-.246.7.7 0 0 1 .02-.275.5.5 0 0 1 .119-.214.27.27 0 0 1 .18-.087"/><path fill="#FFD2D2" d="M5.618 65.22c.138.192-.85.296 15.785.118.087-.002.17-.053.232-.143a.6.6 0 0 0 .098-.337V75.6a.6.6 0 0 1-.098.338c-.062.09-.145.14-.232.143H5.83c-.087-.003-.17-.055-.231-.144a.6.6 0 0 1-.099-.337V64.856q0 .106.031.202.03.095.088.162m4.998 1.401-2.574 3.27a.5.5 0 0 0-.072.157.7.7 0 0 0 0 .369.5.5 0 0 0 .072.156l2.574 3.27c.32.406.791-.273.468-.681l-2.307-2.93 2.307-2.929c.322-.413-.148-1.092-.468-.682m4.5 1.815c-.262-.464-.62-.795-1.019-.944a1.38 1.38 0 0 0-1.204.116c-.383.224-.707.62-.925 1.13a3.9 3.9 0 0 0-.287 1.708c.03.6.192 1.169.46 1.626s.629.777 1.03.915c.402.138.823.086 1.203-.149s.698-.639.91-1.155a3.9 3.9 0 0 0 .27-1.665 3.6 3.6 0 0 0-.438-1.587zm4.074 1.456-2.574-3.27c-.32-.406-.791.273-.468.681l2.307 2.93-2.307 2.928c-.322.409.148 1.088.468.683l2.574-3.271a.5.5 0 0 0 .073-.157.67.67 0 0 0 0-.372.5.5 0 0 0-.073-.157zM33.274 72.611V70.44c1.101-1.69 3.124-2.593 4.7-2.93 2.954-.623 6.408-.395 9.08 1.585.46.342.878.791 1.238 1.328v2.19a.6.6 0 0 0 .097.317c.058.084.136.134.218.14.083.005.163-.035.226-.112a.57.57 0 0 0 .115-.304 5.2 5.2 0 0 1-.386 1.629c-.21.494-.494.914-.83 1.228-1.087 1.03-2.306 1.73-3.582 2.058a13.5 13.5 0 0 1-4.983.364c-2.399-.288-6.543-1.82-6.555-5.32 0 .128.035.25.097.34s.145.14.233.14c.087 0 .171-.05.233-.14a.6.6 0 0 0 .097-.34zm4.597-3.554c-.857.853-1.704 1.735-2.576 2.559a.5.5 0 0 0-.116.178.67.67 0 0 0 0 .477.46.46 0 0 0 .116.178c.872.824 1.715 1.706 2.576 2.559.352.351.683-.48.333-.832l-2.156-2.143 2.156-2.146c.35-.35.02-1.184-.333-.834zm4.902 3.994c-1.936-2.626-1.8-2.486-1.92-2.497-.119.01.038-.159-1.922 2.497a.35.35 0 0 0-.05.194c0 .072.022.14.057.19.078.108-.202.144 3.704.075a.15.15 0 0 0 .1-.048.3.3 0 0 0 .066-.12.4.4 0 0 0 .012-.153.3.3 0 0 0-.047-.138m3.538-1.44c-.871-.826-1.715-1.708-2.575-2.56-.353-.351-.683.484-.334.832l2.156 2.143-2.156 2.143c-.35.348-.019 1.183.334.832.857-.853 1.704-1.734 2.575-2.559a.5.5 0 0 0 .114-.178.67.67 0 0 0 0-.47.5.5 0 0 0-.115-.178z"/><path fill="#000" d="M33.274 63.932v8.683c0 .127-.035.25-.096.34-.062.09-.146.14-.233.14s-.172-.05-.234-.14a.6.6 0 0 1-.096-.34V61.843c.023.796.26 1.546.66 2.088"/><path fill="#FC9070" d="M5.829 58.349h15.574c.087.002.17.053.232.143.061.09.097.21.098.337v6.025a.6.6 0 0 1-.098.337c-.062.09-.145.14-.232.143-16.235.167-15.685.09-15.822-.174-.118-.181-.115.223-.083-6.333a.6.6 0 0 1 .1-.336c.06-.09.144-.14.23-.142"/><path fill="#000" d="M48.948 72.652a.57.57 0 0 1-.115.305c-.063.077-.143.117-.226.111-.082-.005-.16-.055-.218-.14a.6.6 0 0 1-.097-.317v-8.703c.383-.55.617-1.283.66-2.065.002 11.529.005 10.679-.004 10.81"/><path fill="#78B5FF" d="M34.166 58.772c1.823-1.358 3.844-2.061 5.892-2.048-.002.328.054.653.163.94.11.288.269.53.462.7.192.172.412.267.638.278.226.01.45-.066.649-.22.38-.387.673-.933.837-1.566q.459.053.912.173c.01.267.076 1.433.081 1.5-.002.446.057.89.173 1.304.116.413.288.79.504 1.106.198.274.458.434.73.452.273.018.541-.109.755-.356.21-.315.37-.695.467-1.11a17 17 0 0 0 .349-1.62c1.025.69 2.176 1.818 2.168 3.464-.008 1.599-.936 2.735-1.927 3.458-2.75 1.994-8.094 2.594-12.092.245-2.66-1.564-3.173-4.705-.761-6.7"/><path fill="#FFD2D2" d="M38.054 48.888c.972-2.01 2.269-3.642 3.776-4.75 1.234-.92 2.572-1.508 3.95-1.737 4.027-.761 7.834.975 11.76 2.517 1.986.781 4.205 1.781 6.22.654a.13.13 0 0 1 .098-.003.2.2 0 0 1 .084.073c1.211 2.241 8.575 15.793 9.202 17.057a.39.39 0 0 1 .01.239.3.3 0 0 1-.048.1.2.2 0 0 1-.074.06c-3.433 1.934-7.141 2.603-10.794 1.946-3.654-.656-7.139-2.617-10.147-5.708-1.731-1.806-1.703-2.268-3.014-3.501a1.07 1.07 0 0 0-.788-.262c-.275.027-.538.171-.758.415-.828.918-.688 3.727-1.569 5.05-.214.246-.482.373-.755.355-.272-.018-.532-.178-.73-.452a3.8 3.8 0 0 1-.504-1.106 4.8 4.8 0 0 1-.173-1.305 49 49 0 0 1-.113-4.064c-.132.37-.99 2.7-1.049 2.852-.142.458-.374.843-.668 1.107a1 1 0 0 1-.473.212.9.9 0 0 1-.493-.069 1.2 1.2 0 0 1-.437-.338 1.9 1.9 0 0 1-.315-.556 3.5 3.5 0 0 1-.192-.961c-.046-1.56.096-3.12.417-4.61-.207.47-.43.933-.625 1.416-.288.72-.553 1.825-1.197 1.986-1.34.34-2.168-3.043-.601-6.617m4.549-1.825q-.586.464-1.093 1.095c-.324.404.145 1.08.468.681q.445-.546.96-.944c.372-.288.037-1.122-.338-.828zm2.062 4.485.699-.982c.307-.432-.162-1.112-.468-.682l-.701.984c-.307.434.16 1.115.467.684zm25.285 9.798a.38.38 0 0 0-.203-.219.25.25 0 0 0-.25.046c-.776.506-1.616.774-2.467.786-.087 0-.171.051-.233.141a.6.6 0 0 0-.096.34c0 .127.034.25.096.34s.146.14.233.14c.97.004 1.927-.31 2.801-.917a.5.5 0 0 0 .15-.292.7.7 0 0 0-.034-.361z"/><path fill="#000" d="m45.364 50.566-.702.986c-.306.431-.774-.25-.467-.681l.7-.987c.307-.43.779.25.469.682M42.934 47.899q-.513.397-.958.944c-.323.4-.791-.278-.468-.68a6.8 6.8 0 0 1 1.092-1.096c.375-.294.71.54.334.832M67.028 61.963c.851-.002 1.692-.27 2.467-.786a.25.25 0 0 1 .25-.046c.084.032.157.11.203.219a.692.692 0 0 1 .035.366.6.6 0 0 1-.057.169.4.4 0 0 1-.097.125c-.878.594-1.833.907-2.801.917a.54.54 0 0 1-.164-.304.75.75 0 0 1 .022-.385q.06-.15.142-.275M12.96 67.563c.388-.203.81-.22 1.207-.05.396.17.744.52.994.998.25.479.39 1.061.398 1.662a3.8 3.8 0 0 1-.354 1.683c-.237.492-.576.861-.967 1.053a1.37 1.37 0 0 1-1.208.017c-.394-.18-.737-.54-.981-1.026a3.8 3.8 0 0 1-.376-1.672c0-.583.123-1.152.354-1.63.23-.476.556-.838.932-1.035M16.616 73.839c-.32.405-.791-.274-.468-.682l2.307-2.929-2.307-2.93c-.322-.408.148-1.087.468-.682l2.574 3.271a.5.5 0 0 1 .072.156.7.7 0 0 1 0 .369.5.5 0 0 1-.072.156zM8.778 70.227l2.307 2.93c.322.408-.148 1.087-.468.682l-2.575-3.271a.5.5 0 0 1-.071-.156.7.7 0 0 1 0-.369.5.5 0 0 1 .071-.156l2.574-3.266c.32-.405.791.274.468.682zM43.736 75.004c-.353.35-.685-.48-.335-.832l2.157-2.143-2.157-2.143c-.35-.348-.019-1.183.334-.833.858.853 1.704 1.735 2.575 2.56a.46.46 0 0 1 .117.178.67.67 0 0 1 0 .476.46.46 0 0 1-.117.178c-.871.825-1.716 1.706-2.575 2.559M36.048 72.029l2.156 2.143c.35.348.02 1.183-.333.832-.858-.853-1.704-1.734-2.576-2.559a.46.46 0 0 1-.116-.178.67.67 0 0 1 0-.477.46.46 0 0 1 .116-.178c.872-.824 1.715-1.706 2.576-2.559.352-.35.683.48.333.833zM38.93 73.051c1.95-2.646 1.81-2.49 1.901-2.497.055-.005.11.02.152.069l1.79 2.428a.35.35 0 0 1 .05.194.34.34 0 0 1-.057.19c-.078.108.202.146-3.703.075a.15.15 0 0 1-.1-.048.3.3 0 0 1-.068-.12.4.4 0 0 1-.011-.153.3.3 0 0 1 .047-.138"/><path fill="#000" d="M12.28 67.894c.342-.415.765-.66 1.209-.699.443-.04.884.128 1.257.479.374.35.66.866.82 1.47.158.605.18 1.268.062 1.892s-.37 1.178-.719 1.579c-.348.401-.776.63-1.22.653-.444.022-.881-.162-1.248-.526-.368-.365-.645-.891-.793-1.502a4.4 4.4 0 0 1-.045-1.818c.114-.598.35-1.132.677-1.528m-.069 2.7c.048.39.171.75.355 1.041s.42.499.683.6c.262.102.538.092.797-.028.258-.12.488-.344.662-.647s.284-.673.32-1.065a2.9 2.9 0 0 0-.123-1.148 2.03 2.03 0 0 0-.527-.872c-.229-.212-.494-.324-.765-.324a1.1 1.1 0 0 0-.601.201c-.188.13-.354.317-.488.55-.133.232-.23.504-.284.796a3 3 0 0 0-.029.897M42.641 73.73h-3.58a.27.27 0 0 1-.18-.087.5.5 0 0 1-.12-.215.7.7 0 0 1-.019-.275.6.6 0 0 1 .087-.246c.593-.81 1.196-1.613 1.789-2.427.063-.088.146-.137.233-.137s.171.05.234.137c1.22 1.677 1.752 2.35 1.8 2.446a.6.6 0 0 1 .08.246.7.7 0 0 1-.023.27.5.5 0 0 1-.121.209.26.26 0 0 1-.18.078m-1.79-2.252-.949 1.288H41.8zM48.424 7.084l-2.741 2.113c-.376.288-.71-.542-.334-.833l2.74-2.113c.376-.29.711.542.334.833M44.896 49.884c.306-.43.775.25.468.682l-.702.986c-.306.431-.774-.25-.468-.681zM41.508 48.162c.336-.42.702-.788 1.092-1.095.375-.295.71.54.334.832a6 6 0 0 0-.958.944c-.324.4-.793-.28-.468-.681M67.028 61.963c.851-.002 1.692-.27 2.467-.786a.25.25 0 0 1 .25-.046c.084.032.157.11.203.219a.692.692 0 0 1 .035.366.6.6 0 0 1-.057.169.4.4 0 0 1-.097.125c-.878.594-1.833.907-2.801.917a.54.54 0 0 1-.164-.304.75.75 0 0 1 .022-.385q.06-.15.142-.275M16.148 73.153q1.154-1.464 2.307-2.93l-2.307-2.929c-.322-.408.148-1.087.467-.68l2.575 3.265q.046.068.072.156a.7.7 0 0 1 0 .37.5.5 0 0 1-.072.155l-2.575 3.271c-.32.413-.79-.265-.467-.678M10.616 66.621c.32-.405.791.274.468.682l-2.307 2.929 2.307 2.93c.322.408-.147 1.088-.468.681l-2.574-3.27a.5.5 0 0 1-.072-.156.7.7 0 0 1 0-.37.5.5 0 0 1 .072-.156zM46.31 72.445c-.871.824-1.714 1.706-2.575 2.56-.352.35-.684-.48-.334-.833l2.157-2.143-2.157-2.144c-.35-.347-.018-1.182.334-.832.858.853 1.704 1.735 2.575 2.56a.46.46 0 0 1 .117.177.67.67 0 0 1 0 .477.46.46 0 0 1-.117.178M38.204 69.887q-1.077 1.073-2.156 2.144l2.156 2.143c.35.348.02 1.183-.333.833-.858-.854-1.704-1.736-2.576-2.56a.46.46 0 0 1-.116-.178.68.68 0 0 1 0-.477.5.5 0 0 1 .116-.178c.872-.824 1.715-1.706 2.576-2.559.353-.352.683.483.333.832M53.751 8.938c-.434.337-.915.526-1.407.554a2.4 2.4 0 0 1-1.432-.395c-.45-.287-.851-.72-1.171-1.264a5.7 5.7 0 0 1-.681-1.922l-.006-.027a6.8 6.8 0 0 1 .067-2.613c.19-.845.538-1.595 1.007-2.166.468-.57 1.036-.937 1.64-1.06.605-.122 1.22.005 1.778.367.557.362 1.033.945 1.374 1.682s.533 1.6.555 2.487a6.5 6.5 0 0 1-.434 2.538c-.304.77-.751 1.4-1.29 1.819m.013-7.135c-.385-.438-.85-.703-1.337-.765-.486-.062-.975.082-1.407.416s-.789.841-1.027 1.463a5.1 5.1 0 0 0-.316 2.041zm-3.932 4.26c.189.725.528 1.345.97 1.775s.966.648 1.497.624 1.044-.289 1.468-.758.735-1.119.893-1.858a5.3 5.3 0 0 0 .085-1.68 4.7 4.7 0 0 0-.438-1.558zM21.403 36.066h11.54a.3.3 0 0 1 .15.068.5.5 0 0 1 .12.148q.048.092.07.204a.8.8 0 0 1 .01.227c0 3.468.01 10.072.013 10.24q-.024.233-.1.44c-.09.175-5.525 7.498-5.801 7.876-.063.088-.147.137-.234.137s-.17-.05-.234-.137c-3.915-5.387-5.23-7.044-5.67-7.684-.245-.36-.217-.4-.217-.602 0-2.933 0-9.768-.041-10.264a.9.9 0 0 1 .118-.428.47.47 0 0 1 .276-.225m11.19 10.552v-8.933c-3.165 4.297-4.621 6.28-5.077 6.88-.01.228-.007.587-.007 2.056zm-5.786-2.076c-.325-.437-1.387-1.888-5.053-6.86v8.934h5.053zm-4.562-7.512 4.928 6.687 4.93-6.687zm5.244 16.816 4.615-6.258h-4.615zm-.66-.042v-6.221h-4.582z"/></svg>