<svg xmlns="http://www.w3.org/2000/svg" width="71" height="80" fill="none"><path fill="#000" d="M49.932 10.479c-.734-.419-.988.01-.42-.452 2.091-1.7-.1-2.916-1.994-1.806a.98.98 0 0 0-.4-1.115 2.01 2.01 0 0 0-1.845.04 7.2 7.2 0 0 0-3.748 3.257c2.257-.99 5.064 1.49 3.844 3.661a13.3 13.3 0 0 1 4.014-1.295 1.42 1.42 0 0 0 1.218-.93 1.34 1.34 0 0 0-.67-1.36M9.265 39.378a.26.26 0 0 0 .181.317.263.263 0 0 0 .318-.18l1.365-3.257-.47-.205zM23.264 45.117c-.146.297.299.56.445.26l1.469-2.992-.473-.206z"/><path fill="#FC9070" d="M43.78 10.419a2.582 2.582 0 0 0-3.732 2.354c.23 1.857 2.575 2.969 4.083 2.378a2.44 2.44 0 0 0 1.495-1.79 2.81 2.81 0 0 0-1.846-2.942"/><path fill="#FFD2D2" d="M36.764 42.81c-.936-1.399-1.498-2.446-1.94-3.032L33.505 42.8c1.231.01 1.7.01 3.258.01M58.045 26.764c-1.37-3.128-4.327-5.547-7.584-6.81a10.66 10.66 0 0 0-4.657-.743 21.6 21.6 0 0 0-5.587.947c.472 2.16.468 4.396-.013 6.554.112.149.185.323.213.507.04.511.026 1.026-.041 1.534-.102.804-.02 1.62.238 2.387a23 23 0 0 0 2.19 3.837 9.6 9.6 0 0 0 2.065 2.202c1.1.835 2.09.761 2.762-.426.82-1.445.605-1.846 1.219-3.843a4.851 4.851 0 0 1 9.31 1.062c.078.687.06 1.38-.052 2.062a21.8 21.8 0 0 1-1.704 6.78h3.49a.264.264 0 0 1 .259.257c-.334-4.956-.116-11.76-2.108-16.307m-7.604-4.5a83 83 0 0 0-4.046 1.31c-.315.111-.45-.388-.138-.498 1.336-.47 2.674-.956 4.046-1.311a.259.259 0 0 1 .138.499"/><path fill="#F7DA31" d="M23.109 16.392a.44.44 0 0 0-.406.171c-.35.362-.384 1.856.537 2.712q.203-.958.298-1.932c.021-.334-.091-.893-.43-.951M27.293 17.903c.029-.096.04-.193-.026-.244a.63.63 0 0 0-.337-.092c-.456.025-.578 1.06-.562 1.522.412-.303.732-.713.925-1.186M32.854 21.78a.38.38 0 0 0-.01-.356c-.108-.187-.33-.006-.46.101a20 20 0 0 0-1.57 1.617c.43-.092.841-.26 1.211-.5.36-.192.65-.494.83-.861M30.166 19.993a1 1 0 0 0 .102-.434c.012-.057-.04-.11-.09-.14a.32.32 0 0 0-.264.011c-.742.27-1.005 1.31-.975 2.077.511-.412.93-.929 1.227-1.514"/><path fill="#F7DA31" d="M31.531 9.599a15.11 15.11 0 0 0-19.54 7c-.257.507-.346.736-1.355 3.05a2.1 2.1 0 0 1 .703-.328 1.162 1.162 0 0 1 1.252 1.759c-.395.758-.881.805-1.625 1.528-.598.706.588 1.181 1.074 1.404.607.277 1.45.904 1.074 1.68a1.21 1.21 0 0 1-1.27.655c-1.211-.183-2.352-1.52-2.559-1.551q.042.099.102.187c.74 1.34 1.612 1.953 1.765 2.758.106.55-.173 1.262-.837 1.199-.695-.067-1.246-.657-2.13-1.26-.065-.046-.237-.21-.315-.16-.01.006-.01 0 .027.048.036.047.34.49.531.8.293.473.767 1.176.593 1.764a1.198 1.198 0 0 1-1.764.668 8 8 0 0 1-1.083-.92l-1.432 3.285a.26.26 0 0 0 .092.354l27.228 11.87a.263.263 0 0 0 .353-.093l2.405-5.515a2.54 2.54 0 0 0-2.037-1.204c-.666-.01-1.491.063-1.967-.514a1.1 1.1 0 0 1-.017-1.388c.718-.659 1.586-.68 3.702-1.041a3 3 0 0 0-.661-.107 17 17 0 0 1-2.12-.23 2.47 2.47 0 0 1-1.208-.418 1.163 1.163 0 0 1 .44-1.977c1.14-.46 1.835-.09 3.515-.139.05 0 .195.018.16-.077-.028-.076-.182-.095-.253-.12q-.537-.196-1.069-.399c-.508-.193-1.14-.322-1.376-.872a1.12 1.12 0 0 1 .25-1.251c.433-.411 1.185-.314 1.734-.298a8.2 8.2 0 0 1 3.461.848c.432-2.678.49-3.38 1.085-4.05a1.22 1.22 0 0 1 1.212-.195c.03.008.05.025.077.036.178.067.334.183.45.334a15.09 15.09 0 0 0-8.667-17.12m1.48 12.886a3.9 3.9 0 0 1-2.7 1.221 65 65 0 0 0-10.727 15.99c-.143.302-.588.04-.446-.26a65.3 65.3 0 0 1 10.567-15.829 2.01 2.01 0 0 1-1.123-1.232l-.012.007a1.23 1.23 0 0 1-1.25.086A3.7 3.7 0 0 1 25.966 20a2.59 2.59 0 0 1-2.361.134 48.5 48.5 0 0 1-7.398 18.091c-.184.276-.632.016-.446-.26a48 48 0 0 0 7.37-18.108c-1.198-.914-1.48-2.705-.871-3.56a.97.97 0 0 1 1.05-.384c.658.185.79 1.063.732 1.641q-.11 1.04-.333 2.06a2.08 2.08 0 0 0 2.182-.16c-.052-.45-.03-.907.064-1.351a1.39 1.39 0 0 1 .614-.951.96.96 0 0 1 1.132.22c.517.673-.59 1.842-1.27 2.342.096.798.43 1.547.96 2.15.093.1.207.176.333.224.262.005.518-.076.73-.23-.224-1.688.697-2.96 1.615-2.979.614-.011.819.6.655 1.088a4.9 4.9 0 0 1-1.695 2.127 1.41 1.41 0 0 0 1.06 1.078c.563-.623 1.124-1.264 1.735-1.841.226-.259.53-.436.867-.506.762-.043.96 1.066.32 1.66"/><path fill="#FF4848" d="M63.814 65.26c-2.832-2.334-8.256-6.955-10.574-9.813-4.972 3.09-9.55 6.025-12.482 11.125a32.56 32.56 0 0 0 12.613 9.274.26.26 0 0 0 .251-.067c2.519-2.468 9.294-9.251 10.192-10.154a.26.26 0 0 0 0-.365"/><path fill="#FC9070" d="M12.042 24.012c-.487-.222-1.673-.698-1.074-1.404q.41-.4.896-.706c1.828-1.305.537-3.482-1.228-2.252-.34.237-.658.53-.939.759a21.2 21.2 0 0 0-3.948 3.69 4.46 4.46 0 0 0-.235 5.07q.383.496.872.889.403.412.877.74a1.198 1.198 0 0 0 1.765-.667c.176-.587-.3-1.29-.593-1.765a17 17 0 0 0-.532-.8c-.04-.051-.036-.042-.027-.047.077-.05.25.113.316.159.897.613 1.435 1.193 2.13 1.26.663.064.942-.648.836-1.198a3.8 3.8 0 0 0-.892-1.462q-.547-.703-.975-1.484c.207.03 1.355 1.37 2.558 1.552a1.21 1.21 0 0 0 1.27-.657c.374-.774-.47-1.4-1.077-1.677m-4.204-1.38a.24.24 0 0 1 .176.118c.2.345.419.678.614 1.023a.259.259 0 0 1-.446.26c-.21-.338-.411-.681-.614-1.022a.26.26 0 0 1 .27-.38M6.055 27.32l-.573-.791c-.196-.27.253-.527.446-.26l.572.79c.196.27-.252.527-.445.26"/><path fill="#FF4848" d="M60.154 43.067a.265.265 0 0 0-.259-.258h-3.49a11.97 11.97 0 0 1-7 6.535c-3.106.959-6.872.146-10.266-3.495a24 24 0 0 1-2.378-3.04s-2.82-.006-3.258-.01l-1.087 2.493a.263.263 0 0 1-.354.093s-.454-.197-.641-.28a27.7 27.7 0 0 0 1.526 5.542c-3.075 2.643-7.268 6.725-8.894 10.435a43.3 43.3 0 0 0-2.992 13.913.26.26 0 0 0 .258.258h16.385a.26.26 0 0 0 .25-.19 22.02 22.02 0 0 1 8.336-14.857 61 61 0 0 1 6.945-4.757c2.763-1.65 5.11-3.66 6.215-6.664.34-.941.566-1.92.672-2.915a26 26 0 0 0 .032-2.803M30.518 56.57a11.5 11.5 0 0 0-1.343 1.792.258.258 0 0 1-.447-.26 10.4 10.4 0 0 1 1.425-1.898c.226-.244.59.122.365.366m6.38-8.451c-.089.2-1.362.844-3.417 2.736-.23.213-.568-.104-.392-.33a28.4 28.4 0 0 1 3.46-2.744c.23-.155.443.13.35.339z"/><path fill="#000" d="M38.478 79.048a22.04 22.04 0 0 0-14.534-1.44 18.8 18.8 0 0 0-3.857 1.436.26.26 0 0 0 .12.486h18.14c.242 0 .371-.369.131-.482M67.327 66.503c-3.492 3.5-4.093 4.932-6.291 7.123a17.6 17.6 0 0 1-6.412 4.12.27.27 0 0 0-.007.528c2.65 1.034 6.474.026 9.223-4.03a42 42 0 0 0 3.893-7.428c.108-.253-.181-.537-.406-.313M11.438 9.702c.257.207.625-.153.366-.365l-3.089-2.48c-.256-.205-.624.154-.365.367z"/><path fill="#FC9070" d="M58.162 33.968a4.852 4.852 0 0 0-9.31-1.062c-.598 1.944-.405 2.406-1.22 3.842-.676 1.193-1.672 1.255-2.762.426a9.6 9.6 0 0 1-2.064-2.202 23.7 23.7 0 0 1-2.072-3.553 5.1 5.1 0 0 1-.361-2.67 7.3 7.3 0 0 0 .041-1.534 1.05 1.05 0 0 0-.663-.84c-.028-.011-.05-.028-.077-.036a1.22 1.22 0 0 0-1.212.195c-.294.33-.491.735-.572 1.17-.242.997-.316 1.668-.513 2.88a8.2 8.2 0 0 0-3.461-.848c-.55-.016-1.3-.113-1.734.298a1.12 1.12 0 0 0-.25 1.251c.235.55.868.678 1.376.872q.532.204 1.069.399c.07.025.225.04.252.12.036.098-.109.077-.16.077-1.667.048-2.378-.32-3.514.139a1.162 1.162 0 0 0-.44 1.976c.358.244.775.388 1.208.418q1.053.182 2.12.23.336.02.661.107c-2.094.357-2.992.389-3.702 1.042a1.1 1.1 0 0 0 .017 1.388c.476.577 1.304.503 1.967.514 2.401.042 2.584 3.234 6.352 7.276 3.4 3.646 7.168 4.45 10.267 3.495a11.98 11.98 0 0 0 7-6.535 20.9 20.9 0 0 0 1.703-6.78c.112-.68.13-1.371.054-2.055M40.424 38.36c.16.09 3.83 2.193 3.83 2.193a.258.258 0 0 1-.26.446c-.16-.09-3.831-2.192-3.831-2.192a.257.257 0 0 1-.093-.354.26.26 0 0 1 .354-.093m5.605 8.969a4.15 4.15 0 0 0 2.314-.035c.318-.101.453.398.137.498a4.4 4.4 0 0 1-2.589.035.257.257 0 0 1-.18-.318.26.26 0 0 1 .318-.18m-8.824-14.584c.328.053.188.551-.137.498l-1.293-.21c-.328-.052-.188-.55.137-.498zm-1.287 2.93c.466.138.947.218 1.432.24.332.013.333.53 0 .516a6.4 6.4 0 0 1-1.57-.258.258.258 0 1 1 .138-.498"/><path fill="#000" d="M24.402 4.397 23.764.282c-.052-.328-.55-.188-.499.137l.638 4.116c.051.327.55.188.5-.138M36.309 6.147l2.135-4.35c.146-.296-.3-.559-.447-.26l-2.134 4.35c-.147.296.299.559.446.26M46.395 23.574a82 82 0 0 1 4.045-1.31.258.258 0 0 0-.137-.499c-1.372.355-2.71.84-4.046 1.311-.309.11-.177.61.138.498M.417 18.63a.26.26 0 0 0-.317.181.263.263 0 0 0 .18.318l3.99 1.674a.26.26 0 0 0 .317-.18.263.263 0 0 0-.18-.318zM70.084 38.502h-4.356a.258.258 0 1 0 0 .517h4.356a.258.258 0 1 0 0-.517M61.37 28.326h3.168a.258.258 0 1 0 0-.517H61.37a.259.259 0 0 0 0 .517M70.479 23.193h-6.291a.258.258 0 0 0 0 .516h6.291a.258.258 0 0 0 0-.516M44.26 40.55s-3.67-2.104-3.83-2.193a.259.259 0 0 0-.261.446s3.67 2.103 3.831 2.192a.259.259 0 0 0 .26-.446"/><path fill="#FF4848" d="M48.345 47.29a4.15 4.15 0 0 1-2.314.035.257.257 0 0 0-.318.18.26.26 0 0 0 .18.319 4.4 4.4 0 0 0 2.587-.036c.319-.1.184-.599-.135-.498M35.776 33.03l1.292.21c.326.052.465-.446.138-.5l-1.293-.209c-.323-.052-.465.446-.137.499M37.35 35.917a6 6 0 0 1-1.432-.242.257.257 0 0 0-.318.18.26.26 0 0 0 .181.319c.51.15 1.037.237 1.57.257.332.017.331-.5 0-.514"/><path fill="#FC9070" d="M36.548 47.783a31 31 0 0 0-3.434 2.708.26.26 0 0 0 .367.365 29 29 0 0 1 3.328-2.627c.262-.178.02-.636-.261-.446M30.153 56.206a10.4 10.4 0 0 0-1.425 1.898.258.258 0 0 0 .447.26q.584-.962 1.343-1.793c.226-.244-.139-.61-.365-.365"/><path fill="#FF4848" d="M5.928 26.269c-.194-.267-.642-.01-.446.26l.572.79c.193.268.642.01.446-.26zM8.184 24.033a.258.258 0 0 0 .446-.26c-.197-.346-.416-.679-.614-1.023a.259.259 0 1 0-.447.26c.204.341.406.685.615 1.023"/><path fill="#000" d="M40.758 14.37c1.43 1.367 3.71 1.482 4.68-.23a13.2 13.2 0 0 1 3.965-1.274c2.065-.437 1.413-2.415.05-2.668 2.275-1.712.274-3.19-1.809-2.153a1.05 1.05 0 0 0-.473-1.015 2.08 2.08 0 0 0-1.934.03 7.3 7.3 0 0 0-3.781 3.272 2.423 2.423 0 0 0-.698 4.038m6.048-5.584a.357.357 0 0 0 .602.251c1.011-.93 3.094-.82 2.08.194a6.2 6.2 0 0 1-1.907 1.251c-.383.164-.122.781.267.651l.043-.013c.599-.198 1.42-.47 1.912.034a.6.6 0 0 1 .19.59c-.394.69-1.509.22-4.246 1.457.185-1.673-1.555-3.215-3.3-3.114a6.5 6.5 0 0 1 3.72-2.572.69.69 0 0 1 .748.245c.093.28-.062.437-.11 1.026m-2.47 5.56c-1.475 1.108-4.413-.62-3.514-2.47.892-1.838 3.625-1.22 4.192.75a1.74 1.74 0 0 1-.678 1.72M38.517 78.962a21.6 21.6 0 0 0-18.448-.017.355.355 0 0 0 .126.68h18.15a.356.356 0 0 0 .172-.663m-1.939-.045H21.881a21.15 21.15 0 0 1 14.697 0M67.26 66.435c-3.407 3.413-4.165 5.003-6.292 7.123a17.4 17.4 0 0 1-6.364 4.093.365.365 0 0 0-.021.712c2.627 1.027 6.507.109 9.336-4.066a41.7 41.7 0 0 0 3.903-7.443.355.355 0 0 0-.563-.419m-.887 1.973a42 42 0 0 1-2.639 4.897c-1.478 2.367-3.15 3.783-5.26 4.455a5.8 5.8 0 0 1-2.706.192c5.304-2.312 7.213-5.806 10.605-9.544M8.29 7.298c3.346 2.686 3.135 2.562 3.316 2.562a.343.343 0 0 0 .257-.598L8.774 6.784c-.354-.286-.845.225-.484.514M23.809 4.55c.07.454.757.285.69-.168L23.861.267c-.07-.45-.758-.288-.69.167zM36.394 6.19l2.135-4.35c.2-.409-.415-.76-.619-.345l-2.135 4.35c-.201.41.414.76.62.345M50.278 21.673c-1.372.355-2.72.844-4.053 1.313a.362.362 0 0 0 .077.7c.158 0 1.285-.48 4.161-1.33a.355.355 0 0 0-.189-.683zM.242 19.218c4.343 1.822 4 1.688 4.093 1.688a.354.354 0 0 0 .342-.261.36.36 0 0 0-.236-.431l-4-1.678a.355.355 0 0 0-.199.68zM70.084 38.406h-4.36a.354.354 0 0 0 0 .709h4.356a.355.355 0 1 0 0-.709zM61.369 28.421h3.176a.354.354 0 0 0 0-.708h-3.176a.354.354 0 0 0 0 .708M70.481 23.097h-6.3a.355.355 0 0 0 0 .708h6.298a.355.355 0 0 0 0-.708zM40.116 38.885s3.675 2.105 3.836 2.195q.079.042.17.043a.355.355 0 0 0 .186-.657 786 786 0 0 0-3.837-2.193.35.35 0 0 0-.48.143.357.357 0 0 0 .125.47M45.865 47.916a4.5 4.5 0 0 0 2.646-.036.355.355 0 0 0-.196-.68 4.06 4.06 0 0 1-2.261.033.354.354 0 0 0-.189.683M35.76 33.125c1.312.213 1.304.214 1.355.214.405 0 .537-.623.105-.69l-1.293-.21c-.45-.074-.623.612-.168.685M37.354 35.821c-.479-.02-.954-.1-1.413-.237a.355.355 0 0 0-.187.684 6.1 6.1 0 0 0 1.592.262c.468.015.457-.69.008-.709M30.081 56.141a10.4 10.4 0 0 0-1.437 1.918.354.354 0 0 0 .312.525c.417 0 .315-.524 1.631-1.944.311-.34-.193-.837-.506-.499"/></svg>