<svg xmlns="http://www.w3.org/2000/svg" width="86" height="86" fill="none"><path fill="#000" d="m65.616 75.492 3.397-12.693c-1.705 0-1.077.023-1.93 0-.039-.003-.076-.028-.102-.07a.3.3 0 0 1-.042-.155c0-.057.015-.112.042-.154.026-.042.063-.066.102-.07h9.347c.039.004.076.028.102.07a.3.3 0 0 1 .042.154.3.3 0 0 1-.042.155c-.026.042-.063.067-.102.07h-1.817c.09.332 3.39 12.683 3.392 12.693.071.269-.227.385-.295.12 0 0-3.395-12.688-3.426-12.811H69.34l-3.43 12.81c-.07.266-.367.152-.294-.12M7.391 84.344c.115-.43 3.297-12.275 3.411-12.693-1.403 0-1.209.02-1.943 0-.039-.003-.076-.028-.103-.07a.3.3 0 0 1-.042-.154c0-.057.015-.113.042-.155q.042-.063.103-.07h9.346q.061.007.103.07a.3.3 0 0 1 .042.155.3.3 0 0 1-.042.154c-.027.042-.064.067-.103.07h-1.813l3.389 12.693c.072.27-.224.385-.295.119l-3.423-12.81H11.13c-.098.356-3.443 12.81-3.443 12.81-.07.266-.367.15-.295-.119"/><path fill="#fff" d="M56.16 39.427c-.3.717-.463 1.872.06 2.47q.218.208.473.277c.168.045.34.04.508-.016.784-.169.554-.406.2.494-.162.182-5.717 6.224-6.386 6.93l-5.236-5.813c.208-.23-.005-.006 4.222-4.344a.81.81 0 0 0 .565-.266c.166-.17.293-.41.364-.688l1.568-1.608q.135.2.286.378a.9.9 0 0 0 .444.237c.158.03.319.01.47-.062.152-.07.292-.189.41-.347a1.8 1.8 0 0 0 .27-.57l2.033 2.412a5 5 0 0 0-.251.516m-1.978 2.622-1.562-1.697c-.159-.172-.31.218-.154.388l1.561 1.697c.161.172.314-.218.155-.388m-4.343 1.583c-.159-.172-.311.218-.155.388l1.562 1.697c.159.172.31-.217.154-.387zm.898-1.059c-.159-.172-.31.218-.155.388l1.563 1.697c.158.172.31-.218.154-.388zm.83-.774 1.562 1.697c.159.172.31-.218.155-.388l-1.562-1.697c-.157-.172-.309.218-.152.388z"/><path fill="#F7DA31" d="M54.12 34.001c1.242.887 2.37 2.09 3.328 3.55a5.4 5.4 0 0 0-1.037 1.359l-2.034-2.412c.103-.415.133-.86.088-1.297a3.4 3.4 0 0 0-.346-1.2M44.013 33.82c-.126 1.491.019 3.005.42 4.386.226.766.647 1.633 1.3 1.458.61-.163.72-1.279.765-2.029q.108.691.295 1.346c.087.235.214.432.37.57s.335.21.517.21c.182.002.36-.07.517-.206s.285-.331.372-.566c.11-.433.17-.89.182-1.351.066-.918.008-.82.112-.266.136.726.29 1.545.743 1.912a.58.58 0 0 0 .397.14c-.453.464-4.173 4.288-4.223 4.343l5.233 5.813c.67-.705 6.225-6.747 6.386-6.93-.114.267-.19.564-.224.875a3.4 3.4 0 0 0 .025.933c.06.266.18.494.339.648s.35.226.54.202a4.7 4.7 0 0 0 1.63-.672c-.427.63-1.008 1.478-.85 2.267.2.99 1.143.859 1.815.536.274 3.186-.059 6.422-.962 9.347-.903 2.926-2.341 5.426-4.154 7.224-1.813 1.797-3.93 2.822-6.115 2.96s-4.354-.616-6.265-2.179c-1.912-1.562-3.49-3.872-4.561-6.673-1.071-2.8-1.592-5.982-1.506-9.191s.777-6.32 1.996-8.988 2.916-4.787 4.905-6.123z"/><path fill="#000" d="m52.145 44.658-1.562-1.697c-.156-.17-.004-.56.154-.388L52.3 44.27c.158.17.006.56-.154.388M51.248 45.717l-1.561-1.697c-.157-.17-.004-.56.154-.388l1.562 1.695c.156.173.004.562-.155.39M52.622 40.352l1.56 1.697c.156.17.004.56-.155.388l-1.561-1.697c-.154-.17-.004-.56.156-.388M53.132 43.496 51.57 41.8c-.157-.17-.004-.56.154-.388l1.562 1.697c.156.17.004.558-.154.388M51.945 51.531c.803-.357 6.85-2.932 7.144-3.05a.11.11 0 0 1 .116.021q.054.047.073.134c.262 1.298.261 1.231.249 1.314a.23.23 0 0 1-.034.114.11.11 0 0 1-.076.055l-7.39 1.845a.11.11 0 0 1-.113-.026.23.23 0 0 1-.07-.133.3.3 0 0 1 .014-.167.18.18 0 0 1 .087-.107M40.007 63.193a.23.23 0 0 1 .073-.127.11.11 0 0 1 .113-.02q.058.026.09.101a.3.3 0 0 1 .019.165c-.245 1.358-.88 4.43-.919 4.62a.23.23 0 0 1-.073.13.11.11 0 0 1-.113.018.18.18 0 0 1-.09-.102.3.3 0 0 1-.018-.165c.246-1.358.88-4.43.918-4.62M58.597 64.539c-.082-.26.181-.49.264-.227l6.136 19.409c.083.26-.18.488-.263.226z"/><path fill="#2755A0" d="M44.738 65.865c2.771 1.543 5.836 1.503 8.59-.111l-.81 9.047h-8.261c-.04 0-.08-.024-.108-.066a.3.3 0 0 1-.045-.158z"/><path fill="#000" d="M44.085 77.723c2.597-1.779 5.497-2.382 8.328-1.732l-.168 1.893c-.297.015-7.152.203-8.081.257a.13.13 0 0 1-.092-.048.25.25 0 0 1-.055-.118.3.3 0 0 1 .006-.143.23.23 0 0 1 .062-.11M60.519 1.71c.649-.88 1.544-.29 2.172.629a20 20 0 0 1 1.792 3.307c-1.214-1.591-2.448-1.11-2.782.516a15 15 0 0 1-.775-1.311 5 5 0 0 1-.636-1.634 2.4 2.4 0 0 1-.015-.796c.04-.263.123-.508.244-.712"/><path fill="#FFD2D2" d="M64.169 5.286c1.028 1.04 1.607 2.966.747 4.232a4.7 4.7 0 0 0-.825-1.322c-.957-1.301-2.082-.857-2.275.322-.741-2.72.614-4.99 2.353-3.232"/><path fill="#2755A0" d="M53.327 65.754c2.435-1.425 4.478-3.996 5.808-7.312 1.33-3.315 1.872-7.185 1.54-11.002a6.4 6.4 0 0 0 1.643-1.121c3.64 5.016 8.135 8.496 13.01 10.07-2.078 3.628-5.838 5.444-9.065 5.634l-2.52 17.731-4.882-15.442c-.082-.262-.346-.034-.264.227l5.042 15.949-.171 1.204a.25.25 0 0 1-.055.119.13.13 0 0 1-.092.046H52.066c-.04 0-.08-.024-.108-.066a.3.3 0 0 1-.045-.158c.114-1.299-.085.913 1.414-15.88"/><path fill="#FC9070" d="M53.682 21.443c.367-1.59.988-3.029 1.81-4.197 1.486-2.155 3.414-3.546 6.123-3.878q.052 0 .093.046t.055.119c.287 2.81.504 8.055.71 9.925.395-3.346.944-6.65 1.641-9.888a.25.25 0 0 1 .055-.118.13.13 0 0 1 .092-.047c2.953.501 5.784 2.016 8.263 4.421 4.063 3.931 5.986 7.917 8.984 13.66 1.78 3.412 2.674 5.088 3.343 6.93 1.8 4.947 1.319 10.492-.296 13.589-.748 1.285-1.654 2.354-2.67 3.15-2.852 2.286-5.383 1.856-8.452.52-2.74-1.194-5.34-2.998-7.706-5.35a1.4 1.4 0 0 1-.159-.16c.036.028.079.036.118.02a.18.18 0 0 0 .094-.107c.025-.067 2.808-9.875 3.405-12.737a48 48 0 0 1 6.995 4.082c.178.117.333-.27.154-.388a259 259 0 0 0-2.797-1.81c-1.373-2.856-2.453-5.993-3.203-9.31-.062-.273-.358-.155-.295.12.712 3.143 1.714 6.128 2.98 8.871-2.264-1.482-4.65-2.524-7.096-3.1-2.598-.58-6.078-.342-8.475 1.746-.959-1.462-2.086-2.665-3.329-3.553a35 35 0 0 0-1.851-3.328 72 72 0 0 1 1.414-9.228m29.835 27.226c-.12.623-.3 1.217-.537 1.763-.11.241.156.465.265.227.25-.58.44-1.21.566-1.871.058-.277-.237-.394-.294-.12M61.86 34.61q.318-4.386.599-8.779c.018-.288-.288-.285-.306 0a986 986 0 0 1-.598 8.779c-.021.288.285.284.305 0"/><path fill="#F7DA31" d="M51.132 34.594c.485.738.887 1.595 1.366 2.269L50.93 38.47c.186-1.273.254-2.577.201-3.877"/><path fill="#FFD2D2" d="M46.128 28.913c1.81-1.29 3.782-1.218 5.41.761a23.3 23.3 0 0 1 2.25 3.636c.416.769.811 1.775.689 2.732-.04.35-.151.673-.318.93-.166.255-.381.432-.617.507a.75.75 0 0 1-.583-.087 1.24 1.24 0 0 1-.462-.53c-.486-.69-.883-1.54-1.365-2.27.029.865.028 3.529-.324 4.224-.133.27-.326.463-.545.548a.7.7 0 0 1-.658-.082c-.453-.367-.608-1.187-.744-1.912-.104-.554-.045-.651-.112.266-.011.461-.072.918-.181 1.351-.087.235-.216.43-.373.567a.78.78 0 0 1-.517.206.8.8 0 0 1-.517-.211 1.4 1.4 0 0 1-.37-.57 11 11 0 0 1-.295-1.346c-.045.75-.155 1.866-.765 2.03-1.864.502-2.934-8.378.397-10.75m.264 4.727a16 16 0 0 1-.024-1.56c.01-.29-.296-.288-.306 0a16 16 0 0 0 .024 1.56c.019.287.324.289.306.001zm1.954-.435c.019.285.325.287.306 0l-.104-1.56c-.02-.285-.325-.287-.306 0z"/><path fill="#FC9070" d="M69.138 36.853q1.968.866 3.861 2.041c-1.253-2.745-2.248-5.725-2.96-8.86-.062-.274.233-.392.295-.119.75 3.321 1.833 6.46 3.211 9.315.412.256 2.27 1.462 2.79 1.805.18.119.023.505-.155.388-7.413-4.896-7.059-3.704-6.946-4.302a.3.3 0 0 0-.012-.161.2.2 0 0 0-.084-.107"/><path fill="#FFD2D2" d="M56.16 39.427c1.599-3.822 6.675-4.309 9.763-3.621a17.6 17.6 0 0 1 3.213 1.047.2.2 0 0 1 .084.106.3.3 0 0 1 .012.16c-.45 2.385-2.792 10.532-3.44 12.91a.3.3 0 0 1-.034.09.2.2 0 0 1-.057.058.1.1 0 0 1-.069.015.12.12 0 0 1-.066-.03 33.4 33.4 0 0 1-3.25-3.846c-.601.554-1.254.975-1.939 1.249-.588.225-1.349.183-1.519-.665-.158-.786.413-1.623.849-2.266-.52.334-1.068.56-1.63.671-.808.091-1.24-1.239-.679-2.658.358-.904.581-.665-.2-.494a.9.9 0 0 1-.508.016 1.1 1.1 0 0 1-.472-.276c-.521-.594-.358-1.75-.058-2.466m6.865 2.298-1.164.655c-.181.103-.103.537.081.433l1.164-.655c.182-.102.102-.536-.081-.433m-2.523-2.15a3.65 3.65 0 0 1 1.275-.787c.191-.066.11-.501-.081-.433a3.9 3.9 0 0 0-1.348.833c-.166.154-.01.542.154.387"/><path fill="#FC9070" d="M61.555 34.61q.319-4.386.598-8.779c.018-.285.324-.288.306 0a946 946 0 0 1-.599 8.779c-.02.284-.326.288-.305 0M83.517 48.669c.057-.275.352-.158.294.119a9 9 0 0 1-.566 1.87c-.109.24-.374.015-.265-.226.236-.546.417-1.14.537-1.763"/><path fill="#fff" d="M62.097 8.694c.032-.167.089-.322.166-.453a.9.9 0 0 1 .281-.307.6.6 0 0 1 .343-.104.6.6 0 0 1 .341.118c.947.538 1.998 2.455 1.823 3.735-.201 1.471-1.803 1.5-2.761-1.33a3.96 3.96 0 0 1-.193-1.66M59.896 11.683c-.042.302-.16.57-.329.752s-.378.266-.587.235c-.42-.063-.809-.346-1.097-.797-.552-.762-1.062-2.026-.942-3.177.033-.166.09-.32.167-.452a.9.9 0 0 1 .281-.307.6.6 0 0 1 .343-.104.6.6 0 0 1 .341.118c.947.535 1.998 2.452 1.823 3.732"/><path fill="#000" d="M56.617 8.886c.028-1.497 1.296-2.08 2.319-.69.383.412.699.944.925 1.556l1.983.124c-.44-2.416 1.104-3.234 2.247-1.68 1.246 1.408 1.85 4.098.55 4.804-1.094.607-2.255-1.115-2.695-2.669l-1.932-.12c.875 2.555-1.23 4.483-2.873 1.067-.342-.696-.526-1.533-.524-2.392m5.676 1.47c.95 2.81 2.546 2.797 2.76 1.33.17-1.311-.886-3.203-1.822-3.735a.6.6 0 0 0-.341-.118.6.6 0 0 0-.343.104.9.9 0 0 0-.281.307 1.4 1.4 0 0 0-.167.452c-.052.57.016 1.149.194 1.66m-5.157 0c.951 2.809 2.547 2.8 2.762 1.33.17-1.314-.889-3.204-1.823-3.735a.6.6 0 0 0-.341-.118.6.6 0 0 0-.343.104.9.9 0 0 0-.281.307 1.4 1.4 0 0 0-.167.452c-.052.57.016 1.149.194 1.66M66.682 8.084c1.625-1.582 2.587-1.046 3.427 1.289.09.256-.17.48-.264.226-.346-.93-.804-2.022-1.626-1.967-.75.133-1.076.543-2.425 1.845-.165.16-.317-.23-.154-.387.347-.336.695-.668 1.042-1.006M51.378 85.17c2.78-1.896 5.899-2.453 8.908-1.589q1.247.362 2.438 1.011.052.027.082.096c.02.045.027.1.022.152a.3.3 0 0 1-.049.137.14.14 0 0 1-.097.06c-5.123.572-7.163.32-11.225.552a.13.13 0 0 1-.091-.048.25.25 0 0 1-.054-.118.3.3 0 0 1 .005-.143.23.23 0 0 1 .061-.11"/><path fill="#FF4848" d="M48.652 33.206c.019.287-.287.285-.306 0l-.104-1.56c-.02-.287.287-.285.306 0zM46.392 33.641c.018.288-.288.286-.306 0a16 16 0 0 1-.024-1.56c.01-.287.317-.29.306 0q-.026.782.024 1.56M61.86 42.38l1.165-.655c.183-.104.263.332.081.433l-1.164.655c-.184.104-.263-.33-.081-.433M61.777 38.788a3.65 3.65 0 0 0-1.275.787c-.166.155-.32-.233-.154-.387.415-.385.87-.666 1.347-.833.192-.068.272.365.082.433"/><path fill="#000" d="M.008 31.263c.06-.689.212-1.353.447-1.956.235-.602.549-1.13.922-1.555.375-.424.802-.736 1.258-.918.457-.182.933-.23 1.402-.142-1.246-3.746 1.158-7.987 4.364-6.817-.715-4.56 2.903-8.417 5.233-4.846 1.755 2.689 2.626 8.42 2.958 12.089-3.505-1.768-6.964-2.613-9.573 1.253-.863 1.312-1.546 2.853-2.015 4.54-.39 1.308-.7 2.663-.929 4.05-2.338-.242-4.214-2.988-4.067-5.698M10.731 19.3c.068.434.2.841.385 1.193.187.352.423.64.693.843.27.204.567.318.87.335s.605-.062.885-.235c1.201-.752 1.081-3.498.11-4.839-1.26-1.744-3.247.142-2.945 2.701z"/><path fill="#FF4848" d="M11.645 16.305c1.478-1.334 3.068.989 2.739 3.6-.297 2.357-2.827 2.408-3.545-.108a4.14 4.14 0 0 1-.03-1.961c.148-.639.444-1.18.836-1.531"/><path fill="#FFD2D2" d="M21.97 35.614c.36-1.005.63-2.074.806-3.18.03-.19-.09-.248-.046-.225q.316.354.63.712c-.962-4.724-1.772-9.387-1.258-14.081.07-.646.153-1.447.651-1.662a.75.75 0 0 1 .624.076c.198.117.368.32.486.58a6.9 6.9 0 0 1 .418 2.273q.085 1.1.082 2.206l3.812-4.53c.494-.588 1.222-1.367 1.87-.832.62.51.637 1.728.3 2.626-.845 2.253-1.353 1.845.035 1.238.245-.138.507-.204.77-.192.264.011.523.099.763.258.242.215.422.555.504.953s.06.827-.06 1.203c-.345 1.279-1.741 2.42-2.594 2.943.609-.08 1.214-.262 1.828-.265.697-.007 1.614.25 1.745 1.45.049.451.004.914-.13 1.327-.135.412-.351.756-.62.984a3 3 0 0 1-1.571.512c-.512.077-1.026.11-1.54.145.662 1.883 1.19 3.86 1.577 5.9-3.35-2.322-6.651-1.61-8.174.047a27 27 0 0 0-2.112 2.81c.335-.816.94-2.526 1.205-3.276M27 44.828c.289.078.584.089.875.034.724-.054.983-1.293.643-2.169-.326-.75-.713-1.44-1.151-2.053.4.304.805.598 1.217.87.51.336 1.116.763 1.681.453q.181-.075.326-.25c.095-.115.173-.259.229-.421s.088-.34.094-.52a1.9 1.9 0 0 0-.056-.533 3 3 0 0 0-.496-.919c-1.222-1.682-1.393-1.224.232-.55.296.131.607.176.914.132.345 2.785.526 6.296-.392 8.8-1.49-1.395-3.058-1.426-4.749-.69.213-.729.43-1.451.634-2.184"/><path fill="#78B5FF" d="M3.375 53.966a.3.3 0 0 0 .034.127q.03.056.076.08c1.717.98 3.54 1.49 5.383 1.51 1.234 1.736 2.7 3.076 4.307 3.933 1.682.864 4.055.617 5.589.013 1.4-.668 2.68-1.789 3.747-3.279l1.1.59c.141 1.32 1.515 13.225 1.533 13.374-9.74 0-10.403.103-11.994-.398-2.41-.76-4.612-2.551-6.329-5.147s-2.87-5.88-3.316-9.439c-.006-.066-.142-1.278-.13-1.364M26.55 72.972l9.837-1.359c.074-.01.162-.095.153-.224a181 181 0 0 0-1.603-14.099c.71 1.877 7.675 20.44 7.68 20.452.02.052.025.115.014.173a.23.23 0 0 1-.074.136c-.045.038.035-.014-11.185 5.782a.11.11 0 0 1-.098-.01.2.2 0 0 1-.074-.093c-.85-1.994-3.123-7.24-3.402-7.88 3.454 1.19 6.213 2.344 9.106 3.004a.11.11 0 0 0 .107-.018.2.2 0 0 0 .073-.117.3.3 0 0 0 .004-.157.23.23 0 0 0-.068-.123c-2.852-2.954-6.32-4.341-9.799-3.92z"/><path fill="#C0C195" d="M4.075 36.961c.228-1.387.538-2.742.927-4.05 1.512-5.25 4.164-8.06 8.102-7.102 3.531.819 6.847 3.02 9.599 6.37a.25.25 0 0 1 .061.112.4.4 0 0 1 .009.143 17.7 17.7 0 0 1-.805 3.18 106 106 0 0 1-1.128 3.088c-.198.509.218-.531-4.79 7.666-1.437-4.146-1.294-3.397-1.352-3.62-1.48-3.412-3.259-6.799-5.664-8.804a.11.11 0 0 0-.116-.023.18.18 0 0 0-.093.104.3.3 0 0 0-.016.17c.01.058.036.107.07.137 2.382 2.146 3.977 5.014 5.516 8.548-2.012 3.896-4.097 7.406-6.333 11.035-1.836-2.801-3.242-6.146-4.125-9.81a.24.24 0 0 0-.062-.117.12.12 0 0 0-.097-.038.14.14 0 0 0-.093.057.3.3 0 0 0-.05.128c-.006.078.015.11.121.524 1.07 4.23 2.825 8.013 5.112 11.026-1.842-.017-3.666-.528-5.383-1.51a.2.2 0 0 1-.076-.08.3.3 0 0 1-.034-.127c-.144-.592-.12-11.67.7-17.007m15.058.06c.02.05.054.088.094.103q.06.022.116-.023c.035-.03.06-.08.07-.137a.3.3 0 0 0-.015-.17 52 52 0 0 0-2.454-5.322c-.118-.227-.384 0-.264.227Q18 34.266 19.133 37.02m-5.522-7.565c.012.067 1.685 9.74 1.741 9.844.072.075-.191-.107 2.046 1.32.128.061.205-.018.226-.133.558-3.43.608-3.273.52-3.45-.035-.073-.354-.649-4.275-7.798-.103-.185-.293.015-.258.217"/><path fill="#77751E" d="M8.883 34.332a.24.24 0 0 1-.072-.137.3.3 0 0 1 .016-.17.18.18 0 0 1 .094-.104.11.11 0 0 1 .116.023c1.88 1.7 3.483 3.987 4.693 6.7.054.113.933 1.959.976 2.122a.2.2 0 0 0-.057-.072.12.12 0 0 0-.074-.023.12.12 0 0 0-.072.03.2.2 0 0 0-.054.075c-.018.036-.037.067-.054.103-1.554-3.564-3.149-6.414-5.512-8.547M3.937 44.105c.883 3.664 2.289 7.009 4.125 9.81q-.053.088-.106.174a.3.3 0 0 0-.043.15c0 .056.012.11.037.154l-.009-.008c-1.912-2.896-3.378-6.361-4.3-10.161-.067-.274.232-.386.296-.12"/><path fill="#CCEAFF" d="M26.367 47.01c2.043-.888 3.516-.465 4.75.691 1.806 1.696 2.754 4.624 3.421 7.59.944 4.193 1.67 11.783 2.002 16.1.01.129-.079.214-.153.224l-10.784 1.49a.13.13 0 0 1-.093-.046.25.25 0 0 1-.054-.12c-.105-.876-1.702-14.677-1.844-15.997l-1.101-.59c2.361-3.126 2.62-5.095 3.856-9.342m3.927 1.8-1.239-.925c-.175-.133-.329.256-.154.387l1.239.925c.175.131.33-.256.154-.387"/><path fill="#FF4848" d="M7.956 54.089c1.971-3.13 4.591-7.618 6.493-11.312a.2.2 0 0 1 .054-.076.12.12 0 0 1 .072-.03.12.12 0 0 1 .074.024q.034.024.057.07c.194.274 1.325 3.536 1.348 3.603 1.66-2.718 5.081-8.394 6.824-10.29 1.44-1.566 4.506-2.343 7.813-.283.469.27.913.627 1.32 1.063.804.937.175 2.573-1.417 1.914-1.627-.673-1.453-1.13-.232.55.207.253.376.566.496.92a1.9 1.9 0 0 1-.038 1.053 1.4 1.4 0 0 1-.23.42.85.85 0 0 1-.325.25c-.565.31-1.17-.116-1.681-.453a23 23 0 0 1-1.217-.87c.439.613.825 1.301 1.15 2.051.338.87.086 2.114-.643 2.169-.29.055-.585.044-.874-.034-.271.997-.588 2.003-.826 2.857-.7 2.513-1.232 4.749-2.421 6.826q-.58.982-1.242 1.843c-1.072 1.48-2.351 2.599-3.747 3.28-1.534.603-3.906.853-5.59-.014-1.62-.835-3.286-2.3-5.219-5.211l-.006-.014a.3.3 0 0 1-.036-.155c0-.056.016-.11.043-.151m8.952 3.639h-1.972q-.061.006-.103.07a.3.3 0 0 0-.042.154c0 .058.015.113.042.155q.042.064.103.07h1.972c.039-.004.076-.028.102-.07a.3.3 0 0 0 .043-.154.3.3 0 0 0-.043-.155c-.026-.042-.063-.067-.102-.07m7.035-18.27q.661.05 1.312.23c.193.054.275-.38.081-.433a7.3 7.3 0 0 0-1.394-.246c-.196-.016-.195.434 0 .448m2.802-2.408c.193.048.275-.385.081-.432a10 10 0 0 0-1.441-.25c-.197-.02-.195.43 0 .449q.684.07 1.36.233m.06 7.37c-.052-.453-.508.22-2.163-1.771-.15-.181-.368.133-.216.318.618.84 1.373 1.436 2.192 1.727a.1.1 0 0 0 .078-.005.16.16 0 0 0 .066-.058.3.3 0 0 0 .039-.098.3.3 0 0 0 .003-.114"/><path fill="#000" d="M13.867 29.237c.243.444 4.252 7.748 4.276 7.797.034.067.048.07.012.3-.05.322-.199 1.097-.533 3.15a.22.22 0 0 1-.058.125c-.029.029-.065.04-.1.03-.079-.012.035.044-1.886-1.18a.7.7 0 0 1-.226-.16c-.051-.094-1.152-6.497-1.741-9.843-.035-.201.155-.402.256-.219"/><path fill="#FC9070" d="M26.616 44.691c-.819-.292-1.574-.887-2.192-1.728-.152-.183.065-.499.216-.318q.454.56.965.997c.854.71 1.163.473 1.197.773a.3.3 0 0 1-.002.114.3.3 0 0 1-.04.098.16.16 0 0 1-.066.059.1.1 0 0 1-.078.005"/><path fill="#000" d="M28.44 9.667c.06-.276.354-.158.296.12l-.965 4.536c-.059.274-.354.157-.295-.12zM23.257.304a.3.3 0 0 1 .005-.176.2.2 0 0 1 .037-.071.2.2 0 0 1 .052-.045.11.11 0 0 1 .12.013.2.2 0 0 1 .047.056q.02.035.03.079l2.528 14.513a.3.3 0 0 1-.018.165.18.18 0 0 1-.09.1.11.11 0 0 1-.113-.018.23.23 0 0 1-.073-.128C22.477-4.175 23.41 1.342 23.257.304M24.189 15.564l-2.429-3.855c-.134-.212.082-.531.216-.317l2.429 3.854c.133.212-.082.53-.216.318M33.827 85.582c2.78-1.897 5.899-2.453 8.908-1.59.83.242 1.645.58 2.437 1.012a.2.2 0 0 1 .082.096.3.3 0 0 1 .022.151.3.3 0 0 1-.048.137.14.14 0 0 1-.097.06c-5.14.575-7.115.317-11.225.552a.13.13 0 0 1-.092-.047.25.25 0 0 1-.054-.12.3.3 0 0 1 .005-.141.23.23 0 0 1 .062-.11M25.944 74.801a10.13 10.13 0 0 1 5.788.188c1.901.624 3.698 1.8 5.288 3.454.148.088.068.465-.09.424-3.646-.875-7.998-2.678-10.985-3.633a.1.1 0 0 1-.057-.015.2.2 0 0 1-.048-.048.3.3 0 0 1-.032-.07.3.3 0 0 1 0-.165.3.3 0 0 1 .032-.071.2.2 0 0 1 .047-.047.1.1 0 0 1 .057-.017"/><path fill="#77751E" d="M16.944 31.471c.9 1.69 1.72 3.468 2.454 5.322a.3.3 0 0 1 .015.17.3.3 0 0 1-.026.08.2.2 0 0 1-.044.057.13.13 0 0 1-.057.029.1.1 0 0 1-.06-.005.14.14 0 0 1-.053-.039.2.2 0 0 1-.04-.065 69 69 0 0 0-2.453-5.322c-.12-.23.146-.453.264-.227"/><path fill="#78B5FF" d="M30.294 48.81c.175.133.02.518-.154.387l-1.239-.925c-.175-.133-.02-.518.155-.387z"/><path fill="#FC9070" d="M14.936 57.728h1.972c.039.003.076.028.102.07a.3.3 0 0 1 .043.154.3.3 0 0 1-.043.155c-.026.042-.063.066-.102.07h-1.972q-.061-.007-.103-.07a.3.3 0 0 1-.042-.154c0-.058.015-.114.042-.155q.042-.064.103-.07"/><path fill="#FF4848" d="M24.76 23.831c.4.922.637 1.974.693 3.062.483.335.918.8 1.282 1.373.135.212-.082.532-.216.318-.331-.541-.736-.975-1.188-1.273-.126-.093-.19-.156-.174-.277a8.6 8.6 0 0 0-.66-2.976c-.12-.232.146-.457.264-.227"/><path fill="#FC9070" d="M25.256 39.688a7 7 0 0 0-1.312-.23c-.196-.015-.197-.466 0-.45q.703.056 1.394.247c.192.054.11.49-.082.433M26.745 37.05a9.5 9.5 0 0 0-1.358-.233c-.195-.02-.197-.465 0-.45q.724.073 1.442.25c.191.048.109.481-.084.433"/><path fill="#000" d="m52.145 44.658-1.562-1.697c-.156-.17-.004-.56.154-.388L52.3 44.27c.158.17.006.56-.154.388M51.248 45.717l-1.561-1.697c-.157-.17-.004-.56.154-.388l1.562 1.695c.156.173.004.562-.155.39M52.622 40.352l1.56 1.697c.156.17.004.56-.155.388l-1.561-1.697c-.154-.17-.004-.56.156-.388M53.132 43.496 51.57 41.8c-.157-.17-.004-.56.154-.388l1.562 1.697c.156.17.004.558-.154.388M52.027 51.964a.11.11 0 0 1-.113-.026.23.23 0 0 1-.07-.133.3.3 0 0 1 .014-.167.19.19 0 0 1 .087-.107c.803-.357 6.85-2.932 7.144-3.05a.11.11 0 0 1 .116.021q.054.047.073.134.12.604.246 1.207a.3.3 0 0 1-.01.175.2.2 0 0 1-.04.066.12.12 0 0 1-.057.035zm2.553-1.09 4.6-1.15-.153-.75zM40.007 63.193a.23.23 0 0 1 .073-.127.11.11 0 0 1 .113-.02q.058.026.09.101a.3.3 0 0 1 .019.165c-.245 1.358-.88 4.43-.919 4.62a.23.23 0 0 1-.073.13.11.11 0 0 1-.113.018.18.18 0 0 1-.09-.102.3.3 0 0 1-.018-.165c.246-1.358.88-4.43.918-4.62M46.392 33.641c.018.288-.288.286-.306 0a16 16 0 0 1-.024-1.56c.01-.287.317-.29.306 0q-.026.782.024 1.56M65.616 75.492l3.397-12.688H67.1a.1.1 0 0 1-.06-.012.15.15 0 0 1-.052-.044.2.2 0 0 1-.036-.07.3.3 0 0 1 .025-.25.2.2 0 0 1 .048-.051.1.1 0 0 1 .058-.021h9.347c.039.003.076.028.102.07a.3.3 0 0 1 .042.154.3.3 0 0 1-.042.155c-.026.041-.063.066-.102.07-.504.013-1.132 0-1.817 0l3.392 12.692c.072.27-.226.385-.295.12l-3.424-12.813H69.34l-3.43 12.81c-.07.263-.367.149-.294-.122"/><path fill="#000" d="M44.016 33.824c.16-2 .79-3.97 2.112-4.91 1.81-1.289 3.782-1.217 5.41.762q.383.469.729.997a73 73 0 0 1 1.415-9.233c.367-1.59.988-3.029 1.81-4.196 1.486-2.153 3.414-3.544 6.123-3.876q.052 0 .093.046t.055.119c.287 2.81.504 8.055.71 9.925.395-3.347.944-6.65 1.641-9.889a.25.25 0 0 1 .055-.117.13.13 0 0 1 .092-.047c2.953.5 5.784 2.016 8.263 4.421 4.063 3.931 5.986 7.917 8.984 13.66 1.78 3.412 2.674 5.088 3.343 6.93 1.8 4.947 1.319 10.492-.296 13.589-.748 1.285-1.654 2.354-2.67 3.15-2 1.615-4.341 2.057-6.553 1.234-2.117 3.674-5.948 5.45-9.07 5.633L63.745 79.76l1.252 3.961c.082.26-.181.488-.264.227l-1.092-3.456c-.024.157-.072.49-.173 1.196a.25.25 0 0 1-.055.118.13.13 0 0 1-.092.047H52.066c-.04 0-.08-.024-.108-.067a.3.3 0 0 1-.045-.158l.332-3.739c-1.262.04-7.234.2-8.083.248a.13.13 0 0 1-.091-.047.25.25 0 0 1-.054-.12.3.3 0 0 1 .006-.141.23.23 0 0 1 .062-.11c2.6-1.763 5.498-2.358 8.328-1.71l.108-1.21h-8.264c-.04-.001-.08-.025-.108-.067a.3.3 0 0 1-.045-.158l.638-8.712c-2.182-1.216-4.07-3.351-5.428-6.138s-2.123-6.101-2.2-9.526c-.078-3.424.536-6.806 1.764-9.72 1.228-2.912 3.016-5.228 5.138-6.653m7.792-3.2c-.522-.788-1.156-1.4-1.856-1.789a3.44 3.44 0 0 0-2.08-.257c-.698.134-1.369.484-1.967 1.03-1.514 1.407-2.222 5.441-1.034 8.882.06.181.147.341.253.468.107.128.232.22.365.27.129.027.26-.02.366-.13a.83.83 0 0 0 .206-.463c.195-1.275.212-2.594.048-3.879-.03-.234.248-.332.3-.06.084.921.453 3.641.728 4.274q.106.174.25.269.147.093.305.09a.55.55 0 0 0 .303-.106.85.85 0 0 0 .244-.282c.135-.375.203-.794.2-1.218.085-.984.1-1.978.045-2.967-.015-.25.275-.31.3-.06.072.69.17 1.373.284 2.05.068.652.221 1.28.452 1.847.297.703 1.131.427 1.192-.707.13-1.278.16-2.573.088-3.86-.012-.209.172-.281.26-.16.857 1.175.99 1.795 1.805 2.894.07.125.163.22.268.27s.218.057.325.017a.86.86 0 0 0 .474-.361c.13-.188.217-.43.25-.693a3.5 3.5 0 0 0-.272-1.63 29 29 0 0 0-2.102-3.739m9.101 13.123a8.8 8.8 0 0 0-1.448 1.96 2.2 2.2 0 0 0-.317.833c-.05.521.323.687.605.697.9-.159 1.762-.636 2.51-1.391.27-.226.387.775 3.319 3.779 1.276-4.67 2.716-9.544 3.313-12.41-3.33-1.458-7.249-1.865-10.5.111-.797.476-1.481 1.285-1.968 2.326-.221.543-.424 1.548.045 1.952a.86.86 0 0 0 .829.076 5 5 0 0 0 1.02-.417c.175-.094.248.272.118.41-1.467 1.563-1.062 3.389-.298 3.19a4.3 4.3 0 0 0 1.272-.526 8.3 8.3 0 0 0 1.346-.976c.171-.155.315.224.154.386m-6.434-7.715 2.127 2.546q.266-.41.575-.746c-.832-1.245-1.784-2.306-2.824-3.148.125.424.168.89.122 1.348m2.726 6.126a.88.88 0 0 1-.508.016 1.1 1.1 0 0 1-.472-.277c-.524-.598-.363-1.753-.061-2.47q.111-.267.245-.512l-2.025-2.423c-.078.25-.194.47-.34.64a1.1 1.1 0 0 1-.498.349.75.75 0 0 1-.584-.089 1.24 1.24 0 0 1-.461-.53c-2.114 2.17-1.399 1.383-1.689 1.956a1.3 1.3 0 0 1-.355.437.8.8 0 0 1-.45.17c-4.427 4.544-4.044 4.144-4.224 4.344l5.234 5.811c.67-.705 6.225-6.747 6.386-6.93.359-.903.583-.66-.198-.492m-6.17-4.337 1.25-1.285c-.393-.62-.739-1.323-1.148-1.942a26 26 0 0 1-.101 3.227m27.503 18.44c2.078-.342 4.008-1.745 5.453-3.964 1.646-2.481 2.472-7.955.777-13.133a37 37 0 0 0-2.492-5.472c-3.973-7.702-6.02-11.805-10.08-15.647-2.356-2.25-5.033-3.677-7.823-4.17-.13.593-.83 4.223-.977 5.188-.28 1.818-.441 3.674-.774 5.475a.26.26 0 0 1-.063.12.14.14 0 0 1-.097.045.14.14 0 0 1-.098-.046.26.26 0 0 1-.062-.12c-.477-3.854-.38-6.32-.815-10.698-3.986.451-6.69 4.039-7.508 7.724a73 73 0 0 0-1.442 9.534 33 33 0 0 1 1.575 2.881c1.236.92 2.36 2.135 3.324 3.596 2.206-2.11 5.99-2.326 8.489-1.768 2.437.575 4.813 1.612 7.069 3.084-1.251-2.743-2.244-5.722-2.953-8.855-.062-.274.233-.392.295-.12.762 3.324 1.847 6.467 3.223 9.333.84.536 2.392 1.528 2.778 1.787.18.119.023.505-.154.388-5.028-3.323-6.598-3.889-6.992-4.07-.533 2.585-2.674 10.05-3.353 12.525 2.786 2.79 5.896 4.806 9.176 5.949 1.15.439 2.34.586 3.524.434M44.938 77.652c1.26-.061 5.896-.151 7.348-.21l.087-.983c-2.506-.573-5.072-.161-7.436 1.193zm7.306 3.755h10.954l.231-1.588-4.832-15.28c-.082-.26.181-.49.265-.227L63.53 79.08l2.46-17.335a.25.25 0 0 1 .056-.118.13.13 0 0 1 .092-.046 11.4 11.4 0 0 0 3.642-.852c1.993-.718 3.803-2.262 5.214-4.448-4.748-1.626-9.12-5.062-12.676-9.961a6.6 6.6 0 0 1-1.643 1.122c.328 3.73-.181 7.516-1.449 10.785-1.267 3.269-3.225 5.843-5.577 7.334-.162 1.818-1.362 15.475-1.406 15.847zm-7.817-7.054h8.133l.765-8.593c-2.648 1.575-5.597 1.67-8.29.265zM38.86 57.847c1.297 3.433 3.368 6.096 5.857 7.532 2.489 1.438 5.24 1.56 7.783.345s4.719-3.69 6.155-7.003c1.436-3.312 2.043-7.254 1.717-11.15-.586.221-1.342.176-1.51-.665-.158-.786.412-1.623.848-2.266-.52.334-1.068.56-1.63.671-.647.073-1.053-.764-.901-1.83-.62.694-5.842 6.314-6.089 6.573a.11.11 0 0 1-.077.033.11.11 0 0 1-.077-.033l-5.498-6.103a.2.2 0 0 1-.054-.083.31.31 0 0 1 0-.221.2.2 0 0 1 .054-.083c.272-.266 3.63-3.721 4.168-4.276-.453-.366-.608-1.184-.745-1.912-.104-.554-.045-.651-.112.266-.011.461-.072.918-.181 1.351-.087.235-.216.43-.373.567a.78.78 0 0 1-.517.206.8.8 0 0 1-.517-.211 1.4 1.4 0 0 1-.37-.57 11 11 0 0 1-.295-1.346c-.046.75-.155 1.866-.765 2.03-1.063.283-1.865-2.465-1.748-5.324-1.418 1-2.683 2.414-3.716 4.156s-1.814 3.775-2.293 5.975-.649 4.52-.496 6.82c.152 2.298.622 4.528 1.381 6.55"/><path fill="#000" d="M61.555 34.61q.319-4.386.598-8.779c.018-.285.324-.288.306 0a946 946 0 0 1-.599 8.779c-.02.284-.326.288-.305 0M83.517 48.669c.057-.275.352-.158.294.119a9 9 0 0 1-.566 1.87c-.109.24-.374.015-.265-.226.236-.546.417-1.14.537-1.763M56.617 8.886c.02-1.495 1.298-2.077 2.319-.69.38.41.694.943.915 1.556l1.992.124a3.6 3.6 0 0 1-.03-1.34 5.3 5.3 0 0 1-.117-2.37q-.41-.627-.77-1.315a5.4 5.4 0 0 1-.636-1.634 2.2 2.2 0 0 1-.026-.824c.045-.272.14-.521.277-.717a.98.98 0 0 1 .495-.39.7.7 0 0 1 .56.057c.411.207.785.547 1.094.996a20 20 0 0 1 1.784 3.306c.788 1.029 1.212 2.693.447 3.873.602 1.365.679 2.957-.278 3.483-1.086.598-2.258-1.102-2.697-2.67l-1.927-.119c.866 2.526-1.232 4.487-2.876 1.063-.345-.693-.529-1.53-.526-2.389M61.877 2c-.167-.179-.369-.273-.575-.268s-.405.11-.567.297c-.51.827.139 2.01.492 2.666.194.36.526.895.603 1 .414-1.184 1.222-1.24 1.958-.724-.489-1.176-1.14-2.188-1.911-2.97m.995 3.124c-.818.078-1.123 1.66-.866 2.848.428-.776 1.338-.786 2.082.226q.361.41.643.94c.843-1.473-.48-4.008-1.859-4.014m-.74 3.389c.093.323.234.61.413.84.18.23.393.398.623.488.23.091.472.103.706.036s.454-.212.644-.424a4.5 4.5 0 0 0-.465-.712c-.923-1.306-1.712-.987-1.918-.228zm.906 3.362c.288.45.678.733 1.097.797.209.031.418-.053.587-.235.17-.182.287-.45.33-.752.04-.662-.09-1.322-.363-1.853-.399.43-.897.61-1.387.502s-.93-.497-1.224-1.081c.11 1.007.448 1.93.96 2.618zm-5.156 0c.288.45.678.733 1.097.797.209.031.418-.053.588-.235s.286-.45.329-.752c.179-1.305-.892-3.206-1.823-3.735a.6.6 0 0 0-.34-.119.6.6 0 0 0-.344.104.9.9 0 0 0-.281.307 1.4 1.4 0 0 0-.166.453c-.123 1.16.397 2.426.94 3.176zM66.682 8.084c1.625-1.582 2.587-1.046 3.427 1.289.09.256-.17.48-.264.226-.346-.93-.804-2.022-1.626-1.967-.75.133-1.076.543-2.425 1.845-.165.16-.317-.23-.154-.387.347-.336.695-.668 1.042-1.006M51.456 85.589a.13.13 0 0 1-.092-.049.25.25 0 0 1-.053-.118.3.3 0 0 1 .005-.142.23.23 0 0 1 .063-.11c2.78-1.896 5.898-2.453 8.907-1.589q1.247.363 2.438 1.011.052.027.082.096c.02.045.027.1.022.152a.3.3 0 0 1-.049.137.14.14 0 0 1-.097.06c-5.123.572-7.163.32-11.226.552m.774-.489c3.007-.146 7.016-.091 9.742-.422-3.183-1.514-6.625-1.365-9.742.422M48.652 33.206c.019.287-.287.285-.306 0l-.104-1.56c-.02-.287.287-.285.306 0zM61.86 42.38l1.165-.655c.183-.104.263.332.081.433l-1.164.655c-.184.104-.263-.33-.081-.433M61.777 38.788a3.65 3.65 0 0 0-1.275.787c-.166.155-.32-.233-.154-.388.415-.384.87-.665 1.347-.832.192-.068.272.365.082.433M13.564 21.436c-.28.172-.582.253-.885.236a1.6 1.6 0 0 1-.871-.335 2.5 2.5 0 0 1-.693-.843 3.8 3.8 0 0 1-.384-1.195c-.304-2.556 1.682-4.447 2.942-2.703.967 1.336 1.091 4.088-.109 4.84m-1.47-4.94c-.22.139-.418.345-.579.604-.162.26-.283.566-.357.9a3.6 3.6 0 0 0-.07 1.037c.027.35.105.686.228.987s.29.56.486.759c.197.2.42.334.657.395.235.062.477.049.709-.039.231-.087.448-.246.634-.466.853-1.39-.105-5.002-1.708-4.176M18.143 37.034c.081.165.049-.054-.521 3.45a.22.22 0 0 1-.06.127c-.031.028-.068.038-.103.027a17 17 0 0 1-1.881-1.18.7.7 0 0 1-.226-.159c-.052-.094-1.152-6.496-1.741-9.843-.036-.2.154-.402.255-.219 5.655 10.308 3.976 7.185 4.277 7.797M15.59 38.98l1.78 1.136.502-2.864-3.79-6.912zM7.391 84.344l3.386-12.646c-1.054-.017-1.713-.04-1.918-.045-.039-.003-.076-.028-.103-.07a.3.3 0 0 1-.042-.154c0-.058.015-.113.042-.154q.042-.064.103-.07h9.346q.061.006.103.07a.3.3 0 0 1 .042.154.3.3 0 0 1-.042.154c-.027.042-.064.067-.103.07q-.944.024-1.806.038l3.381 12.653c.072.266-.223.385-.294.119L16.07 71.697c-2.064.03-3.745.023-4.968.006l-3.417 12.76c-.07.266-.367.15-.295-.119M28.44 9.667c.06-.276.354-.158.296.12l-.965 4.536c-.059.274-.354.157-.295-.12zM23.257.304a.3.3 0 0 1 .005-.176.2.2 0 0 1 .037-.071.2.2 0 0 1 .052-.045.11.11 0 0 1 .12.013.2.2 0 0 1 .047.056q.02.035.03.079l2.528 14.513a.3.3 0 0 1-.018.165.18.18 0 0 1-.09.1.11.11 0 0 1-.113-.018.23.23 0 0 1-.073-.128C25.25 11.745 23.302.607 23.257.304M24.189 15.564l-2.429-3.855c-.134-.212.082-.531.216-.317l2.429 3.854c.133.212-.082.53-.216.318M33.827 85.582c2.78-1.897 5.899-2.453 8.908-1.59.83.242 1.645.58 2.437 1.012a.2.2 0 0 1 .082.096.3.3 0 0 1 .022.151.3.3 0 0 1-.048.137.14.14 0 0 1-.097.06c-5.14.575-7.115.317-11.225.552a.13.13 0 0 1-.092-.047.25.25 0 0 1-.054-.12.3.3 0 0 1 .005-.141.23.23 0 0 1 .062-.11m.852-.07c3.007-.147 7.016-.092 9.742-.422-3.183-1.514-6.625-1.365-9.742.421"/><path fill="#000" d="M.008 31.263c.06-.689.212-1.353.447-1.956.235-.602.548-1.13.922-1.555.375-.424.802-.736 1.258-.918s.933-.23 1.402-.141C2.79 22.946 5.195 18.705 8.4 19.875c-.715-4.56 2.903-8.417 5.233-4.846 1.747 2.677 2.636 8.424 2.97 12.095 2.734 1.362 4.44 3.164 6.76 5.797-.963-4.725-1.773-9.387-1.259-14.081.07-.646.153-1.447.651-1.662a.75.75 0 0 1 .624.076c.198.117.368.32.486.58.26.698.404 1.477.418 2.273q.085 1.1.082 2.206l3.812-4.53c.494-.588 1.222-1.367 1.87-.832.62.51.637 1.728.3 2.626a10 10 0 0 1-.844 1.736c.712-.498 1.73-1.012 2.412-.43.242.215.422.554.504.952s.06.827-.06 1.203c-.345 1.279-1.741 2.42-2.594 2.943.609-.08 1.215-.261 1.828-.266.697-.006 1.614.251 1.745 1.45.05.452.004.915-.13 1.327-.135.413-.35.756-.62.985a3.03 3.03 0 0 1-1.571.511c-.512.077-1.026.11-1.54.146a41 41 0 0 1 1.574 5.895q.512.335.962.828c.599.698.426 1.854-.495 2.044.34 2.765.503 6.318-.396 8.806 2.156 2.027 3.2 6.047 3.83 9.692 1.001 2.65 7.663 20.335 7.667 20.347.02.052.025.115.014.173a.23.23 0 0 1-.074.136c-.116.096 1.007-.58-11.185 5.782a.11.11 0 0 1-.098-.01.2.2 0 0 1-.074-.093c-.801-1.922-2.99-6.903-3.414-7.874a67 67 0 0 0-1.842-.626.17.17 0 0 1-.078-.081.3.3 0 0 1-.03-.135.3.3 0 0 1 .03-.135.17.17 0 0 1 .078-.082 8.6 8.6 0 0 1 1.268-.276l-.647-1.553-.96.133a.13.13 0 0 1-.093-.046.25.25 0 0 1-.055-.12l-.308-2.623c-9.703 0-10.411.103-11.995-.398-2.484-.79-4.745-2.673-6.48-5.399-1.736-2.724-2.865-6.162-3.236-9.853-.316-3.124-.031-13.276.64-17.7-2.337-.253-4.22-2.999-4.073-5.703m29.094-1.226a.32.32 0 0 1 .001-.224.2.2 0 0 1 .055-.082.12.12 0 0 1 .076-.032c.464-.023.928-.066 1.392-.11a4.8 4.8 0 0 0 1.57-.363c.777-.347 1.167-1.954.552-2.674-1.017-.92-2.521.083-3.868-.11a.13.13 0 0 1-.098-.058.3.3 0 0 1-.05-.137.3.3 0 0 1 .023-.15.18.18 0 0 1 .084-.095c.966-.432 2.492-1.55 3.06-2.665.291-.574.402-1.519-.058-1.994-.774-.797-2.389.383-3.168 1.184-.141.146-.317-.185-.185-.352a11.2 11.2 0 0 0 1.395-2.326c.39-.765.588-1.873.06-2.466-.566-.536-1.277.39-1.69.881l-3.937 4.68a.2.2 0 0 1-.052.048.1.1 0 0 1-.06.014.1.1 0 0 1-.058-.02.2.2 0 0 1-.05-.051c-.09-.142.017-.05-.087-2.359-.02-.685-.1-1.365-.236-2.021-.269-1.196-1.105-1.245-1.254-.433q-.096.517-.144 1.048c-.444 4.949.448 9.582 1.415 14.292.049.236-.145.345-.256.218q-.39-.446-.783-.887a35.3 35.3 0 0 1-1.992 6.114c1.395-2.052 2.332-3.5 3.983-4.024 1.997-.65 4.083-.33 5.945.91a40.4 40.4 0 0 0-1.585-5.756m2.897 8.04c.372-.73-.927-1.57-1.5-1.923-1.745-1.142-3.69-1.449-5.561-.879-1.372.399-2.079 1.275-3.085 2.69-2.037 2.857-3.882 5.94-5.724 8.953a.2.2 0 0 1-.059.053.1.1 0 0 1-.069.01.13.13 0 0 1-.064-.036.2.2 0 0 1-.048-.073c-.421-1.212-.838-2.429-1.323-3.588-2.018 3.894-3.988 7.218-6.291 10.953 1.246 1.928 2.731 3.49 4.376 4.601 1.314.81 2.751 1.092 4.164.818q.679-.064 1.346-.263c1.435-.504 2.76-1.534 3.851-2.993 2.41-3.113 2.678-4.438 4.689-11.676-.845-.306-1.625-.91-2.276-1.758-.152-.184.066-.5.217-.317q.454.56.965.997c.69.587 1.485.853 2.28.761a.5.5 0 0 0 .225-.124.8.8 0 0 0 .17-.25 1.207 1.207 0 0 0 .068-.683c-.135-.625-.385-1.182-.722-1.61-.354-.58-.703-1.164-1.061-1.737a.308.308 0 0 1-.009-.292.16.16 0 0 1 .09-.082.11.11 0 0 1 .104.022 23 23 0 0 0 2.338 1.695c.252.171.526.263.802.27.408-.005.867-.523.692-1.178a2.5 2.5 0 0 0-.454-.823 10.8 10.8 0 0 0-2.132-2.223c-.15-.117-.046-.5.117-.41 2.289 1.233 2.676 1.537 3.25 1.492a.62.62 0 0 0 .344-.1.94.94 0 0 0 .287-.294zm-.788.84a4.7 4.7 0 0 1-1.797-.753q.5.532.95 1.154c.206.253.375.566.495.919a1.9 1.9 0 0 1-.038 1.053 1.4 1.4 0 0 1-.229.421.85.85 0 0 1-.325.25c-.565.31-1.17-.117-1.681-.453a23 23 0 0 1-1.217-.87c.438.614.824 1.304 1.148 2.055.338.87.086 2.114-.643 2.169-.29.055-.585.044-.874-.034-.199.726-.416 1.44-.626 2.159 1.874-.797 3.308-.485 4.48.486.855-2.365.685-5.909.355-8.553zm5.07 39.33c-2.82-2.644-6.177-3.774-9.5-3.2 2.942.977 6.806 2.51 9.499 3.201zm-8.725-3.765c3.37-.29 6.706 1.105 9.465 3.959.148.088.068.465-.09.424-2.803-.673-6.018-1.892-8.715-2.858l3.182 7.338 10.868-5.617c-.222-.598-6.156-16.347-7.056-18.725.615 4.098 1.084 9.152 1.332 12.384.01.128-.08.214-.153.224l-9.481 1.309zm-1.826-1.846 10.488-1.454c-.226-2.894-.52-5.743-.837-8.556-.673-5.95-1.911-14.088-5.918-15.483-1.084-.275-2.198-.147-3.24.372-.985 3.452-1.429 5.764-3.467 8.506 1.079.579 1.112.549 1.14.696.272 2.565 1.784 15.513 1.833 15.923zm-11.753-2.955c1.067.216 1.017.223 11.118.173a3559 3559 0 0 1-1.482-12.913l-1.111-.582c-1.068 1.478-2.344 2.594-3.737 3.27-1.534.604-3.906.854-5.589-.013-1.606-.86-3.073-2.198-4.31-3.93-1.763-.014-3.51-.489-5.16-1.402.336 3.859 1.521 7.45 3.375 10.23 1.853 2.78 4.274 4.594 6.895 5.169zM3.67 53.791c1.554.872 3.196 1.357 4.859 1.438-2.1-2.959-3.73-6.562-4.771-10.553a104 104 0 0 0-.09 9.118zm.194-11.062c-.05.788-.226.583.581 3.264.887 2.927 2.112 5.607 3.621 7.921 1.828-2.913 4.411-7.316 6.331-11.035-1.547-3.544-3.158-6.425-5.512-8.549a.24.24 0 0 1-.071-.137.3.3 0 0 1 .016-.17.18.18 0 0 1 .093-.104.11.11 0 0 1 .116.023c1.88 1.7 3.482 3.989 4.69 6.702a40 40 0 0 1 2.325 5.724c4.559-7.462 3.29-5.07 4.222-7.173.294-.665.52-1.31 1.215-3.19.422-1.117.747-2.307.967-3.543-2.478-2.99-5.415-5.049-8.557-5.996-4.222-1.382-7.17.741-9.023 8.1a51 51 0 0 0-1.015 8.165zm.286-6.218a34 34 0 0 1 .853-3.602c.468-1.687 1.152-3.228 2.014-4.54 2.54-3.764 5.854-3.05 9.265-1.404-.42-4.26-1.69-12.622-4.572-12.884-2.006-.182-3.647 3.11-2.942 6.047a.3.3 0 0 1 0 .117.3.3 0 0 1-.04.1.16.16 0 0 1-.07.059.1.1 0 0 1-.078 0 2.7 2.7 0 0 0-1.585-.254c-.534.08-1.05.326-1.516.72a3.7 3.7 0 0 0-.874 1.146 5.4 5.4 0 0 0-.5 1.559 6.3 6.3 0 0 0-.042 1.72c.065.572.208 1.119.42 1.608.08.165-.051.38-.173.332-.699-.235-1.431-.131-2.087.296-.655.427-1.199 1.155-1.549 2.074-1.216 3.136.869 6.666 3.475 6.908z"/><path fill="#000" d="M16.944 31.471a52 52 0 0 1 2.454 5.322.3.3 0 0 1 .015.17.3.3 0 0 1-.026.08.2.2 0 0 1-.044.057.13.13 0 0 1-.057.029.1.1 0 0 1-.06-.005.14.14 0 0 1-.053-.039.2.2 0 0 1-.04-.065 69 69 0 0 0-2.453-5.322c-.12-.23.146-.453.264-.227M30.294 48.81c.175.133.02.518-.154.387l-1.239-.925c-.175-.133-.02-.518.155-.387zM14.936 57.728h1.972c.039.003.076.028.102.07a.3.3 0 0 1 .043.154.3.3 0 0 1-.043.155c-.026.042-.063.066-.102.07h-1.972q-.061-.007-.103-.07a.3.3 0 0 1-.042-.154c0-.058.015-.114.042-.155q.042-.064.103-.07M24.76 23.831c.397.92.632 1.968.686 3.053.485.34.921.808 1.288 1.382.136.212-.081.532-.215.318a5.2 5.2 0 0 0-1.335-1.405.22.22 0 0 1-.027-.148 8.6 8.6 0 0 0-.66-2.973c-.12-.232.146-.457.264-.227M25.256 39.688a7 7 0 0 0-1.312-.23c-.196-.015-.197-.466 0-.45q.703.056 1.394.247c.192.054.11.49-.082.433M26.745 37.05a9.5 9.5 0 0 0-1.358-.233c-.195-.02-.197-.465 0-.45q.724.073 1.442.25c.191.048.109.481-.084.433"/><path fill="#fff" stroke="#000" d="m47.895 61.556.39.462c.104-.178.569-.995 1.133-1.987.578-1.016 1.26-2.215 1.766-3.1l-.223-.417.325.112c.025-.151.01-.303-.026-.432a.8.8 0 0 0-.162-.313l-.005-.006v.002a.6.6 0 0 0-.108-.1.4.4 0 0 0-.21-.076h-.001l-.447-.026-3.466-4.246-2.185-2.677-.126-.697-.003-.015a1 1 0 0 0-.1-.277.8.8 0 0 0-.157-.2.5.5 0 0 0-.201-.102.35.35 0 0 0-.225.03l.15.552.01.028-.003-.003-.029-.03.025.08.008.024-.047-.058-.351-.31a.637.637 0 0 0-.025.068c-.046.154-.031.3-.028.334v.003q.014.119.06.374l.017.093c-.534.916-1.59 2.726-2.199 3.777a4 4 0 0 0-.41.072.36.36 0 0 0-.218.111l.242.485.04.05.012.014.263.325.285-.493c1.08-.096 2.228.24 3.317.978q.447.316.842.775l-.236.405.143.201.12.17.017.02.17.216.242-.413a10.3 10.3 0 0 1 1.307 2.855c.233.813.37 1.645.404 2.46l-.331.577.26.328-.01-.003-.02-.005zm0 0 .02.004.008.001"/><path fill="#fff" stroke="#000" d="m47.996 61.858-.245.232-.237-.292-6.478-7.979-.188-.232.042-.34.001-.012.017-.123.056-.368.26-.049c1.286-.243 2.713.217 4.026 1.266l.004.004q.338.276.643.636l.013-.021.294.41.16.206-.007.011a10.8 10.8 0 0 1 1.367 2.833c.347 1.1.52 2.242.493 3.328l-.006.266-.144.154-.065.064z"/></svg>