<svg xmlns="http://www.w3.org/2000/svg" width="59" height="88" fill="none"><path fill="#000" d="M26.908 17.96c1.956-2.52 5.621-1.982 7.693.25a12.6 12.6 0 0 1 2.522 4.26c.851 2.328 1.584 5.123 1.849 5.662 1.578 2.674 3.877 4.75 6.58 5.938 1.59.684 3.282 1.03 4.688 2.156 1.313 1.05 2.263 2.554 2.696 4.267a4.65 4.65 0 0 1-.064 2.595 4.27 4.27 0 0 1-1.426 2.078c1.44.555 2.642 1.67 3.378 3.13 1.164 2.675-.279 5.198-2.347 5.324a7.3 7.3 0 0 1 1.502 2.806c.163.582.182 1.2.053 1.793a3.5 3.5 0 0 1-.785 1.576 3.3 3.3 0 0 1-1.365.732c-.5.127-1.02.129-1.52.004-.063-.01-.126-.027-.189-.04-.235-1.338-2.263-12.059-2.632-13.69-1.414-6.232-4.04-12.849-8.817-16.636a14.24 14.24 0 0 0-5.96-2.811 13.64 13.64 0 0 0-6.49.235c-.131.038-.482.144-.61.198-.071-4.248-.507-7.572 1.244-9.827m.753 5.042c.18.811.623 1.524 1.246 2.008a2.98 2.98 0 0 0 2.145.627 3.18 3.18 0 0 0 2.1-1.118c.55-.642.865-1.482.883-2.361a3.2 3.2 0 0 0-.506-1.962 2.76 2.76 0 0 0-1.537-1.157 3.9 3.9 0 0 0-2.815.252 3.23 3.23 0 0 0-1.338 1.573 3.6 3.6 0 0 0-.177 2.138"/><path fill="#FFD2D2" d="M29.174 19.29a3.4 3.4 0 0 1 2.231-.38 3.58 3.58 0 0 1 2.014 1.114c.333.51.537 1.108.591 1.732a3.85 3.85 0 0 1-.284 1.823c-.24.57-.614 1.06-1.084 1.421a3.1 3.1 0 0 1-1.59.637 2.98 2.98 0 0 1-2.145-.627 3.5 3.5 0 0 1-1.245-2.008 3.6 3.6 0 0 1 .176-2.137 3.23 3.23 0 0 1 1.336-1.574M1.853 12.163c-.134 1.441.512 2.981 1.859 3.071.456-.03.896-.193 1.274-.473.377-.28.679-.666.872-1.118.113.368.318.694.591.942.274.248.606.407.958.46.353.052.712-.004 1.036-.162.325-.159.603-.413.802-.735a5.1 5.1 0 0 1-.282 2.363c-.173.384.354.722.528.336.825-1.832-.084-3.765.649-5.259.13-.228.314-.414.534-.537a1.27 1.27 0 0 1 1.396.098c.203.153.364.363.466.608.48 1.23.727 2.553.726 3.89.037.424.649.427.612 0-.157-1.771-.205-3.312-1.052-4.624a2 2 0 0 0-.6-.555 1.775 1.775 0 0 0-1.535-.144 1.9 1.9 0 0 0-.679.436q.065-.325.192-.625c.165-.388-.363-.726-.528-.337-.277.922-.442 1.88-.49 2.848a2.1 2.1 0 0 1-.39 1.06 1.8 1.8 0 0 1-.86.648c-.31.086-.638.038-.916-.134a1.34 1.34 0 0 1-.577-.787 6 6 0 0 1-.145-2.541c.065-.645.197-1.28.393-1.892a.36.36 0 0 0-.07-.374.3.3 0 0 0-.104-.071.28.28 0 0 0-.241.011.3.3 0 0 0-.098.082.3.3 0 0 0-.061.116 10.8 10.8 0 0 0-.476 3.6.34.34 0 0 0-.052.136c-.059.507-.264.98-.586 1.353a2.17 2.17 0 0 1-1.204.716 1.15 1.15 0 0 1-.639-.213 1.3 1.3 0 0 1-.44-.548 3.36 3.36 0 0 1-.248-1.645c.016-.43-.596-.427-.612 0 .097-.742.26-1.472.486-2.18a5.05 5.05 0 0 1 .96-1.97 2 2 0 0 1 .734-.627 1.83 1.83 0 0 1 1.81.101c.273.174.504.416.673.707.653-.787 1.56-1.267 2.53-1.342s1.93.262 2.678.94c.111-1.518.413-4.557.68-6.112.01-.424.162-.83.429-1.139.266-.309.628-.5 1.015-.535.388-.035.773.087 1.083.343s.523.628.597 1.045c.056 1.018.039 2.04-.054 3.055-.508 15.005-.134 12.297-.138 16.708 0 4.606.665 8.377 4.137 10.963-3.598 4.094-5.66 10.007-6.833 15.555C9.314 44.378 6.703 40.311 5 35.77c-2.852-7.455-3.934-15.575-3.148-23.607"/><path fill="#FFD500" d="M12.64 47.668c1.8-8.606 5.794-17.776 13.63-20.078 2.121-.6 4.338-.68 6.49-.234a14.25 14.25 0 0 1 5.961 2.81c5.507 4.366 8.145 12.436 9.441 19.735q.08.301.105.613a7.2 7.2 0 0 0-1.515-3.188 6.35 6.35 0 0 0-2.77-1.94 5.87 5.87 0 0 0-3.286-.178 6.2 6.2 0 0 0-2.93 1.633 7.2 7.2 0 0 0-1.682 2.673 7.8 7.8 0 0 0-.433 3.208c.016 1.08-.064 9.075-.085 11.989a59 59 0 0 0-3.624-7.233c-2.442-4.206-5.987-8.869-10.478-9.725a7.2 7.2 0 0 0-3.058.008 7.5 7.5 0 0 0-2.82 1.29c-1.653 1.251-2.931 3.006-3.674 5.045-.145.396-.278.793-.414 1.183a.26.26 0 0 1-.034-.152c.25-2.51.642-5.002 1.176-7.46"/><path fill="#2755A0" d="M11.015 56.766q.427-1.347.901-2.675c.656-1.795 1.724-3.375 3.103-4.587 3.312-2.847 7.486-2.308 10.881.452 4.012 3.262 7.736 10.099 9.67 14.896 0 .589-.052 8.964-.053 9.187H0V56.862zm9.116 7.105a168 168 0 0 1 3.26 9.63.33.33 0 0 0 .144.202c.07.043.154.055.232.031a.31.31 0 0 0 .185-.157.36.36 0 0 0 .029-.253 167 167 0 0 0-3.261-9.63c-.147-.393-.738-.22-.59.177m-3.722-11.584 1.794-.689c.37-.142.21-.786-.163-.643l-1.795.688c-.37.14-.21.785.162.644zm-7.001 15.17a25.4 25.4 0 0 0 1.38 5.938.33.33 0 0 0 .142.203c.07.044.154.056.232.033a.3.3 0 0 0 .186-.156.36.36 0 0 0 .03-.253c-1.77-5.312-2.133-9.587-.09-15.623.138-.404-.46-.575-.59-.177a23.2 23.2 0 0 0-1.292 10.035z"/><path fill="#2755A0" d="M20.72 63.694q1.774 4.755 3.261 9.63a.36.36 0 0 1-.029.253.31.31 0 0 1-.184.157.28.28 0 0 1-.233-.031.33.33 0 0 1-.144-.202 169 169 0 0 0-3.26-9.63c-.148-.396.442-.57.59-.177"/><path fill="#FFD2D2" d="M32.102 77.462c.694 0 1.387-.016 2.08-.035.426-.012.862-.042 1.292-.025.025-1.12.198-23.604.181-24.684a9.6 9.6 0 0 1 .467-3.308 7 7 0 0 1 1.354-2.287 6.4 6.4 0 0 1 2.058-1.54 5.9 5.9 0 0 1 2.443-.554c.84-.006 1.673.17 2.45.517a6.55 6.55 0 0 1 2.496 1.994 7.35 7.35 0 0 1 1.365 3.03c1.697 8.188 3.506 19.585 4.665 26.992a7.9 7.9 0 0 1 4.215.297c2.355.902 2.234 3.342.799 3.872-.734.217-.791.154-4.316.233.643 3.247 1.398 4.133.806 5.195a1.6 1.6 0 0 1-.89.746c-.37.12-.769.088-1.119-.092a5.7 5.7 0 0 1-1.152-.998c-2.53-2.447-4.983-5.758-6.1-4.548-.655.934-1.042 3.19-1.829 4.838-.127.325-.357.59-.649.746a1.25 1.25 0 0 1-.938.1 2.34 2.34 0 0 1-.97-.672 2.64 2.64 0 0 1-.562-1.094c-.333-1.336-.424-3.333-.919-3.907a3.08 3.08 0 0 0-2.088-.387c-.977.032-4.582.174-5.405.175a2 2 0 0 1-1.308-.483 2.32 2.32 0 0 1-.75-1.264 2.8 2.8 0 0 1 .083-1.07c.098-.347.262-.666.483-.937.22-.27.49-.486.794-.633s.632-.22.964-.217m11.133 1.247q.583.487 1.089 1.07c.272.31.705-.163.432-.473a10.6 10.6 0 0 0-1.215-1.174c-.313-.259-.616.32-.306.577m5.882-.216 1.64.99c.345.207.653-.37.308-.576l-1.64-.991c-.344-.207-.653.37-.308.577m-.867-16.274c-.3-.952-.519-1.93-.656-2.925-.06-.423-.647-.243-.59.177.138.995.358 1.974.657 2.925.127.404.718.23.59-.178"/><path fill="#FF4848" d="M1.853 12.163c.017-.427.628-.43.612 0a3.35 3.35 0 0 0 .252 1.644 1.3 1.3 0 0 0 .44.549c.192.134.414.207.64.211A2.17 2.17 0 0 0 5 13.85c.321-.372.526-.845.585-1.352a.3.3 0 0 1 .052-.136 10.7 10.7 0 0 1 .476-3.6.3.3 0 0 1 .06-.116.3.3 0 0 1 .099-.082.286.286 0 0 1 .345.06q.045.049.07.11a.36.36 0 0 1 0 .264 9.3 9.3 0 0 0-.393 1.892 6 6 0 0 0 .145 2.541c.092.334.299.616.577.787s.606.22.915.133c1.803-.636 1.03-2.899 1.746-4.551.168-.389.693-.05.527.336q-.126.301-.191.626a1.9 1.9 0 0 1 .679-.43 1.79 1.79 0 0 1 1.533.143c.233.137.438.324.602.55.846 1.311.891 2.822 1.051 4.623.038.427-.573.425-.612 0 .001-1.336-.246-2.66-.726-3.89a1.46 1.46 0 0 0-.466-.607 1.267 1.267 0 0 0-1.396-.098c-.22.123-.404.309-.534.537-.726 1.486.175 3.433-.649 5.26-.173.385-.7.047-.528-.338a5.1 5.1 0 0 0 .282-2.362c-.199.322-.477.576-.801.734a1.76 1.76 0 0 1-1.036.162 1.83 1.83 0 0 1-.958-.46 2.1 2.1 0 0 1-.592-.941 2.7 2.7 0 0 1-.872 1.118c-.378.28-.819.444-1.275.473-1.347-.09-1.997-1.649-1.862-3.073"/><path fill="#2755A0" d="m18.201 51.598-1.794.689c-.372.142-.533-.503-.163-.644l1.794-.688c.373-.143.532.502.163.643"/><path fill="#FF4848" d="m49.426 77.917 1.64.99c.345.208.036.785-.309.578l-1.64-.991c-.344-.208-.036-.785.31-.577M43.543 78.132q.651.534 1.215 1.174c.273.31-.16.784-.432.473a9.6 9.6 0 0 0-1.089-1.07c-.311-.257-.008-.836.306-.577M47.594 59.294c.136.994.356 1.973.656 2.925.128.407-.462.581-.59.177-.299-.951-.519-1.93-.657-2.925-.057-.42.532-.6.59-.177"/><path fill="#2755A0" d="M10.699 57.422a.4.4 0 0 1 .066-.119.3.3 0 0 1 .104-.08c.216-.098.521.076.419.377-2.03 5.99-1.699 10.262.09 15.622a.36.36 0 0 1-.03.254.3.3 0 0 1-.185.156.28.28 0 0 1-.233-.034.33.33 0 0 1-.142-.202 26.3 26.3 0 0 1-1.38-5.938 23.2 23.2 0 0 1 1.29-10.036"/></svg>