<svg xmlns="http://www.w3.org/2000/svg" width="79" height="91" fill="none"><path fill="#FFD500" d="M.74 37.065C.74 8.293.65 9.253.893 8.132a4.85 4.85 0 0 1 1.83-2.602 5.4 5.4 0 0 1 3.14-1.022h32.661a5.45 5.45 0 0 1 2.07.335 5.2 5.2 0 0 1 1.754 1.084c.498.47.888 1.033 1.144 1.651s.373 1.28.344 1.943v28.374c.013.678-.121 1.35-.395 1.977a5 5 0 0 1-1.198 1.67 5.4 5.4 0 0 1-1.805 1.086 5.6 5.6 0 0 1-2.117.327c-34.661-.439-32.469.05-33.32-.09a5.33 5.33 0 0 1-2.968-1.591 4.75 4.75 0 0 1-1.287-2.97c-.028-.41-.006-.827-.006-1.239"/><path fill="#FFF0B3" d="M6.076 44.182h31.377c1.406-.109 2.82.076 4.14.541a9.6 9.6 0 0 1 3.496 2.149 18.4 18.4 0 0 1 2.493 3.498c.022.078-.027-.115-.258-.134H36.86a27 27 0 0 0-2.573-2.37c-2.878-2.349-5.702-2.285-7.417-1.007a10 10 0 0 0-1.176 1.312c-.123.066-.062.016-.917.358a7.8 7.8 0 0 0-2.024.99q-.404.33-.739.72h-17.2a.3.3 0 0 0-.138.037.3.3 0 0 0-.104.093.26.26 0 0 0-.018.261c-.397-.636-.79-1.276-1.194-1.909-.3-.451-.464-.97-.476-1.501a2.83 2.83 0 0 1 .404-1.52 3.1 3.1 0 0 1 1.173-1.116 3.34 3.34 0 0 1 1.615-.402"/><path fill="#FFC431" d="M4.812 50.236h17.2q-.218.255-.382.542c-.777 1.158.298 2.631 2.057 2.361a5.6 5.6 0 0 0-.744 1.047 3.25 3.25 0 0 0-.508 2.15c.046.321.2.62.439.852.239.233.551.389.891.443a3.4 3.4 0 0 0 2.112-.826 7.8 7.8 0 0 0 1.35-1.18 32.8 32.8 0 0 0 6.036 7.823H18.77c-1.704 0-3.383-.377-4.901-1.102a10.64 10.64 0 0 1-3.834-3.067c-.743-.976-4.796-7.599-5.475-8.637a.26.26 0 0 1 .004-.27.3.3 0 0 1 .105-.098.3.3 0 0 1 .143-.038M47.326 50.236q.081.007.15.046a.3.3 0 0 1 .112.105c.055.072-.073-.126 1.31 2.084-.23.193-1.62 1.404-1.677 1.485-.192.115-1.548 1.488-2.513 2.28-.451.374-1.03.585-1.633.593-2.27-.28-2.206-2.417-6.214-6.595 13.836-.003 9.699-.058 10.465.002"/><path fill="#2755A0" d="M21.95 20.339c.699-1.193 2.396-3.858 2.501-4.023a.3.3 0 0 1 .106-.096.3.3 0 0 1 .287 0q.066.035.106.096a496 496 0 0 1 2.5 4.023.26.26 0 0 1-.002.272.3.3 0 0 1-.106.1.3.3 0 0 1-.145.036h-5a.3.3 0 0 1-.14-.042.3.3 0 0 1-.1-.1.27.27 0 0 1-.006-.266M15.474 20.339c.698-1.193 2.395-3.859 2.5-4.023a.3.3 0 0 1 .106-.096.31.31 0 0 1 .393.096q1.258 2.007 2.5 4.023a.26.26 0 0 1-.002.27.3.3 0 0 1-.105.1.3.3 0 0 1-.143.037h-4.997a.3.3 0 0 1-.141-.04.3.3 0 0 1-.104-.099.27.27 0 0 1-.007-.268"/><path fill="#FF4848" d="M22.37 23.773h3.869c.076.001.149.03.203.08.053.051.084.12.085.19v3.627a.27.27 0 0 1-.085.19.3.3 0 0 1-.203.081c-4.13.027-3.976.04-4.086-.097-.106-.105-.101.071-.072-3.8 0-.071.031-.14.085-.19a.3.3 0 0 1 .204-.081"/><path fill="#2755A0" d="M13.55 27.799c.699-1.193 2.396-3.858 2.501-4.022a.3.3 0 0 1 .106-.097.306.306 0 0 1 .393.097 497 497 0 0 1 2.5 4.022.26.26 0 0 1-.002.27.3.3 0 0 1-.105.1.3.3 0 0 1-.143.037h-5a.3.3 0 0 1-.14-.041.3.3 0 0 1-.102-.1.27.27 0 0 1-.007-.266"/><path fill="#000" d="m28.38 23.645 3.925 3.678a.26.26 0 0 1-.012.372.302.302 0 0 1-.397.011 160 160 0 0 1-3.924-3.678.26.26 0 0 1-.075-.189.26.26 0 0 1 .085-.185.3.3 0 0 1 .4-.009M28.381 9.56l3.924 3.679c.053.05.082.12.081.19 0 .072-.03.14-.085.19a.3.3 0 0 1-.202.079.3.3 0 0 1-.203-.076 156 156 0 0 1-3.923-3.68.26.26 0 0 1-.076-.188.26.26 0 0 1 .085-.185.3.3 0 0 1 .399-.009M28.38 16.63a160 160 0 0 1 3.925 3.679.26.26 0 0 1-.012.372.302.302 0 0 1-.397.011 160 160 0 0 1-3.924-3.678.26.26 0 0 1-.075-.19.26.26 0 0 1 .085-.185.3.3 0 0 1 .4-.009"/><path fill="#FF4848" d="M39.73 9.807v3.886a.26.26 0 0 1-.089.183.3.3 0 0 1-.199.074.3.3 0 0 1-.199-.074.26.26 0 0 1-.09-.183V9.807a.26.26 0 0 1 .09-.182.3.3 0 0 1 .199-.075.3.3 0 0 1 .2.075.26.26 0 0 1 .089.182M39.73 16.957v3.886a.26.26 0 0 1-.089.182.3.3 0 0 1-.199.075.3.3 0 0 1-.199-.075.26.26 0 0 1-.09-.182v-3.886a.26.26 0 0 1 .09-.183.3.3 0 0 1 .199-.074.3.3 0 0 1 .2.074.26.26 0 0 1 .089.183M39.73 24.029v3.886a.26.26 0 0 1-.089.183.3.3 0 0 1-.199.074.3.3 0 0 1-.199-.074.26.26 0 0 1-.09-.183V24.03a.26.26 0 0 1 .09-.183.3.3 0 0 1 .199-.074.3.3 0 0 1 .2.074.26.26 0 0 1 .089.183M39.73 31.075v3.886a.26.26 0 0 1-.089.182.3.3 0 0 1-.199.075.3.3 0 0 1-.199-.075.26.26 0 0 1-.09-.182v-3.886a.26.26 0 0 1 .09-.183.3.3 0 0 1 .199-.074.3.3 0 0 1 .2.074.26.26 0 0 1 .089.183"/><path fill="#2755A0" d="M26.165 68.625c.809.085 18.275 1.808 20.34 2.001-3.476 4.946-7.124 10.117-9.96 14.202h-10.38a.3.3 0 0 1-.203-.08.27.27 0 0 1-.085-.19c-.101-11.494-.068-14.594-.024-15.444.013-.25.043-.536.312-.49M56.788 77.657c.143.486.32.964.458 1.446.23.89.59 1.746 1.07 2.544a7 7 0 0 0 2.621 2.334 7.56 7.56 0 0 0 3.502.842c-.129.012 1.147.005-10.109.005.622-2.109 1.492-4.658 2.458-7.17"/><path fill="#000" d="M18.41 68.363c2.918 3.127 4.827 6.968 5.505 11.074.29 1.84.27 3.826-.994 5.362a.31.31 0 0 1-.406 0 .3.3 0 0 1-.077-.12c-.153-.532-4.511-16.043-4.511-16.056-.07-.246.286-.472.482-.26M31.931 90.54c2.531-1.972 5.913-2.495 9.115-2.458a31.6 31.6 0 0 1 10.781 2.028c.066.019.121.06.158.114a.26.26 0 0 1-.05.347.3.3 0 0 1-.184.07c-.65.017-19.603.359-19.615.359a.3.3 0 0 1-.156-.048.3.3 0 0 1-.104-.12.26.26 0 0 1 .055-.292"/><path fill="#FF4848" d="M47.23 53.943c2.064-1.886 6.216-5.6 9.104-5.52a5.56 5.56 0 0 1 2.576.573c3.318 1.638 7.615 5.63 10.288 11.254a34.8 34.8 0 0 1 2.564 7.406c.517 2.752.734 5.547.649 8.34a4.5 4.5 0 0 1 0 .762 20.5 20.5 0 0 0-.672-4.851c-1.057-4.118-2.338-6.431-4.413-8.888-2.074-2.458-5.222-4.234-8.549-3.776-2.21.303-3.741 1.6-5.29 3.06-1.805-2.647-3.477-5.773-5.872-8.338a.301.301 0 0 0-.393-.01z"/><path fill="#FC9070" d="M23.003 53.153c-.291-.01-.574-.09-.822-.234a1.6 1.6 0 0 1-.588-.586 1.49 1.49 0 0 1 .04-1.555c.29-.48.668-.907 1.117-1.263a11.6 11.6 0 0 1 2.917-1.33c.535-.562.972-1.517 2.485-1.975a5.3 5.3 0 0 1 3.058-.011 9 9 0 0 1 3.07 1.667 29.7 29.7 0 0 1 5.024 5.257c1.498 2.007 2.017 3.491 3.763 3.706a2.62 2.62 0 0 0 1.633-.593c.813-.666 2.392-2.207 2.513-2.28a.3.3 0 0 1 .393.01c2.4 2.57 4.048 5.662 5.87 8.337a40 40 0 0 0-3.152 3.422c-4.793 2.067-10.638 2.007-15.09-.789-3.386-2.127-6.044-5.957-8.012-9.308-.4.441-.853.837-1.35 1.18a3.4 3.4 0 0 1-2.111.827 1.65 1.65 0 0 1-.892-.443 1.48 1.48 0 0 1-.439-.852 3.25 3.25 0 0 1 .509-2.15c.825-1.488 1.14-.924.064-1.037"/><path fill="#FF4848" d="M30.051 47.979a4.88 4.88 0 0 0-2.77.403c-.346.127-.496-.396-.152-.522a5.3 5.3 0 0 1 3.076-.403c.365.058.21.58-.154.522M27.843 51.706a7.7 7.7 0 0 0-2.041.756.3.3 0 0 1-.216.023.3.3 0 0 1-.172-.124.26.26 0 0 1-.032-.201.27.27 0 0 1 .128-.166 7.4 7.4 0 0 1 2.18-.811c.362-.075.517.447.153.523"/><path fill="#2755A0" d="M35.518 86.295c.348-.484 10.858-15.498 10.985-15.669a72 72 0 0 1 6.818-8.172c1.922-1.84 3.729-3.308 6.488-3.29 3.012.02 5.68 1.68 7.515 3.851a19.4 19.4 0 0 1 4.13 7.826c.962 3.36 1.662 7.963-.22 10.95a6.3 6.3 0 0 1-1.995 1.944c-.81.501-1.73.827-2.69.953-2.99.423-4.931-.147-6.447-1.218-1.622-1.147-2.315-2.477-2.853-4.373-.138-.481-.314-.96-.46-1.445-1.624 4.22-2.357 6.82-2.937 8.846a.27.27 0 0 1-.103.144.3.3 0 0 1-.175.056H35.767a.3.3 0 0 1-.141-.038.3.3 0 0 1-.104-.098.26.26 0 0 1-.004-.267"/><path fill="#FF4848" d="M44.67 65.594h-2.728a.3.3 0 0 1-.195-.084.26.26 0 0 1-.08-.187c0-.07.03-.136.08-.186s.121-.08.195-.085h2.728a.3.3 0 0 1 .194.084c.051.05.08.118.08.187 0 .07-.029.136-.08.187a.3.3 0 0 1-.194.084"/><path fill="#FC9070" d="M52.893 42.367a2.7 2.7 0 0 1 1.16-.71 2.86 2.86 0 0 1 1.38-.074c.46.088.887.287 1.24.578.351.29.616.663.768 1.079a2.11 2.11 0 0 1-.237 1.789c-.169.266-.395.497-.664.678-.27.18-.575.307-.9.37a3 3 0 0 1-1.549-.156 2.83 2.83 0 0 1-1.23-.896 2.02 2.02 0 0 1-.489-1.335c.006-.484.19-.951.521-1.323"/><path fill="#000" d="M50.18 37.454c.105-1.343 1.826-1.798 3.118-1.166a7.33 7.33 0 0 1 2.83 3.01c.305.52.65 1.015.96 1.53a.26.26 0 0 1 0 .27.3.3 0 0 1-.106.1.3.3 0 0 1-.143.038 37 37 0 0 1-2.516-.206 7 7 0 0 1-1.904-.47 3.65 3.65 0 0 1-1.607-1.245 3.3 3.3 0 0 1-.632-1.861M36.463 25.956 33.52 23.82a.26.26 0 0 1-.084-.192c0-.071.03-.14.084-.191a.3.3 0 0 1 .204-.078c.076 0 .15.028.204.078 0 0 3.099 2.235 3.2 2.32.229.23-.008.4-.185.529l-3.019 2.188a.3.3 0 0 1-.204.076.3.3 0 0 1-.204-.076.26.26 0 0 1-.084-.192c0-.072.03-.14.084-.191q1.479-1.068 2.947-2.136M36.463 18.899l-2.943-2.136a.26.26 0 0 1-.085-.19c0-.073.03-.142.085-.192a.3.3 0 0 1 .204-.078c.076 0 .15.028.204.078.96.695 3.099 2.235 3.2 2.32.229.229-.008.4-.185.529l-3.019 2.187a.3.3 0 0 1-.204.077.3.3 0 0 1-.204-.077.26.26 0 0 1-.084-.191c0-.072.03-.141.084-.192zM36.463 11.68 33.52 9.546a.26.26 0 0 1-.085-.191c0-.072.03-.14.085-.192a.3.3 0 0 1 .204-.077c.076 0 .15.028.204.077.96.696 3.099 2.236 3.2 2.321.229.228-.008.4-.185.529L33.924 14.2a.3.3 0 0 1-.205.076.3.3 0 0 1-.204-.076.27.27 0 0 1-.085-.192q0-.053.022-.103a.3.3 0 0 1 .063-.088zM7.01 25.622l3.015-2.188a.3.3 0 0 1 .204-.076c.076 0 .149.027.204.076.054.05.085.12.085.192s-.03.14-.085.191L7.49 25.952l2.944 2.136c.054.05.085.12.085.191s-.03.141-.085.192a.3.3 0 0 1-.204.077.3.3 0 0 1-.204-.077s-3.098-2.235-3.2-2.321c-.226-.226.008-.397.185-.528M9.747 19.094c-.23-.229.008-.4.185-.528l3.015-2.188a.3.3 0 0 1 .204-.076c.076 0 .149.027.204.076.054.051.084.12.084.192 0 .071-.03.14-.084.191l-2.943 2.135 2.944 2.138c.055.05.085.12.085.192s-.03.14-.085.191a.3.3 0 0 1-.204.077.3.3 0 0 1-.204-.077c-.96-.698-3.1-2.237-3.2-2.323M16.612 11.68l2.944 2.136c.054.05.084.12.084.191s-.03.141-.084.192a.3.3 0 0 1-.204.077.3.3 0 0 1-.204-.077c-.96-.696-3.099-2.235-3.2-2.32-.23-.23.008-.402.185-.53l3.015-2.187a.3.3 0 0 1 .204-.076c.076 0 .149.027.204.076.054.051.084.12.084.192 0 .071-.03.14-.084.191z"/><path fill="#CCEAFF" d="M23.283 9.392a2.6 2.6 0 0 1 1.518-.05c.499.135.939.416 1.256.801a2.2 2.2 0 0 1 .506 1.343c.013.486-.141.964-.438 1.363-.297.4-.722.7-1.214.856a2.6 2.6 0 0 1-1.519.018 2.44 2.44 0 0 1-1.235-.828 2.2 2.2 0 0 1-.474-1.353c-.001-.469.152-.927.438-1.312a2.42 2.42 0 0 1 1.162-.838"/><path fill="#000" d="M43.818 1.68c1.585.864 2.854 2.157 3.64 3.71.163.31-.336.586-.498.272a8.73 8.73 0 0 0-3.433-3.516.27.27 0 0 1-.124-.165.26.26 0 0 1 .032-.2.3.3 0 0 1 .17-.123.3.3 0 0 1 .213.02zM44.296.032c2.139.936 3.844 2.565 4.804 4.587.153.316-.349.592-.499.274-.913-1.94-2.547-3.503-4.596-4.4-.337-.145-.044-.612.291-.461M75.03 64.388a24.2 24.2 0 0 1 1.011 9.66c-.032.345-.612.349-.577 0a26.2 26.2 0 0 0-.994-9.517.26.26 0 0 1 .03-.204.3.3 0 0 1 .173-.125.3.3 0 0 1 .218.025.28.28 0 0 1 .136.16zM76.876 64.261c1.442 3.408 1.582 6.24 1.238 9.788-.033.344-.611.348-.577 0 .418-4.328-.069-6.915-1.219-9.644-.137-.325.422-.465.558-.144M43.834 9.52v28.375a4.7 4.7 0 0 1-.408 1.97 5 5 0 0 1-1.199 1.662 5.4 5.4 0 0 1-1.798 1.088 5.7 5.7 0 0 1-2.11.34c-29.2.044-32.47.05-33.321-.09a5.33 5.33 0 0 1-2.966-1.592 4.75 4.75 0 0 1-1.288-2.968C.73 38.078.601 34.695.735 10.02a9 9 0 0 1 .153-1.888 4.85 4.85 0 0 1 1.83-2.602 5.4 5.4 0 0 1 3.14-1.022h32.665a5.4 5.4 0 0 1 2.07.335 5.2 5.2 0 0 1 1.753 1.084c.499.47.888 1.033 1.144 1.651s.373 1.28.344 1.943M38.71 5.05H5.857a4.76 4.76 0 0 0-3.094 1.16 4.2 4.2 0 0 0-1.44 2.816c-.024.358-.023 29.126.021 29.526a4.3 4.3 0 0 0 1.545 2.76 4.87 4.87 0 0 0 3.109 1.101H38.36a5 5 0 0 0 1.815-.267c.58-.2 1.113-.506 1.568-.9a4.4 4.4 0 0 0 1.08-1.392 4.2 4.2 0 0 0 .43-1.675c.005-.13 0-.263 0-.394V9.483a4 4 0 0 0-.297-1.68 4.3 4.3 0 0 0-.974-1.44 4.6 4.6 0 0 0-1.495-.968 4.8 4.8 0 0 0-1.78-.346z"/><path fill="#000" d="M27.336 20.71c-.096.052.275.168-5.137.036a.3.3 0 0 1-.141-.04.3.3 0 0 1-.103-.1.27.27 0 0 1-.006-.267c.699-1.193 2.397-3.857 2.5-4.023a.3.3 0 0 1 .18-.123.3.3 0 0 1 .22.031c.097.055-.093-.215 2.6 4.115a.26.26 0 0 1-.026.303.3.3 0 0 1-.087.069m-2.638-3.72-1.997 3.215h3.995zM20.861 20.71c-.096.052.274.168-5.138.036a.3.3 0 0 1-.141-.04.3.3 0 0 1-.103-.1.26.26 0 0 1-.005-.267c.698-1.193 2.397-3.857 2.5-4.023a.3.3 0 0 1 .076-.079.3.3 0 0 1 .324-.013c.108.061-.066-.157 2.6 4.115a.26.26 0 0 1 .026.208.3.3 0 0 1-.052.095.3.3 0 0 1-.087.069m-2.639-3.72-1.997 3.215h3.995zM22.368 23.773h3.87c.075.001.148.03.202.08s.084.12.085.19v3.627a.27.27 0 0 1-.085.19.3.3 0 0 1-.203.081c-4.344.029-3.935.03-4.072-.08-.123-.124-.115.112-.086-3.817a.27.27 0 0 1 .086-.19.3.3 0 0 1 .203-.081m.29 3.626h3.287v-3.082h-3.288zM16.549 23.776l2.5 4.023a.26.26 0 0 1-.025.303.3.3 0 0 1-.087.07c-.101.053.222.034-5.138.034a.3.3 0 0 1-.14-.04.3.3 0 0 1-.103-.1.27.27 0 0 1-.006-.267l2.5-4.023a.3.3 0 0 1 .106-.096.3.3 0 0 1 .286 0q.066.035.107.096m1.748 3.888-1.998-3.213-1.998 3.213zM28.38 23.645l3.922 3.678c.05.052.078.12.076.19a.26.26 0 0 1-.085.184.3.3 0 0 1-.4.009 155 155 0 0 1-3.923-3.678.26.26 0 0 1-.081-.19c0-.072.031-.14.085-.19a.3.3 0 0 1 .202-.079.3.3 0 0 1 .203.076M31.894 13.622a154 154 0 0 1-3.924-3.68.26.26 0 0 1-.081-.19c0-.071.031-.139.085-.19a.3.3 0 0 1 .202-.078.3.3 0 0 1 .203.076l3.923 3.679c.05.051.078.119.076.188a.26.26 0 0 1-.085.186.3.3 0 0 1-.4.009M31.894 20.692a161 161 0 0 1-3.924-3.679.26.26 0 0 1-.081-.19c0-.072.03-.14.085-.19a.3.3 0 0 1 .405-.003 165 165 0 0 1 3.923 3.678c.053.052.082.12.082.191s-.031.14-.085.19a.3.3 0 0 1-.202.079.3.3 0 0 1-.203-.076M39.43 13.954a.3.3 0 0 1-.194-.079.26.26 0 0 1-.085-.182V9.807a.26.26 0 0 1 .09-.182.3.3 0 0 1 .199-.075.3.3 0 0 1 .199.075.26.26 0 0 1 .09.182v3.886a.271.271 0 0 1-.091.188.3.3 0 0 1-.208.073M39.43 21.106a.3.3 0 0 1-.195-.08.26.26 0 0 1-.084-.182v-3.887a.26.26 0 0 1 .09-.183.3.3 0 0 1 .199-.074.3.3 0 0 1 .199.074.26.26 0 0 1 .09.183v3.886a.3.3 0 0 1-.026.103.3.3 0 0 1-.066.086.3.3 0 0 1-.207.074M39.429 28.176a.3.3 0 0 1-.194-.08.26.26 0 0 1-.084-.18v-3.887a.26.26 0 0 1 .09-.183.3.3 0 0 1 .199-.074.3.3 0 0 1 .199.074.26.26 0 0 1 .09.183v3.886a.26.26 0 0 1-.093.189.3.3 0 0 1-.208.072M39.43 35.223a.3.3 0 0 1-.194-.08.27.27 0 0 1-.085-.182v-3.886a.26.26 0 0 1 .09-.182.3.3 0 0 1 .199-.075.3.3 0 0 1 .199.075.26.26 0 0 1 .09.182v3.886a.26.26 0 0 1-.092.189.3.3 0 0 1-.207.073M26.163 68.625c.808.084 18.274 1.808 20.339 2.001a113 113 0 0 1 3.828-4.901 17.75 17.75 0 0 1-8.971 1.328c-3.043-.347-5.884-1.611-8.095-3.601H18.77a11.54 11.54 0 0 1-4.894-1.117 10.8 10.8 0 0 1-3.841-3.053c-.707-.958.128.01-6.68-10.563a2.84 2.84 0 0 1-.47-1.5c-.01-.53.13-1.054.407-1.517a3.1 3.1 0 0 1 1.17-1.114 3.34 3.34 0 0 1 1.61-.405h31.378a13 13 0 0 1 3.57.37c2.86.806 4.63 2.494 6.035 4.978l.525.84.004.018c.06.08.06.086 1.31 2.084a23.8 23.8 0 0 1 5.005-3.467 5.64 5.64 0 0 1 2.502-.587 5.64 5.64 0 0 1 2.505.578C63.833 51.41 69.6 57.912 71.76 67.654c.518 2.753.735 5.547.65 8.341a10.35 10.35 0 0 1-1.182 5.801 6.3 6.3 0 0 1-1.992 1.946c-.811.501-1.731.826-2.693.951-1.223.188-1.005.137-12.219.137-.166.557-.316 1.117-.475 1.675a.27.27 0 0 1-.104.144.3.3 0 0 1-.175.056H35.765q-.077-.002-.144-.038a.3.3 0 0 1-.104-.1.26.26 0 0 1-.001-.27c.348-.485.688-.977 1.026-1.467h-10.38a.3.3 0 0 1-.202-.08.27.27 0 0 1-.086-.19V68.896a.23.23 0 0 1 .014-.108.25.25 0 0 1 .061-.092.281.281 0 0 1 .213-.072m8.693-4.61c4.27 3.036 10.557 3.61 16.298.738.612-.705 1.25-1.39 1.92-2.047-1.912-2.795-3.407-5.654-5.687-8.149-.7.646-1.381 1.32-2.115 1.936a2.94 2.94 0 0 1-1.285.74 3.1 3.1 0 0 1-1.509.036c-1.092-.427-1.982-1.21-2.506-2.205a29.6 29.6 0 0 0-4.71-5.613 15 15 0 0 0-2.824-2.157c-1.789-1.04-4.327-1.13-5.67.427-.152.18-.278.382-.432.565-.267.412-.544.43-.999.605-.406.154-.806.325-1.207.492a5.3 5.3 0 0 0-.973.517c-.586.483-1.565 1.375-1.055 2.18.535.842 1.773.544 2.523.207.273-.123.625.219.35.425a5.5 5.5 0 0 0-1.535 1.75c-.35.637-.717 1.54-.265 2.21a.87.87 0 0 0 .374.338.95.95 0 0 0 .51.086 3.1 3.1 0 0 0 1.128-.501 7.2 7.2 0 0 0 1.835-1.577.3.3 0 0 1 .107-.096.31.31 0 0 1 .391.096c2.051 3.23 4.088 6.687 7.336 8.997m-26.42-8.236c.064.084.097.143 1.196 1.903a10.1 10.1 0 0 0 3.88 3.838 11 11 0 0 0 5.443 1.389h13.718a36 36 0 0 1-5.445-7.282c-.4.44-.854.836-1.35 1.18a3.4 3.4 0 0 1-2.112.826 1.65 1.65 0 0 1-.892-.442 1.48 1.48 0 0 1-.438-.852 3.25 3.25 0 0 1 .508-2.15q.31-.564.744-1.048c-1.759.27-2.837-1.2-2.057-2.361 0 0-15.905.003-16.316 0l3.132 5.005zm37.506-6.957a8.57 8.57 0 0 0-3.224-3.001 9.3 9.3 0 0 0-4.39-1.098c-.146 0-32.003-.022-32.6.016a2.67 2.67 0 0 0-1.622.81 2.37 2.37 0 0 0-.653 1.612c0 .9.65 1.68 1.115 2.424l.407.65H22.01q.335-.39.738-.72a7.8 7.8 0 0 1 2.024-.99c.282-.11.918-.35.918-.35q.519-.714 1.18-1.316a5 5 0 0 1 2.088-.825 5.1 5.1 0 0 1 2.26.165 9 9 0 0 1 3.069 1.667 25 25 0 0 1 2.572 2.37s9.554-.02 9.96-.017zm1.224 1.956H37.35a29 29 0 0 1 2.991 3.816c.31.496.668.965 1.07 1.399.428.459 1.02.756 1.664.836a2.57 2.57 0 0 0 1.633-.593c.841-.673 2.343-2.185 2.57-2.316a.3.3 0 0 0-.057.036c.052-.072 1.163-1.044 1.241-1.11-.416-.661-.992-1.583-1.296-2.065zm9.067-1.824a4.3 4.3 0 0 0-1.847.43 13.3 13.3 0 0 0-2.112 1.182 38 38 0 0 0-4.449 3.591c2.341 2.547 3.997 5.622 5.687 8.12 1.522-1.442 3.125-2.754 5.26-3.032l.235-.156c1.434-.988 2.41-2.454 2.725-4.096.406-2.57-2.617-6.029-5.498-6.039zm13.38 13.684c-1.718-4.685-4.813-8.82-8.928-11.928 1.032 1.061 1.623 2.435 1.666 3.87a6.4 6.4 0 0 1-.785 2.529 6.8 6.8 0 0 1-1.758 2.054c3.116.04 5.83 1.805 7.514 3.85 2.201 2.593 3.714 5.64 4.414 8.888a28.3 28.3 0 0 0-2.121-9.263zm-8.008 21.648a7 7 0 0 1-3.295-2.64 9.6 9.6 0 0 1-1.07-2.544c-.138-.482-.314-.96-.459-1.445a100 100 0 0 0-2.294 6.629zM36.302 86.16s16.878-.01 17.051-.006a94 94 0 0 1 3.203-9.496c.09-.227.496-.287.558 0 .127.595.337 1.183.516 1.766.218.885.534 1.747.942 2.572a6.4 6.4 0 0 0 2.567 2.484 7 7 0 0 0 3.587.813c4.294-.008 6.815-2.112 7.08-6.594a23.2 23.2 0 0 0-2.204-10.173 17 17 0 0 0-4.858-6.128c-2.014-1.497-5.027-2.251-7.521-1.153a9.7 9.7 0 0 0-2.294 1.506c-5.934 5.254-12.338 15.505-18.627 24.41zm-9.842-1.874h10.46c4.37-6.346 6.132-8.98 9.199-13.15-1.185-.11-19.667-1.94-19.667-1.94 0 17.235-.004 14.376.009 15.091z"/><path fill="#000" d="M22.437 84.68c-.153-.535-4.511-16.045-4.511-16.057-.07-.248.286-.474.482-.263 2.917 3.129 4.826 6.969 5.506 11.075.287 1.84.27 3.825-.994 5.362a.31.31 0 0 1-.406.002.3.3 0 0 1-.077-.12m.923-5.099c-.582-3.608-2.145-7.014-4.538-9.892l4.011 14.265a6.5 6.5 0 0 0 .527-4.373M51.825 90.11c.065.02.12.06.157.114a.26.26 0 0 1-.05.347.3.3 0 0 1-.184.07L32.134 91a.3.3 0 0 1-.158-.048.3.3 0 0 1-.104-.121.26.26 0 0 1 .058-.293c4.862-3.786 14.05-2.632 19.895-.428m-1.606.018c-5.047-1.629-12.77-2.491-17.194.317zM27.127 47.86a5.3 5.3 0 0 1 3.076-.403c.366.057.21.578-.153.522a4.87 4.87 0 0 0-2.769.403c-.347.127-.498-.396-.154-.522M25.408 52.352a.26.26 0 0 1-.026-.198.27.27 0 0 1 .126-.16 7.8 7.8 0 0 1 2.18-.812c.363-.072.518.448.153.523a7.7 7.7 0 0 0-2.042.756.3.3 0 0 1-.391-.109M41.941 65.052h2.728a.3.3 0 0 1 .195.084.262.262 0 0 1 0 .373.3.3 0 0 1-.195.084H41.94a.3.3 0 0 1-.194-.084.26.26 0 0 1-.08-.186c0-.07.029-.136.08-.187.05-.05.12-.08.194-.084M55.8 46.04a3 3 0 0 1-1.635-.089 2.8 2.8 0 0 1-1.305-.926 2.02 2.02 0 0 1-.49-1.334c.007-.485.19-.952.522-1.324.235-.248.52-.45.838-.593a2.842 2.842 0 0 1 2.057-.104c.334.111.64.283.902.505.333.262.584.603.725.988a2.1 2.1 0 0 1 .076 1.197 2.2 2.2 0 0 1-.596 1.06c-.297.297-.676.51-1.094.62m1.14-2.451a1.9 1.9 0 0 0-.476-.875 2.1 2.1 0 0 0-.868-.55 2.2 2.2 0 0 0-1.043-.087c-.35.053-.68.19-.958.396-.32.23-.54.56-.618.93s-.01.755.193 1.08c.22.382.562.69.977.882s.882.26 1.34.194c.233-.04.456-.122.655-.243.2-.12.372-.277.507-.46.135-.182.23-.389.28-.606.05-.218.053-.442.01-.661M56.838 41.236a31 31 0 0 1-2.515-.205 7 7 0 0 1-1.905-.47 3.7 3.7 0 0 1-1.603-1.248 3.35 3.35 0 0 1-.638-1.86c.105-1.345 1.817-1.802 3.118-1.165a7.3 7.3 0 0 1 2.83 3.01c.305.518.65 1.015.96 1.53a.26.26 0 0 1 0 .27.3.3 0 0 1-.104.1.3.3 0 0 1-.143.038m-4.386-4.659a1.8 1.8 0 0 0-.698-.01c-.23.043-.449.132-.64.261-.616.407-.382 1.29 0 1.911.338.51.803.936 1.356 1.24a4.15 4.15 0 0 0 1.815.506q1.01.127 2.027.185c-.98-1.544-2.034-3.695-3.86-4.096zM36.943 26.286l-3.019 2.188a.3.3 0 0 1-.204.076.3.3 0 0 1-.204-.076.26.26 0 0 1-.085-.192c0-.071.03-.14.085-.191l2.943-2.136-2.943-2.135a.26.26 0 0 1-.085-.191c0-.072.03-.141.085-.192a.3.3 0 0 1 .204-.077c.076 0 .15.027.204.077 0 0 3.099 2.235 3.2 2.32.229.23-.004.401-.181.53M36.943 19.23l-3.02 2.187a.3.3 0 0 1-.204.076.3.3 0 0 1-.204-.076.26.26 0 0 1-.084-.192c0-.072.03-.14.084-.191l2.947-2.136-2.943-2.135a.26.26 0 0 1-.084-.191c0-.072.03-.14.084-.192a.3.3 0 0 1 .204-.077c.077 0 .15.028.205.077.958.696 3.098 2.235 3.199 2.32.225.23-.008.399-.184.53M36.943 12.012l-3.02 2.186a.3.3 0 0 1-.204.077.3.3 0 0 1-.204-.077.26.26 0 0 1-.084-.19c0-.073.03-.141.084-.192l2.947-2.136-2.943-2.135a.26.26 0 0 1-.084-.191c0-.072.03-.141.084-.192a.3.3 0 0 1 .204-.077c.077 0 .15.028.205.077.958.696 3.098 2.235 3.199 2.321.225.228-.008.4-.184.528M10.432 23.437c.054.05.084.12.084.191s-.03.141-.084.192l-2.944 2.135 2.944 2.135c.053.051.084.12.084.192s-.03.14-.084.192a.3.3 0 0 1-.205.077.3.3 0 0 1-.204-.077s-3.098-2.235-3.199-2.321c-.23-.229.007-.4.184-.529l3.015-2.187a.3.3 0 0 1 .204-.076c.076 0 .15.027.205.076M10.41 18.897l2.945 2.137c.054.051.085.12.085.192s-.03.14-.085.192a.3.3 0 0 1-.204.076.3.3 0 0 1-.204-.076c-.96-.697-3.099-2.235-3.2-2.322-.229-.228.008-.4.185-.528l3.015-2.187a.3.3 0 0 1 .204-.076c.076 0 .149.027.204.076a.27.27 0 0 1 .085.19.26.26 0 0 1-.085.192zM16.611 11.68l2.944 2.136c.054.05.085.12.085.191s-.03.14-.085.191a.3.3 0 0 1-.204.078.3.3 0 0 1-.204-.078c-.959-.695-3.098-2.234-3.2-2.32-.229-.229.008-.4.184-.529l3.016-2.187a.3.3 0 0 1 .204-.076c.076 0 .149.027.204.076.054.051.085.12.085.192 0 .071-.03.14-.085.191zM24.963 13.688a2.6 2.6 0 0 1-1.415.075 2.5 2.5 0 0 1-1.22-.675 2.23 2.23 0 0 1-.616-1.196 2.16 2.16 0 0 1 .197-1.315c.203-.411.532-.756.944-.992s.889-.352 1.371-.333c.483.018.948.17 1.338.437s.688.636.854 1.06a2.16 2.16 0 0 1-.077 1.752 2.3 2.3 0 0 1-.562.722 2.5 2.5 0 0 1-.814.465m-.21-3.795a1.98 1.98 0 0 0-1.703.218 1.8 1.8 0 0 0-.582.625c-.138.25-.21.526-.21.806.003.36.123.711.344 1.006.221.294.533.519.893.643.466.154.977.13 1.424-.068.446-.199.79-.555.956-.99a1.65 1.65 0 0 0-.068-1.335 1.83 1.83 0 0 0-1.053-.9zM47.458 5.388c.162.313-.337.587-.499.274-.756-1.46-1.949-2.681-3.433-3.517a.27.27 0 0 1-.127-.169.26.26 0 0 1 .037-.204.28.28 0 0 1 .171-.119.3.3 0 0 1 .211.025c1.584.866 2.852 2.159 3.64 3.71M48.6 4.896c-.922-1.935-2.552-3.496-4.596-4.4-.337-.144-.043-.615.292-.468 2.137.94 3.842 2.57 4.803 4.591.15.32-.348.595-.499.277M74.686 64.205a.3.3 0 0 1 .21.028c.064.034.111.09.133.155a24.9 24.9 0 0 1 1.01 9.661c-.032.344-.611.348-.577 0a24.9 24.9 0 0 0-.994-9.517.25.25 0 0 1 .036-.206.297.297 0 0 1 .182-.12M76.874 64.26c1.453 3.403 1.576 6.324 1.24 9.789-.034.344-.613.347-.578 0 .344-3.552.164-6.339-1.219-9.644-.136-.325.422-.465.557-.144"/><path fill="#FFD500" d="M.74 37.065C.74 8.293.65 9.253.893 8.132a4.85 4.85 0 0 1 1.83-2.602 5.4 5.4 0 0 1 3.14-1.022h32.661a5.45 5.45 0 0 1 2.07.335 5.2 5.2 0 0 1 1.754 1.084c.498.47.888 1.033 1.144 1.651s.373 1.28.344 1.943v28.374c.013.678-.121 1.35-.395 1.977a5 5 0 0 1-1.198 1.67 5.4 5.4 0 0 1-1.805 1.086 5.6 5.6 0 0 1-2.117.327c-34.661-.439-32.469.05-33.32-.09a5.33 5.33 0 0 1-2.968-1.591 4.75 4.75 0 0 1-1.287-2.97c-.028-.41-.006-.827-.006-1.239"/><path fill="#FFF0B3" d="M6.076 44.182h31.377c1.406-.109 2.82.076 4.14.541a9.6 9.6 0 0 1 3.496 2.149 18.4 18.4 0 0 1 2.493 3.498c.022.078-.027-.115-.258-.134H36.86a27 27 0 0 0-2.573-2.37c-2.878-2.349-5.702-2.285-7.417-1.007a10 10 0 0 0-1.176 1.312c-.123.066-.062.016-.917.358a7.8 7.8 0 0 0-2.024.99q-.404.33-.739.72h-17.2a.3.3 0 0 0-.138.037.3.3 0 0 0-.104.093.26.26 0 0 0-.018.261c-.397-.636-.79-1.276-1.194-1.909-.3-.451-.464-.97-.476-1.501a2.83 2.83 0 0 1 .404-1.52 3.1 3.1 0 0 1 1.173-1.116 3.34 3.34 0 0 1 1.615-.402"/><path fill="#FFC431" d="M4.812 50.236h17.2q-.218.255-.382.542c-.777 1.158.298 2.631 2.057 2.361a5.6 5.6 0 0 0-.744 1.047 3.25 3.25 0 0 0-.508 2.15c.046.321.2.62.439.852.239.233.551.389.891.443a3.4 3.4 0 0 0 2.112-.826 7.8 7.8 0 0 0 1.35-1.18 32.8 32.8 0 0 0 6.036 7.823H18.77c-1.704 0-3.383-.377-4.901-1.102a10.64 10.64 0 0 1-3.834-3.067c-.743-.976-4.796-7.599-5.475-8.637a.26.26 0 0 1 .004-.27.3.3 0 0 1 .105-.098.3.3 0 0 1 .143-.038M47.326 50.236q.081.007.15.046a.3.3 0 0 1 .112.105c.055.072-.073-.126 1.31 2.084-.23.193-1.62 1.404-1.677 1.485-.192.115-1.548 1.488-2.513 2.28-.451.374-1.03.585-1.633.593-2.27-.28-2.206-2.417-6.214-6.595 13.836-.003 9.699-.058 10.465.002"/><path fill="#2755A0" d="M21.95 20.339c.699-1.193 2.396-3.858 2.501-4.023a.3.3 0 0 1 .106-.096.3.3 0 0 1 .287 0q.066.035.106.096a496 496 0 0 1 2.5 4.023.26.26 0 0 1-.002.272.3.3 0 0 1-.106.1.3.3 0 0 1-.145.036h-5a.3.3 0 0 1-.14-.042.3.3 0 0 1-.1-.1.27.27 0 0 1-.006-.266M15.474 20.339c.698-1.193 2.395-3.859 2.5-4.023a.3.3 0 0 1 .106-.096.31.31 0 0 1 .393.096q1.258 2.007 2.5 4.023a.26.26 0 0 1-.002.27.3.3 0 0 1-.105.1.3.3 0 0 1-.143.037h-4.997a.3.3 0 0 1-.141-.04.3.3 0 0 1-.104-.099.27.27 0 0 1-.007-.268"/><path fill="#FF4848" d="M22.37 23.773h3.869c.076.001.149.03.203.08.053.051.084.12.085.19v3.627a.27.27 0 0 1-.085.19.3.3 0 0 1-.203.081c-4.13.027-3.976.04-4.086-.097-.106-.105-.101.071-.072-3.8 0-.071.031-.14.085-.19a.3.3 0 0 1 .204-.081"/><path fill="#2755A0" d="M13.55 27.799c.699-1.193 2.396-3.858 2.501-4.022a.3.3 0 0 1 .106-.097.306.306 0 0 1 .393.097 497 497 0 0 1 2.5 4.022.26.26 0 0 1-.002.27.3.3 0 0 1-.105.1.3.3 0 0 1-.143.037h-5a.3.3 0 0 1-.14-.041.3.3 0 0 1-.102-.1.27.27 0 0 1-.007-.266"/><path fill="#000" d="m28.38 23.645 3.925 3.678a.26.26 0 0 1-.012.372.302.302 0 0 1-.397.011 160 160 0 0 1-3.924-3.678.26.26 0 0 1-.075-.189.26.26 0 0 1 .085-.185.3.3 0 0 1 .4-.009M28.381 9.56l3.924 3.679c.053.05.082.12.081.19 0 .072-.03.14-.085.19a.3.3 0 0 1-.202.079.3.3 0 0 1-.203-.076 156 156 0 0 1-3.923-3.68.26.26 0 0 1-.076-.188.26.26 0 0 1 .085-.185.3.3 0 0 1 .399-.009M28.38 16.63a160 160 0 0 1 3.925 3.679.26.26 0 0 1-.012.372.302.302 0 0 1-.397.011 160 160 0 0 1-3.924-3.678.26.26 0 0 1-.075-.19.26.26 0 0 1 .085-.185.3.3 0 0 1 .4-.009"/><path fill="#FF4848" d="M39.73 9.807v3.886a.26.26 0 0 1-.089.183.3.3 0 0 1-.199.074.3.3 0 0 1-.199-.074.26.26 0 0 1-.09-.183V9.807a.26.26 0 0 1 .09-.182.3.3 0 0 1 .199-.075.3.3 0 0 1 .2.075.26.26 0 0 1 .089.182M39.73 16.957v3.886a.26.26 0 0 1-.089.182.3.3 0 0 1-.199.075.3.3 0 0 1-.199-.075.26.26 0 0 1-.09-.182v-3.886a.26.26 0 0 1 .09-.183.3.3 0 0 1 .199-.074.3.3 0 0 1 .2.074.26.26 0 0 1 .089.183M39.73 24.029v3.886a.26.26 0 0 1-.089.183.3.3 0 0 1-.199.074.3.3 0 0 1-.199-.074.26.26 0 0 1-.09-.183V24.03a.26.26 0 0 1 .09-.183.3.3 0 0 1 .199-.074.3.3 0 0 1 .2.074.26.26 0 0 1 .089.183M39.73 31.075v3.886a.26.26 0 0 1-.089.182.3.3 0 0 1-.199.075.3.3 0 0 1-.199-.075.26.26 0 0 1-.09-.182v-3.886a.26.26 0 0 1 .09-.183.3.3 0 0 1 .199-.074.3.3 0 0 1 .2.074.26.26 0 0 1 .089.183"/><path fill="#2755A0" d="M26.165 68.625c.809.085 18.275 1.808 20.34 2.001-3.476 4.946-7.124 10.117-9.96 14.202h-10.38a.3.3 0 0 1-.203-.08.27.27 0 0 1-.085-.19c-.101-11.494-.068-14.594-.024-15.444.013-.25.043-.536.312-.49M56.788 77.657c.143.486.32.964.458 1.446.23.89.59 1.746 1.07 2.544a7 7 0 0 0 2.621 2.334 7.56 7.56 0 0 0 3.502.842c-.129.012 1.147.005-10.109.005.622-2.109 1.492-4.658 2.458-7.17"/><path fill="#000" d="M18.41 68.363c2.918 3.127 4.827 6.968 5.505 11.074.29 1.84.27 3.826-.994 5.362a.31.31 0 0 1-.406 0 .3.3 0 0 1-.077-.12c-.153-.532-4.511-16.043-4.511-16.056-.07-.246.286-.472.482-.26M31.931 90.54c2.531-1.972 5.913-2.495 9.115-2.458a31.6 31.6 0 0 1 10.781 2.028c.066.019.121.06.158.114a.26.26 0 0 1-.05.347.3.3 0 0 1-.184.07c-.65.017-19.603.359-19.615.359a.3.3 0 0 1-.156-.048.3.3 0 0 1-.104-.12.26.26 0 0 1 .055-.292"/><path fill="#FF4848" d="M47.23 53.943c2.064-1.886 6.216-5.6 9.104-5.52a5.56 5.56 0 0 1 2.576.573c3.318 1.638 7.615 5.63 10.288 11.254a34.8 34.8 0 0 1 2.564 7.406c.517 2.752.734 5.547.649 8.34a4.5 4.5 0 0 1 0 .762 20.5 20.5 0 0 0-.672-4.851c-1.057-4.118-2.338-6.431-4.413-8.888-2.074-2.458-5.222-4.234-8.549-3.776-2.21.303-3.741 1.6-5.29 3.06-1.805-2.647-3.477-5.773-5.872-8.338a.301.301 0 0 0-.393-.01z"/><path fill="#FC9070" d="M23.003 53.153c-.291-.01-.574-.09-.822-.234a1.6 1.6 0 0 1-.588-.586 1.49 1.49 0 0 1 .04-1.555c.29-.48.668-.907 1.117-1.263a11.6 11.6 0 0 1 2.917-1.33c.535-.562.972-1.517 2.485-1.975a5.3 5.3 0 0 1 3.058-.011 9 9 0 0 1 3.07 1.667 29.7 29.7 0 0 1 5.024 5.257c1.498 2.007 2.017 3.491 3.763 3.706a2.62 2.62 0 0 0 1.633-.593c.813-.666 2.392-2.207 2.513-2.28a.3.3 0 0 1 .393.01c2.4 2.57 4.048 5.662 5.87 8.337a40 40 0 0 0-3.152 3.422c-4.793 2.067-10.638 2.007-15.09-.789-3.386-2.127-6.044-5.957-8.012-9.308-.4.441-.853.837-1.35 1.18a3.4 3.4 0 0 1-2.111.827 1.65 1.65 0 0 1-.892-.443 1.48 1.48 0 0 1-.439-.852 3.25 3.25 0 0 1 .509-2.15c.825-1.488 1.14-.924.064-1.037"/><path fill="#FF4848" d="M30.051 47.979a4.88 4.88 0 0 0-2.77.403c-.346.127-.496-.396-.152-.522a5.3 5.3 0 0 1 3.076-.403c.365.058.21.58-.154.522M27.843 51.706a7.7 7.7 0 0 0-2.041.756.3.3 0 0 1-.216.023.3.3 0 0 1-.172-.124.26.26 0 0 1-.032-.201.27.27 0 0 1 .128-.166 7.4 7.4 0 0 1 2.18-.811c.362-.075.517.447.153.523"/><path fill="#2755A0" d="M35.518 86.295c.348-.484 10.858-15.498 10.985-15.669a72 72 0 0 1 6.818-8.172c1.922-1.84 3.729-3.308 6.488-3.29 3.012.02 5.68 1.68 7.515 3.851a19.4 19.4 0 0 1 4.13 7.826c.962 3.36 1.662 7.963-.22 10.95a6.3 6.3 0 0 1-1.995 1.944c-.81.501-1.73.827-2.69.953-2.99.423-4.931-.147-6.447-1.218-1.622-1.147-2.315-2.477-2.853-4.373-.138-.481-.314-.96-.46-1.445-1.624 4.22-2.357 6.82-2.937 8.846a.27.27 0 0 1-.103.144.3.3 0 0 1-.175.056H35.767a.3.3 0 0 1-.141-.038.3.3 0 0 1-.104-.098.26.26 0 0 1-.004-.267"/><path fill="#FF4848" d="M44.67 65.594h-2.728a.3.3 0 0 1-.195-.084.26.26 0 0 1-.08-.187c0-.07.03-.136.08-.186s.121-.08.195-.085h2.728a.3.3 0 0 1 .194.084c.051.05.08.118.08.187 0 .07-.029.136-.08.187a.3.3 0 0 1-.194.084"/><path fill="#FC9070" d="M52.893 42.367a2.7 2.7 0 0 1 1.16-.71 2.86 2.86 0 0 1 1.38-.074c.46.088.887.287 1.24.578.351.29.616.663.768 1.079a2.11 2.11 0 0 1-.237 1.789c-.169.266-.395.497-.664.678-.27.18-.575.307-.9.37a3 3 0 0 1-1.549-.156 2.83 2.83 0 0 1-1.23-.896 2.02 2.02 0 0 1-.489-1.335c.006-.484.19-.951.521-1.323"/><path fill="#000" d="M50.18 37.454c.105-1.343 1.826-1.798 3.118-1.166a7.33 7.33 0 0 1 2.83 3.01c.305.52.65 1.015.96 1.53a.26.26 0 0 1 0 .27.3.3 0 0 1-.106.1.3.3 0 0 1-.143.038 37 37 0 0 1-2.516-.206 7 7 0 0 1-1.904-.47 3.65 3.65 0 0 1-1.607-1.245 3.3 3.3 0 0 1-.632-1.861M36.463 25.956 33.52 23.82a.26.26 0 0 1-.084-.192c0-.071.03-.14.084-.191a.3.3 0 0 1 .204-.078c.076 0 .15.028.204.078 0 0 3.099 2.235 3.2 2.32.229.23-.008.4-.185.529l-3.019 2.188a.3.3 0 0 1-.204.076.3.3 0 0 1-.204-.076.26.26 0 0 1-.084-.192c0-.072.03-.14.084-.191q1.479-1.068 2.947-2.136M36.463 18.899l-2.943-2.136a.26.26 0 0 1-.085-.19c0-.073.03-.142.085-.192a.3.3 0 0 1 .204-.078c.076 0 .15.028.204.078.96.695 3.099 2.235 3.2 2.32.229.229-.008.4-.185.529l-3.019 2.187a.3.3 0 0 1-.204.077.3.3 0 0 1-.204-.077.26.26 0 0 1-.084-.191c0-.072.03-.141.084-.192zM36.463 11.68 33.52 9.546a.26.26 0 0 1-.085-.191c0-.072.03-.14.085-.192a.3.3 0 0 1 .204-.077c.076 0 .15.028.204.077.96.696 3.099 2.236 3.2 2.321.229.228-.008.4-.185.529L33.924 14.2a.3.3 0 0 1-.205.076.3.3 0 0 1-.204-.076.27.27 0 0 1-.085-.192q0-.053.022-.103a.3.3 0 0 1 .063-.088zM7.01 25.622l3.015-2.188a.3.3 0 0 1 .204-.076c.076 0 .149.027.204.076.054.05.085.12.085.192s-.03.14-.085.191L7.49 25.952l2.944 2.136c.054.05.085.12.085.191s-.03.141-.085.192a.3.3 0 0 1-.204.077.3.3 0 0 1-.204-.077s-3.098-2.235-3.2-2.321c-.226-.226.008-.397.185-.528M9.747 19.094c-.23-.229.008-.4.185-.528l3.015-2.188a.3.3 0 0 1 .204-.076c.076 0 .149.027.204.076.054.051.084.12.084.192 0 .071-.03.14-.084.191l-2.943 2.135 2.944 2.138c.055.05.085.12.085.192s-.03.14-.085.191a.3.3 0 0 1-.204.077.3.3 0 0 1-.204-.077c-.96-.698-3.1-2.237-3.2-2.323M16.612 11.68l2.944 2.136c.054.05.084.12.084.191s-.03.141-.084.192a.3.3 0 0 1-.204.077.3.3 0 0 1-.204-.077c-.96-.696-3.099-2.235-3.2-2.32-.23-.23.008-.402.185-.53l3.015-2.187a.3.3 0 0 1 .204-.076c.076 0 .149.027.204.076.054.051.084.12.084.192 0 .071-.03.14-.084.191z"/><path fill="#CCEAFF" d="M23.283 9.392a2.6 2.6 0 0 1 1.518-.05c.499.135.939.416 1.256.801a2.2 2.2 0 0 1 .506 1.343c.013.486-.141.964-.438 1.363-.297.4-.722.7-1.214.856a2.6 2.6 0 0 1-1.519.018 2.44 2.44 0 0 1-1.235-.828 2.2 2.2 0 0 1-.474-1.353c-.001-.469.152-.927.438-1.312a2.42 2.42 0 0 1 1.162-.838"/><path fill="#000" d="M43.818 1.68c1.585.864 2.854 2.157 3.64 3.71.163.31-.336.586-.498.272a8.73 8.73 0 0 0-3.433-3.516.27.27 0 0 1-.124-.165.26.26 0 0 1 .032-.2.3.3 0 0 1 .17-.123.3.3 0 0 1 .213.02zM44.296.032c2.139.936 3.844 2.565 4.804 4.587.153.316-.349.592-.499.274-.913-1.94-2.547-3.503-4.596-4.4-.337-.145-.044-.612.291-.461M75.03 64.388a24.2 24.2 0 0 1 1.011 9.66c-.032.345-.612.349-.577 0a26.2 26.2 0 0 0-.994-9.517.26.26 0 0 1 .03-.204.3.3 0 0 1 .173-.125.3.3 0 0 1 .218.025.28.28 0 0 1 .136.16zM76.876 64.261c1.442 3.408 1.582 6.24 1.238 9.788-.033.344-.611.348-.577 0 .418-4.328-.069-6.915-1.219-9.644-.137-.325.422-.465.558-.144M43.834 9.52v28.375a4.7 4.7 0 0 1-.408 1.97 5 5 0 0 1-1.199 1.662 5.4 5.4 0 0 1-1.798 1.088 5.7 5.7 0 0 1-2.11.34c-29.2.044-32.47.05-33.321-.09a5.33 5.33 0 0 1-2.966-1.592 4.75 4.75 0 0 1-1.288-2.968C.73 38.078.601 34.695.735 10.02a9 9 0 0 1 .153-1.888 4.85 4.85 0 0 1 1.83-2.602 5.4 5.4 0 0 1 3.14-1.022h32.665a5.4 5.4 0 0 1 2.07.335 5.2 5.2 0 0 1 1.753 1.084c.499.47.888 1.033 1.144 1.651s.373 1.28.344 1.943M38.71 5.05H5.857a4.76 4.76 0 0 0-3.094 1.16 4.2 4.2 0 0 0-1.44 2.816c-.024.358-.023 29.126.021 29.526a4.3 4.3 0 0 0 1.545 2.76 4.87 4.87 0 0 0 3.109 1.101H38.36a5 5 0 0 0 1.815-.267c.58-.2 1.113-.506 1.568-.9a4.4 4.4 0 0 0 1.08-1.392 4.2 4.2 0 0 0 .43-1.675c.005-.13 0-.263 0-.394V9.483a4 4 0 0 0-.297-1.68 4.3 4.3 0 0 0-.974-1.44 4.6 4.6 0 0 0-1.495-.968 4.8 4.8 0 0 0-1.78-.346z"/><path fill="#000" d="M27.336 20.71c-.096.052.275.168-5.137.036a.3.3 0 0 1-.141-.04.3.3 0 0 1-.103-.1.27.27 0 0 1-.006-.267c.699-1.193 2.397-3.857 2.5-4.023a.3.3 0 0 1 .18-.123.3.3 0 0 1 .22.031c.097.055-.093-.215 2.6 4.115a.26.26 0 0 1-.026.303.3.3 0 0 1-.087.069m-2.638-3.72-1.997 3.215h3.995zM20.861 20.71c-.096.052.274.168-5.138.036a.3.3 0 0 1-.141-.04.3.3 0 0 1-.103-.1.26.26 0 0 1-.005-.267c.698-1.193 2.397-3.857 2.5-4.023a.28.28 0 0 1 .18-.124.3.3 0 0 1 .22.032c.108.061-.066-.157 2.6 4.115a.26.26 0 0 1-.026.303.3.3 0 0 1-.087.069m-2.639-3.72-1.997 3.215h3.995zM22.368 23.773h3.87c.075.001.148.03.202.08s.084.12.085.19v3.627a.27.27 0 0 1-.085.19.3.3 0 0 1-.203.081c-4.344.029-3.935.03-4.072-.08-.123-.124-.115.112-.086-3.817a.27.27 0 0 1 .086-.19.3.3 0 0 1 .203-.081m.29 3.626h3.287v-3.082h-3.288zM16.549 23.776l2.5 4.023a.26.26 0 0 1-.025.303.3.3 0 0 1-.087.07c-.101.053.222.034-5.138.034a.3.3 0 0 1-.14-.04.3.3 0 0 1-.103-.1.27.27 0 0 1-.006-.267l2.5-4.023a.3.3 0 0 1 .106-.096.3.3 0 0 1 .286 0q.066.035.107.096m1.748 3.888-1.998-3.213-1.998 3.213zM28.38 23.645l3.922 3.678c.05.052.078.12.076.19a.26.26 0 0 1-.085.184.3.3 0 0 1-.4.009 155 155 0 0 1-3.923-3.678.26.26 0 0 1-.081-.19c0-.072.031-.14.085-.19a.3.3 0 0 1 .202-.079.3.3 0 0 1 .203.076M31.894 13.622a154 154 0 0 1-3.924-3.68.26.26 0 0 1-.081-.19c0-.071.031-.139.085-.19a.3.3 0 0 1 .202-.078.3.3 0 0 1 .203.076l3.923 3.679c.05.051.078.119.076.188a.26.26 0 0 1-.085.186.3.3 0 0 1-.4.009M31.894 20.692a161 161 0 0 1-3.924-3.679.26.26 0 0 1-.081-.19c0-.072.03-.14.085-.19a.3.3 0 0 1 .405-.003 165 165 0 0 1 3.923 3.678c.053.052.082.12.082.191s-.031.14-.085.19a.3.3 0 0 1-.202.079.3.3 0 0 1-.203-.076M39.43 13.954a.3.3 0 0 1-.194-.079.26.26 0 0 1-.085-.182V9.807a.26.26 0 0 1 .09-.182.3.3 0 0 1 .199-.075.3.3 0 0 1 .199.075.26.26 0 0 1 .09.182v3.886a.271.271 0 0 1-.091.188.3.3 0 0 1-.208.073M39.43 21.106a.3.3 0 0 1-.195-.08.26.26 0 0 1-.084-.182v-3.887a.26.26 0 0 1 .09-.183.3.3 0 0 1 .199-.074.3.3 0 0 1 .199.074.26.26 0 0 1 .09.183v3.886a.3.3 0 0 1-.026.103.3.3 0 0 1-.066.086.3.3 0 0 1-.207.074M39.429 28.176a.3.3 0 0 1-.194-.08.26.26 0 0 1-.084-.18v-3.887a.26.26 0 0 1 .09-.183.3.3 0 0 1 .199-.074.3.3 0 0 1 .199.074.26.26 0 0 1 .09.183v3.886a.26.26 0 0 1-.093.189.3.3 0 0 1-.208.072M39.43 35.223a.3.3 0 0 1-.194-.08.27.27 0 0 1-.085-.182v-3.886a.26.26 0 0 1 .09-.182.3.3 0 0 1 .199-.075.3.3 0 0 1 .199.075.26.26 0 0 1 .09.182v3.886a.26.26 0 0 1-.092.189.3.3 0 0 1-.207.073M26.163 68.625c.808.084 18.274 1.808 20.339 2.001a113 113 0 0 1 3.828-4.901 17.75 17.75 0 0 1-8.971 1.328c-3.043-.347-5.884-1.611-8.095-3.601H18.77a11.54 11.54 0 0 1-4.894-1.117 10.8 10.8 0 0 1-3.841-3.053c-.707-.958.128.01-6.68-10.563a2.84 2.84 0 0 1-.47-1.5c-.01-.53.13-1.054.407-1.517a3.1 3.1 0 0 1 1.17-1.114 3.34 3.34 0 0 1 1.61-.405h31.378a13 13 0 0 1 3.57.37c2.86.806 4.63 2.494 6.035 4.978l.525.84.004.018c.06.08.06.086 1.31 2.084a23.8 23.8 0 0 1 5.005-3.467 5.64 5.64 0 0 1 2.502-.587 5.64 5.64 0 0 1 2.505.578C63.833 51.41 69.6 57.912 71.76 67.654c.518 2.753.735 5.547.65 8.341a10.35 10.35 0 0 1-1.182 5.801 6.3 6.3 0 0 1-1.992 1.946c-.811.501-1.731.826-2.693.951-1.223.188-1.005.137-12.219.137-.166.557-.316 1.117-.475 1.675a.27.27 0 0 1-.104.144.3.3 0 0 1-.175.056H35.765q-.077-.002-.144-.038a.3.3 0 0 1-.104-.1.26.26 0 0 1-.001-.27c.348-.485.688-.977 1.026-1.467h-10.38a.3.3 0 0 1-.202-.08.27.27 0 0 1-.086-.19V68.896a.23.23 0 0 1 .014-.108.25.25 0 0 1 .061-.092.281.281 0 0 1 .213-.072m8.693-4.61c4.27 3.036 10.557 3.61 16.298.738.612-.705 1.25-1.39 1.92-2.047-1.912-2.795-3.407-5.654-5.687-8.149-.7.646-1.381 1.32-2.115 1.936a2.94 2.94 0 0 1-1.285.74 3.1 3.1 0 0 1-1.509.036c-1.092-.427-1.982-1.21-2.506-2.205a29.6 29.6 0 0 0-4.71-5.613 15 15 0 0 0-2.824-2.157c-1.789-1.04-4.327-1.13-5.67.427-.152.18-.278.382-.432.565-.267.412-.544.43-.999.605-.406.154-.806.325-1.207.492a5.3 5.3 0 0 0-.973.517c-.586.483-1.565 1.375-1.055 2.18.535.842 1.773.544 2.523.207.273-.123.625.219.35.425a5.5 5.5 0 0 0-1.535 1.75c-.35.637-.717 1.54-.265 2.21a.87.87 0 0 0 .374.338.95.95 0 0 0 .51.086 3.1 3.1 0 0 0 1.128-.501 7.2 7.2 0 0 0 1.835-1.577.3.3 0 0 1 .107-.096.31.31 0 0 1 .391.096c2.051 3.23 4.088 6.687 7.336 8.997m-26.42-8.236c.064.084.097.143 1.196 1.903a10.1 10.1 0 0 0 3.88 3.838 11 11 0 0 0 5.443 1.389h13.718a36 36 0 0 1-5.445-7.282c-.4.44-.854.836-1.35 1.18a3.4 3.4 0 0 1-2.112.826 1.65 1.65 0 0 1-.892-.442 1.48 1.48 0 0 1-.438-.852 3.25 3.25 0 0 1 .508-2.15q.31-.564.744-1.048c-1.759.27-2.837-1.2-2.057-2.361 0 0-15.905.003-16.316 0l3.132 5.005zm37.506-6.957a8.57 8.57 0 0 0-3.224-3.001 9.3 9.3 0 0 0-4.39-1.098c-.146 0-32.003-.022-32.6.016a2.67 2.67 0 0 0-1.622.81 2.37 2.37 0 0 0-.653 1.612c0 .9.65 1.68 1.115 2.424l.407.65H22.01q.335-.39.738-.72a7.8 7.8 0 0 1 2.024-.99c.282-.11.918-.35.918-.35q.519-.714 1.18-1.316a5 5 0 0 1 2.088-.825 5.1 5.1 0 0 1 2.26.165 9 9 0 0 1 3.069 1.667 25 25 0 0 1 2.572 2.37s9.554-.02 9.96-.017zm1.224 1.956H37.35a29 29 0 0 1 2.991 3.816c.31.496.668.965 1.07 1.399.428.459 1.02.756 1.664.836a2.57 2.57 0 0 0 1.633-.593c.841-.673 2.343-2.185 2.57-2.316a.3.3 0 0 0-.057.036c.052-.072 1.163-1.044 1.241-1.11-.416-.661-.992-1.583-1.296-2.065zm9.067-1.824a4.3 4.3 0 0 0-1.847.43 13.3 13.3 0 0 0-2.112 1.182 38 38 0 0 0-4.449 3.591c2.341 2.547 3.997 5.622 5.687 8.12 1.522-1.442 3.125-2.754 5.26-3.032l.235-.156c1.434-.988 2.41-2.454 2.725-4.096.406-2.57-2.617-6.029-5.498-6.039zm13.38 13.684c-1.718-4.685-4.813-8.82-8.928-11.928 1.032 1.061 1.623 2.435 1.666 3.87a6.4 6.4 0 0 1-.785 2.529 6.8 6.8 0 0 1-1.758 2.054c3.116.04 5.83 1.805 7.514 3.85 2.201 2.593 3.714 5.64 4.414 8.888a28.3 28.3 0 0 0-2.121-9.263zm-8.008 21.648a7 7 0 0 1-3.295-2.64 9.6 9.6 0 0 1-1.07-2.544c-.138-.482-.314-.96-.459-1.445a100 100 0 0 0-2.294 6.629zM36.302 86.16s16.878-.01 17.051-.006a94 94 0 0 1 3.203-9.496c.09-.227.496-.287.558 0 .127.595.337 1.183.516 1.766.218.885.534 1.747.942 2.572a6.4 6.4 0 0 0 2.567 2.484 7 7 0 0 0 3.587.813c4.294-.008 6.815-2.112 7.08-6.594a23.2 23.2 0 0 0-2.204-10.173 17 17 0 0 0-4.858-6.128c-2.014-1.497-5.027-2.251-7.521-1.153a9.7 9.7 0 0 0-2.294 1.506c-5.934 5.254-12.338 15.505-18.627 24.41zm-9.842-1.874h10.46c4.37-6.346 6.132-8.98 9.199-13.15-1.185-.11-19.667-1.94-19.667-1.94 0 17.235-.004 14.376.009 15.091z"/><path fill="#000" d="M22.437 84.68c-.153-.535-4.511-16.045-4.511-16.057-.07-.248.286-.474.482-.263 2.917 3.129 4.826 6.969 5.506 11.075.287 1.84.27 3.825-.994 5.362a.309.309 0 0 1-.406.002.3.3 0 0 1-.077-.12m.923-5.099c-.582-3.608-2.145-7.014-4.538-9.892l4.011 14.265a6.5 6.5 0 0 0 .527-4.373M51.825 90.11c.065.02.12.06.157.114a.26.26 0 0 1-.05.347.3.3 0 0 1-.184.07L32.134 91a.3.3 0 0 1-.158-.048.3.3 0 0 1-.104-.121.26.26 0 0 1 .058-.293c4.862-3.786 14.05-2.632 19.895-.428m-1.606.018c-5.047-1.629-12.77-2.491-17.194.317zM27.127 47.86a5.3 5.3 0 0 1 3.076-.403c.366.057.21.578-.153.522a4.87 4.87 0 0 0-2.769.403c-.347.127-.498-.396-.154-.522M25.408 52.352a.26.26 0 0 1-.026-.198.27.27 0 0 1 .126-.16 7.8 7.8 0 0 1 2.18-.812c.363-.072.518.448.153.523a7.7 7.7 0 0 0-2.042.756.3.3 0 0 1-.391-.109M41.941 65.052h2.728a.3.3 0 0 1 .195.084.262.262 0 0 1 0 .373.3.3 0 0 1-.195.084H41.94a.3.3 0 0 1-.194-.084.26.26 0 0 1-.08-.186c0-.07.029-.136.08-.187.05-.05.12-.08.194-.084M55.8 46.04a3 3 0 0 1-1.635-.089 2.8 2.8 0 0 1-1.305-.926 2.02 2.02 0 0 1-.49-1.334c.007-.485.19-.952.522-1.324.235-.248.52-.45.838-.593a2.842 2.842 0 0 1 2.057-.104c.334.111.64.283.902.505.333.262.584.603.725.988a2.1 2.1 0 0 1 .076 1.197 2.2 2.2 0 0 1-.596 1.06c-.297.297-.676.51-1.094.62m1.14-2.451a1.9 1.9 0 0 0-.476-.875 2.1 2.1 0 0 0-.868-.55 2.2 2.2 0 0 0-1.043-.087c-.35.053-.68.19-.958.396-.32.23-.54.56-.618.93s-.01.755.193 1.08c.221.382.562.69.977.882s.882.26 1.34.194c.233-.04.456-.122.655-.243.2-.12.372-.277.507-.46.135-.182.23-.389.28-.606.05-.218.053-.442.01-.661M56.838 41.236a31 31 0 0 1-2.515-.205 7 7 0 0 1-1.905-.47 3.7 3.7 0 0 1-1.603-1.248 3.35 3.35 0 0 1-.638-1.86c.105-1.345 1.817-1.802 3.118-1.165a7.3 7.3 0 0 1 2.83 3.01c.305.518.65 1.015.96 1.53a.26.26 0 0 1 0 .27.3.3 0 0 1-.104.1.3.3 0 0 1-.143.038m-4.386-4.659a1.8 1.8 0 0 0-.698-.01c-.23.043-.449.132-.64.261-.616.407-.382 1.29 0 1.911.338.51.803.936 1.356 1.24a4.15 4.15 0 0 0 1.815.506q1.01.127 2.027.185c-.98-1.544-2.034-3.695-3.86-4.096zM36.943 26.286l-3.019 2.188a.3.3 0 0 1-.204.076.3.3 0 0 1-.204-.076.26.26 0 0 1-.085-.192c0-.071.03-.14.085-.191l2.943-2.136-2.943-2.135a.26.26 0 0 1-.085-.191c0-.072.03-.141.085-.192a.3.3 0 0 1 .204-.077c.076 0 .15.027.204.077 0 0 3.099 2.235 3.2 2.32.229.23-.004.401-.181.53M36.943 19.23l-3.02 2.187a.3.3 0 0 1-.204.076.3.3 0 0 1-.204-.076.26.26 0 0 1-.084-.192c0-.072.03-.14.084-.191l2.947-2.136-2.943-2.135a.26.26 0 0 1-.084-.191c0-.072.03-.14.084-.192a.3.3 0 0 1 .204-.077c.077 0 .15.028.205.077.958.696 3.098 2.235 3.199 2.32.225.23-.008.399-.184.53M36.943 12.012l-3.02 2.186a.3.3 0 0 1-.204.077.3.3 0 0 1-.204-.077.26.26 0 0 1-.084-.19c0-.073.03-.141.084-.192l2.947-2.136-2.943-2.135a.26.26 0 0 1-.084-.191c0-.072.03-.141.084-.192a.3.3 0 0 1 .204-.077c.077 0 .15.028.205.077.958.696 3.098 2.235 3.199 2.321.225.228-.008.4-.184.528M10.432 23.437c.054.05.084.12.084.191s-.03.141-.084.192l-2.944 2.135 2.944 2.135c.053.051.084.12.084.192s-.03.14-.084.192a.3.3 0 0 1-.205.077.3.3 0 0 1-.204-.077s-3.098-2.235-3.199-2.321c-.23-.229.007-.4.184-.529l3.015-2.187a.3.3 0 0 1 .204-.076c.076 0 .15.027.205.076M10.41 18.897l2.945 2.137c.054.051.085.12.085.192s-.03.14-.085.192a.3.3 0 0 1-.204.076.3.3 0 0 1-.204-.076c-.96-.697-3.099-2.235-3.2-2.322-.229-.228.008-.4.185-.528l3.015-2.187a.3.3 0 0 1 .204-.076c.076 0 .149.027.204.076a.27.27 0 0 1 .085.19.26.26 0 0 1-.085.192zM16.611 11.68l2.944 2.136c.054.05.085.12.085.191s-.03.14-.085.191a.3.3 0 0 1-.204.078.3.3 0 0 1-.204-.078c-.96-.695-3.098-2.234-3.2-2.32-.229-.229.008-.4.184-.529l3.016-2.187a.3.3 0 0 1 .204-.076c.076 0 .149.027.204.076.054.051.085.12.085.192 0 .071-.03.14-.085.191zM24.963 13.688a2.6 2.6 0 0 1-1.415.075 2.5 2.5 0 0 1-1.22-.675 2.23 2.23 0 0 1-.616-1.196 2.16 2.16 0 0 1 .197-1.315c.203-.411.532-.756.944-.992a2.57 2.57 0 0 1 1.371-.333c.483.018.948.17 1.338.437s.688.636.854 1.06a2.16 2.16 0 0 1-.077 1.752 2.3 2.3 0 0 1-.562.722 2.5 2.5 0 0 1-.814.465m-.21-3.795a1.98 1.98 0 0 0-1.703.218 1.8 1.8 0 0 0-.582.625c-.138.25-.21.526-.21.806.003.36.123.711.344 1.006.221.294.533.519.893.643.466.154.977.13 1.424-.068.446-.199.79-.555.956-.99a1.65 1.65 0 0 0-.068-1.335 1.83 1.83 0 0 0-1.053-.9zM47.458 5.388c.162.313-.337.587-.499.274-.756-1.46-1.949-2.681-3.433-3.517a.27.27 0 0 1-.127-.169.26.26 0 0 1 .037-.204.28.28 0 0 1 .171-.119.3.3 0 0 1 .211.025c1.584.866 2.852 2.159 3.64 3.71M48.6 4.896c-.922-1.935-2.552-3.496-4.596-4.4-.337-.144-.043-.615.292-.468 2.137.94 3.842 2.57 4.803 4.591.15.32-.348.595-.499.277M74.686 64.205a.3.3 0 0 1 .21.028c.064.034.111.09.133.155a24.9 24.9 0 0 1 1.01 9.661c-.032.344-.611.348-.577 0a24.9 24.9 0 0 0-.994-9.517.25.25 0 0 1 .036-.206.297.297 0 0 1 .182-.12M76.874 64.26c1.453 3.403 1.576 6.324 1.24 9.789-.034.344-.613.347-.578 0 .344-3.552.164-6.339-1.219-9.644-.136-.325.422-.465.557-.144"/></svg>