<svg xmlns="http://www.w3.org/2000/svg" width="108" height="90" fill="none"><path fill="#E6DEFF" d="M36.76 30.25c-.141-4.166-1.497-7.377-1.28-13.536.33-9.413 7.1-14.635 15.4-15.88 9.988-1.498 21.025.91 29.67 5.85a15 15 0 0 0-.425 2.12c-.115.908-.28 2.068.192 2.897.105.187.253.34.429.444.175.104.372.155.57.149.245-.024.48-.113.687-.261a1.6 1.6 0 0 0 .494-.588q.486-1.45.808-2.956c5.191 3.816 7.458 8.694 7.624 13.107.152 4.054-1.74 7.549-4.346 10.235-5.525 5.694-13.85 7.671-14.193 17.732l-11.53-.572c.037-.071.077-.143.111-.215a.23.23 0 0 0 .019-.155.2.2 0 0 0-.085-.125 26 26 0 0 0-3.811-2.15.17.17 0 0 0-.117-.024.2.2 0 0 0-.107.057 24 24 0 0 0-1.47 2.341c-7.058-.35-12.664-.744-19.41.972a46.6 46.6 0 0 0-6.204-7.578c2.91-4.024 7.199-5.312 6.975-11.863m21.021 15.085a28.5 28.5 0 0 1 3.813 2.145.17.17 0 0 0 .14.021.2.2 0 0 0 .113-.094c.389-.642.597-1.397.598-2.17a2.18 2.18 0 0 0-.65-1.39 1.78 1.78 0 0 0-1.337-.505 3.3 3.3 0 0 0-1.53.492 3.7 3.7 0 0 0-1.184 1.182l-.007.014a.221.221 0 0 0-.014.246.2.2 0 0 0 .058.06m-1.877-12.373.022.013.016.02c.588.495 1.182.18 1.579-.51.378-.685.65-1.436.804-2.221.402-1.727.586-3.507.547-5.29a2.3 2.3 0 0 0-.504-1.48c-.383-.382-.788-.063-1.034.319a8.1 8.1 0 0 0-.778 1.967 36 36 0 0 0-1.004 5.017c-.084.698-.203 1.668.352 2.165m-.64-19.975c1.147-.687 1.412-4.039 1.32-5.47-.032-.508-.224-.981-.733-1.034-1.518-.156-1.643 3.06-1.901 4.335-.333 1.274.366 2.736 1.311 2.17zm-8.152 15.42c.194.77.657.802.893.434.557-.867.515-2.217-.325-2.58-.686-.208-.76 1.384-.568 2.146m-4.6 13.64c.088.17.21.314.354.426.145.112.31.188.483.222.174.034.353.027.523-.023s.33-.139.466-.263a4.8 4.8 0 0 0 1.015-1.384q.51-.988.893-2.046c.336-.958.772-2.27.231-3.237-.504-.904-1.592-.788-2.296-.257-.48.409-.863.939-1.12 1.546-.744 1.432-1.286 3.576-.55 5.018zM26.24 74.95c.484-3.13 2.18-5.778 3.36-8.636.13.025.845.154 1.073.191a22.3 22.3 0 0 0-1.064 4.243c-.13.93-.025 2.126.604 2.803.56.532 1.257.591 2.104.851.172.033.335.11.474.228.14.117.25.269.326.444a4.2 4.2 0 0 1 .12 1.697c-.074.48-.023.973.149 1.42.149.216.356.373.592.45.235.075.486.065.716-.03.875-.237 1.573-1.81 1.828-2.77a3.2 3.2 0 0 0 .124-1.6 2.3 2.3 0 0 0-.415-.76 2 2 0 0 0-.65-.52 3.9 3.9 0 0 1-1.328-.993 1.8 1.8 0 0 1-.288-1.087c.056-1.278.78-2.128 1.264-3.993 3.529.01 4.832-.88 11.119-1.103-2.28 5.232-2.899 6.813-4.347 10.412-.417 1.037-.814 2.682.06 3.214.638.39 1.444-.035 1.92-.526q.488-.525.882-1.14c2.134-3.22 4.091-6.58 5.86-10.061a17.5 17.5 0 0 0 2.792 5.77c.315.5.717.928 1.182 1.255 1.086.62 1.736-.74 1.856-1.746a7.1 7.1 0 0 0-.493-3.1c3.444 2.454 7 4.707 10.656 6.751a42.7 42.7 0 0 0-6.148 5.778 19.7 19.7 0 0 0-2.761 4.233c-.083-.016-12.865-2.442-13.557-2.559.988-.778 4.32-3.44 5.014-3.968.944-.718 2.308-1.798 2.304-2.998a1.66 1.66 0 0 0-.307-.951 1.4 1.4 0 0 0-.77-.542 2.87 2.87 0 0 0-1.998.38 6.9 6.9 0 0 0-1.928 1.588c-1.497 1.699-3.373 3.818-4.24 6.17-4.284-.688-8.447-1.243-12.917-1.605a10 10 0 0 0-2.262-.084c-.627-2.094-1.367-4.138-.907-7.106m25.326 7.688c-.109.143-.008.414.18.341q.683-.265 1.354-.568c2.179-.977 2.759-1.049 3.347-1.316.267-.124.616-.348.648-.702.075-.798-1.194-.62-1.591-.555-1.632.275-2.87 1.392-3.938 2.8m-10.425-.31.712-1.74c.097-.238-.224-.446-.32-.206l-.71 1.74c-.098.235.22.443.318.202z"/><path fill="#000" d="M88.867 42.391c1.927-1.266 5.047-.358 6.543 2.362a8.3 8.3 0 0 1 .995 3.508c1.948-3.414 7.836-.209 6.814 4.126a9.5 9.5 0 0 1-1.403 3.148 3.9 3.9 0 0 1 1.934-.049c.639.146 1.241.45 1.759.89s.939 1.005 1.232 1.65c.293.647.45 1.358.459 2.08.006.485-.093.963-.289 1.396a2.96 2.96 0 0 1-.838 1.09 5.6 5.6 0 0 1-1.812.96c.394.135.757.36 1.066.662s.556.672.727 1.088c.17.415.259.865.261 1.321s-.083.907-.25 1.324c-.823 1.99-3.04 2.63-4.853 1.838a6.5 6.5 0 0 1-2.356-1.764 69 69 0 0 0-1.152-9.385c-1.003-4.786-4.16-7.147-8.528-7.998a13.8 13.8 0 0 1-1.5-4.398c-.18-1.414-.023-3.05 1.191-3.849m2.479 7.057a1.83 1.83 0 0 0 1.437-.351c.42-.317.715-.8.823-1.351a3.1 3.1 0 0 0-.003-1.287 2.95 2.95 0 0 0-.519-1.152 1.95 1.95 0 0 0-1.042-.605 1.83 1.83 0 0 0-1.168.147c-.397.169-.737.472-.97.866s-.35.859-.331 1.33c.018.56.201 1.097.521 1.531s.76.74 1.252.872"/><path fill="#A982F4" d="M14.044 39.556c.402-1.236 1.183-2.277 2.207-2.941a6.24 6.24 0 0 1 3.202-1.228c1.885-.145 3.32.615 4.715 1.816 2.544 2.19 7.487 5.783 11.822 12.489l-.092.025a4.07 4.07 0 0 0-2.013-1.528c-6.205-2.816-12.868-4.187-19.573-4.025a7.83 7.83 0 0 1-.268-4.608"/><path fill="#A982F4" d="M8.584 45.592c1.568-1.148 3.323-1.346 5.208-1.415a44.5 44.5 0 0 1 16.342 2.505q2.417.826 4.709 2.006a3.1 3.1 0 0 1 1.052 1.029q-.098.027-.195.055a12.3 12.3 0 0 0-5.018-.345c-1.061.22-2.1.554-3.102 1-4.937 1.87-10.696 4.405-14.763 8.064a24.6 24.6 0 0 1-3.953-1.271c-1.06-.392-1.962-1.186-2.544-2.242-1.455-3.002-.356-7.464 2.264-9.386"/><path fill="#F7DA31" d="M65.532 49.222c16.034.794 22.885 1.054 23.583 1.404a.17.17 0 0 0-.129.027.2.2 0 0 0-.078.116 34 34 0 0 0-.71 5.208q-.072 1.278.022 2.555c-.01.161.01.322.06.474q.03.051.081.076.05.026.106.015a.2.2 0 0 0 .096-.052.2.2 0 0 0 .055-.101c.014-.032.204-.411.22-.442 1.084-2.19 2.424-4.138 3.854-6.44.023-.046.03-.1.019-.15a.2.2 0 0 0-.08-.124l.015.004a8.7 8.7 0 0 1 3.296 2.727 9.9 9.9 0 0 1 1.762 4.118c1.176 5.623 1.655 14.642 1.064 20.733a11.9 11.9 0 0 1-1.037 3.92c-1.292 2.745-4.022 3.591-6.738 3.091a28 28 0 0 1-3.248-.766.17.17 0 0 0 .142-.022.2.2 0 0 0 .086-.127c.013-.059.009-17.484.005-17.616-.008-.276-.303-.384-.49-.517a168 168 0 0 0-21.796-13.042v-4.866a.22.22 0 0 0-.05-.137.18.18 0 0 0-.12-.064zm29.952 32.684c.156-.198-.105-.489-.26-.29a8.7 8.7 0 0 1-1.338 1.376c-.19.155-.005.51.186.354.517-.421.991-.904 1.412-1.44m-2.22-10.907a61 61 0 0 1-4.283-2.707c-.202-.14-.387.214-.186.354a61 61 0 0 0 4.282 2.706c.211.122.398-.232.186-.353m-13.64-9.927.752-2.523c.075-.251-.28-.358-.356-.109l-.752 2.523c-.075.251.282.358.356.11"/><path fill="#FFD2D2" d="M60.86 48.99c4.802.238 4.606.22 4.662.233a.18.18 0 0 1 .12.065.22.22 0 0 1 .051.137v4.866c-2.246-1.069-4.362-1.86-6.804-1.588 1.034-1.983 1.636-3.082 1.97-3.713M24.364 58.297c.037-.299.129-.586.268-.845.14-.259.325-.484.545-.662a27.9 27.9 0 0 1 7.44-5.154c2.632-1.302 3.156-1.388 3.248-1.488a.2.2 0 0 0 .055-.089.22.22 0 0 0-.04-.202.2.2 0 0 0-.082-.056q-.049-.014-.098-.026c6.72-1.825 12.796-1.396 19.699-1.054-1.19 2.09-2.398 4.519-3.435 6.728a157 157 0 0 0-7.77 4.458 4.93 4.93 0 0 0-1.998 1.963 2.19 2.19 0 0 0 .196 2.194c.85 1.154 2.781 1.356 4.124 1.356q-.085.185-.165.368c-2.27.075-4.533.295-6.78.66-1.43.3-2.883.449-4.338.442a9 9 0 0 0 .224-3.764 1.63 1.63 0 0 0-.556-.914 1.36 1.36 0 0 0-.956-.306 2.2 2.2 0 0 0-1 .365 2.5 2.5 0 0 0-.756.813 17.7 17.7 0 0 0-1.522 3.424 28.5 28.5 0 0 1-3.532-.785 98 98 0 0 0 8.73-7.365.2.2 0 0 0 .074-.079.21.21 0 0 0-.019-.217.17.17 0 0 0-.087-.061c-.104-.059.402-.082-8.314 1.277a7.5 7.5 0 0 1-2.07.17 1.37 1.37 0 0 1-.908-.427 1 1 0 0 1-.156-.342 1 1 0 0 1-.021-.382"/><path fill="#A982F4" d="M88.198 55.974c.102-1.755.34-3.498.71-5.208a.2.2 0 0 1 .087-.122.17.17 0 0 1 .14-.02c1.192.222 2.355.606 3.463 1.14q.037.017.066.05a.2.2 0 0 1 .042.074.23.23 0 0 1-.014.17c-1.661 2.686-2.662 4.03-4.073 6.882a.2.2 0 0 1-.055.102.2.2 0 0 1-.097.051.17.17 0 0 1-.106-.014.2.2 0 0 1-.081-.077 1.3 1.3 0 0 1-.06-.474q-.094-1.276-.022-2.554"/><path fill="#2755A0" d="M10.787 61.734c.382-1.657 1.172-2.524 2.395-3.568 4.128-3.521 9.539-5.899 14.4-7.74 1.002-.445 2.04-.78 3.102-1 1.583-.22 3.19-.126 4.744.277.056.014.229.052.372.095q.048.016.083.056.034.041.045.095a.2.2 0 0 1-.006.108.2.2 0 0 1-.055.088c-.172.186-6.534 2.385-10.69 6.645-.22.177-.407.402-.546.661-.14.26-.23.547-.267.846q-.023.194.025.382c.032.124.086.24.16.34.247.256.569.407.907.426a7.5 7.5 0 0 0 2.07-.17c8.755-1.364 8.22-1.346 8.35-1.257q.043.026.067.071a.2.2 0 0 1-.003.198.2.2 0 0 1-.07.068c-4.782 4.35-10.3 9.465-16.24 11.339-2 .632-4.386 1.064-6.299-.11-2.283-1.396-3.243-4.821-2.544-7.85M57.715 45.056c.015-.025.016-.017.028-.042a3.7 3.7 0 0 1 1.184-1.182c.47-.29.994-.458 1.531-.492.488-.028.967.153 1.337.506s.603.85.65 1.389c-.001.773-.21 1.528-.599 2.17a.2.2 0 0 1-.112.094.17.17 0 0 1-.14-.02 28.5 28.5 0 0 0-3.813-2.143.2.2 0 0 1-.086-.125.23.23 0 0 1 .02-.155M56.872 46.377a.174.174 0 0 1 .224-.032 26 26 0 0 1 3.811 2.15.2.2 0 0 1 .085.125.23.23 0 0 1-.019.155c-.037.071-1.96 3.685-2.084 3.928-2.42.265-4.592 1.495-6.923 2.745 1.086-2.313 3.405-7.042 4.906-9.071M42.007 76.198c.202-.5 1.407-3.503 1.82-4.498a621 621 0 0 1 2.691-6.28 12.7 12.7 0 0 0 3.678-.53q.17 1.42.534 2.795a101 101 0 0 1-5.86 10.062q-.394.614-.883 1.14c-.476.49-1.282.915-1.92.525-.877-.535-.473-2.188-.06-3.214"/><path fill="#FF4848" d="M42.198 61.868a4.94 4.94 0 0 1 1.998-1.963q3.825-2.355 7.77-4.457c2.856-1.53 5.785-3.224 9.09-2.716 1.467.239 2.896.7 4.248 1.373a170 170 0 0 1 22.184 13.227c.188.133.483.242.491.518.008.275 0 .55 0 .825v16.74a.2.2 0 0 1-.02.09.2.2 0 0 1-.053.071.2.2 0 0 1-.076.039.2.2 0 0 1-.084-.002c-11.22-3.439-21.902-8.749-31.678-15.748.391.973.56 2.037.492 3.1-.117 1.006-.77 2.365-1.855 1.746a4.4 4.4 0 0 1-1.182-1.255c-1.82-2.449-2.972-5.419-3.325-8.565a12.3 12.3 0 0 1-3.248.517c-1.469.046-3.63-.093-4.553-1.344A2.1 2.1 0 0 1 42 62.999c-.035-.39.033-.783.198-1.13m8.087 1.968c.036.26.398.149.356-.108-.125-.77.626-1.294 1.223-1.35a5.5 5.5 0 0 1 2.093.411 39 39 0 0 1 6.02 2.666c.213.111.4-.241.185-.353a36 36 0 0 0-6.832-2.926c-.161-.046-.137-.019-.124-.062.04-.476.18-.934.408-1.34s.537-.748.904-1a2.1 2.1 0 0 1 .949-.181c2.2.042 4.388.38 6.515 1.006a.17.17 0 0 0 .137-.023.2.2 0 0 0 .084-.121.22.22 0 0 0-.016-.153.2.2 0 0 0-.107-.097c-2.425-.776-6.11-1.137-7.172-.98-1.224.18-1.858 1.555-2.059 2.78a.2.2 0 0 0 0 .054 2.4 2.4 0 0 0-1.73.127c-.283.136-.519.37-.67.669-.15.298-.208.643-.164.981"/><path fill="#2755A0" d="M41.534 80.38c.098-.24.416-.032.319.206l-.711 1.74c-.098.24-.416.032-.319-.207z"/><path fill="#FF4848" d="M90.874 44.849a1.83 1.83 0 0 1 1.17-.147c.393.082.756.293 1.04.605.251.335.429.729.52 1.152.09.423.091.863.003 1.287a2.22 2.22 0 0 1-.823 1.351c-.42.317-.936.442-1.437.35a2.3 2.3 0 0 1-1.252-.87 2.74 2.74 0 0 1-.522-1.532c-.017-.47.098-.936.332-1.33.233-.394.572-.697.97-.866"/><path fill="#A982F4" d="M25.849 84.048c.036-.504.186-.99.438-1.412.213-.305.522-.512.866-.58.336-.067.573-.09 4.147.249 3.65.348 7.421.854 11.032 1.44a4.6 4.6 0 0 0-.289 1.67q.001.055.026.103t.068.075a.17.17 0 0 0 .186-.001c.504-.4 1.885-1.488 1.936-1.525.692.117 14.634 2.767 15.17 2.887.323.07.612.267.814.554s.303.646.285 1.01a.22.22 0 0 1-.055.142.18.18 0 0 1-.13.062H26.052a.18.18 0 0 1-.13-.061.22.22 0 0 1-.055-.144 26 26 0 0 1-.018-4.47M25.968 89.206H60.26c.049 0 .096.022.13.06.035.038.055.09.055.145s-.02.106-.054.144a.18.18 0 0 1-.131.06H25.968a.18.18 0 0 1-.13-.06.22.22 0 0 1-.054-.144c0-.055.019-.107.054-.145a.18.18 0 0 1 .13-.06M43.062 37.034a4.1 4.1 0 0 1 1.12-1.546c.704-.532 1.792-.647 2.296.257.541.967.105 2.279-.232 3.237a17 17 0 0 1-.892 2.046 4.8 4.8 0 0 1-1.015 1.383 1.2 1.2 0 0 1-.466.264c-.17.05-.349.058-.523.023a1.16 1.16 0 0 1-.483-.222 1.3 1.3 0 0 1-.355-.426c-.737-1.443-.195-3.587.55-5.016M55.552 30.798c.215-1.7.55-3.377 1.004-5.018a8.1 8.1 0 0 1 .78-1.97c.246-.383.651-.701 1.034-.32.332.405.512.934.504 1.48a21.3 21.3 0 0 1-.552 5.293 7.7 7.7 0 0 1-.804 2.222c-.397.688-.991 1.006-1.579.508l-.016-.02-.022-.012c-.552-.496-.433-1.466-.35-2.163M53.947 10.818c.26-1.288.385-4.491 1.9-4.335.511.053.702.527.734 1.034.092 1.433-.173 4.782-1.32 5.47-.952.57-1.644-.9-1.314-2.169M80.125 8.806a15.9 15.9 0 0 1 1.548-5.072c.195-.513.523-.95.944-1.254a.763.763 0 0 1 .761-.07.85.85 0 0 1 .318.256 1 1 0 0 1 .177.388c.098.486.122.985.07 1.48a31 31 0 0 1-1.495 7.012c-.126.21-.293.388-.49.517a1.4 1.4 0 0 1-.643.233 1.05 1.05 0 0 1-.571-.15 1.2 1.2 0 0 1-.429-.443c-.471-.83-.305-1.99-.19-2.897M47.679 26.26c.85.368.874 1.725.324 2.58-.227.355-.692.362-.892-.434-.192-.76-.118-2.353.568-2.147M29.613 70.748a23.4 23.4 0 0 1 2.583-7.666c.192-.331.45-.61.755-.814a2.2 2.2 0 0 1 1-.364c.342-.026.68.082.957.305s.473.547.555.914c.09.406.128.823.112 1.24a10.7 10.7 0 0 1-.873 4.112c-.469 1.124-1.115 2.495-.443 3.494.641.953 1.918.806 2.39 2.27.095.536.052 1.09-.123 1.6-.256.962-.952 2.534-1.828 2.772a1.04 1.04 0 0 1-.717.028 1.15 1.15 0 0 1-.591-.448 2.8 2.8 0 0 1-.149-1.421 4.2 4.2 0 0 0-.12-1.697 1.2 1.2 0 0 0-.326-.444 1.04 1.04 0 0 0-.474-.228c-1.058-.324-2.166-.371-2.562-1.637a4.6 4.6 0 0 1-.146-2.016"/><path fill="#A982F4" d="M43.094 82.134a27 27 0 0 1 3.477-4.559 6.9 6.9 0 0 1 1.928-1.587 2.87 2.87 0 0 1 1.997-.38c.304.08.575.27.77.541.195.27.304.605.308.951a2.58 2.58 0 0 1-.787 1.669c-.748.815-.8.715-8.467 6.824a.173.173 0 0 1-.186 0 .2.2 0 0 1-.069-.074.2.2 0 0 1-.025-.103 6.45 6.45 0 0 1 1.054-3.282M51.566 82.638c1.07-1.41 2.307-2.525 3.938-2.8.397-.066 1.666-.243 1.591.555-.034.354-.381.58-.648.702-.584.266-1.18.345-3.348 1.317-.448.201-.896.39-1.354.567-.187.073-.288-.198-.18-.341"/><path fill="#FC9070" d="M51.119 62.186a2.46 2.46 0 0 1 1.722-.14c.193-1.235.827-2.64 2.065-2.822q.556-.07 1.113-.025c.386.024.771.041 1.157.076 1.656.143 3.297.454 4.902.93a.2.2 0 0 1 .107.097.22.22 0 0 1 .016.153.2.2 0 0 1-.084.121.17.17 0 0 1-.137.023 24.8 24.8 0 0 0-6.515-1.006 1.67 1.67 0 0 0-.85.141 1.85 1.85 0 0 0-.698.555 3.9 3.9 0 0 0-.717 1.856 34.7 34.7 0 0 1 6.96 2.96c.216.11.028.463-.186.352a39 39 0 0 0-6.02-2.666 5.5 5.5 0 0 0-2.093-.41c-.597.055-1.347.579-1.223 1.349.042.257-.32.369-.356.108a1.7 1.7 0 0 1 .165-.983c.151-.299.387-.534.672-.67M88.982 68.292a61 61 0 0 0 4.282 2.706c.212.124.025.475-.186.354a62 62 0 0 1-4.282-2.707c-.202-.139-.016-.493.186-.353M95.224 81.617c.156-.2.417.09.261.288a9 9 0 0 1-1.412 1.44c-.191.157-.376-.198-.186-.353.49-.403.938-.864 1.337-1.375"/><path fill="#000" d="m1.032 43.75 4.664.849c.234.042.135.434-.098.394l-4.664-.848c-.234-.042-.134-.437.098-.394M6.536 64.71c.195-.152.379.203.186.353l-4.047 3.15c-.195.152-.38-.202-.186-.353zM16.318 80.473a.2.2 0 0 1-.088.118.17.17 0 0 1-.138.018.2.2 0 0 1-.11-.093.22.22 0 0 1-.02-.152 376 376 0 0 1 1.275-5.223.2.2 0 0 1 .088-.119.17.17 0 0 1 .137-.017.2.2 0 0 1 .11.093c.025.046.032.1.021.152a378 378 0 0 1-1.275 5.223"/><path fill="#FC9070" d="M79.625 61.072c-.075.248-.431.142-.356-.109l.752-2.523c.074-.248.43-.142.356.109z"/><path fill="#000" d="M12.264 34.073 9.38 30.508c-.158-.196.102-.486.261-.29l2.883 3.564c.158.196-.102.486-.261.29M25.752 33.074a.2.2 0 0 1-.048.06.169.169 0 0 1-.205.014.2.2 0 0 1-.054-.054.22.22 0 0 1-.036-.151.2.2 0 0 1 .024-.076c.622-1.214 2.21-4.11 2.21-4.11a.19.19 0 0 1 .117-.09.17.17 0 0 1 .139.027q.062.044.08.122a.22.22 0 0 1-.016.149c-.627 1.22-1.101 2.105-2.211 4.109"/><path fill="#000" d="M106.072 62.592a5.6 5.6 0 0 1-1.811.96c.739.253 1.357.821 1.718 1.58.361.757.435 1.642.206 2.46-.605 2.15-2.974 3.073-4.973 2.193a6.8 6.8 0 0 1-2.356-1.736c.26 3.769.23 7.555-.088 11.319a12.1 12.1 0 0 1-1.037 3.92c-1.338 2.766-4.02 3.59-6.737 3.091a29 29 0 0 1-3.248-.766 106.3 106.3 0 0 1-21.022-8.998 45 45 0 0 0-6.148 5.778 20.5 20.5 0 0 0-2.762 4.233c.539.106 1.078.207 1.614.328.322.07.611.267.813.554s.303.646.285 1.01a.22.22 0 0 1-.055.142.18.18 0 0 1-.13.062h-34.29a.18.18 0 0 1-.13-.062.22.22 0 0 1-.055-.143 24.5 24.5 0 0 1-.016-4.47c.033-.505.184-.991.438-1.412a1.42 1.42 0 0 1 .865-.581c-.215-.714-.448-1.423-.633-2.145-1.5-5.6 1.333-9.363 3.08-13.597a24 24 0 0 1-2.458-.593l.006-.004c-3.588 2.56-10.087 6.155-13.816 3.869-2.856-1.75-3.549-6.662-1.896-9.51a6.6 6.6 0 0 1 1.384-1.584 24 24 0 0 1-3.953-1.272c-1.057-.398-1.956-1.19-2.543-2.242-1.467-3.02-.357-7.466 2.263-9.385 1.716-1.258 3.668-1.377 5.726-1.426a7.66 7.66 0 0 1-.268-4.609c.4-1.237 1.181-2.279 2.207-2.94a5.95 5.95 0 0 1 3.131-1.217 5.8 5.8 0 0 1 3.257.705c.903.52 1.176.81 3.076 2.394 1.412 1.183 2.756 2.328 4.068 3.615 1.716-2.372 3.636-3.54 5.25-5.724 2.871-3.883 1.436-8.42.82-13.026a36.5 36.5 0 0 1-.377-6.649c.333-9.335 6.931-14.567 15.4-15.88 10.196-1.36 20.527.677 29.672 5.85.272-1.028.65-2.018 1.124-2.952.195-.512.523-.948.943-1.252a.763.763 0 0 1 .761-.07.85.85 0 0 1 .318.256 1 1 0 0 1 .177.389c.1.484.124.984.07 1.478a25.4 25.4 0 0 1-.637 3.958c5.208 3.827 7.46 8.729 7.624 13.105.152 4.054-1.74 7.549-4.346 10.235-5.544 5.715-13.85 7.665-14.192 17.732 8.16.406 14.407.61 16.786 1.074a13.8 13.8 0 0 1-1.501-4.396c-.18-1.413-.023-3.049 1.192-3.848a4.054 4.054 0 0 1 3.657-.232c1.117.48 2.082 1.315 2.773 2.4a7.23 7.23 0 0 1 1.107 3.702c1.933-3.386 7.79-.276 6.815 4.126a9.8 9.8 0 0 1-1.404 3.148c4.32-1.185 7.036 4.812 4.256 7.055M87.607 85.147s-.017-17.042-.008-17.248a169 169 0 0 0-20.434-12.428 28 28 0 0 0-4.292-1.9c-2.531-.868-5.173-.792-8.876 1.255-3.248 1.663-6.544 3.55-9.615 5.432-1.03.638-2.818 2.103-1.691 3.563.477.52 1.09.861 1.752.976a11.95 11.95 0 0 0 5.856-.356.17.17 0 0 1 .16.036q.033.029.053.07.02.044.02.09c.343 3.328 1.596 6.46 3.593 8.975.298.372.794 1.028 1.312.816.44-.18.644-.86.728-1.32.224-1.25-.238-2.557-.654-3.697-.06-.167.144-.323.272-.231 9.808 7.093 20.54 12.478 31.824 15.967M58.889 52.703c2.188-.248 4.414.448 6.434 1.411 0-4.078-.01-4.526-.015-4.494l-4.662-.232c-.46.863-1.632 3.072-1.758 3.315m1.67-3.962a25.6 25.6 0 0 0-3.498-1.969c-1.414 1.957-3.48 6.15-4.536 8.374 1.945-1.023 3.773-2.036 5.903-2.38 1.848-3.555 1.55-2.968 2.131-4.025m-18.095 27.31a9 9 0 0 0-.473 1.45c-.086.343-.1.703-.042 1.053a.8.8 0 0 0 .114.309.7.7 0 0 0 .225.22.98.98 0 0 0 .785-.034 3.2 3.2 0 0 0 1.254-1.196 96 96 0 0 0 6.258-10.742 19 19 0 0 1-.392-2.217c-1.06.316-2.15.49-3.248.517-.666 1.435-2.6 5.9-4.481 10.64m-16.098 7.281a3.7 3.7 0 0 0-.15.716 24 24 0 0 0 0 4.266s33.53-.024 33.928-.006a1.2 1.2 0 0 0-.189-.53 1 1 0 0 0-.402-.356 3.5 3.5 0 0 0-.793-.186c-.3-.062-13.828-2.648-14.93-2.833q-.756.594-1.512 1.191a.174.174 0 0 1-.186 0 .2.2 0 0 1-.069-.073.2.2 0 0 1-.025-.103 4.3 4.3 0 0 1 .164-1.276c-8.064-1.293-11.11-1.402-13.13-1.618a11 11 0 0 0-1.708-.094c-.23.017-.45.113-.629.275a1.25 1.25 0 0 0-.369.627m23.494-4.207c.711-.595 1.909-1.828 1.025-2.822-.52-.584-1.4-.326-1.996-.055a6.3 6.3 0 0 0-2.058 1.617c-1.53 1.736-4.135 4.645-4.407 7.144 1.664-1.321 6.442-5.053 7.436-5.884M27.068 73.12c-1.086 3.224-.6 5.686.457 8.894.555-.01 1.296.077 1.886.124 4.283.347 8.68.919 12.918 1.606.867-2.35 2.8-4.545 4.24-6.17a6.9 6.9 0 0 1 1.928-1.588 2.9 2.9 0 0 1 1.997-.38c.304.08.575.271.77.542.195.27.303.604.308.95.004 1.206-1.355 2.275-2.304 2.999-.693.528-4.026 3.191-5.014 3.968 1.347.227 11.533 2.185 13.165 2.488a21.2 21.2 0 0 1 2.893-4.452 45 45 0 0 1 6.04-5.697 114 114 0 0 1-10.286-6.543c.39.973.56 2.038.492 3.1-.117 1.007-.77 2.365-1.855 1.747a4.4 4.4 0 0 1-1.183-1.256 17.4 17.4 0 0 1-2.791-5.77 101 101 0 0 1-5.86 10.062q-.394.614-.883 1.14c-.476.49-1.282.916-1.92.526-.861-.526-.476-2.213-.06-3.215 1.214-3.119 3.008-7.34 4.347-10.411-2.27.08-4.533.3-6.78.66-1.43.302-2.883.45-4.339.442-.484 1.868-1.221 2.723-1.264 3.994-.02.388.082.772.288 1.087.656.95 1.92.815 2.39 2.27.095.536.052 1.09-.123 1.6-.254.957-.956 2.535-1.828 2.772-.23.094-.481.104-.716.028a1.15 1.15 0 0 1-.592-.448 2.8 2.8 0 0 1-.149-1.421 4.2 4.2 0 0 0-.12-1.697 1.2 1.2 0 0 0-.326-.444 1.04 1.04 0 0 0-.474-.228c-1.117-.342-2.15-.372-2.562-1.637a4.66 4.66 0 0 1-.146-2.017 22 22 0 0 1 1.064-4.242q-.341-.058-.683-.125c-.925 2.273-2.172 4.432-2.924 6.742zm6.828 5.063a1 1 0 0 0 .618.056c.207-.047.396-.16.546-.324a5.63 5.63 0 0 0 1.27-3.027c.149-1.612-1.6-1.546-2.389-2.713-.94-1.39.21-3.178.682-4.516.444-1.243.638-2.579.568-3.913a2 2 0 0 0-.337-1.05 1.28 1.28 0 0 0-.84-.386 1.25 1.25 0 0 0-.87.298 4.7 4.7 0 0 0-1.294 1.945 27 27 0 0 0-1.674 5.115 9 9 0 0 0-.227 2.118c0 .293.056.584.162.852.107.27.263.51.458.71 1.044.697 1.526.353 2.445.944 1.218.957.107 3.458.882 3.89m-3.08-12.072c.359-1.064.823-2.08 1.384-3.03a2.45 2.45 0 0 1 .753-.816 2.17 2.17 0 0 1 1.002-.362c.341-.026.68.082.956.305.277.223.474.547.556.914a8.8 8.8 0 0 1-.124 3.358c3.31.027 4.557-.83 10.691-1.079-1.214-.037-2.86-.294-3.634-1.34a2.1 2.1 0 0 1-.397-1.065c-.035-.39.035-.783.2-1.13a4.9 4.9 0 0 1 1.999-1.963 175 175 0 0 1 7.772-4.464 103 103 0 0 1 3.21-6.324c-6.64-.367-11.576-.6-17.306.57a9.6 9.6 0 0 0-2.605.72c-.472.19-1.283.539-2.65 1.23a31.3 31.3 0 0 0-6.068 3.868 15.3 15.3 0 0 0-1.822 1.789c-.201.292-.327.639-.363 1.004-.016.127-.008.257.024.381.031.124.086.24.16.339.247.257.57.409.908.428a7.5 7.5 0 0 0 2.07-.17c8.715-1.36 8.211-1.334 8.313-1.277q.052.016.087.061.033.046.04.105a.2.2 0 0 1-.021.112.2.2 0 0 1-.075.079 103 103 0 0 1-8.317 7.068q1.61.437 3.253.689zm-18.968-5.975a7.52 7.52 0 0 0-.889 4.335c.143 1.514.732 2.934 1.677 4.04 1.543 1.625 3.776 1.545 5.727 1.1 2-.487 3.927-1.284 5.726-2.367 4.149-2.474 7.366-5.394 11.069-8.765-.878.141-5.392.825-6.765 1.07-.784.14-1.573.266-2.366.326a2.54 2.54 0 0 1-1.406-.284 1.4 1.4 0 0 1-.56-.748 1.57 1.57 0 0 1 .004-.972 4.1 4.1 0 0 1 1.362-1.882c2.58-2.475 6.49-4.62 9.683-5.947a10.44 10.44 0 0 0-5.815.177c-5.427 1.997-10.37 4.014-14.996 7.56a9.8 9.8 0 0 0-2.455 2.357zm1.944-15.551a11.2 11.2 0 0 0-3.626.59 5.66 5.66 0 0 0-2.541 1.92c-1.973 2.604-1.924 6.172-.82 7.972.915 1.492 2.774 2.057 4.316 2.526q1.024.31 2.06.572c4.093-3.493 9.481-5.878 14.4-7.74a16 16 0 0 1 3.1-1c1.584-.218 3.19-.125 4.745.277a3 3 0 0 0-.811-.69 12 12 0 0 0-1.364-.668c-5.56-2.442-11.48-3.726-17.462-3.786-.664-.007-1.33.016-1.997.027m10.393-6.858a7.3 7.3 0 0 0-2.978-1.768 5.68 5.68 0 0 0-3.262.18 6.24 6.24 0 0 0-2.736 1.978 4.9 4.9 0 0 0-.836 1.642 5.2 5.2 0 0 0-.19 1.873c.055.865.228 1.715.514 2.522a44.6 44.6 0 0 1 15.436 2.527 34 34 0 0 1 4.709 2.006c-3.93-5.624-7.28-8.044-10.655-10.96zM83.357 2.844c-.448-.315-.896.202-1.162.71-.126.242-.255.483-.372.73a14.9 14.9 0 0 0-1.44 6.182c0 .392.103.775.3 1.102a.9.9 0 0 0 .38.248.84.84 0 0 0 .44.025.9.9 0 0 0 .402-.205c.116-.104.209-.237.269-.388.369-.79 2.032-7.57 1.183-8.404M73.814 42.86c2.011-3.566 5.449-5.619 8.512-7.897 2.932-2.182 5.936-4.789 7.4-8.46 1.602-4.013.732-8.585-1.413-12.135-1.364-2.171-3.098-4.025-5.106-5.456q-.285 1.29-.71 2.532c-.321.845-1.624 1.258-2.18.256-.482-.822-.307-1.989-.192-2.896q.11-.865.315-1.709C72.31 2.48 63.22.34 54.098.895c-4.14.258-8.38 1.156-11.915 3.68-1.645 1.103-3.05 2.595-4.115 4.368a15.4 15.4 0 0 0-2.045 5.89c-1.064 8.778 2.682 14.829.32 20.089-1.36 3.031-4.364 4.79-6.292 7.449 2.2 2.208 4.19 4.659 5.94 7.316 6.776-1.725 12.325-1.325 19.411-.973q.672-1.22 1.472-2.342a.172.172 0 0 1 .224-.032c1.321.602 2.596 1.32 3.812 2.15a.2.2 0 0 1 .084.125.23.23 0 0 1-.018.155l-.112.215 11.164.553a14.96 14.96 0 0 1 1.786-6.678m-8.097 6.78v4.66a168 168 0 0 1 21.77 13.032c.189.133.484.242.492.518.008.275 0 .55 0 .825v16.593q1.036.315 2.093.526a8.65 8.65 0 0 0 3.958.124c1.23-.282 2.314-1.073 3.034-2.21a9.3 9.3 0 0 0 1.25-3.709c.608-4.503.428-13.602-.728-20.084-.589-4.005-2.28-6.262-4.97-7.688-1.39 2.236-2.826 4.44-4.012 6.824a.2.2 0 0 1-.096.087.2.2 0 0 1-.124.008.2.2 0 0 1-.106-.072.24.24 0 0 1-.049-.127c-.204-2.672.001-5.364.607-7.962-2.457-.385-1.408-.267-23.12-1.346m22.851 8.566c1.09-2.185 2.352-4.008 3.683-6.154a13 13 0 0 0-3.025-.986 28.4 28.4 0 0 0-.658 7.14m15.736-2.114a3.7 3.7 0 0 0-2.898.013.17.17 0 0 1-.107-.005.2.2 0 0 1-.086-.07.2.2 0 0 1-.039-.11.24.24 0 0 1 .023-.115c1.056-1.653 2.357-3.828 1.467-5.905-.947-2.08-3.149-3.03-4.607-2.542a2.25 2.25 0 0 0-1.12.786c-.295.38-.479.85-.53 1.347-.015.261-.382.264-.37 0 .303-5.097-3.35-8.166-6.536-6.978a2.1 2.1 0 0 0-.769.5 2.4 2.4 0 0 0-.522.802c-.743 2.17.423 4.924 1.444 6.934 1.202.261 2.367.698 3.466 1.299a8.76 8.76 0 0 1 2.984 2.707 9.9 9.9 0 0 1 1.598 3.888 66 66 0 0 1 1.111 8.765c2.184 2.755 4.872 2.83 6.34 1.289.359-.39.608-.886.715-1.43.108-.543.07-1.11-.11-1.63a2.83 2.83 0 0 0-.899-1.296 2.42 2.42 0 0 0-1.394-.538.17.17 0 0 1-.118-.052.2.2 0 0 1-.06-.125.23.23 0 0 1 .027-.138.2.2 0 0 1 .102-.086c1.371-.437 3.192-1.054 3.393-2.891a4.74 4.74 0 0 0-.59-2.67c-.451-.797-1.122-1.411-1.913-1.752z"/><path fill="#000" d="M61.594 47.48a26 26 0 0 0-3.813-2.142.2.2 0 0 1-.06-.06.21.21 0 0 1-.024-.172.2.2 0 0 1 .04-.078l.006-.013c.683-.909 1.593-1.713 2.715-1.674.487-.026.965.156 1.335.509.37.352.603.848.651 1.386a4.2 4.2 0 0 1-.598 2.17.2.2 0 0 1-.112.094.17.17 0 0 1-.14-.02m-.014-3.302a2 2 0 0 0-1.127-.43 1.96 1.96 0 0 0-1.158.312 4.3 4.3 0 0 0-1.117 1.028 26 26 0 0 1 3.44 1.933c.428-.891.782-2.101-.038-2.845zM41.533 80.38c.098-.24.417-.032.32.206l-.712 1.74c-.098.24-.416.032-.32-.206zM91.345 49.448a2.33 2.33 0 0 1-1.247-.876 2.76 2.76 0 0 1-.526-1.527 2.43 2.43 0 0 1 .33-1.331c.234-.394.574-.697.971-.866.368-.178.775-.23 1.17-.148s.756.293 1.04.607c.251.335.429.729.52 1.152.09.423.09.863.003 1.287a2.23 2.23 0 0 1-.826 1.346c-.42.316-.933.443-1.435.356m1.607-3.661a1.7 1.7 0 0 0-.788-.604 1.54 1.54 0 0 0-.957-.035c-.316.09-.602.278-.823.543-.222.265-.37.595-.426.95a2.35 2.35 0 0 0 .32 1.525c.275.446.69.763 1.165.888.375.058.756-.03 1.077-.252s.562-.561.68-.96a2.8 2.8 0 0 0 .077-1.057 2.7 2.7 0 0 0-.325-.998M25.968 89.612a.18.18 0 0 1-.124-.063.22.22 0 0 1-.05-.141c0-.052.017-.103.05-.14a.18.18 0 0 1 .124-.064H60.26a.18.18 0 0 1 .123.063c.033.038.051.089.051.14a.22.22 0 0 1-.05.142.18.18 0 0 1-.124.063zM45.352 41.027a4.8 4.8 0 0 1-1.016 1.383 1.2 1.2 0 0 1-.466.264c-.17.05-.349.057-.522.023a1.16 1.16 0 0 1-.484-.222 1.3 1.3 0 0 1-.354-.426c-.738-1.396-.19-3.59.552-5.015a4.1 4.1 0 0 1 1.12-1.546c.704-.532 1.792-.647 2.296.257.54.967.107 2.28-.232 3.237a17 17 0 0 1-.894 2.045m.98-4.515a1.25 1.25 0 0 0-.176-.557c-.101-.166-.239-.3-.4-.39a1.63 1.63 0 0 0-1.122.1 1.86 1.86 0 0 0-.847.822 9.4 9.4 0 0 0-.966 2.13c-.282.83-.35 1.73-.198 2.601.095.938.888 1.406 1.527.839.306-.29.565-.637.765-1.025.552-.986.984-2.05 1.282-3.162.128-.438.173-.9.135-1.358M56.276 33.191a1.1 1.1 0 0 1-.374-.229c-.553-.496-.434-1.467-.35-2.164.215-1.699.55-3.377 1.004-5.018a8.1 8.1 0 0 1 .779-1.97c.247-.383.652-.7 1.034-.32.332.405.513.934.504 1.481a20.7 20.7 0 0 1-.55 5.292c-.266 1.23-.963 3.311-2.047 2.928m2.096-8.96c-.267-.646-.508-.793-.987.301-.753 1.743-1.191 4.526-1.4 5.8a8.3 8.3 0 0 0-.126 1.469c-.021.554.333 1.15.818 1.002.54-.166 1.027-1.58 1.176-2.187.428-1.657.655-3.37.672-5.093a4.2 4.2 0 0 0-.153-1.293M55.26 12.988a.76.76 0 0 1-.607.08.84.84 0 0 1-.493-.403 2.5 2.5 0 0 1-.278-.9 2.6 2.6 0 0 1 .066-.947c.261-1.294.384-4.491 1.9-4.335.51.053.697.527.734 1.034.083 1.482-.174 4.782-1.321 5.47m.962-5.18c0-.325.004-.855-.374-.916-1.176-.186-1.288 2.914-1.544 4.035-.115.476-.076.98.112 1.426.047.13.138.235.254.292a.44.44 0 0 0 .366.011c.391-.292.664-.74.762-1.252.324-1.164.467-2.38.424-3.596M47.529 29.049c-.244-.083-.356-.398-.418-.641-.19-.76-.12-2.356.568-2.148.84.363.888 1.73.325 2.58a.47.47 0 0 1-.209.185.42.42 0 0 1-.267.024m.267-2.202c-.219-.279-.28-.258-.355.1-.077.459-.065.93.035 1.383.099.382.194.445.372.021.105-.256.158-.535.155-.817a1 1 0 0 0-.041-.366 1 1 0 0 0-.166-.32M53.5 80.685a4.9 4.9 0 0 1 2.004-.846c.398-.062 1.666-.245 1.591.554-.061.647-1.114.87-1.695 1.083-1.954.716-2.21.944-3.655 1.504-.187.072-.29-.2-.179-.342a9.3 9.3 0 0 1 1.933-1.953m1.916.356q.471-.15.932-.34a.85.85 0 0 0 .327-.249c.104-.131.02-.186-.105-.221a4.15 4.15 0 0 0-2.884.806c-.495.36-.947.785-1.348 1.267.63-.265 2.217-.977 3.078-1.263M51.864 62.379c-.597.056-1.348.579-1.223 1.349.041.255-.32.372-.357.108a1.7 1.7 0 0 1 .167-.98c.151-.298.385-.533.668-.67a2.43 2.43 0 0 1 1.73-.128.3.3 0 0 1 0-.054c.2-1.225.835-2.6 2.058-2.78q.556-.07 1.114-.025a25 25 0 0 1 3.474.39q1.31.224 2.584.615a.2.2 0 0 1 .107.098.22.22 0 0 1 .016.152.2.2 0 0 1-.084.122.17.17 0 0 1-.137.023 24.7 24.7 0 0 0-6.515-1.007 1.67 1.67 0 0 0-.85.142c-.269.12-.508.311-.697.555a4.2 4.2 0 0 0-.725 1.853c2.406.727 4.74 1.72 6.966 2.962.215.112.028.464-.186.353a39 39 0 0 0-6.02-2.666 5.5 5.5 0 0 0-2.09-.412M88.981 68.292A61 61 0 0 0 93.263 71c.211.124.024.474-.186.353a61 61 0 0 1-4.282-2.706c-.201-.14-.016-.494.186-.354M93.886 82.992a8.7 8.7 0 0 0 1.337-1.375c.156-.2.416.09.261.288a9 9 0 0 1-1.412 1.44c-.19.157-.376-.198-.187-.353M1.032 43.75l4.664.849c.234.042.135.434-.098.394l-4.665-.848c-.233-.042-.133-.437.099-.394M2.489 67.86l4.046-3.15c.196-.151.38.203.187.353l-4.047 3.15c-.195.152-.38-.202-.186-.353M16.088 80.607a.2.2 0 0 1-.106-.094.23.23 0 0 1-.019-.149c.556-2.271 1.212-4.982 1.276-5.223a.2.2 0 0 1 .088-.118.17.17 0 0 1 .137-.018.2.2 0 0 1 .11.093c.025.046.032.1.02.152-.37 1.522-1.217 5.005-1.274 5.223a.2.2 0 0 1-.035.07.2.2 0 0 1-.056.05.17.17 0 0 1-.141.014M79.625 61.072c-.075.248-.431.142-.357-.109l.753-2.523c.074-.247.43-.142.356.109zM9.642 30.22l2.883 3.564c.158.195-.102.485-.261.289L9.38 30.509c-.158-.196.102-.486.261-.29M27.899 28.694c.04.027.069.07.08.121a.22.22 0 0 1-.016.15c-.624 1.22-1.099 2.101-2.211 4.11a.19.19 0 0 1-.112.087.17.17 0 0 1-.136-.022.2.2 0 0 1-.085-.12.23.23 0 0 1 .014-.152l2.21-4.11a.19.19 0 0 1 .116-.09.17.17 0 0 1 .14.026"/></svg>