<svg xmlns="http://www.w3.org/2000/svg" xmlns:xlink="http://www.w3.org/1999/xlink" width="1080" zoomAndPan="magnify" viewBox="0 0 810 809.999993" height="1080" preserveAspectRatio="xMidYMid meet" version="1.0"><defs><clipPath id="b9dcfdeb23"><path d="M 0.671875 795 L 87 795 L 87 810 L 0.671875 810 Z M 0.671875 795 " clip-rule="nonzero"/></clipPath><clipPath id="241395af10"><path d="M 352.664062 596.707031 L 415.539062 596.707031 L 415.539062 691.578125 L 352.664062 691.578125 Z M 352.664062 596.707031 " clip-rule="nonzero"/></clipPath><clipPath id="bc0926dd7f"><path d="M 360 604 L 420 604 L 420 683 L 360 683 Z M 360 604 " clip-rule="nonzero"/></clipPath><clipPath id="405d1bd43c"><path d="M 373.953125 602.980469 L 419.855469 621.394531 L 394.1875 685.382812 L 348.285156 666.96875 Z M 373.953125 602.980469 " clip-rule="nonzero"/></clipPath><clipPath id="f64da35776"><path d="M 373.953125 602.980469 L 419.855469 621.394531 L 394.1875 685.382812 L 348.285156 666.96875 Z M 373.953125 602.980469 " clip-rule="nonzero"/></clipPath></defs><rect x="-81" width="972" fill="#ffffff" y="-80.999999" height="971.999992" fill-opacity="1"/><rect x="-81" width="972" fill="#ffffff" y="-80.999999" height="971.999992" fill-opacity="1"/><path fill="#000000" d="M 538.507812 809.511719 C 537.96875 809.511719 537.535156 809.074219 537.535156 808.539062 L 537.535156 542.507812 C 537.535156 541.972656 537.96875 541.539062 538.507812 541.539062 L 570.460938 541.539062 C 570.753906 541.539062 571.03125 541.667969 571.21875 541.898438 L 785.046875 807.878906 C 785.386719 808.296875 785.316406 808.910156 784.898438 809.242188 C 784.480469 809.578125 783.871094 809.511719 783.539062 809.09375 L 569.996094 543.480469 L 539.480469 543.480469 L 539.480469 808.539062 C 539.480469 809.074219 539.046875 809.511719 538.507812 809.511719 " fill-opacity="1" fill-rule="nonzero"/><path fill="#8c7bff" d="M 534.484375 673.128906 L 674.09375 673.128906 L 700.832031 706.398438 L 561.542969 706.398438 L 534.484375 673.128906 " fill-opacity="1" fill-rule="nonzero"/><path fill="#8c7bff" d="M 595.972656 749.675781 L 735.578125 749.675781 L 762.3125 782.945312 L 623.023438 782.945312 L 595.972656 749.675781 " fill-opacity="1" fill-rule="nonzero"/><path fill="#8c7bff" d="M 474.378906 598.496094 L 614.164062 598.496094 L 640.882812 631.765625 L 501.429688 631.765625 L 474.378906 598.496094 " fill-opacity="1" fill-rule="nonzero"/><path fill="#000000" d="M 398.222656 809.511719 C 397.679688 809.511719 397.25 809.074219 397.25 808.539062 L 397.25 542.507812 C 397.25 541.972656 397.679688 541.535156 398.222656 541.535156 L 430.171875 541.535156 C 430.46875 541.535156 430.746094 541.667969 430.929688 541.894531 L 644.816406 807.929688 C 645.152344 808.347656 645.085938 808.960938 644.667969 809.296875 C 644.25 809.632812 643.636719 809.5625 643.296875 809.144531 L 429.707031 543.476562 L 399.1875 543.476562 L 399.1875 808.539062 C 399.1875 809.074219 398.757812 809.511719 398.222656 809.511719 " fill-opacity="1" fill-rule="nonzero"/><path fill="#000000" d="M 538.46875 543.476562 L 430.226562 543.476562 C 429.691406 543.476562 429.253906 543.046875 429.253906 542.507812 C 429.253906 541.972656 429.691406 541.535156 430.226562 541.535156 L 538.46875 541.535156 C 539.003906 541.535156 539.4375 541.972656 539.4375 542.507812 C 539.4375 543.046875 539.003906 543.476562 538.46875 543.476562 " fill-opacity="1" fill-rule="nonzero"/><path fill="#955b50" d="M 557.753906 455.386719 L 514.285156 469.710938 L 544.542969 561.386719 L 588.007812 547.066406 L 557.753906 455.386719 " fill-opacity="1" fill-rule="nonzero"/><path fill="#020202" d="M 520.902344 489.769531 L 569.492188 490.957031 L 557.75 455.386719 L 514.285156 469.710938 L 520.902344 489.769531 " fill-opacity="1" fill-rule="nonzero"/><path fill="#020202" d="M 573.566406 503.300781 L 530.097656 517.621094 L 544.542969 561.386719 L 588.007812 547.066406 L 573.566406 503.300781 " fill-opacity="1" fill-rule="nonzero"/><path fill="#4ada85" d="M 612.398438 558.441406 C 603.265625 545.160156 600.640625 536.160156 589.070312 528.554688 L 588.054688 527.886719 C 584.355469 525.453125 579.421875 528.097656 579.40625 532.53125 L 579.390625 539.941406 C 579.363281 547.148438 572.347656 548.707031 572.265625 548.761719 C 568.203125 550.097656 565.953125 548.257812 556.171875 546.0625 L 553.390625 537.648438 L 543.941406 533.285156 L 535.324219 536.128906 L 532.074219 547.800781 L 505.9375 576.449219 L 471.046875 585.78125 L 463.359375 596.46875 L 475.683594 607.929688 L 529.691406 616.417969 L 564.34375 596.25 L 612.398438 558.441406 " fill-opacity="1" fill-rule="nonzero"/><path fill="#020202" d="M 623.089844 563.183594 L 612.398438 558.441406 L 560.507812 593.464844 L 519.8125 609.457031 L 489.097656 605.46875 L 463.320312 596.433594 L 462.050781 604.910156 L 464.238281 611.296875 L 481.835938 623.75 C 481.835938 623.75 492.941406 625.675781 514.917969 628.953125 C 514.917969 628.953125 551.492188 618.28125 560.660156 615.234375 L 563.988281 608.816406 L 571.519531 606.335938 L 577.964844 609.53125 C 598.039062 602.839844 613.894531 597.691406 613.894531 597.691406 L 632.722656 580.792969 L 623.089844 563.183594 " fill-opacity="1" fill-rule="nonzero"/><path fill="#000000" d="M 591.613281 515.71875 L 591.625 515.71875 Z M 598.902344 509.804688 C 595.578125 509.804688 592.777344 512.410156 592.582031 515.769531 C 592.425781 518.507812 595.855469 528.308594 597.886719 533.722656 C 600.535156 528.582031 605.074219 519.246094 605.234375 516.503906 C 605.332031 514.816406 604.765625 513.195312 603.644531 511.929688 C 602.511719 510.664062 600.964844 509.914062 599.273438 509.820312 C 599.148438 509.8125 599.03125 509.804688 598.902344 509.804688 Z M 597.613281 538.417969 L 596.84375 536.4375 C 596.1875 534.746094 590.402344 519.777344 590.644531 515.660156 C 590.910156 511.105469 594.835938 507.613281 599.390625 507.878906 C 601.597656 508.003906 603.621094 508.988281 605.09375 510.632812 C 606.5625 512.285156 607.300781 514.40625 607.171875 516.617188 C 606.9375 520.730469 599.460938 534.9375 598.609375 536.542969 L 597.613281 538.417969 " fill-opacity="1" fill-rule="nonzero"/><path fill="#000000" d="M 537.140625 558.992188 C 537.046875 558.992188 536.957031 558.976562 536.863281 558.953125 L 525.808594 555.695312 C 525.292969 555.546875 525 555.003906 525.148438 554.488281 C 525.304688 553.972656 525.84375 553.679688 526.355469 553.832031 L 537.414062 557.089844 C 537.929688 557.238281 538.222656 557.78125 538.070312 558.292969 C 537.949219 558.71875 537.558594 558.992188 537.140625 558.992188 " fill-opacity="1" fill-rule="nonzero"/><path fill="#000000" d="M 531.082031 566.773438 C 530.988281 566.773438 530.894531 566.765625 530.808594 566.734375 L 519.75 563.484375 C 519.234375 563.328125 518.941406 562.792969 519.089844 562.277344 C 519.242188 561.761719 519.78125 561.460938 520.296875 561.621094 L 531.355469 564.871094 C 531.871094 565.019531 532.164062 565.5625 532.015625 566.078125 C 531.886719 566.5 531.5 566.773438 531.082031 566.773438 " fill-opacity="1" fill-rule="nonzero"/><path fill="#000000" d="M 525.019531 574.558594 C 524.933594 574.558594 524.839844 574.546875 524.746094 574.519531 L 513.691406 571.265625 C 513.175781 571.113281 512.878906 570.574219 513.035156 570.058594 C 513.183594 569.542969 513.722656 569.25 514.242188 569.402344 L 525.292969 572.65625 C 525.808594 572.804688 526.105469 573.34375 525.957031 573.859375 C 525.832031 574.289062 525.445312 574.558594 525.019531 574.558594 " fill-opacity="1" fill-rule="nonzero"/><path fill="#955b50" d="M 691.128906 510.914062 L 642.871094 519.136719 L 659.582031 617.011719 L 707.835938 608.785156 L 691.128906 510.914062 " fill-opacity="1" fill-rule="nonzero"/><path fill="#020202" d="M 646.488281 540.289062 L 698.03125 551.351562 L 691.125 510.910156 L 642.875 519.136719 L 646.488281 540.289062 " fill-opacity="1" fill-rule="nonzero"/><path fill="#020202" d="M 699.640625 560.777344 L 651.386719 569.007812 L 659.582031 617.011719 L 707.835938 608.785156 L 699.640625 560.777344 " fill-opacity="1" fill-rule="nonzero"/><path fill="#4ada85" d="M 707.605469 590.363281 L 708.507812 591.167969 C 718.820312 600.414062 720.074219 609.710938 727.125 624.199219 L 673.96875 654.4375 L 589.378906 669.949219 L 573.445312 663.914062 L 576.289062 651.074219 L 620.519531 627.59375 L 649.277344 601.722656 L 654.242188 590.664062 L 663.175781 589.136719 L 671.878906 594.855469 L 673.367188 603.589844 C 682.714844 607.21875 684.664062 609.371094 688.878906 608.652344 C 688.972656 608.609375 696.140625 608.113281 697.234375 600.996094 L 698.367188 593.667969 C 699.042969 589.289062 704.308594 587.402344 707.605469 590.363281 " fill-opacity="1" fill-rule="nonzero"/><path fill="#020202" d="M 573.445312 663.914062 L 600.753906 664.464844 L 670.597656 651.105469 L 727.125 624.199219 L 736.988281 630.480469 L 743.886719 649.324219 L 722.753906 663.238281 C 722.753906 663.238281 706.304688 665.960938 685.457031 669.59375 L 679.5625 665.472656 L 671.742188 666.808594 L 667.492188 672.65625 C 634.90625 678.304688 599.589844 684.230469 599.589844 684.230469 L 578.953125 677.75 L 574.886719 672.367188 L 573.445312 663.914062 " fill-opacity="1" fill-rule="nonzero"/><path fill="#000000" d="M 720.089844 574.03125 C 717.15625 574.03125 714.519531 576.078125 713.890625 579.058594 C 713.328125 581.738281 715.261719 591.941406 716.457031 597.597656 C 719.835938 592.902344 725.726562 584.351562 726.289062 581.664062 C 726.636719 580.011719 726.320312 578.320312 725.398438 576.902344 C 724.472656 575.484375 723.054688 574.515625 721.402344 574.167969 C 720.960938 574.074219 720.519531 574.03125 720.089844 574.03125 Z M 715.484375 602.195312 L 715.019531 600.125 C 714.625 598.355469 711.136719 582.695312 711.988281 578.65625 C 712.929688 574.191406 717.328125 571.320312 721.792969 572.265625 C 723.960938 572.71875 725.816406 573.992188 727.023438 575.839844 C 728.234375 577.691406 728.644531 579.902344 728.195312 582.0625 C 727.339844 586.105469 717.828125 599.027344 716.753906 600.492188 L 715.484375 602.195312 " fill-opacity="1" fill-rule="nonzero"/><path fill="#000000" d="M 652.765625 613.550781 C 652.628906 613.550781 652.496094 613.519531 652.359375 613.457031 L 641.914062 608.597656 C 641.421875 608.371094 641.214844 607.792969 641.441406 607.304688 C 641.664062 606.816406 642.246094 606.609375 642.726562 606.835938 L 653.179688 611.695312 C 653.664062 611.925781 653.875 612.503906 653.652344 612.988281 C 653.484375 613.34375 653.132812 613.550781 652.765625 613.550781 " fill-opacity="1" fill-rule="nonzero"/><path fill="#000000" d="M 645.621094 620.34375 C 645.480469 620.34375 645.34375 620.316406 645.207031 620.253906 L 634.761719 615.390625 C 634.269531 615.167969 634.066406 614.585938 634.289062 614.101562 C 634.515625 613.613281 635.09375 613.40625 635.582031 613.628906 L 646.03125 618.492188 C 646.519531 618.722656 646.726562 619.296875 646.503906 619.78125 C 646.332031 620.140625 645.988281 620.34375 645.621094 620.34375 " fill-opacity="1" fill-rule="nonzero"/><path fill="#000000" d="M 638.464844 627.144531 C 638.324219 627.144531 638.183594 627.113281 638.054688 627.050781 L 627.605469 622.191406 C 627.117188 621.964844 626.910156 621.382812 627.136719 620.898438 C 627.359375 620.414062 627.941406 620.203125 628.425781 620.429688 L 638.875 625.289062 C 639.359375 625.511719 639.570312 626.09375 639.34375 626.582031 C 639.179688 626.9375 638.832031 627.144531 638.464844 627.144531 " fill-opacity="1" fill-rule="nonzero"/><path fill="#fed101" d="M 642.09375 186.664062 L 632.074219 251.691406 L 610.339844 353.332031 C 602.828125 388.476562 603.679688 424.890625 612.820312 459.640625 L 642.09375 570.894531 L 715.367188 570.894531 L 686.855469 420.5 L 715.355469 251.761719 L 715.367188 251.761719 L 715.367188 186.664062 L 642.09375 186.664062 " fill-opacity="1" fill-rule="nonzero"/><path fill="#000000" d="M 642.835938 569.921875 L 714.1875 569.921875 L 685.90625 420.683594 C 685.886719 420.566406 685.878906 420.457031 685.902344 420.339844 L 714.394531 251.617188 L 714.394531 187.640625 L 642.921875 187.640625 L 633.027344 251.847656 L 611.292969 353.539062 C 603.84375 388.355469 604.699219 424.960938 613.753906 459.398438 Z M 715.367188 571.863281 L 642.089844 571.863281 C 641.644531 571.863281 641.265625 571.570312 641.148438 571.144531 L 611.875 459.894531 C 602.742188 425.164062 601.878906 388.246094 609.382812 353.132812 L 631.117188 251.492188 L 641.132812 186.523438 C 641.199219 186.046875 641.613281 185.699219 642.089844 185.699219 L 715.367188 185.699219 C 715.902344 185.699219 716.335938 186.132812 716.335938 186.667969 L 716.335938 251.761719 C 716.335938 251.871094 716.320312 251.972656 716.289062 252.066406 L 687.84375 420.492188 L 716.320312 570.710938 C 716.371094 570.996094 716.296875 571.292969 716.113281 571.511719 C 715.925781 571.734375 715.652344 571.863281 715.367188 571.863281 " fill-opacity="1" fill-rule="nonzero"/><path fill="#fed101" d="M 678.753906 264.511719 L 685.375 199.757812 L 612.484375 192.3125 L 611.421875 202.660156 L 497.601562 322.757812 C 481.601562 339.648438 475.398438 363.558594 481.167969 386.089844 L 512.867188 509.828125 L 584.042969 510.574219 L 566.570312 380.007812 L 661.597656 262.761719 L 678.753906 264.511719 " fill-opacity="1" fill-rule="nonzero"/><path fill="#020202" d="M 623.085938 221.058594 L 715.367188 202.035156 L 715.367188 196.265625 L 623.085938 196.265625 L 623.085938 221.058594 " fill-opacity="1" fill-rule="nonzero"/><path fill="#8c7bff" d="M 794.476562 140.222656 L 584.617188 7.441406 C 572.839844 -0.0078125 557.253906 3.492188 549.796875 15.257812 C 542.339844 27.019531 545.839844 42.597656 557.617188 50.046875 L 611.890625 84.382812 L 611.890625 201.996094 L 721.871094 201.996094 L 721.871094 153.972656 L 767.484375 182.828125 C 779.253906 190.277344 794.847656 186.777344 802.296875 175.011719 C 809.761719 163.246094 806.25 147.671875 794.476562 140.222656 " fill-opacity="1" fill-rule="nonzero"/><path fill="#ffffff" d="M 634.042969 106.605469 L 125.515625 106.605469 L 125.515625 75.148438 L 634.042969 75.148438 L 634.042969 106.605469 " fill-opacity="1" fill-rule="nonzero"/><path fill="#000000" d="M 126.488281 105.636719 L 633.074219 105.636719 L 633.074219 76.125 L 126.488281 76.125 Z M 634.039062 107.582031 L 125.515625 107.582031 C 124.980469 107.582031 124.546875 107.144531 124.546875 106.609375 L 124.546875 75.148438 C 124.546875 74.613281 124.980469 74.179688 125.515625 74.179688 L 634.039062 74.179688 C 634.582031 74.179688 635.011719 74.613281 635.011719 75.148438 L 635.011719 106.609375 C 635.011719 107.144531 634.582031 107.582031 634.039062 107.582031 " fill-opacity="1" fill-rule="nonzero"/><path fill="#ffffff" d="M 634.042969 437.476562 L 125.515625 437.476562 L 125.515625 106.917969 L 634.042969 106.917969 L 634.042969 437.476562 " fill-opacity="1" fill-rule="nonzero"/><path fill="#000000" d="M 126.492188 436.5 L 633.074219 436.5 L 633.074219 107.882812 L 126.492188 107.882812 Z M 634.046875 438.441406 L 125.519531 438.441406 C 124.984375 438.441406 124.546875 438.011719 124.546875 437.472656 L 124.546875 106.910156 C 124.546875 106.371094 124.984375 105.941406 125.519531 105.941406 L 634.046875 105.941406 C 634.585938 105.941406 635.019531 106.371094 635.019531 106.910156 L 635.019531 437.472656 C 635.019531 438.011719 634.585938 438.441406 634.046875 438.441406 " fill-opacity="1" fill-rule="nonzero"/><path fill="#000000" d="M 150.921875 84.578125 C 147.269531 84.578125 144.296875 87.5625 144.296875 91.226562 C 144.296875 94.890625 147.269531 97.871094 150.921875 97.871094 C 154.578125 97.871094 157.550781 94.890625 157.550781 91.226562 C 157.550781 87.5625 154.578125 84.578125 150.921875 84.578125 Z M 150.921875 99.8125 C 146.195312 99.8125 142.351562 95.960938 142.351562 91.226562 C 142.351562 86.488281 146.195312 82.636719 150.921875 82.636719 C 155.648438 82.636719 159.492188 86.488281 159.492188 91.226562 C 159.492188 95.960938 155.648438 99.8125 150.921875 99.8125 " fill-opacity="1" fill-rule="nonzero"/><path fill="#000000" d="M 177.324219 84.578125 C 173.671875 84.578125 170.699219 87.5625 170.699219 91.226562 C 170.699219 94.890625 173.671875 97.871094 177.324219 97.871094 C 180.976562 97.871094 183.949219 94.890625 183.949219 91.226562 C 183.949219 87.5625 180.976562 84.578125 177.324219 84.578125 Z M 177.324219 99.8125 C 172.597656 99.8125 168.753906 95.960938 168.753906 91.226562 C 168.753906 86.488281 172.597656 82.636719 177.324219 82.636719 C 182.046875 82.636719 185.894531 86.488281 185.894531 91.226562 C 185.894531 95.960938 182.046875 99.8125 177.324219 99.8125 " fill-opacity="1" fill-rule="nonzero"/><path fill="#000000" d="M 203.722656 84.578125 C 200.070312 84.578125 197.097656 87.5625 197.097656 91.226562 C 197.097656 94.890625 200.070312 97.871094 203.722656 97.871094 C 207.375 97.871094 210.351562 94.890625 210.351562 91.226562 C 210.351562 87.5625 207.375 84.578125 203.722656 84.578125 Z M 203.722656 99.8125 C 198.996094 99.8125 195.15625 95.960938 195.15625 91.226562 C 195.15625 86.488281 198.996094 82.636719 203.722656 82.636719 C 208.449219 82.636719 212.292969 86.488281 212.292969 91.226562 C 212.292969 95.960938 208.449219 99.8125 203.722656 99.8125 " fill-opacity="1" fill-rule="nonzero"/><path fill="#4ada85" d="M 368.464844 228.398438 L 218.25 228.398438 L 218.25 125.910156 L 368.464844 125.910156 L 368.464844 228.398438 " fill-opacity="1" fill-rule="nonzero"/><path fill="#ffffff" d="M 210.777344 216.09375 C 210.601562 216.09375 210.425781 216.046875 210.265625 215.949219 C 209.808594 215.65625 209.671875 215.058594 209.957031 214.605469 L 249.203125 151.898438 C 249.367188 151.636719 249.648438 151.46875 249.960938 151.445312 C 250.277344 151.429688 250.574219 151.558594 250.773438 151.796875 L 272.113281 177.546875 L 286.898438 156.789062 C 287.082031 156.53125 287.394531 156.382812 287.703125 156.382812 C 288.023438 156.390625 288.320312 156.546875 288.496094 156.816406 L 316.835938 199.179688 L 363.484375 129.632812 C 363.78125 129.1875 364.386719 129.070312 364.832031 129.371094 C 365.277344 129.671875 365.398438 130.273438 365.097656 130.71875 L 317.644531 201.464844 C 317.464844 201.738281 317.160156 201.898438 316.835938 201.898438 C 316.511719 201.898438 316.207031 201.738281 316.027344 201.464844 L 287.664062 159.066406 L 272.960938 179.699219 C 272.785156 179.949219 272.503906 180.097656 272.203125 180.105469 C 271.898438 180.132812 271.613281 179.988281 271.421875 179.757812 L 250.136719 154.074219 L 211.605469 215.640625 C 211.417969 215.933594 211.101562 216.09375 210.777344 216.09375 " fill-opacity="1" fill-rule="nonzero"/><path fill="#ffffff" d="M 362.980469 147.230469 C 362.957031 147.230469 362.929688 147.230469 362.90625 147.226562 C 362.367188 147.1875 361.972656 146.714844 362.011719 146.179688 L 363.183594 131.761719 L 349.296875 138.210938 C 348.8125 138.433594 348.234375 138.226562 348.003906 137.738281 C 347.78125 137.25 347.992188 136.671875 348.480469 136.449219 L 363.878906 129.296875 C 364.195312 129.148438 364.566406 129.179688 364.84375 129.378906 C 365.128906 129.578125 365.289062 129.910156 365.261719 130.257812 L 363.953125 146.339844 C 363.90625 146.847656 363.484375 147.230469 362.980469 147.230469 " fill-opacity="1" fill-rule="nonzero"/><path fill="#fed101" d="M 422.308594 259.109375 L 404.308594 259.109375 L 404.308594 133.226562 L 422.308594 133.226562 L 422.308594 259.109375 " fill-opacity="1" fill-rule="nonzero"/><path fill="#fed101" d="M 457.507812 259.109375 L 439.507812 259.109375 L 439.507812 133.226562 L 457.507812 133.226562 L 457.507812 259.109375 " fill-opacity="1" fill-rule="nonzero"/><path fill="#fed101" d="M 492.710938 259.109375 L 474.703125 259.109375 L 474.703125 133.226562 L 492.710938 133.226562 L 492.710938 259.109375 " fill-opacity="1" fill-rule="nonzero"/><path fill="#fed101" d="M 527.910156 259.109375 L 509.910156 259.109375 L 509.910156 133.226562 L 527.910156 133.226562 L 527.910156 259.109375 " fill-opacity="1" fill-rule="nonzero"/><path fill="#fed101" d="M 563.105469 259.109375 L 545.109375 259.109375 L 545.109375 133.226562 L 563.105469 133.226562 L 563.105469 259.109375 " fill-opacity="1" fill-rule="nonzero"/><path fill="#fed101" d="M 598.308594 259.109375 L 580.308594 259.109375 L 580.308594 133.226562 L 598.308594 133.226562 L 598.308594 259.109375 " fill-opacity="1" fill-rule="nonzero"/><path fill="#ff7dce" d="M 422.304688 259.113281 L 404.304688 259.113281 L 404.304688 204.027344 L 422.304688 204.027344 L 422.304688 259.113281 " fill-opacity="1" fill-rule="nonzero"/><path fill="#ff7dce" d="M 457.507812 259.113281 L 439.507812 259.113281 L 439.507812 177.476562 L 457.507812 177.476562 L 457.507812 259.113281 " fill-opacity="1" fill-rule="nonzero"/><path fill="#ff7dce" d="M 492.710938 259.113281 L 474.703125 259.113281 L 474.703125 177.476562 L 492.710938 177.476562 L 492.710938 259.113281 " fill-opacity="1" fill-rule="nonzero"/><path fill="#ff7dce" d="M 527.910156 259.113281 L 509.910156 259.113281 L 509.910156 143.894531 L 527.910156 143.894531 L 527.910156 259.113281 " fill-opacity="1" fill-rule="nonzero"/><path fill="#ff7dce" d="M 563.101562 259.117188 L 545.105469 259.117188 L 545.105469 155.246094 L 563.101562 155.246094 L 563.101562 259.117188 " fill-opacity="1" fill-rule="nonzero"/><path fill="#ff7dce" d="M 598.308594 259.109375 L 580.3125 259.109375 L 580.3125 183.953125 L 598.308594 183.953125 L 598.308594 259.109375 " fill-opacity="1" fill-rule="nonzero"/><path fill="#8c7bff" d="M 598.308594 325.671875 L 404.304688 325.671875 L 404.304688 282.09375 L 598.308594 282.09375 L 598.308594 325.671875 " fill-opacity="1" fill-rule="nonzero"/><path fill="#8c7bff" d="M 598.308594 368.105469 L 404.304688 368.105469 L 404.304688 340.886719 L 598.308594 340.886719 L 598.308594 368.105469 " fill-opacity="1" fill-rule="nonzero"/><path fill="#955b50" d="M 474.6875 145.582031 L 464.820312 141.445312 L 455.191406 160.800781 C 453.78125 163.65625 454.84375 166.886719 457.570312 168.027344 C 460.296875 169.167969 463.648438 167.785156 465.070312 164.933594 L 474.6875 145.582031 " fill-opacity="1" fill-rule="nonzero"/><path fill="#955b50" d="M 467.355469 136.25 L 457.488281 132.117188 L 447.867188 151.472656 C 446.449219 154.324219 447.515625 157.554688 450.242188 158.695312 C 452.964844 159.839844 456.324219 158.453125 457.742188 155.601562 L 467.355469 136.25 " fill-opacity="1" fill-rule="nonzero"/><path fill="#955b50" d="M 458.371094 130.375 L 449.5625 126.6875 L 440.96875 143.972656 C 439.703125 146.519531 440.652344 149.40625 443.085938 150.425781 C 445.515625 151.445312 448.515625 150.207031 449.785156 147.667969 L 458.371094 130.375 " fill-opacity="1" fill-rule="nonzero"/><path fill="#955b50" d="M 480.601562 157.691406 L 473.132812 150.226562 L 442.910156 180.425781 C 440.847656 182.492188 440.847656 185.832031 442.910156 187.894531 C 444.96875 189.953125 448.316406 189.953125 450.378906 187.894531 L 480.601562 157.691406 " fill-opacity="1" fill-rule="nonzero"/><path fill="#955b50" d="M 508.152344 132.582031 L 487.3125 138.246094 L 486.328125 175.230469 C 486.003906 178.300781 488.222656 180.804688 491.277344 180.832031 C 494.328125 180.851562 497.066406 178.382812 497.390625 175.3125 L 499.144531 158.644531 L 508.152344 132.582031 " fill-opacity="1" fill-rule="nonzero"/><path fill="#955b50" d="M 508.152344 131.660156 L 530.0625 104.21875 L 498.753906 80.015625 L 478.957031 104.164062 L 449.59375 126.648438 L 480.605469 157.691406 L 508.152344 131.660156 " fill-opacity="1" fill-rule="nonzero"/><path fill="#020202" d="M 530.0625 104.21875 L 498.753906 80.015625 L 491.023438 88.648438 L 515.003906 123.222656 L 530.0625 104.21875 " fill-opacity="1" fill-rule="nonzero"/><path fill="#000000" d="M 455.53125 167.484375 C 455.296875 167.484375 455.066406 167.402344 454.875 167.234375 C 452.140625 164.765625 453.78125 161.460938 454.324219 160.375 L 462.867188 143.105469 C 463.109375 142.617188 463.6875 142.425781 464.167969 142.664062 C 464.652344 142.898438 464.847656 143.484375 464.605469 143.960938 L 456.0625 161.242188 C 454.722656 163.933594 455.328125 165.019531 456.183594 165.789062 C 456.582031 166.148438 456.617188 166.761719 456.25 167.164062 C 456.0625 167.371094 455.796875 167.484375 455.53125 167.484375 " fill-opacity="1" fill-rule="nonzero"/><path fill="#000000" d="M 452.238281 160.066406 C 451.433594 160.066406 450.625 159.914062 449.863281 159.597656 C 448.363281 158.96875 447.226562 157.78125 446.652344 156.253906 C 446.042969 154.605469 446.167969 152.710938 446.996094 151.039062 L 455.582031 133.8125 C 455.820312 133.332031 456.40625 133.132812 456.886719 133.375 C 457.367188 133.613281 457.566406 134.195312 457.324219 134.679688 L 448.734375 151.90625 C 448.148438 153.09375 448.046875 154.433594 448.472656 155.578125 C 448.855469 156.59375 449.613281 157.382812 450.617188 157.800781 C 452.867188 158.75 455.679688 157.570312 456.867188 155.171875 L 462.867188 143.097656 C 463.105469 142.617188 463.691406 142.417969 464.171875 142.660156 C 464.652344 142.898438 464.847656 143.480469 464.613281 143.960938 L 458.605469 156.035156 C 457.363281 158.542969 454.796875 160.066406 452.238281 160.066406 " fill-opacity="1" fill-rule="nonzero"/><path fill="#000000" d="M 444.871094 151.75 C 444.140625 151.75 443.402344 151.613281 442.714844 151.320312 C 441.339844 150.746094 440.304688 149.667969 439.792969 148.277344 C 439.230469 146.785156 439.34375 145.058594 440.097656 143.539062 L 448.691406 126.253906 C 448.925781 125.773438 449.507812 125.574219 449.992188 125.8125 C 450.472656 126.054688 450.664062 126.636719 450.429688 127.121094 L 441.835938 144.402344 C 441.320312 145.445312 441.238281 146.605469 441.613281 147.601562 C 441.9375 148.484375 442.597656 149.167969 443.464844 149.53125 C 445.433594 150.351562 447.875 149.320312 448.914062 147.230469 L 455.589844 133.808594 C 455.824219 133.328125 456.402344 133.128906 456.882812 133.375 C 457.363281 133.613281 457.5625 134.195312 457.328125 134.675781 L 450.65625 148.097656 C 449.527344 150.367188 447.199219 151.75 444.871094 151.75 " fill-opacity="1" fill-rule="nonzero"/><path fill="#000000" d="M 446.644531 190.410156 C 445.039062 190.410156 443.441406 189.800781 442.21875 188.582031 C 441.039062 187.398438 440.390625 185.832031 440.390625 184.164062 C 440.390625 182.492188 441.039062 180.925781 442.21875 179.746094 L 471.785156 148.90625 C 472.148438 148.519531 472.769531 148.503906 473.15625 148.875 C 473.542969 149.25 473.554688 149.863281 473.183594 150.25 L 443.609375 181.105469 C 442.78125 181.933594 442.332031 183.015625 442.332031 184.164062 C 442.332031 185.3125 442.78125 186.390625 443.59375 187.207031 C 445.273438 188.886719 448.007812 188.886719 449.691406 187.207031 L 479.917969 157.007812 C 480.300781 156.625 480.910156 156.625 481.292969 157.007812 C 481.671875 157.382812 481.671875 158.003906 481.292969 158.382812 L 451.066406 188.582031 C 449.84375 189.800781 448.246094 190.410156 446.644531 190.410156 " fill-opacity="1" fill-rule="nonzero"/><path fill="#000000" d="M 491.3125 181.800781 C 491.296875 181.800781 491.28125 181.800781 491.265625 181.800781 C 489.519531 181.785156 487.945312 181.09375 486.828125 179.84375 C 485.695312 178.574219 485.179688 176.898438 485.359375 175.128906 L 485.976562 151.886719 C 485.992188 151.351562 486.445312 150.902344 486.976562 150.9375 C 487.511719 150.953125 487.933594 151.402344 487.917969 151.9375 L 487.300781 175.257812 C 487.167969 176.550781 487.515625 177.691406 488.277344 178.546875 C 489.027344 179.382812 490.089844 179.847656 491.277344 179.859375 C 491.292969 179.859375 491.308594 179.859375 491.3125 179.859375 C 493.867188 179.859375 496.152344 177.78125 496.421875 175.210938 L 498.179688 158.542969 C 498.191406 158.476562 498.207031 158.402344 498.226562 158.339844 L 507.230469 131.363281 C 507.269531 131.25 507.324219 131.144531 507.398438 131.054688 L 525.726562 108.457031 C 526.066406 108.042969 526.679688 107.980469 527.09375 108.316406 C 527.507812 108.65625 527.570312 109.265625 527.238281 109.683594 L 509.015625 132.144531 L 500.101562 158.851562 L 498.355469 175.414062 C 497.988281 178.949219 494.832031 181.800781 491.3125 181.800781 " fill-opacity="1" fill-rule="nonzero"/><path fill="#000000" d="M 480.605469 158.667969 C 480.339844 158.667969 480.078125 158.558594 479.882812 158.351562 C 479.523438 157.953125 479.554688 157.339844 479.949219 156.976562 L 492.398438 145.628906 C 492.796875 145.265625 493.40625 145.296875 493.773438 145.691406 C 494.136719 146.089844 494.105469 146.703125 493.707031 147.0625 L 481.257812 158.414062 C 481.074219 158.585938 480.839844 158.667969 480.605469 158.667969 " fill-opacity="1" fill-rule="nonzero"/><path fill="#000000" d="M 449.59375 127.621094 C 449.304688 127.621094 449.019531 127.492188 448.820312 127.242188 C 448.496094 126.820312 448.578125 126.207031 449 125.878906 L 478.269531 103.46875 L 494.214844 84.15625 C 494.558594 83.742188 495.167969 83.683594 495.582031 84.023438 C 495.996094 84.363281 496.054688 84.984375 495.710938 85.394531 L 479.703125 104.789062 C 479.652344 104.84375 479.601562 104.898438 479.546875 104.941406 L 450.1875 127.425781 C 450.011719 127.554688 449.800781 127.621094 449.59375 127.621094 " fill-opacity="1" fill-rule="nonzero"/><path fill="#8c7bff" d="M 486.464844 85.167969 L 525.808594 115.144531 L 583.417969 42.28125 L 553.476562 10.703125 L 486.464844 85.167969 " fill-opacity="1" fill-rule="nonzero"/><path fill="#000000" d="M 525.808594 116.117188 C 525.59375 116.117188 525.378906 116.050781 525.203125 115.902344 C 524.785156 115.574219 524.714844 114.960938 525.042969 114.542969 L 582.65625 41.679688 C 582.992188 41.257812 583.597656 41.183594 584.019531 41.515625 C 584.441406 41.855469 584.515625 42.460938 584.183594 42.882812 L 526.566406 115.746094 C 526.375 115.988281 526.09375 116.117188 525.808594 116.117188 " fill-opacity="1" fill-rule="nonzero"/><path fill="#8c7bff" d="M 781.796875 186.671875 L 687.851562 186.671875 L 687.851562 135.699219 L 781.796875 135.699219 L 781.796875 186.671875 " fill-opacity="1" fill-rule="nonzero"/><path fill="#000000" d="M 721.933594 187.644531 L 687.847656 187.644531 C 687.316406 187.644531 686.878906 187.210938 686.878906 186.675781 L 686.878906 135.707031 C 686.878906 135.164062 687.316406 134.730469 687.847656 134.730469 L 769.832031 134.730469 C 770.371094 134.730469 770.804688 135.164062 770.804688 135.707031 C 770.804688 136.242188 770.371094 136.675781 769.832031 136.675781 L 688.820312 136.675781 L 688.820312 185.703125 L 721.933594 185.703125 C 722.46875 185.703125 722.902344 186.136719 722.902344 186.675781 C 722.902344 187.210938 722.46875 187.644531 721.933594 187.644531 " fill-opacity="1" fill-rule="nonzero"/><path fill="#955b50" d="M 673.976562 144.226562 C 669.921875 144.226562 667.570312 138.632812 658.417969 138.632812 L 636.355469 138.632812 C 629.804688 138.632812 623.550781 141.371094 619.105469 146.167969 L 616.78125 148.679688 C 614.976562 150.625 614.589844 153.4375 615.679688 155.761719 L 615.722656 155.792969 L 613.105469 158.617188 C 611.101562 160.777344 610.839844 164 612.417969 166.445312 L 610.851562 168.136719 C 608.777344 170.378906 608.5625 173.769531 610.347656 176.25 L 611.90625 178.40625 C 610.523438 180.429688 610.507812 183.132812 611.984375 185.171875 C 614.183594 188.222656 618.644531 188.460938 621.160156 185.660156 L 623.953125 182.550781 C 625.28125 181.058594 627.1875 180.214844 629.179688 180.214844 L 687.851562 180.214844 L 687.851562 144.226562 L 673.976562 144.226562 " fill-opacity="1" fill-rule="nonzero"/><path fill="#020202" d="M 675.019531 144.226562 L 687.851562 180.214844 L 687.851562 144.226562 L 675.019531 144.226562 " fill-opacity="1" fill-rule="nonzero"/><path fill="#000000" d="M 612.417969 167.414062 C 612.097656 167.414062 611.785156 167.253906 611.601562 166.96875 C 609.777344 164.136719 610.105469 160.425781 612.394531 157.953125 L 616.5 153.519531 C 619.992188 149.753906 624.925781 147.597656 630.058594 147.597656 L 641.363281 147.597656 C 641.898438 147.597656 642.335938 148.035156 642.335938 148.574219 C 642.335938 149.109375 641.898438 149.542969 641.363281 149.542969 L 630.058594 149.542969 C 625.46875 149.542969 621.050781 151.472656 617.929688 154.839844 L 613.820312 159.273438 C 612.136719 161.097656 611.890625 163.828125 613.234375 165.914062 C 613.527344 166.367188 613.398438 166.96875 612.945312 167.261719 C 612.78125 167.363281 612.601562 167.414062 612.417969 167.414062 " fill-opacity="1" fill-rule="nonzero"/><path fill="#000000" d="M 611.925781 179.394531 C 611.625 179.394531 611.328125 179.253906 611.136719 178.992188 L 609.566406 176.8125 C 607.519531 173.972656 607.757812 170.046875 610.140625 167.472656 L 615.066406 162.15625 C 618.027344 158.953125 622.230469 157.117188 626.597656 157.117188 L 641.472656 157.117188 C 642.007812 157.117188 642.441406 157.554688 642.441406 158.089844 C 642.441406 158.625 642.007812 159.0625 641.472656 159.0625 L 626.597656 159.0625 C 622.773438 159.0625 619.09375 160.671875 616.492188 163.472656 L 611.566406 168.796875 C 609.808594 170.6875 609.632812 173.585938 611.144531 175.675781 L 612.710938 177.851562 C 613.03125 178.289062 612.925781 178.898438 612.488281 179.214844 C 612.316406 179.335938 612.121094 179.394531 611.925781 179.394531 " fill-opacity="1" fill-rule="nonzero"/><path fill="#000000" d="M 688.828125 181.183594 L 652.332031 181.183594 C 651.796875 181.183594 651.363281 180.746094 651.363281 180.207031 C 651.363281 179.675781 651.796875 179.238281 652.332031 179.238281 L 686.882812 179.238281 L 686.882812 145.195312 L 673.984375 145.195312 C 672.070312 145.195312 670.585938 144.210938 668.855469 143.066406 C 666.527344 141.527344 663.625 139.605469 658.421875 139.605469 L 636.359375 139.605469 C 630.101562 139.605469 624.074219 142.238281 619.824219 146.824219 L 617.496094 149.339844 C 615.984375 150.972656 615.617188 153.332031 616.5625 155.347656 C 616.792969 155.828125 616.582031 156.410156 616.097656 156.640625 C 615.613281 156.867188 615.03125 156.660156 614.808594 156.175781 C 613.515625 153.433594 614.011719 150.234375 616.070312 148.015625 L 618.398438 145.507812 C 623.015625 140.523438 629.5625 137.664062 636.359375 137.664062 L 658.421875 137.664062 C 664.210938 137.664062 667.519531 139.851562 669.929688 141.445312 C 671.453125 142.457031 672.652344 143.25 673.984375 143.25 L 688.828125 143.25 L 688.828125 181.183594 " fill-opacity="1" fill-rule="nonzero"/><path fill="#000000" d="M 616.773438 188.59375 C 616.648438 188.59375 616.527344 188.585938 616.40625 188.582031 C 614.316406 188.46875 612.410156 187.433594 611.191406 185.738281 C 609.289062 183.097656 609.515625 179.449219 611.726562 177.0625 L 616.871094 171.511719 C 619.882812 168.257812 624.15625 166.394531 628.589844 166.394531 L 640.964844 166.394531 C 641.5 166.394531 641.9375 166.828125 641.9375 167.367188 C 641.9375 167.902344 641.5 168.335938 640.964844 168.335938 L 628.589844 168.335938 C 624.691406 168.335938 620.9375 169.976562 618.292969 172.832031 L 613.152344 178.382812 C 611.570312 180.09375 611.40625 182.710938 612.769531 184.601562 C 613.648438 185.820312 615.007812 186.558594 616.507812 186.644531 C 618.003906 186.71875 619.4375 186.125 620.4375 185.011719 L 623.226562 181.898438 C 624.746094 180.207031 626.914062 179.242188 629.183594 179.242188 L 664.535156 179.242188 C 670.363281 179.242188 675.796875 176.355469 679.078125 171.53125 C 679.378906 171.089844 679.976562 170.972656 680.421875 171.269531 C 680.867188 171.570312 680.980469 172.179688 680.683594 172.621094 C 677.046875 177.980469 671.007812 181.183594 664.535156 181.183594 L 629.183594 181.183594 C 627.46875 181.183594 625.820312 181.917969 624.675781 183.199219 L 621.878906 186.308594 C 620.570312 187.769531 618.726562 188.59375 616.773438 188.59375 " fill-opacity="1" fill-rule="nonzero"/><path fill="#955b50" d="M 683.085938 78.453125 L 663.078125 88.21875 L 663.078125 51.558594 L 683.085938 51.558594 L 683.085938 78.453125 " fill-opacity="1" fill-rule="nonzero"/><path fill="#000000" d="M 683.085938 59.136719 L 683.085938 51.558594 L 663.078125 51.558594 L 663.078125 68.289062 C 664.882812 68.652344 668.484375 69.101562 672.613281 67.742188 C 679.085938 65.613281 682.265625 60.558594 683.085938 59.136719 " fill-opacity="1" fill-rule="nonzero"/><path fill="#000000" d="M 705.601562 33.175781 L 684.648438 52.640625 L 656.699219 35.933594 L 663.976562 8.304688 L 705.601562 33.175781 " fill-opacity="1" fill-rule="nonzero"/><path fill="#955b50" d="M 686.597656 45.308594 C 686.609375 55.332031 679.273438 63.472656 670.203125 63.488281 C 661.132812 63.511719 653.765625 55.398438 653.753906 45.382812 C 653.738281 35.359375 661.078125 27.21875 670.148438 27.195312 C 679.21875 27.179688 686.582031 35.285156 686.597656 45.308594 " fill-opacity="1" fill-rule="nonzero"/><path fill="#ffffff" d="M 677.320312 53.300781 C 675.738281 54.753906 673.699219 55.742188 671.390625 55.980469 C 666.246094 56.515625 661.613281 53.1875 660.332031 48.34375 L 677.320312 53.300781 " fill-opacity="1" fill-rule="nonzero"/><path fill="#8c7bff" d="M 58.007812 108.304688 C 41.960938 100.601562 35.203125 81.351562 42.914062 65.320312 C 50.625 49.28125 69.882812 42.53125 85.929688 50.234375 C 101.980469 57.941406 108.738281 77.183594 101.027344 93.222656 C 93.316406 109.253906 74.058594 116.003906 58.007812 108.304688 Z M 129.402344 121.011719 L 140.472656 97.992188 L 126.113281 91.09375 C 127.398438 85.226562 127.695312 79.28125 127.078125 73.476562 L 142.121094 68.210938 L 133.65625 44.105469 L 118.617188 49.378906 C 115.46875 44.460938 111.519531 40.007812 106.84375 36.230469 L 113.746094 21.878906 L 90.703125 10.820312 L 83.800781 25.171875 C 77.933594 23.886719 71.984375 23.589844 66.179688 24.203125 L 60.898438 9.171875 L 36.777344 17.628906 L 42.054688 32.664062 C 37.132812 35.808594 32.675781 39.75 28.898438 44.417969 L 13.792969 37.9375 L 3.097656 60.308594 L 17.828125 67.449219 C 16.539062 73.308594 16.242188 79.253906 16.859375 85.054688 L 1.820312 90.332031 L 10.285156 114.433594 L 25.324219 109.160156 C 28.472656 114.074219 32.421875 118.53125 37.09375 122.304688 L 30.195312 136.65625 L 53.238281 147.722656 L 60.136719 133.371094 C 66.007812 134.65625 71.953125 134.949219 77.761719 134.335938 L 83.042969 149.367188 L 107.164062 140.90625 L 101.886719 125.878906 C 106.804688 122.734375 111.261719 118.785156 115.039062 114.117188 L 129.402344 121.011719 " fill-opacity="1" fill-rule="nonzero"/><path fill="#fed101" d="M 378.007812 535.855469 L 295.996094 535.855469 L 277.066406 552.679688 L 277.066406 469.707031 L 378.007812 469.707031 L 378.007812 535.855469 " fill-opacity="1" fill-rule="nonzero"/><path fill="#ffffff" d="M 356.882812 489.476562 L 460.332031 489.476562 L 484.207031 510.703125 L 484.207031 406.039062 L 356.882812 406.039062 L 356.882812 489.476562 " fill-opacity="1" fill-rule="nonzero"/><path fill="#000000" d="M 357.851562 488.503906 L 460.332031 488.503906 C 460.570312 488.503906 460.796875 488.59375 460.976562 488.75 L 483.238281 508.535156 L 483.238281 407.007812 L 357.851562 407.007812 Z M 484.207031 511.671875 C 483.972656 511.671875 483.742188 511.585938 483.558594 511.425781 L 459.960938 490.449219 L 356.882812 490.449219 C 356.34375 490.449219 355.910156 490.015625 355.910156 489.476562 L 355.910156 406.039062 C 355.910156 405.5 356.34375 405.0625 356.882812 405.0625 L 484.207031 405.0625 C 484.742188 405.0625 485.179688 405.5 485.179688 406.039062 L 485.179688 510.703125 C 485.179688 511.082031 484.953125 511.429688 484.605469 511.585938 C 484.480469 511.644531 484.339844 511.671875 484.207031 511.671875 " fill-opacity="1" fill-rule="nonzero"/><path fill="#000000" d="M 447.027344 446.640625 L 438.304688 446.640625 C 437.765625 446.640625 437.328125 446.210938 437.328125 445.671875 C 437.328125 445.132812 437.765625 444.699219 438.304688 444.699219 L 447.027344 444.699219 C 449.207031 444.699219 450.988281 442.925781 450.988281 440.746094 C 450.988281 438.5625 449.207031 436.789062 447.027344 436.789062 L 432.175781 436.789062 C 431.640625 436.789062 431.203125 436.355469 431.203125 435.820312 C 431.203125 435.28125 431.640625 434.847656 432.175781 434.847656 L 447.027344 434.847656 C 450.28125 434.847656 452.929688 437.492188 452.929688 440.746094 C 452.929688 444 450.28125 446.640625 447.027344 446.640625 " fill-opacity="1" fill-rule="nonzero"/><path fill="#000000" d="M 401.25 440.777344 C 401.074219 440.777344 400.894531 440.730469 400.738281 440.632812 C 400.28125 440.347656 400.144531 439.75 400.425781 439.296875 L 408.222656 426.75 L 409.910156 419.683594 C 409.972656 416.5625 412.597656 414.050781 415.808594 414.050781 C 419.0625 414.050781 421.714844 416.628906 421.714844 419.800781 L 421.714844 420.277344 C 421.714844 426.550781 420.824219 432.007812 418.828125 437.964844 C 418.660156 438.476562 418.109375 438.753906 417.601562 438.582031 C 417.089844 438.410156 416.816406 437.859375 416.988281 437.347656 C 418.910156 431.597656 419.765625 426.328125 419.765625 420.277344 L 419.765625 419.800781 C 419.765625 417.699219 417.992188 415.992188 415.808594 415.992188 C 413.628906 415.992188 411.855469 417.699219 411.855469 419.800781 C 411.855469 419.875 411.84375 419.949219 411.828125 420.027344 L 410.074219 427.355469 C 410.054688 427.457031 410.007812 427.554688 409.953125 427.640625 L 402.074219 440.320312 C 401.890625 440.617188 401.574219 440.777344 401.25 440.777344 " fill-opacity="1" fill-rule="nonzero"/><path fill="#000000" d="M 450.53125 456.492188 L 440.929688 456.492188 C 440.390625 456.492188 439.953125 456.0625 439.953125 455.523438 C 439.953125 454.988281 440.390625 454.550781 440.929688 454.550781 L 450.53125 454.550781 C 452.710938 454.550781 454.488281 452.777344 454.488281 450.59375 C 454.488281 448.414062 452.710938 446.640625 450.53125 446.640625 L 440.929688 446.640625 C 440.390625 446.640625 439.953125 446.210938 439.953125 445.671875 C 439.953125 445.132812 440.390625 444.699219 440.929688 444.699219 L 450.53125 444.699219 C 453.78125 444.699219 456.429688 447.34375 456.429688 450.59375 C 456.429688 453.847656 453.78125 456.492188 450.53125 456.492188 " fill-opacity="1" fill-rule="nonzero"/><path fill="#000000" d="M 450.53125 466.347656 L 438.304688 466.347656 C 437.765625 466.347656 437.328125 465.910156 437.328125 465.371094 C 437.328125 464.839844 437.765625 464.402344 438.304688 464.402344 L 450.53125 464.402344 C 452.710938 464.402344 454.488281 462.628906 454.488281 460.449219 C 454.488281 458.269531 452.710938 456.492188 450.53125 456.492188 L 438.304688 456.492188 C 437.765625 456.492188 437.328125 456.0625 437.328125 455.523438 C 437.328125 454.988281 437.765625 454.550781 438.304688 454.550781 L 450.53125 454.550781 C 453.78125 454.550781 456.429688 457.199219 456.429688 460.449219 C 456.429688 463.699219 453.78125 466.347656 450.53125 466.347656 " fill-opacity="1" fill-rule="nonzero"/><path fill="#000000" d="M 445.273438 476.199219 L 432.175781 476.199219 C 431.640625 476.199219 431.203125 475.761719 431.203125 475.226562 C 431.203125 474.6875 431.640625 474.257812 432.175781 474.257812 L 445.273438 474.257812 C 447.457031 474.257812 449.234375 472.480469 449.234375 470.300781 C 449.234375 468.121094 447.457031 466.347656 445.273438 466.347656 L 440.929688 466.347656 C 440.390625 466.347656 439.953125 465.910156 439.953125 465.371094 C 439.953125 464.839844 440.390625 464.402344 440.929688 464.402344 L 445.273438 464.402344 C 448.527344 464.402344 451.179688 467.050781 451.179688 470.300781 C 451.179688 473.550781 448.527344 476.199219 445.273438 476.199219 " fill-opacity="1" fill-rule="nonzero"/><path fill="#000000" d="M 408.9375 439.789062 C 408.457031 439.789062 408.039062 439.425781 407.976562 438.9375 C 407.90625 438.40625 408.285156 437.921875 408.8125 437.851562 L 432.050781 434.855469 C 432.582031 434.792969 433.070312 435.160156 433.136719 435.691406 C 433.207031 436.226562 432.832031 436.714844 432.300781 436.78125 L 409.066406 439.777344 C 409.023438 439.785156 408.980469 439.789062 408.9375 439.789062 " fill-opacity="1" fill-rule="nonzero"/><path fill="#000000" d="M 432.175781 476.199219 L 401.25 476.199219 C 400.710938 476.199219 400.28125 475.761719 400.28125 475.226562 L 400.28125 439.804688 C 400.28125 439.269531 400.710938 438.835938 401.25 438.835938 C 401.785156 438.835938 402.222656 439.269531 402.222656 439.804688 L 402.222656 474.257812 L 432.175781 474.257812 C 432.710938 474.257812 433.144531 474.6875 433.144531 475.226562 C 433.144531 475.761719 432.710938 476.199219 432.175781 476.199219 " fill-opacity="1" fill-rule="nonzero"/><path fill="#000000" d="M 385.527344 474.257812 L 395.203125 474.257812 L 395.203125 440.777344 L 385.527344 440.777344 Z M 396.175781 476.199219 L 384.558594 476.199219 C 384.019531 476.199219 383.585938 475.761719 383.585938 475.226562 L 383.585938 439.804688 C 383.585938 439.269531 384.019531 438.835938 384.558594 438.835938 L 396.175781 438.835938 C 396.710938 438.835938 397.148438 439.269531 397.148438 439.804688 L 397.148438 475.226562 C 397.148438 475.761719 396.710938 476.199219 396.175781 476.199219 " fill-opacity="1" fill-rule="nonzero"/><path fill="#000000" d="M 724.621094 374.460938 C 723.558594 374.460938 722.480469 374.523438 721.398438 374.644531 C 713.722656 375.496094 706.828125 379.289062 702.007812 385.316406 C 697.183594 391.351562 694.996094 398.894531 695.855469 406.566406 C 697.621094 422.410156 711.960938 433.871094 727.804688 432.09375 C 735.488281 431.242188 742.375 427.449219 747.199219 421.414062 C 752.023438 415.386719 754.210938 407.839844 753.351562 400.164062 C 751.707031 385.410156 739.152344 374.460938 724.621094 374.460938 Z M 724.574219 434.21875 C 709.074219 434.21875 695.675781 422.535156 693.917969 406.789062 C 693.011719 398.59375 695.339844 390.539062 700.488281 384.105469 C 705.640625 377.667969 712.988281 373.625 721.183594 372.710938 C 738.101562 370.832031 753.398438 383.042969 755.285156 399.949219 C 756.199219 408.140625 753.863281 416.195312 748.71875 422.628906 C 743.566406 429.0625 736.222656 433.113281 728.023438 434.027344 C 726.863281 434.15625 725.714844 434.21875 724.574219 434.21875 Z M 702.632812 448.828125 C 702.773438 448.828125 702.917969 448.859375 703.054688 448.917969 C 707.9375 451.230469 713.128906 452.738281 718.480469 453.386719 C 718.921875 453.4375 719.277344 453.796875 719.328125 454.238281 L 720.859375 467.953125 L 742.488281 465.546875 L 740.964844 451.835938 C 740.910156 451.386719 741.175781 450.964844 741.597656 450.808594 C 746.679688 449 751.40625 446.390625 755.664062 443.054688 C 756.015625 442.785156 756.523438 442.785156 756.867188 443.066406 L 767.660156 451.683594 L 781.25 434.695312 L 770.464844 426.074219 C 770.113281 425.796875 770 425.308594 770.1875 424.898438 C 772.507812 420.019531 774.015625 414.835938 774.660156 409.488281 C 774.71875 409.039062 775.070312 408.6875 775.519531 408.636719 L 789.238281 407.109375 L 786.828125 385.492188 L 773.105469 387.019531 C 772.652344 387.074219 772.230469 386.804688 772.082031 386.382812 C 770.269531 381.316406 767.660156 376.582031 764.320312 372.335938 C 764.046875 371.976562 764.050781 371.472656 764.332031 371.125 L 772.957031 360.34375 L 755.953125 346.765625 L 747.332031 357.546875 C 747.046875 357.898438 746.566406 358.007812 746.15625 357.816406 C 741.269531 355.5 736.078125 354 730.730469 353.347656 C 730.28125 353.296875 729.929688 352.941406 729.882812 352.492188 L 728.347656 338.777344 L 706.710938 341.191406 L 708.246094 354.898438 C 708.292969 355.351562 708.027344 355.773438 707.605469 355.929688 C 702.53125 357.738281 697.800781 360.34375 693.539062 363.675781 C 693.1875 363.953125 692.6875 363.953125 692.332031 363.671875 L 681.542969 355.046875 L 667.953125 372.035156 L 678.742188 380.65625 C 679.097656 380.941406 679.207031 381.425781 679.015625 381.832031 C 676.695312 386.71875 675.195312 391.902344 674.546875 397.25 C 674.492188 397.679688 674.15625 398.023438 673.726562 398.089844 L 659.597656 400.269531 L 662.359375 421.242188 L 676.097656 419.710938 C 676.550781 419.660156 676.972656 419.925781 677.125 420.355469 C 678.929688 425.421875 681.542969 430.152344 684.878906 434.402344 C 685.152344 434.757812 685.152344 435.257812 684.871094 435.609375 L 676.25 446.390625 L 693.25 459.96875 L 701.875 449.191406 C 702.066406 448.953125 702.347656 448.828125 702.632812 448.828125 Z M 720 470 C 719.511719 470 719.085938 469.632812 719.035156 469.136719 L 717.480469 455.214844 C 712.449219 454.53125 707.554688 453.113281 702.917969 451.003906 L 694.160156 461.945312 C 693.828125 462.363281 693.210938 462.433594 692.796875 462.097656 L 674.28125 447.300781 C 674.070312 447.140625 673.945312 446.90625 673.917969 446.652344 C 673.886719 446.394531 673.964844 446.136719 674.125 445.9375 L 682.878906 434.992188 C 679.792969 430.941406 677.335938 426.484375 675.554688 421.726562 L 661.628906 423.28125 C 661.097656 423.335938 660.625 422.964844 660.558594 422.441406 L 657.539062 399.582031 C 657.476562 399.058594 657.839844 398.574219 658.359375 398.492188 L 672.707031 396.28125 C 673.398438 391.242188 674.816406 386.34375 676.933594 381.699219 L 665.980469 372.957031 C 665.777344 372.789062 665.652344 372.558594 665.621094 372.300781 C 665.59375 372.039062 665.667969 371.789062 665.832031 371.585938 L 680.636719 353.078125 C 680.972656 352.664062 681.585938 352.597656 682.003906 352.929688 L 692.953125 361.671875 C 697.011719 358.59375 701.464844 356.136719 706.226562 354.355469 L 704.675781 340.441406 C 704.648438 340.183594 704.722656 339.925781 704.878906 339.730469 C 705.039062 339.527344 705.277344 339.394531 705.527344 339.367188 L 729.09375 336.742188 C 729.628906 336.683594 730.113281 337.070312 730.171875 337.597656 L 731.726562 351.519531 C 736.761719 352.203125 741.65625 353.621094 746.289062 355.730469 L 755.042969 344.789062 C 755.378906 344.375 755.992188 344.304688 756.410156 344.640625 L 774.929688 359.433594 C 775.132812 359.589844 775.257812 359.832031 775.289062 360.085938 C 775.316406 360.339844 775.242188 360.597656 775.082031 360.800781 L 766.324219 371.742188 C 769.410156 375.792969 771.867188 380.25 773.648438 385.003906 L 787.582031 383.453125 C 788.113281 383.402344 788.597656 383.777344 788.652344 384.3125 L 791.277344 407.859375 C 791.308594 408.117188 791.230469 408.375 791.070312 408.574219 C 790.910156 408.773438 790.679688 408.90625 790.421875 408.933594 L 776.492188 410.488281 C 775.804688 415.515625 774.390625 420.402344 772.269531 425.035156 L 783.226562 433.78125 C 783.425781 433.945312 783.554688 434.175781 783.582031 434.433594 C 783.609375 434.6875 783.539062 434.949219 783.375 435.148438 L 768.570312 453.65625 C 768.238281 454.078125 767.621094 454.144531 767.207031 453.808594 L 756.25 445.0625 C 752.195312 448.140625 747.738281 450.597656 742.976562 452.375 L 744.527344 466.292969 C 744.5625 466.550781 744.488281 466.804688 744.320312 467.007812 C 744.164062 467.210938 743.929688 467.339844 743.675781 467.371094 L 720.101562 469.992188 C 720.070312 470 720.035156 470 720 470 " fill-opacity="1" fill-rule="nonzero"/><path fill="#fed101" d="M 81.644531 796.535156 L 8.53125 796.535156 L 40.683594 734.761719 L 92.363281 734.761719 L 81.644531 796.535156 " fill-opacity="1" fill-rule="nonzero"/><path fill="#000000" d="M 89.683594 750.207031 L 24.609375 765.644531 L 40.683594 734.761719 L 92.363281 734.761719 L 89.683594 750.207031 " fill-opacity="1" fill-rule="nonzero"/><g clip-path="url(#b9dcfdeb23)"><path fill="#000000" d="M 86.761719 809.445312 L 72.890625 809.445312 L 66.96875 803.335938 L 61.027344 809.445312 L 33.117188 809.445312 L 26.851562 803.335938 L 20.351562 809.445312 L 0.882812 809.445312 L 3.523438 795.152344 L 84.121094 795.152344 L 86.761719 809.445312 " fill-opacity="1" fill-rule="nonzero"/></g><path fill="#fed101" d="M 266.390625 802.816406 C 266.648438 801.070312 266.789062 799.28125 266.789062 797.460938 C 266.789062 777.484375 250.578125 761.289062 230.585938 761.289062 C 210.59375 761.289062 194.382812 777.484375 194.382812 797.460938 C 194.382812 799.28125 194.523438 801.070312 194.78125 802.816406 L 266.390625 802.816406 " fill-opacity="1" fill-rule="nonzero"/><path fill="#fed101" d="M 260.136719 794.628906 L 183.453125 794.628906 L 192.832031 746.125 L 231.996094 746.125 L 260.136719 794.628906 " fill-opacity="1" fill-rule="nonzero"/><path fill="#000000" d="M 234.363281 750.207031 L 189.480469 763.460938 L 192.832031 746.125 L 231.996094 746.125 L 234.363281 750.207031 " fill-opacity="1" fill-rule="nonzero"/><path fill="#000000" d="M 249.164062 776.691406 C 248.828125 776.691406 248.503906 776.515625 248.320312 776.207031 L 240.988281 763.5625 C 240.714844 763.09375 240.875 762.5 241.339844 762.230469 C 241.804688 761.964844 242.398438 762.121094 242.667969 762.585938 L 250.003906 775.230469 C 250.273438 775.695312 250.113281 776.289062 249.648438 776.558594 C 249.496094 776.648438 249.328125 776.691406 249.164062 776.691406 " fill-opacity="1" fill-rule="nonzero"/><path fill="#000000" d="M 271.03125 808.925781 L 256.253906 808.925781 L 249.945312 802.816406 L 243.617188 808.925781 L 213.886719 808.925781 L 207.210938 802.816406 L 200.285156 808.925781 L 179.546875 808.925781 L 182.363281 794.628906 L 268.214844 794.628906 L 271.03125 808.925781 " fill-opacity="1" fill-rule="nonzero"/><path fill="#8c7bff" d="M 262.695312 492.023438 L 248.578125 389.46875 L 119.683594 389.46875 L 119.683594 458.457031 L 95.289062 576.28125 L 26.0625 750.207031 L 95.378906 750.207031 L 139.296875 656.429688 C 158.992188 614.371094 172.453125 569.675781 179.253906 523.742188 L 186.890625 472.1875 L 196.285156 573.996094 L 179.261719 750.207031 L 248.578125 750.207031 L 262.042969 657.769531 C 270.050781 602.828125 270.265625 547.027344 262.695312 492.023438 " fill-opacity="1" fill-rule="nonzero"/><path fill="#000000" d="M 248.578125 751.179688 L 179.261719 751.179688 C 178.988281 751.179688 178.726562 751.066406 178.542969 750.863281 C 178.359375 750.660156 178.269531 750.390625 178.292969 750.117188 L 195.308594 573.992188 L 185.925781 472.273438 C 185.875 471.742188 186.269531 471.269531 186.804688 471.214844 C 187.335938 471.160156 187.808594 471.566406 187.859375 472.097656 L 197.25 573.90625 C 197.257812 573.964844 197.257812 574.027344 197.25 574.089844 L 180.332031 749.238281 L 247.738281 749.238281 L 261.082031 657.628906 C 269.074219 602.761719 269.292969 547.089844 261.730469 492.15625 L 247.613281 389.601562 C 247.539062 389.066406 247.914062 388.578125 248.445312 388.507812 C 248.96875 388.429688 249.464844 388.804688 249.539062 389.335938 L 263.660156 491.890625 C 271.246094 547.007812 271.023438 602.863281 263.003906 657.910156 L 249.539062 750.351562 C 249.46875 750.828125 249.058594 751.179688 248.578125 751.179688 " fill-opacity="1" fill-rule="nonzero"/><path fill="#000000" d="M 204.238281 472.726562 L 160.484375 472.726562 C 159.949219 472.726562 159.515625 472.296875 159.515625 471.757812 C 159.515625 471.222656 159.949219 470.785156 160.484375 470.785156 L 204.238281 470.785156 C 204.773438 470.785156 205.210938 471.222656 205.210938 471.757812 C 205.210938 472.296875 204.773438 472.726562 204.238281 472.726562 " fill-opacity="1" fill-rule="nonzero"/><path fill="#6155ff" d="M 209.648438 457.234375 L 209.632812 457.234375 C 198.457031 457.234375 189.398438 448.171875 189.398438 437 L 189.398438 413.460938 L 229.882812 413.460938 L 229.882812 437 C 229.882812 448.171875 220.824219 457.234375 209.648438 457.234375 " fill-opacity="1" fill-rule="nonzero"/><path fill="#000000" d="M 126.40625 590.230469 C 126.242188 590.230469 126.078125 590.191406 125.925781 590.101562 L 94.808594 572.441406 C 94.417969 572.222656 94.230469 571.753906 94.359375 571.324219 C 94.488281 570.886719 94.898438 570.613281 95.347656 570.625 L 122.027344 572.214844 C 122.5625 572.246094 122.972656 572.710938 122.941406 573.246094 C 122.90625 573.78125 122.457031 574.171875 121.910156 574.160156 L 99.40625 572.816406 L 126.886719 588.410156 C 127.351562 588.679688 127.515625 589.269531 127.25 589.738281 C 127.074219 590.054688 126.742188 590.230469 126.40625 590.230469 " fill-opacity="1" fill-rule="nonzero"/><path fill="#000000" d="M 214.027344 586.085938 C 213.851562 586.085938 213.671875 586.039062 213.511719 585.9375 L 195.765625 574.820312 C 195.402344 574.585938 195.230469 574.140625 195.347656 573.726562 C 195.46875 573.308594 195.851562 573.023438 196.285156 573.023438 L 221.792969 573.023438 C 222.332031 573.023438 222.761719 573.457031 222.761719 573.996094 C 222.761719 574.535156 222.332031 574.964844 221.792969 574.964844 L 199.664062 574.964844 L 214.542969 584.289062 C 215 584.574219 215.136719 585.175781 214.851562 585.628906 C 214.667969 585.921875 214.351562 586.085938 214.027344 586.085938 " fill-opacity="1" fill-rule="nonzero"/><path fill="#000000" d="M 119.683594 424.597656 L 119.683594 389.46875 L 248.507812 389.46875 Z M 119.683594 424.597656 " fill-opacity="1" fill-rule="nonzero"/><path fill="#fda4ff" d="M 291 193.824219 L 281.96875 217.050781 L 279.851562 203.367188 L 282.03125 197.441406 C 283.253906 194.125 286.910156 192.398438 290.253906 193.566406 L 291 193.824219 " fill-opacity="1" fill-rule="nonzero"/><path fill="#fda4ff" d="M 325.878906 211.671875 L 322.359375 238.214844 L 289.921875 247.6875 L 280.410156 222.957031 C 277.851562 216.308594 277.796875 208.953125 280.257812 202.269531 L 281.761719 198.175781 L 325.878906 211.671875 " fill-opacity="1" fill-rule="nonzero"/><path fill="#ffffff" d="M 268.582031 170.964844 C 268.582031 201.523438 243.785156 226.296875 213.199219 226.296875 C 182.617188 226.296875 157.820312 201.523438 157.820312 170.964844 C 157.820312 140.398438 182.617188 115.625 213.199219 115.625 C 243.785156 115.625 268.582031 140.398438 268.582031 170.964844 " fill-opacity="1" fill-rule="nonzero"/><path fill="#1ec15f" d="M 213.199219 115.625 C 212.710938 115.625 212.230469 115.652344 211.746094 115.660156 L 211.746094 226.257812 C 212.230469 226.273438 212.710938 226.296875 213.199219 226.296875 C 243.785156 226.296875 268.582031 201.523438 268.582031 170.964844 C 268.582031 140.398438 243.785156 115.625 213.199219 115.625 " fill-opacity="1" fill-rule="nonzero"/><path fill="#ffffff" d="M 210.777344 214.152344 C 210.601562 214.152344 210.425781 214.101562 210.265625 214.003906 C 209.808594 213.722656 209.671875 213.121094 209.953125 212.667969 L 249.203125 149.964844 C 249.367188 149.695312 249.648438 149.527344 249.960938 149.507812 C 250.273438 149.488281 250.574219 149.617188 250.773438 149.859375 L 269.429688 172.371094 C 269.773438 172.78125 269.71875 173.398438 269.300781 173.738281 C 268.890625 174.082031 268.277344 174.027344 267.933594 173.609375 L 250.136719 152.132812 L 211.601562 213.695312 C 211.417969 213.996094 211.101562 214.152344 210.777344 214.152344 " fill-opacity="1" fill-rule="nonzero"/><path fill="#000000" d="M 274.734375 201.082031 L 338.8125 227.203125 L 344.296875 213.761719 L 280.292969 187.664062 Z M 339.339844 229.445312 C 339.21875 229.445312 339.089844 229.417969 338.972656 229.371094 L 273.097656 202.511719 C 272.859375 202.417969 272.667969 202.226562 272.566406 201.992188 C 272.46875 201.75 272.46875 201.480469 272.566406 201.246094 L 278.867188 186.023438 C 279.070312 185.535156 279.636719 185.296875 280.128906 185.5 L 345.929688 212.328125 C 346.167969 212.425781 346.359375 212.617188 346.460938 212.855469 C 346.558594 213.089844 346.558594 213.359375 346.464844 213.597656 L 340.238281 228.839844 C 340.089844 229.21875 339.71875 229.445312 339.339844 229.445312 " fill-opacity="1" fill-rule="nonzero"/><path fill="#000000" d="M 213.199219 116.597656 C 183.199219 116.597656 158.792969 140.984375 158.792969 170.960938 C 158.792969 200.941406 183.199219 225.332031 213.199219 225.332031 C 243.199219 225.332031 267.605469 200.941406 267.605469 170.960938 C 267.605469 140.984375 243.199219 116.597656 213.199219 116.597656 Z M 213.199219 227.273438 C 182.128906 227.273438 156.847656 202.011719 156.847656 170.960938 C 156.847656 139.917969 182.128906 114.65625 213.199219 114.65625 C 244.273438 114.65625 269.550781 139.917969 269.550781 170.960938 C 269.550781 202.011719 244.273438 227.273438 213.199219 227.273438 " fill-opacity="1" fill-rule="nonzero"/><path fill="#000000" d="M 244.976562 203.683594 C 244.726562 203.683594 244.480469 203.589844 244.292969 203.402344 C 243.910156 203.019531 243.910156 202.40625 244.292969 202.027344 C 250.96875 195.355469 255.246094 186.921875 256.664062 177.636719 C 256.746094 177.109375 257.242188 176.746094 257.769531 176.824219 C 258.300781 176.90625 258.664062 177.402344 258.585938 177.933594 C 257.105469 187.628906 252.636719 196.433594 245.664062 203.402344 C 245.476562 203.589844 245.226562 203.683594 244.976562 203.683594 " fill-opacity="1" fill-rule="nonzero"/><path fill="#000000" d="M 257.625 165.109375 C 257.152344 165.109375 256.738281 164.765625 256.664062 164.285156 C 253.421875 143.046875 234.738281 127.03125 213.199219 127.03125 C 212.664062 127.03125 212.230469 126.597656 212.230469 126.054688 C 212.230469 125.519531 212.664062 125.085938 213.199219 125.085938 C 235.6875 125.085938 255.199219 141.8125 258.585938 163.988281 C 258.664062 164.523438 258.300781 165.015625 257.769531 165.097656 C 257.722656 165.109375 257.671875 165.109375 257.625 165.109375 " fill-opacity="1" fill-rule="nonzero"/><path fill="#000000" d="M 274.410156 200.347656 C 274.285156 200.347656 274.160156 200.324219 274.039062 200.273438 L 263.203125 195.820312 C 262.707031 195.621094 262.46875 195.050781 262.671875 194.554688 C 262.875 194.058594 263.441406 193.816406 263.941406 194.027344 L 273.878906 198.105469 L 277.484375 189.332031 L 266.839844 184.960938 C 266.34375 184.757812 266.105469 184.191406 266.308594 183.691406 C 266.515625 183.199219 267.078125 182.957031 267.578125 183.164062 L 279.125 187.90625 C 279.363281 188 279.550781 188.191406 279.652344 188.425781 C 279.75 188.664062 279.75 188.929688 279.652344 189.171875 L 275.304688 199.742188 C 275.152344 200.121094 274.789062 200.347656 274.410156 200.347656 " fill-opacity="1" fill-rule="nonzero"/><path fill="#fda4ff" d="M 302.382812 189.386719 L 292.433594 216.4375 L 283.484375 213.152344 L 293.441406 186.09375 C 294.3125 183.730469 296.9375 182.511719 299.300781 183.382812 L 299.671875 183.511719 C 302.039062 184.390625 303.253906 187.015625 302.382812 189.386719 " fill-opacity="1" fill-rule="nonzero"/><path fill="#fda4ff" d="M 312.824219 188.605469 L 302.351562 217.078125 L 293.40625 213.792969 L 303.882812 185.3125 C 304.757812 182.929688 307.398438 181.707031 309.78125 182.582031 L 310.09375 182.695312 C 312.480469 183.570312 313.703125 186.222656 312.824219 188.605469 " fill-opacity="1" fill-rule="nonzero"/><path fill="#fda4ff" d="M 330.707031 195.210938 L 320.398438 223.226562 L 311.453125 219.945312 L 321.761719 191.917969 C 322.648438 189.515625 325.304688 188.285156 327.710938 189.164062 L 327.953125 189.253906 C 330.355469 190.136719 331.59375 192.808594 330.707031 195.210938 " fill-opacity="1" fill-rule="nonzero"/><path fill="#fda4ff" d="M 330.703125 215.84375 L 322.449219 238.011719 L 313.460938 234.707031 L 327.378906 197.144531 L 330.625 205.550781 C 331.894531 208.859375 331.925781 212.511719 330.703125 215.84375 " fill-opacity="1" fill-rule="nonzero"/><path fill="#fda4ff" d="M 317.898438 187.875 L 318.386719 188.050781 C 320.71875 188.90625 321.792969 191.828125 320.785156 194.566406 L 310.71875 221.941406 L 301.769531 218.660156 L 311.839844 191.28125 C 312.851562 188.539062 315.5625 187.011719 317.898438 187.875 " fill-opacity="1" fill-rule="nonzero"/><path fill="#000000" d="M 309.292969 199.175781 C 309.179688 199.175781 309.070312 199.15625 308.960938 199.121094 C 308.453125 198.933594 308.199219 198.371094 308.382812 197.871094 L 311.914062 188.257812 C 312.25 187.355469 312.210938 186.367188 311.804688 185.492188 C 311.398438 184.609375 310.671875 183.945312 309.761719 183.609375 L 309.453125 183.496094 C 307.578125 182.804688 305.484375 183.773438 304.792969 185.648438 L 300.777344 196.5625 C 300.59375 197.066406 300.035156 197.324219 299.53125 197.136719 C 299.027344 196.953125 298.769531 196.394531 298.953125 195.890625 L 302.96875 184.976562 C 304.03125 182.097656 307.238281 180.609375 310.125 181.671875 L 310.429688 181.785156 C 311.832031 182.296875 312.941406 183.324219 313.566406 184.671875 C 314.191406 186.023438 314.253906 187.535156 313.742188 188.929688 L 310.207031 198.542969 C 310.0625 198.933594 309.691406 199.175781 309.292969 199.175781 " fill-opacity="1" fill-rule="nonzero"/><path fill="#000000" d="M 317.714844 203.875 C 317.605469 203.875 317.492188 203.855469 317.382812 203.816406 C 316.878906 203.632812 316.621094 203.078125 316.804688 202.570312 L 320.144531 193.5 C 320.46875 192.617188 320.429688 191.65625 320.035156 190.800781 C 319.636719 189.941406 318.933594 189.292969 318.046875 188.96875 L 317.558594 188.789062 C 315.730469 188.113281 313.691406 189.058594 313.023438 190.882812 L 309.804688 199.636719 C 309.613281 200.144531 309.054688 200.398438 308.550781 200.214844 C 308.050781 200.03125 307.789062 199.46875 307.976562 198.964844 L 311.199219 190.214844 C 312.238281 187.382812 315.394531 185.921875 318.226562 186.964844 L 318.71875 187.140625 C 320.089844 187.648438 321.183594 188.65625 321.800781 189.984375 C 322.410156 191.308594 322.472656 192.796875 321.96875 194.171875 L 318.628906 203.242188 C 318.488281 203.632812 318.113281 203.875 317.714844 203.875 " fill-opacity="1" fill-rule="nonzero"/><path fill="#fda4ff" d="M 322.753906 235.878906 L 321.796875 276.003906 L 287.191406 264.957031 L 287.984375 223.109375 L 322.753906 235.878906 " fill-opacity="1" fill-rule="nonzero"/><path fill="#000000" d="M 322.425781 249.558594 L 321.796875 276 L 287.191406 264.957031 L 287.410156 253.375 L 308.894531 251.03125 L 322.425781 249.558594 " fill-opacity="1" fill-rule="nonzero"/><path fill="#000000" d="M 284.40625 211.628906 C 284.292969 211.628906 284.179688 211.609375 284.066406 211.570312 C 283.5625 211.382812 283.304688 210.824219 283.492188 210.320312 L 292.527344 185.761719 C 293.582031 182.890625 296.773438 181.417969 299.644531 182.472656 L 300.007812 182.605469 C 301.398438 183.113281 302.503906 184.136719 303.125 185.480469 C 303.75 186.820312 303.808594 188.324219 303.296875 189.714844 L 300.066406 198.5 C 299.878906 199.003906 299.316406 199.261719 298.816406 199.074219 C 298.316406 198.894531 298.054688 198.332031 298.246094 197.828125 L 301.472656 189.042969 C 301.808594 188.144531 301.769531 187.167969 301.363281 186.292969 C 300.957031 185.421875 300.238281 184.761719 299.335938 184.425781 L 298.96875 184.292969 C 297.113281 183.609375 295.039062 184.570312 294.351562 186.429688 L 285.316406 210.992188 C 285.171875 211.382812 284.800781 211.628906 284.40625 211.628906 " fill-opacity="1" fill-rule="nonzero"/><path fill="#000000" d="M 321.796875 276.972656 C 321.695312 276.972656 321.597656 276.957031 321.496094 276.929688 L 286.894531 265.882812 C 286.484375 265.753906 286.210938 265.367188 286.21875 264.9375 L 286.65625 241.90625 L 279.503906 223.308594 C 277.121094 217.121094 276.839844 210.207031 278.710938 203.84375 C 278.863281 203.332031 279.402344 203.03125 279.921875 203.1875 C 280.433594 203.339844 280.730469 203.875 280.578125 204.394531 C 278.824219 210.347656 279.089844 216.816406 281.316406 222.609375 L 288.539062 241.386719 C 288.582031 241.507812 288.605469 241.628906 288.601562 241.757812 L 288.175781 264.25 L 320.855469 274.679688 L 321.75 237.4375 C 321.75 237.332031 321.769531 237.226562 321.804688 237.121094 L 329.792969 215.503906 C 330.929688 212.398438 330.90625 208.984375 329.714844 205.902344 L 327.863281 201.109375 C 327.785156 200.890625 327.78125 200.65625 327.855469 200.4375 L 329.792969 194.890625 C 330.132812 193.953125 330.09375 192.957031 329.679688 192.070312 C 329.273438 191.179688 328.535156 190.503906 327.621094 190.164062 L 327.382812 190.082031 C 325.484375 189.382812 323.371094 190.359375 322.675781 192.257812 L 318.121094 204.632812 C 317.933594 205.136719 317.375 205.390625 316.875 205.207031 C 316.367188 205.023438 316.113281 204.464844 316.296875 203.960938 L 320.851562 191.585938 C 321.914062 188.683594 325.148438 187.183594 328.046875 188.257812 L 328.289062 188.34375 C 329.691406 188.855469 330.816406 189.890625 331.445312 191.253906 C 332.078125 192.609375 332.140625 194.136719 331.621094 195.542969 L 329.808594 200.742188 L 331.53125 205.203125 C 332.890625 208.726562 332.925781 212.628906 331.613281 216.175781 L 323.6875 237.648438 L 322.765625 276.027344 C 322.761719 276.328125 322.605469 276.617188 322.359375 276.792969 C 322.195312 276.910156 321.996094 276.972656 321.796875 276.972656 " fill-opacity="1" fill-rule="nonzero"/><path fill="#fed101" d="M 304.878906 372.730469 C 288.515625 372.445312 275.484375 358.96875 275.765625 342.621094 L 276.96875 259.101562 L 336.46875 259.21875 L 335.007812 343.640625 C 334.722656 359.992188 321.234375 373.011719 304.878906 372.730469 " fill-opacity="1" fill-rule="nonzero"/><path fill="#000000" d="M 277.929688 260.074219 L 276.738281 342.636719 C 276.605469 350.285156 279.460938 357.523438 284.78125 363.023438 C 290.097656 368.527344 297.242188 371.628906 304.890625 371.757812 C 320.695312 371.992188 333.761719 359.410156 334.035156 343.625 L 335.476562 260.191406 Z M 305.390625 373.707031 C 305.21875 373.707031 305.039062 373.707031 304.859375 373.699219 C 296.6875 373.5625 289.058594 370.246094 283.382812 364.371094 C 277.703125 358.503906 274.65625 350.773438 274.796875 342.605469 L 275.996094 259.082031 C 276.007812 258.554688 276.441406 258.128906 276.96875 258.128906 C 276.972656 258.128906 276.972656 258.128906 276.972656 258.128906 L 336.46875 258.246094 C 336.726562 258.246094 336.976562 258.351562 337.15625 258.539062 C 337.339844 258.726562 337.441406 258.972656 337.4375 259.238281 L 335.976562 343.660156 C 335.691406 360.335938 322.023438 373.707031 305.390625 373.707031 " fill-opacity="1" fill-rule="nonzero"/><path fill="#fed101" d="M 326.652344 322.519531 L 273.675781 269.566406 C 252.15625 248.058594 222.964844 235.972656 192.523438 235.972656 L 158.230469 235.972656 C 134.589844 235.972656 113.035156 249.496094 102.765625 270.78125 L 76.664062 324.871094 C 69.46875 339.824219 73.816406 361.824219 88.785156 369.011719 C 98.898438 373.871094 107.359375 373.5 116.746094 369.003906 L 113.757812 402.609375 L 253.269531 389.464844 L 245.398438 332.09375 L 284.757812 364.382812 L 326.652344 322.519531 " fill-opacity="1" fill-rule="nonzero"/><path fill="#000000" d="M 284.753906 365.359375 C 284.539062 365.359375 284.320312 365.285156 284.140625 365.140625 L 220.851562 313.210938 C 220.433594 312.871094 220.375 312.261719 220.714844 311.847656 C 221.054688 311.433594 221.667969 311.371094 222.082031 311.710938 L 285.371094 363.632812 C 285.785156 363.976562 285.847656 364.589844 285.507812 365.003906 C 285.316406 365.234375 285.035156 365.359375 284.753906 365.359375 " fill-opacity="1" fill-rule="nonzero"/><path fill="#000000" d="M 326.648438 323.5 C 326.402344 323.5 326.15625 323.398438 325.964844 323.210938 L 272.988281 270.261719 C 251.1875 248.464844 223.039062 236.949219 191.585938 236.949219 C 191.046875 236.949219 190.613281 236.515625 190.613281 235.976562 C 190.613281 235.4375 191.046875 235.003906 191.585938 235.003906 C 223.566406 235.003906 252.1875 246.71875 274.363281 268.882812 L 327.335938 321.835938 C 327.722656 322.214844 327.722656 322.835938 327.335938 323.210938 C 327.148438 323.398438 326.902344 323.5 326.648438 323.5 " fill-opacity="1" fill-rule="nonzero"/><path fill="#000000" d="M 116.894531 369.988281 C 116.863281 369.988281 116.832031 369.984375 116.796875 369.980469 C 116.265625 369.925781 115.875 369.449219 115.925781 368.917969 L 124.261719 284.675781 C 124.316406 284.144531 124.78125 283.761719 125.324219 283.808594 C 125.859375 283.863281 126.25 284.335938 126.195312 284.871094 L 117.859375 369.113281 C 117.8125 369.609375 117.390625 369.988281 116.894531 369.988281 " fill-opacity="1" fill-rule="nonzero"/><path fill="#000000" d="M 124.976562 287.316406 L 105.964844 372.324219 C 105.964844 372.324219 108.847656 372.078125 111.871094 371.085938 C 114.023438 370.375 116.746094 369.003906 116.746094 369.003906 L 124.976562 287.316406 " fill-opacity="1" fill-rule="nonzero"/><path fill="#fda4ff" d="M 203.097656 203.3125 C 203.097656 213.808594 203.773438 228.375 193.265625 228.375 C 182.757812 228.375 165.042969 213.808594 165.042969 203.3125 C 165.042969 192.8125 173.5625 184.300781 184.070312 184.300781 C 194.582031 184.300781 203.097656 192.8125 203.097656 203.3125 " fill-opacity="1" fill-rule="nonzero"/><path fill="#000000" d="M 210.082031 198.660156 C 207.179688 188.972656 198.199219 181.914062 187.5625 181.914062 C 176.929688 181.914062 168.273438 188.40625 165.617188 198.660156 L 210.082031 198.660156 " fill-opacity="1" fill-rule="nonzero"/><path fill="#fda4ff" d="M 190.890625 235.976562 L 168.882812 235.976562 L 168.882812 203.308594 L 190.890625 203.308594 L 190.890625 235.976562 " fill-opacity="1" fill-rule="nonzero"/><path fill="#000000" d="M 190.890625 237.28125 C 190.355469 237.28125 189.917969 236.84375 189.917969 236.308594 L 189.917969 217.90625 C 189.917969 217.371094 190.355469 216.933594 190.890625 216.933594 C 191.429688 216.933594 191.863281 217.371094 191.863281 217.90625 L 191.863281 236.308594 C 191.863281 236.84375 191.429688 237.28125 190.890625 237.28125 " fill-opacity="1" fill-rule="nonzero"/><path fill="#000000" d="M 443.820312 770.109375 C 429.628906 802.664062 391.71875 817.554688 359.144531 803.371094 C 326.570312 789.195312 311.667969 751.3125 325.855469 718.765625 C 340.046875 686.214844 377.960938 671.320312 410.53125 685.503906 C 443.109375 699.679688 458.011719 737.5625 443.820312 770.109375 " fill-opacity="1" fill-rule="nonzero"/><path fill="#ffffff" d="M 439.058594 765.355469 C 424.867188 797.902344 386.957031 812.792969 354.382812 798.617188 C 321.804688 784.433594 306.902344 746.554688 321.097656 714.003906 C 335.285156 681.457031 373.199219 666.566406 405.769531 680.75 C 438.347656 694.925781 453.25 732.808594 439.058594 765.355469 " fill-opacity="1" fill-rule="nonzero"/><path fill="#000000" d="M 380.167969 676.371094 C 355.707031 676.371094 332.363281 690.597656 321.984375 714.394531 C 315.226562 729.898438 314.914062 747.105469 321.105469 762.84375 C 327.296875 778.582031 339.253906 790.96875 354.769531 797.726562 C 386.800781 811.667969 424.214844 796.972656 438.167969 764.96875 C 444.925781 749.464844 445.238281 732.257812 439.046875 716.519531 C 432.855469 700.777344 420.898438 688.394531 405.382812 681.636719 C 397.171875 678.0625 388.601562 676.371094 380.167969 676.371094 Z M 379.984375 804.9375 C 371.289062 804.9375 362.460938 803.191406 353.992188 799.507812 C 338.003906 792.546875 325.679688 779.777344 319.296875 763.550781 C 312.914062 747.332031 313.238281 729.601562 320.207031 713.617188 C 334.585938 680.628906 373.148438 665.484375 406.160156 679.855469 C 422.152344 686.816406 434.476562 699.585938 440.859375 715.804688 C 447.238281 732.027344 446.917969 749.761719 439.949219 765.742188 L 439.058594 765.355469 L 439.949219 765.742188 C 429.257812 790.269531 405.195312 804.9375 379.984375 804.9375 " fill-opacity="1" fill-rule="nonzero"/><path fill="#4ada85" d="M 353.238281 768.390625 L 358.765625 761.128906 C 353.761719 757.199219 349.785156 752.234375 348.128906 748.449219 L 357.257812 741.167969 C 359.164062 745.25 362.503906 750.117188 367.527344 753.703125 C 371.929688 756.855469 376.230469 757.328125 378.554688 754.273438 C 380.769531 751.371094 379.691406 747.773438 375.429688 741.773438 C 369.25 733.109375 366.519531 725.257812 372.164062 717.847656 C 377.285156 711.125 386.09375 709.28125 395.589844 713.589844 L 401.117188 706.332031 L 401.121094 706.332031 L 408.695312 711.746094 L 403.570312 718.46875 C 408.578125 722.398438 411.242188 725.957031 412.863281 729 L 404.039062 736.03125 C 402.671875 733.753906 400.453125 729.457031 394.886719 725.476562 C 389.867188 721.882812 386.609375 722.863281 384.980469 725.003906 C 383.058594 727.523438 384.542969 731.0625 389.253906 738.203125 C 396.003906 747.988281 396.515625 754.84375 391.273438 761.71875 C 386.09375 768.511719 376.804688 770.839844 366.75 766.011719 L 360.8125 773.804688 L 353.238281 768.390625 " fill-opacity="1" fill-rule="nonzero"/><path fill="#000000" d="M 443.820312 744.839844 C 429.628906 777.386719 391.71875 792.277344 359.144531 778.101562 C 326.570312 763.917969 311.667969 726.035156 325.855469 693.488281 C 340.046875 660.941406 377.960938 646.050781 410.53125 660.230469 C 443.109375 674.410156 458.011719 712.292969 443.820312 744.839844 " fill-opacity="1" fill-rule="nonzero"/><path fill="#4ada85" d="M 439.058594 740.082031 C 424.867188 772.632812 386.957031 787.523438 354.382812 773.34375 C 321.804688 759.160156 306.902344 721.28125 321.097656 688.734375 C 335.285156 656.183594 373.199219 641.292969 405.769531 655.472656 C 438.347656 669.652344 453.25 707.535156 439.058594 740.082031 " fill-opacity="1" fill-rule="nonzero"/><path fill="#ffffff" d="M 353.238281 743.113281 L 358.765625 735.855469 C 353.761719 731.925781 349.785156 726.957031 348.128906 723.179688 L 357.257812 715.898438 C 359.164062 719.976562 362.503906 724.839844 367.527344 728.433594 C 371.929688 731.582031 376.230469 732.058594 378.554688 729 C 380.769531 726.097656 379.691406 722.496094 375.429688 716.496094 C 369.25 707.835938 366.519531 699.980469 372.164062 692.574219 C 377.285156 685.851562 386.09375 684.007812 395.589844 688.316406 L 401.117188 681.054688 L 401.121094 681.054688 L 408.695312 686.472656 L 403.570312 693.195312 C 408.578125 697.125 411.242188 700.679688 412.863281 703.730469 L 404.039062 710.757812 C 402.671875 708.480469 400.453125 704.183594 394.886719 700.199219 C 389.867188 696.613281 386.609375 697.589844 384.980469 699.730469 C 383.058594 702.25 384.542969 705.785156 389.253906 712.929688 C 396.003906 722.714844 396.515625 729.566406 391.273438 736.441406 C 386.09375 743.242188 376.804688 745.5625 366.75 740.738281 L 360.8125 748.53125 L 353.238281 743.113281 " fill-opacity="1" fill-rule="nonzero"/><path fill="#000000" d="M 443.820312 721.441406 C 429.628906 753.988281 391.71875 768.878906 359.144531 754.695312 C 326.570312 740.519531 311.667969 702.636719 325.855469 670.089844 C 340.046875 637.542969 377.960938 622.652344 410.53125 636.828125 C 443.109375 651.011719 458.011719 688.886719 443.820312 721.441406 " fill-opacity="1" fill-rule="nonzero"/><path fill="#ffffff" d="M 439.058594 716.675781 C 424.867188 749.230469 386.957031 764.121094 354.382812 749.9375 C 321.804688 735.761719 306.902344 697.878906 321.097656 665.332031 C 335.285156 632.78125 373.199219 617.890625 405.769531 632.070312 C 438.347656 646.25 453.25 684.128906 439.058594 716.675781 " fill-opacity="1" fill-rule="nonzero"/><path fill="#000000" d="M 439.058594 716.675781 L 439.070312 716.675781 Z M 380.167969 627.695312 C 355.707031 627.695312 332.363281 641.917969 321.984375 665.71875 C 315.226562 681.222656 314.914062 698.429688 321.105469 714.167969 C 327.296875 729.910156 339.253906 742.292969 354.769531 749.050781 C 386.804688 762.992188 424.214844 748.296875 438.167969 716.289062 C 444.925781 700.789062 445.238281 683.578125 439.046875 667.84375 C 432.855469 652.101562 420.898438 639.71875 405.382812 632.960938 C 397.171875 629.382812 388.601562 627.695312 380.167969 627.695312 Z M 379.984375 756.257812 C 371.289062 756.257812 362.460938 754.515625 353.992188 750.828125 C 338.003906 743.871094 325.679688 731.101562 319.296875 714.882812 C 312.914062 698.65625 313.238281 680.921875 320.207031 664.941406 C 334.585938 631.957031 373.148438 616.808594 406.160156 631.175781 C 422.152344 638.140625 434.476562 650.910156 440.859375 667.128906 C 447.238281 683.355469 446.917969 701.085938 439.949219 717.066406 C 429.257812 741.59375 405.195312 756.257812 379.984375 756.257812 " fill-opacity="1" fill-rule="nonzero"/><path fill="#4ada85" d="M 353.238281 719.710938 L 358.765625 712.453125 C 353.761719 708.519531 349.785156 703.558594 348.128906 699.78125 L 357.257812 692.5 C 359.164062 696.574219 362.503906 701.441406 367.527344 705.027344 C 371.929688 708.179688 376.230469 708.652344 378.554688 705.597656 C 380.769531 702.695312 379.691406 699.097656 375.429688 693.097656 C 369.25 684.433594 366.519531 676.582031 372.164062 669.171875 C 377.285156 662.449219 386.09375 660.605469 395.589844 664.914062 L 401.117188 657.65625 L 401.121094 657.65625 L 408.695312 663.070312 L 408.695312 663.074219 L 403.570312 669.792969 C 408.578125 673.722656 411.242188 677.28125 412.863281 680.324219 L 404.039062 687.355469 C 402.671875 685.078125 400.453125 680.777344 394.886719 676.800781 C 389.867188 673.210938 386.609375 674.191406 384.980469 676.328125 C 383.058594 678.847656 384.542969 682.386719 389.253906 689.527344 C 396.003906 699.3125 396.515625 706.164062 391.273438 713.039062 C 386.09375 719.835938 376.804688 722.164062 366.75 717.335938 L 360.8125 725.125 L 353.238281 719.710938 " fill-opacity="1" fill-rule="nonzero"/><path fill="#000000" d="M 435.386719 698.507812 C 421.199219 731.054688 383.289062 745.945312 350.714844 731.761719 C 318.136719 717.585938 303.234375 679.703125 317.429688 647.15625 C 331.617188 614.605469 369.527344 599.710938 402.101562 613.894531 C 434.679688 628.070312 449.582031 665.953125 435.386719 698.507812 " fill-opacity="1" fill-rule="nonzero"/><path fill="#4ada85" d="M 430.628906 693.746094 C 416.4375 726.292969 378.523438 741.1875 345.953125 727.007812 C 313.375 712.828125 298.472656 674.945312 312.664062 642.394531 C 326.859375 609.847656 364.765625 594.957031 397.339844 609.136719 C 429.914062 623.316406 444.816406 661.195312 430.628906 693.746094 " fill-opacity="1" fill-rule="nonzero"/><path fill="#ffffff" d="M 344.804688 696.777344 L 350.335938 689.519531 C 345.328125 685.585938 341.351562 680.625 339.695312 676.839844 L 348.824219 669.566406 C 350.730469 673.640625 354.070312 678.507812 359.09375 682.09375 C 363.5 685.246094 367.796875 685.71875 370.125 682.664062 C 372.335938 679.761719 371.257812 676.164062 366.992188 670.164062 C 360.820312 661.5 358.085938 653.648438 363.730469 646.238281 C 368.855469 639.515625 377.664062 637.667969 387.15625 641.980469 L 392.6875 634.722656 L 400.261719 640.136719 L 395.140625 646.859375 C 400.144531 650.789062 402.808594 654.347656 404.425781 657.390625 L 395.609375 664.421875 C 394.242188 662.144531 392.023438 657.847656 386.457031 653.867188 C 381.429688 650.273438 378.179688 651.257812 376.550781 653.394531 C 374.628906 655.917969 376.113281 659.453125 380.816406 666.59375 C 387.574219 676.378906 388.085938 683.234375 382.84375 690.105469 C 377.664062 696.902344 368.367188 699.230469 358.316406 694.402344 L 352.378906 702.191406 L 344.804688 696.777344 " fill-opacity="1" fill-rule="nonzero"/><path fill="#000000" d="M 443.820312 678.144531 C 429.628906 710.691406 391.71875 725.585938 359.144531 711.40625 C 326.570312 697.226562 311.667969 659.34375 325.855469 626.796875 C 340.046875 594.246094 377.960938 579.355469 410.53125 593.535156 C 443.109375 607.714844 458.011719 645.597656 443.820312 678.144531 " fill-opacity="1" fill-rule="nonzero"/><path fill="#ffffff" d="M 439.058594 673.386719 C 424.867188 705.933594 386.957031 720.828125 354.382812 706.644531 C 321.804688 692.46875 306.902344 654.585938 321.097656 622.039062 C 335.285156 589.492188 373.199219 574.597656 405.769531 588.777344 C 438.347656 602.957031 453.25 640.835938 439.058594 673.386719 " fill-opacity="1" fill-rule="nonzero"/><path fill="#000000" d="M 380.167969 584.398438 C 355.707031 584.398438 332.363281 598.625 321.984375 622.425781 C 315.226562 637.929688 314.914062 655.136719 321.105469 670.871094 C 327.296875 686.613281 339.253906 699 354.769531 705.757812 C 386.800781 719.699219 424.214844 705.003906 438.167969 672.996094 C 444.925781 657.492188 445.238281 640.289062 439.046875 624.546875 C 432.855469 608.8125 420.898438 596.421875 405.382812 589.667969 C 397.171875 586.09375 388.601562 584.398438 380.167969 584.398438 Z M 379.984375 712.964844 C 371.289062 712.964844 362.460938 711.21875 353.992188 707.539062 C 338.003906 700.578125 325.679688 687.808594 319.296875 671.585938 C 312.914062 655.367188 313.238281 637.628906 320.207031 621.652344 C 334.585938 588.660156 373.148438 573.515625 406.160156 587.886719 C 422.152344 594.847656 434.476562 607.613281 440.859375 623.839844 C 447.238281 640.0625 446.917969 657.792969 439.949219 673.773438 L 439.058594 673.386719 L 439.949219 673.773438 C 429.257812 698.304688 405.195312 712.964844 379.984375 712.964844 " fill-opacity="1" fill-rule="nonzero"/><path fill="#4ada85" d="M 361.15625 682.3125 L 364.699219 673.902344 C 358.875 671.34375 353.78125 667.519531 351.238281 664.273438 L 358.261719 654.953125 C 361.128906 658.425781 365.574219 662.308594 371.332031 664.535156 C 376.386719 666.488281 380.664062 665.878906 382.160156 662.34375 C 383.574219 658.976562 381.636719 655.757812 376.011719 651.011719 C 367.871094 644.15625 363.265625 637.234375 366.890625 628.652344 C 370.175781 620.867188 378.242188 616.890625 388.511719 618.695312 L 392.058594 610.292969 L 400.746094 613.652344 L 397.460938 621.433594 C 403.285156 623.996094 406.753906 626.78125 409.082031 629.328125 L 402.292969 638.328125 C 400.398438 636.460938 397.179688 632.855469 390.796875 630.382812 C 385.039062 628.15625 382.132812 629.914062 381.082031 632.394531 C 379.855469 635.3125 382.171875 638.371094 388.511719 644.113281 C 397.492188 651.910156 399.691406 658.417969 396.332031 666.378906 C 393.007812 674.25 384.589844 678.820312 373.648438 676.648438 L 369.839844 685.667969 L 361.15625 682.3125 " fill-opacity="1" fill-rule="nonzero"/><g clip-path="url(#241395af10)"><path fill="#ffffff" d="M 352.664062 596.707031 L 415.539062 596.707031 L 415.539062 691.503906 L 352.664062 691.503906 Z M 352.664062 596.707031 " fill-opacity="1" fill-rule="nonzero"/></g><g clip-path="url(#bc0926dd7f)"><g clip-path="url(#405d1bd43c)"><g clip-path="url(#f64da35776)"><path fill="#49d884" d="M 419.875 621.507812 L 411.675781 629.371094 L 401.722656 625.378906 C 401.984375 626.15625 402.164062 627.09375 402.261719 628.191406 C 402.359375 629.289062 402.292969 630.332031 402.070312 631.316406 L 414.015625 636.109375 L 405.820312 643.96875 L 398.214844 640.921875 C 397.03125 642.867188 395.554688 644.46875 393.789062 645.726562 C 392.023438 646.988281 390.078125 647.914062 387.957031 648.507812 C 385.832031 649.105469 383.589844 649.371094 381.226562 649.316406 C 378.863281 649.257812 376.496094 648.871094 374.125 648.15625 L 387.757812 682.582031 L 372.371094 676.410156 L 360.289062 643.414062 L 364.140625 633.808594 L 370.574219 636.390625 C 371.382812 636.714844 372.433594 637.070312 373.726562 637.453125 C 375.015625 637.835938 376.359375 638.078125 377.746094 638.179688 C 379.132812 638.285156 380.484375 638.167969 381.792969 637.839844 C 383.105469 637.503906 384.203125 636.78125 385.089844 635.65625 L 364.230469 627.289062 L 372.429688 619.425781 L 388.898438 626.035156 C 389.015625 624.738281 388.746094 623.570312 388.085938 622.527344 C 387.425781 621.492188 386.519531 620.546875 385.363281 619.695312 C 384.207031 618.847656 382.847656 618.058594 381.292969 617.332031 C 379.734375 616.605469 378.101562 615.902344 376.390625 615.214844 L 370.089844 612.6875 L 378.285156 604.828125 Z M 419.875 621.507812 " fill-opacity="1" fill-rule="nonzero"/></g></g></g></svg>