<svg xmlns="http://www.w3.org/2000/svg" width="1080" height="1080" version="1.0" viewBox="0 0 810 810"><defs><clipPath id="a"><path d="M.672 795H87v15H.672Zm0 0"/></clipPath><clipPath id="b"><path d="M352.664 596.707h62.875v94.871h-62.875Zm0 0"/></clipPath><clipPath id="c"><path d="M360 604h60v79h-60Zm0 0"/></clipPath><clipPath id="d"><path d="m373.953 602.98 45.902 18.415-25.668 63.988-45.902-18.414Zm0 0"/></clipPath><clipPath id="e"><path d="m373.953 602.98 45.902 18.415-25.668 63.988-45.902-18.414Zm0 0"/></clipPath></defs><path fill="#fff" d="M-81-81h972v972H-81z"/><path fill="#fff" d="M-81-81h972v972H-81z"/><path d="M538.508 809.512a.973.973 0 0 1-.973-.973V542.508a.97.97 0 0 1 .973-.969h31.953c.293 0 .57.129.758.36l213.828 265.98a.965.965 0 0 1-.149 1.363.964.964 0 0 1-1.359-.148L569.996 543.48H539.48v265.06a.973.973 0 0 1-.972.972"/><path fill="#8c7bff" d="M534.484 673.129h139.61l26.738 33.27H561.543zM595.973 749.676h139.605l26.735 33.27h-139.29zM474.379 598.496h139.785l26.719 33.27H501.43z"/><path d="M398.223 809.512a.97.97 0 0 1-.973-.973V542.508a.97.97 0 0 1 .973-.973h31.949c.297 0 .574.133.758.36L644.816 807.93a.973.973 0 0 1-.148 1.367.98.98 0 0 1-1.371-.152l-213.59-265.668h-30.52v265.062c0 .535-.43.973-.964.973"/><path d="M538.469 543.477H430.227a.97.97 0 0 1-.973-.97c0-.534.437-.972.973-.972h108.242a.972.972 0 0 1 0 1.942"/><path fill="#955b50" d="m557.754 455.387-43.469 14.324 30.258 91.676 43.465-14.32z"/><path fill="#020202" d="m520.902 489.77 48.59 1.187-11.742-35.57-43.465 14.324zM573.566 503.3l-43.468 14.321 14.445 43.766 43.465-14.32z"/><path fill="#4ada85" d="M612.398 558.441c-9.132-13.28-11.757-22.28-23.328-29.886l-1.015-.668c-3.7-2.434-8.633.21-8.649 4.644l-.015 7.41c-.028 7.207-7.043 8.766-7.125 8.82-4.063 1.337-6.313-.503-16.094-2.698l-2.781-8.415-9.45-4.363-8.617 2.844-3.25 11.672-26.136 28.648-34.891 9.332-7.688 10.688 12.325 11.46 54.007 8.489 34.653-20.168z"/><path fill="#020202" d="m623.09 563.184-10.692-4.743-51.89 35.024-40.696 15.992-30.714-3.988-25.778-9.035-1.27 8.476 2.188 6.387 17.598 12.453s11.105 1.926 33.082 5.203c0 0 36.574-10.672 45.742-13.719l3.328-6.418 7.532-2.48 6.445 3.195c20.074-6.691 35.93-11.84 35.93-11.84l18.828-16.898z"/><path d="M591.613 515.719h.012Zm7.29-5.914c-3.325 0-6.126 2.605-6.321 5.965-.156 2.738 3.273 12.539 5.305 17.953 2.648-5.141 7.187-14.477 7.347-17.22a6.3 6.3 0 0 0-1.59-4.573 6.3 6.3 0 0 0-4.37-2.11c-.126-.007-.243-.015-.372-.015m-1.29 28.613-.77-1.98c-.655-1.692-6.44-16.66-6.198-20.778.265-4.555 4.19-8.047 8.746-7.781a8.24 8.24 0 0 1 5.703 2.754 8.22 8.22 0 0 1 2.078 5.984c-.235 4.113-7.711 18.32-8.563 19.926zM537.14 558.992q-.138-.002-.277-.039l-11.054-3.258a.974.974 0 0 1-.66-1.207.973.973 0 0 1 1.206-.656l11.06 3.258a.966.966 0 0 1 .655 1.203.97.97 0 0 1-.93.7M531.082 566.773a.8.8 0 0 1-.273-.039l-11.059-3.25a.977.977 0 0 1-.66-1.207.964.964 0 0 1 1.207-.656l11.058 3.25a.974.974 0 0 1 .66 1.207.98.98 0 0 1-.933.695M525.02 574.559a1 1 0 0 1-.274-.04l-11.055-3.253a.967.967 0 0 1-.656-1.207.967.967 0 0 1 1.207-.657l11.051 3.254a.97.97 0 0 1 .664 1.203.97.97 0 0 1-.937.7"/><path fill="#955b50" d="m691.129 510.914-48.258 8.223 16.711 97.875 48.254-8.227z"/><path fill="#020202" d="m646.488 540.29 51.543 11.062-6.906-40.442-48.25 8.227zM699.64 560.777l-48.253 8.23 8.195 48.005 48.254-8.227z"/><path fill="#4ada85" d="m707.605 590.363.903.805c10.312 9.246 11.566 18.543 18.617 33.031l-53.156 30.239-84.59 15.511-15.934-6.035 2.844-12.84 44.23-23.48 28.758-25.871 4.965-11.059 8.934-1.527 8.703 5.718 1.488 8.735c9.348 3.629 11.297 5.781 15.512 5.062.094-.043 7.262-.539 8.355-7.656l1.133-7.328c.676-4.379 5.942-6.266 9.238-3.305"/><path fill="#020202" d="m573.445 663.914 27.309.55 69.844-13.359 56.527-26.906 9.863 6.281 6.899 18.844-21.133 13.914s-16.45 2.723-37.297 6.356l-5.894-4.121-7.82 1.336-4.25 5.847c-32.587 5.649-67.903 11.574-67.903 11.574l-20.637-6.48-4.066-5.383z"/><path d="M720.09 574.031a6.344 6.344 0 0 0-6.2 5.028c-.562 2.68 1.372 12.882 2.567 18.539 3.379-4.696 9.27-13.246 9.832-15.934a6.3 6.3 0 0 0-.89-4.762 6.28 6.28 0 0 0-3.997-2.734 6.3 6.3 0 0 0-1.312-.137m-4.606 28.164-.464-2.07c-.395-1.77-3.883-17.43-3.032-21.469.942-4.465 5.34-7.336 9.805-6.39a8.22 8.22 0 0 1 5.23 3.574 8.23 8.23 0 0 1 1.172 6.222c-.855 4.043-10.367 16.965-11.441 18.43zM652.766 613.55a1 1 0 0 1-.407-.093l-10.445-4.86a.97.97 0 0 1-.473-1.292.963.963 0 0 1 1.286-.47l10.453 4.86c.484.23.695.809.472 1.293a.98.98 0 0 1-.886.563M645.621 620.344a1 1 0 0 1-.414-.09l-10.445-4.863a.97.97 0 0 1-.473-1.29.976.976 0 0 1 1.293-.472l10.45 4.863a.971.971 0 0 1-.41 1.852M638.465 627.145a.94.94 0 0 1-.41-.094l-10.45-4.86a.972.972 0 0 1 .82-1.761l10.45 4.86a.973.973 0 0 1-.41 1.855"/><path fill="#fed101" d="m642.094 186.664-10.02 65.027-21.734 101.641a229.4 229.4 0 0 0 2.48 106.309l29.274 111.254h73.273L686.855 420.5l28.5-168.738h.012v-65.098z"/><path d="M642.836 569.922h71.351l-28.28-149.238a.9.9 0 0 1-.005-.344l28.493-168.723v-63.976h-71.473l-9.895 64.207-21.734 101.691c-7.45 34.816-6.594 71.422 2.46 105.86Zm72.531 1.941H642.09a.97.97 0 0 1-.942-.718l-29.273-111.25c-9.133-34.73-9.996-71.649-2.492-106.762l21.734-101.64 10.016-64.97a.964.964 0 0 1 .957-.824h73.277c.535 0 .969.434.969.969v65.094q0 .164-.047.304l-28.445 168.426 28.476 150.219a.98.98 0 0 1-.207.8.98.98 0 0 1-.746.352"/><path fill="#fed101" d="m678.754 264.512 6.621-64.754-72.89-7.446-1.063 10.348-113.82 120.098a67.67 67.67 0 0 0-16.434 63.332l31.7 123.738 71.175.746-17.473-130.566 95.028-117.246z"/><path fill="#020202" d="m623.086 221.059 92.281-19.024v-5.77h-92.281z"/><path fill="#8c7bff" d="M794.477 140.223 584.617 7.44c-11.777-7.449-27.363-3.949-34.82 7.817-7.457 11.762-3.957 27.34 7.82 34.789l54.274 34.336v117.613h109.98v-48.023l45.613 28.855c11.77 7.45 27.364 3.95 34.813-7.816 7.465-11.766 3.953-27.34-7.82-34.79"/><path fill="#fff" d="M634.043 106.605H125.516V75.148h508.527z"/><path d="M126.488 105.637h506.586V76.125H126.488Zm507.551 1.945H125.516a.97.97 0 0 1-.97-.973V75.15c0-.536.434-.97.97-.97h508.523c.543 0 .973.434.973.97v31.46a.97.97 0 0 1-.973.973"/><path fill="#fff" d="M634.043 437.477H125.516V106.918h508.527z"/><path d="M126.492 436.5h506.582V107.883H126.492Zm507.555 1.941H125.52a.97.97 0 0 1-.973-.968V106.91a.97.97 0 0 1 .973-.969h508.527c.539 0 .973.43.973.97v330.562c0 .539-.434.968-.973.968M150.922 84.578c-3.652 0-6.625 2.984-6.625 6.649s2.973 6.644 6.625 6.644c3.656 0 6.629-2.98 6.629-6.644s-2.973-6.649-6.63-6.649m0 15.234c-4.727 0-8.57-3.851-8.57-8.585 0-4.739 3.843-8.59 8.57-8.59 4.726 0 8.57 3.851 8.57 8.59 0 4.734-3.844 8.585-8.57 8.585M177.324 84.578c-3.652 0-6.625 2.984-6.625 6.649s2.973 6.644 6.625 6.644 6.625-2.98 6.625-6.644-2.972-6.649-6.625-6.649m0 15.234c-4.726 0-8.57-3.851-8.57-8.585 0-4.739 3.844-8.59 8.57-8.59 4.723 0 8.57 3.851 8.57 8.59 0 4.734-3.847 8.585-8.57 8.585M203.723 84.578c-3.653 0-6.625 2.984-6.625 6.649s2.972 6.644 6.625 6.644 6.629-2.98 6.629-6.644-2.977-6.649-6.63-6.649m0 15.234c-4.727 0-8.567-3.851-8.567-8.585 0-4.739 3.84-8.59 8.567-8.59 4.726 0 8.57 3.851 8.57 8.59 0 4.734-3.844 8.585-8.57 8.585"/><path fill="#4ada85" d="M368.465 228.398H218.25V125.91h150.215z"/><path fill="#fff" d="M210.777 216.094a1 1 0 0 1-.511-.145.977.977 0 0 1-.309-1.344l39.246-62.707a.98.98 0 0 1 .758-.453.99.99 0 0 1 .812.352l21.34 25.75 14.785-20.758a1 1 0 0 1 .805-.406c.32.008.617.164.793.433l28.34 42.364 46.648-69.547a.97.97 0 0 1 1.348-.262.97.97 0 0 1 .266 1.348l-47.453 70.746a.97.97 0 0 1-.81.433.97.97 0 0 1-.808-.433l-28.363-42.399-14.703 20.633a.96.96 0 0 1-.758.406.92.92 0 0 1-.781-.347l-21.285-25.684-38.532 61.567a.98.98 0 0 1-.828.453"/><path fill="#fff" d="M362.98 147.23q-.036 0-.074-.003a.973.973 0 0 1-.894-1.047l1.172-14.418-13.887 6.449a.98.98 0 0 1-1.293-.473.97.97 0 0 1 .476-1.289l15.399-7.152a.977.977 0 0 1 1.383.96l-1.309 16.083a.977.977 0 0 1-.973.89"/><path fill="#fed101" d="M422.309 259.11h-18V133.226h18zM457.508 259.11h-18V133.226h18zM492.71 259.11h-18.007V133.226h18.008zM527.91 259.11h-18V133.226h18zM563.105 259.11H545.11V133.226h17.996zM598.309 259.11h-18V133.226h18z"/><path fill="#ff7dce" d="M422.305 259.113h-18v-55.086h18zM457.508 259.113h-18v-81.636h18zM492.71 259.113h-18.007v-81.636h18.008zM527.91 259.113h-18V143.895h18zM563.102 259.117h-17.997v-103.87h17.997zM598.309 259.11h-17.996v-75.157h17.996z"/><path fill="#8c7bff" d="M598.309 325.672H404.305v-43.578h194.004zM598.309 368.105H404.305v-27.218h194.004z"/><path fill="#955b50" d="m474.688 145.582-9.868-4.137-9.629 19.356c-1.41 2.855-.347 6.086 2.38 7.226 2.726 1.141 6.077-.242 7.5-3.093zM467.355 136.25l-9.867-4.133-9.62 19.356c-1.419 2.851-.352 6.082 2.374 7.222 2.723 1.145 6.082-.242 7.5-3.093z"/><path fill="#955b50" d="m458.371 130.375-8.808-3.687-8.594 17.285c-1.266 2.547-.317 5.433 2.117 6.453 2.43 1.02 5.43-.219 6.7-2.758zM480.602 157.691l-7.47-7.464-30.222 30.199a5.28 5.28 0 0 0 0 7.469 5.29 5.29 0 0 0 7.469 0zM508.152 132.582l-20.84 5.664-.984 36.984c-.324 3.07 1.895 5.575 4.95 5.602 3.05.02 5.788-2.45 6.113-5.52l1.754-16.667z"/><path fill="#955b50" d="m508.152 131.66 21.91-27.441-31.308-24.203-19.797 24.148-29.363 22.484 31.011 31.043z"/><path fill="#020202" d="m530.063 104.219-31.31-24.203-7.73 8.632 23.98 34.575z"/><path d="M455.531 167.484a1 1 0 0 1-.656-.25c-2.734-2.468-1.094-5.773-.55-6.859l8.542-17.27a.966.966 0 0 1 1.301-.44c.484.233.68.82.437 1.296l-8.543 17.281c-1.34 2.692-.734 3.778.122 4.547a.976.976 0 0 1-.652 1.695"/><path d="M452.238 160.066a6.2 6.2 0 0 1-2.375-.468 5.8 5.8 0 0 1-3.21-3.344c-.61-1.649-.485-3.543.343-5.215l8.586-17.226a.97.97 0 0 1 1.305-.438c.48.238.68.82.437 1.305l-8.59 17.226c-.586 1.188-.687 2.528-.261 3.672a3.85 3.85 0 0 0 2.144 2.223c2.25.949 5.063-.23 6.25-2.63l6-12.073a.975.975 0 0 1 1.746.863l-6.008 12.074c-1.242 2.508-3.808 4.031-6.367 4.031"/><path d="M444.871 151.75c-.73 0-1.469-.137-2.156-.43a5.22 5.22 0 0 1-2.922-3.043c-.563-1.492-.45-3.218.305-4.738l8.593-17.285a.97.97 0 0 1 1.301-.442c.48.243.672.825.438 1.31l-8.594 17.28c-.516 1.043-.598 2.203-.223 3.2a3.31 3.31 0 0 0 1.852 1.93c1.969.82 4.41-.212 5.45-2.302l6.675-13.421a.95.95 0 0 1 1.293-.434c.48.238.68.82.445 1.3l-6.672 13.423c-1.129 2.27-3.457 3.652-5.785 3.652M446.645 190.41a6.243 6.243 0 0 1-6.254-6.246c0-1.672.648-3.238 1.828-4.418l29.566-30.84a.97.97 0 1 1 1.399 1.344l-29.575 30.855a4.3 4.3 0 0 0-1.277 3.06c0 1.148.45 2.226 1.262 3.042a4.32 4.32 0 0 0 6.097 0l30.227-30.2a.967.967 0 0 1 1.375 0 .974.974 0 0 1 0 1.376l-30.227 30.199a6.24 6.24 0 0 1-4.421 1.828M491.313 181.8h-.047c-1.746-.015-3.32-.706-4.438-1.956-1.133-1.27-1.648-2.946-1.469-4.715l.618-23.242c.015-.535.468-.985 1-.95a.97.97 0 0 1 .941 1l-.617 23.32c-.133 1.294.215 2.434.976 3.29.75.836 1.813 1.3 3 1.312h.036c2.554 0 4.84-2.078 5.109-4.648l1.758-16.668c.011-.066.027-.14.047-.203l9.003-26.977a1 1 0 0 1 .168-.308l18.329-22.598a.977.977 0 0 1 1.367-.14.98.98 0 0 1 .144 1.367l-18.222 22.46-8.914 26.708-1.747 16.562c-.367 3.535-3.523 6.387-7.043 6.387"/><path d="M480.605 158.668a1 1 0 0 1-.722-.316.98.98 0 0 1 .066-1.375l12.45-11.348a.975.975 0 0 1 1.374.062.967.967 0 0 1-.066 1.371l-12.45 11.352a.95.95 0 0 1-.652.254M449.594 127.621a.99.99 0 0 1-.774-.379.98.98 0 0 1 .18-1.363l29.27-22.41 15.945-19.313a.973.973 0 0 1 1.367-.133c.414.34.473.961.129 1.372l-16.008 19.394a1.4 1.4 0 0 1-.156.152l-29.36 22.485a1 1 0 0 1-.593.195"/><path fill="#8c7bff" d="m486.465 85.168 39.344 29.977 57.609-72.864-29.941-31.578z"/><path d="M525.809 116.117a.93.93 0 0 1-.606-.215.97.97 0 0 1-.16-1.359l57.613-72.863a.97.97 0 0 1 1.364-.164c.421.34.496.945.164 1.367l-57.618 72.863a.97.97 0 0 1-.757.371"/><path fill="#8c7bff" d="M781.797 186.672h-93.945v-50.973h93.945z"/><path d="M721.934 187.645h-34.086a.97.97 0 0 1-.97-.97v-50.968c0-.543.438-.977.97-.977h81.984c.54 0 .973.434.973.977a.97.97 0 0 1-.973.969H688.82v49.027h33.114a.97.97 0 0 1 .968.973.97.97 0 0 1-.968.969"/><path fill="#955b50" d="M673.977 144.227c-4.055 0-6.407-5.594-15.559-5.594h-22.063a23.53 23.53 0 0 0-17.25 7.535l-2.324 2.512a6.41 6.41 0 0 0-1.101 7.082l.043.031-2.618 2.824a6.4 6.4 0 0 0-.687 7.828l-1.566 1.692a6.42 6.42 0 0 0-.504 8.113l1.558 2.156a5.87 5.87 0 0 0 .078 6.766c2.2 3.05 6.66 3.289 9.176.488l2.793-3.11a7 7 0 0 1 5.227-2.335h58.672v-35.988z"/><path fill="#020202" d="m675.02 144.227 12.832 35.988v-35.988z"/><path d="M612.418 167.414a.97.97 0 0 1-.816-.445 7.39 7.39 0 0 1 .793-9.016l4.105-4.433a18.54 18.54 0 0 1 13.559-5.922h11.304a.972.972 0 1 1 0 1.945H630.06c-4.59 0-9.008 1.93-12.13 5.297l-4.109 4.433a5.445 5.445 0 0 0-.586 6.641.973.973 0 0 1-.289 1.348 1 1 0 0 1-.527.152"/><path d="M611.926 179.395c-.301 0-.598-.141-.79-.403l-1.57-2.18a7.41 7.41 0 0 1 .575-9.34l4.925-5.316a15.75 15.75 0 0 1 11.532-5.039h14.875a.972.972 0 0 1 0 1.946h-14.875c-3.825 0-7.504 1.609-10.106 4.41l-4.926 5.324a5.45 5.45 0 0 0-.421 6.879l1.566 2.176a.973.973 0 0 1-.785 1.543"/><path d="M688.828 181.184h-36.496a.973.973 0 0 1 0-1.946h34.55v-34.043h-12.898c-1.914 0-3.398-.984-5.129-2.129-2.328-1.539-5.23-3.46-10.433-3.46h-22.063a22.61 22.61 0 0 0-16.535 7.218l-2.328 2.516a5.42 5.42 0 0 0-.933 6.008.973.973 0 0 1-.465 1.293.97.97 0 0 1-1.29-.465 7.34 7.34 0 0 1 1.262-8.16l2.328-2.508a24.56 24.56 0 0 1 17.961-7.844h22.063c5.789 0 9.098 2.188 11.508 3.781 1.523 1.012 2.722 1.805 4.054 1.805h14.844z"/><path d="M616.773 188.594c-.125 0-.246-.008-.367-.012a6.85 6.85 0 0 1-5.215-2.844 6.884 6.884 0 0 1 .536-8.675l5.144-5.551a16.02 16.02 0 0 1 11.719-5.117h12.375c.535 0 .972.433.972.972a.97.97 0 0 1-.972.969H628.59c-3.899 0-7.653 1.64-10.297 4.496l-5.14 5.55a4.94 4.94 0 0 0-.383 6.22 4.925 4.925 0 0 0 7.668.41l2.789-3.114a8.01 8.01 0 0 1 5.957-2.656h35.351a17.58 17.58 0 0 0 14.543-7.71.97.97 0 0 1 1.344-.262c.445.3.558.91.262 1.351a19.5 19.5 0 0 1-16.149 8.563h-35.351a6.06 6.06 0 0 0-4.508 2.015l-2.797 3.11a6.83 6.83 0 0 1-5.106 2.285"/><path fill="#955b50" d="m683.086 78.453-20.008 9.766v-36.66h20.008z"/><path d="M683.086 59.137v-7.578h-20.008v16.73c1.805.363 5.406.813 9.535-.547 6.473-2.129 9.653-7.183 10.473-8.605"/><path d="M705.602 33.176 684.648 52.64 656.7 35.934l7.278-27.63z"/><path fill="#955b50" d="M686.598 45.309c.011 10.023-7.325 18.164-16.395 18.18-9.07.023-16.437-8.09-16.45-18.106-.015-10.024 7.325-18.164 16.395-18.188 9.07-.015 16.434 8.09 16.45 18.114"/><path fill="#fff" d="M677.32 53.3a10.3 10.3 0 0 1-5.93 2.68c-5.144.536-9.777-2.792-11.058-7.636z"/><path fill="#8c7bff" d="M58.008 108.305C41.96 100.602 35.203 81.352 42.914 65.32c7.711-16.039 26.969-22.789 43.016-15.086 16.05 7.707 22.808 26.95 15.097 42.989-7.71 16.03-26.968 22.78-43.02 15.082m71.394 12.707 11.07-23.02-14.359-6.898a55.1 55.1 0 0 0 .965-17.617l15.043-5.266-8.465-24.106-15.039 5.274a55 55 0 0 0-11.773-13.149l6.902-14.351L90.703 10.82l-6.902 14.352a55.2 55.2 0 0 0-17.621-.969L60.898 9.172l-24.12 8.457 5.277 15.035a55 55 0 0 0-13.157 11.754l-15.105-6.48-10.695 22.37 14.73 7.141a54.9 54.9 0 0 0-.969 17.606L1.82 90.332l8.465 24.102 15.04-5.274a55.1 55.1 0 0 0 11.769 13.145l-6.899 14.351 23.043 11.067 6.899-14.352a55.2 55.2 0 0 0 17.625.965l5.281 15.031 24.121-8.46-5.277-15.028a55.1 55.1 0 0 0 13.152-11.762z"/><path fill="#fed101" d="M378.008 535.855h-82.012l-18.93 16.825v-82.973h100.942z"/><path fill="#fff" d="M356.883 489.477h103.449l23.875 21.226V406.04H356.883z"/><path d="M357.852 488.504h102.48c.238 0 .465.09.645.246l22.261 19.785V407.008H357.852Zm126.355 23.168a1 1 0 0 1-.648-.246l-23.598-20.977H356.883a.97.97 0 0 1-.973-.972v-83.438c0-.539.434-.976.973-.976h127.324c.535 0 .973.437.973.976v104.664a.973.973 0 0 1-.973.969"/><path d="M447.027 446.64h-8.722a.97.97 0 1 1 0-1.94h8.722c2.18 0 3.961-1.774 3.961-3.954a3.965 3.965 0 0 0-3.96-3.957h-14.852a.972.972 0 1 1 0-1.941h14.851a5.907 5.907 0 0 1 5.903 5.898c0 3.254-2.649 5.895-5.903 5.895M401.25 440.777a.968.968 0 0 1-.824-1.48l7.797-12.547 1.687-7.066c.063-3.122 2.688-5.633 5.899-5.633 3.253 0 5.906 2.578 5.906 5.75v.476c0 6.274-.89 11.73-2.887 17.688a.966.966 0 0 1-1.226.617.973.973 0 0 1-.614-1.234c1.922-5.75 2.778-11.02 2.778-17.07v-.477c0-2.102-1.774-3.809-3.957-3.809-2.18 0-3.954 1.707-3.954 3.809q-.002.11-.027.226l-1.754 7.328a.8.8 0 0 1-.12.286l-7.88 12.68a.96.96 0 0 1-.824.456"/><path d="M450.531 456.492h-9.601a.97.97 0 1 1 0-1.941h9.601a3.96 3.96 0 0 0 3.957-3.957 3.96 3.96 0 0 0-3.957-3.953h-9.601a.97.97 0 1 1 0-1.942h9.601c3.25 0 5.899 2.645 5.899 5.895a5.906 5.906 0 0 1-5.899 5.898"/><path d="M450.531 466.348h-12.226a.977.977 0 0 1-.977-.977c0-.531.438-.969.977-.969h12.226a3.96 3.96 0 0 0 3.957-3.953 3.964 3.964 0 0 0-3.957-3.957h-12.226a.97.97 0 1 1 0-1.941h12.226a5.91 5.91 0 0 1 5.899 5.898 5.91 5.91 0 0 1-5.899 5.899"/><path d="M445.273 476.2h-13.097a.975.975 0 0 1-.973-.973.97.97 0 0 1 .973-.97h13.097a3.965 3.965 0 0 0 3.961-3.956 3.96 3.96 0 0 0-3.96-3.953h-4.344a.977.977 0 0 1-.977-.977c0-.531.438-.969.977-.969h4.343c3.254 0 5.907 2.649 5.907 5.899s-2.653 5.898-5.907 5.898M408.938 439.79a.976.976 0 0 1-.961-.853.97.97 0 0 1 .836-1.085l23.238-2.997a.972.972 0 0 1 .25 1.926l-23.235 2.996a1 1 0 0 1-.128.012"/><path d="M432.176 476.2H401.25a.97.97 0 0 1-.969-.973v-35.422a.972.972 0 0 1 1.941 0v34.453h29.954a.972.972 0 0 1 0 1.941M385.527 474.258h9.676v-33.48h-9.676Zm10.649 1.941h-11.617a.973.973 0 0 1-.973-.972v-35.422a.97.97 0 0 1 .973-.97h11.617c.535 0 .972.435.972.97v35.422a.975.975 0 0 1-.972.972M724.621 374.46c-1.062 0-2.14.063-3.223.185-7.675.851-14.57 4.644-19.39 10.671-4.824 6.036-7.012 13.579-6.153 21.25 1.766 15.844 16.106 27.305 31.95 25.528 7.683-.852 14.57-4.645 19.394-10.68 4.824-6.027 7.012-13.574 6.153-21.25-1.645-14.754-14.2-25.703-28.73-25.703m-.047 59.759c-15.5 0-28.898-11.684-30.656-27.43-.906-8.195 1.422-16.25 6.57-22.684 5.153-6.437 12.5-10.48 20.696-11.394 16.918-1.879 32.214 10.332 34.101 27.238.914 8.192-1.422 16.246-6.566 22.68-5.153 6.433-12.496 10.484-20.696 11.398q-1.739.193-3.449.192m-21.941 14.61c.14 0 .285.03.422.089a50 50 0 0 0 15.425 4.469c.442.05.797.41.848.851l1.531 13.715 21.63-2.406-1.524-13.711a.97.97 0 0 1 .633-1.027 49.9 49.9 0 0 0 14.066-7.754.98.98 0 0 1 1.203.011l10.793 8.618 13.59-16.989-10.785-8.62a.98.98 0 0 1-.278-1.177 49.7 49.7 0 0 0 4.473-15.41c.059-.449.41-.8.86-.851l13.718-1.528-2.41-21.617-13.723 1.528a.96.96 0 0 1-1.023-.637 49.9 49.9 0 0 0-7.762-14.047.985.985 0 0 1 .012-1.211l8.625-10.781-17.004-13.578-8.621 10.78a.975.975 0 0 1-1.176.27 50.1 50.1 0 0 0-15.426-4.468.96.96 0 0 1-.847-.856l-1.535-13.715-21.637 2.414 1.535 13.707a.99.99 0 0 1-.64 1.032 50.1 50.1 0 0 0-14.067 7.746.974.974 0 0 1-1.207-.004l-10.789-8.625-13.59 16.988 10.79 8.621c.355.285.464.77.273 1.176a49.9 49.9 0 0 0-4.47 15.418.98.98 0 0 1-.82.84l-14.128 2.18 2.761 20.972 13.739-1.531a.97.97 0 0 1 1.027.644 49.8 49.8 0 0 0 7.754 14.047.98.98 0 0 1-.008 1.207l-8.621 10.782 17 13.578 8.625-10.778a.97.97 0 0 1 .758-.363M720 470a.97.97 0 0 1-.965-.863l-1.555-13.922a52 52 0 0 1-14.562-4.211l-8.758 10.941a.97.97 0 0 1-1.363.153L674.28 447.3a.93.93 0 0 1-.363-.649.96.96 0 0 1 .207-.714l8.754-10.946a51.9 51.9 0 0 1-7.324-13.265l-13.926 1.554a.97.97 0 0 1-1.07-.84l-3.02-22.859a.986.986 0 0 1 .82-1.09l14.348-2.21a52.2 52.2 0 0 1 4.227-14.583l-10.954-8.742a1 1 0 0 1-.359-.656.96.96 0 0 1 .211-.715l14.805-18.508a.98.98 0 0 1 1.367-.148l10.95 8.742a52.2 52.2 0 0 1 13.273-7.317l-1.551-13.914a.977.977 0 0 1 .851-1.074l23.567-2.625a.98.98 0 0 1 1.078.856l1.555 13.922a52 52 0 0 1 14.562 4.21l8.754-10.94a.977.977 0 0 1 1.367-.15l18.52 14.794a.97.97 0 0 1 .152 1.367l-8.758 10.941a51.9 51.9 0 0 1 7.324 13.262l13.934-1.55a.973.973 0 0 1 1.07.858l2.625 23.547a.96.96 0 0 1-.207.715c-.16.2-.39.332-.648.36l-13.93 1.554a51.7 51.7 0 0 1-4.222 14.547l10.957 8.746a.976.976 0 0 1 .148 1.367l-14.805 18.508a.966.966 0 0 1-1.363.153l-10.957-8.747a52 52 0 0 1-13.273 7.313l1.55 13.918a.92.92 0 0 1-.207.715.96.96 0 0 1-.644.363l-23.574 2.621c-.032.008-.067.008-.102.008"/><path fill="#fed101" d="M81.645 796.535H8.53l32.153-61.773h51.68z"/><path d="m89.684 750.207-65.075 15.438 16.075-30.883h51.68z"/><g clip-path="url(#a)"><path d="M86.762 809.445H72.89l-5.922-6.11-5.942 6.11h-27.91l-6.265-6.11-6.5 6.11H.882l2.641-14.293h80.598z"/></g><path fill="#fed101" d="M266.39 802.816c.258-1.746.4-3.535.4-5.355 0-19.977-16.212-36.172-36.204-36.172s-36.203 16.195-36.203 36.172c0 1.82.14 3.61.398 5.355z"/><path fill="#fed101" d="M260.137 794.629h-76.684l9.379-48.504h39.164z"/><path d="m234.363 750.207-44.883 13.254 3.352-17.336h39.164zM249.164 776.691a.98.98 0 0 1-.844-.484l-7.332-12.644a.97.97 0 1 1 1.68-.977l7.336 12.644a.97.97 0 0 1-.356 1.329.95.95 0 0 1-.484.132M271.031 808.926h-14.777l-6.309-6.11-6.328 6.11h-29.73l-6.676-6.11-6.926 6.11h-20.738l2.816-14.297h85.852z"/><path fill="#8c7bff" d="M262.695 492.023 248.578 389.47H119.684v68.988L95.289 576.281 26.063 750.207h69.316l43.918-93.777a478 478 0 0 0 39.957-132.688l7.637-51.554 9.394 101.808-17.023 176.211h69.316l13.465-92.437a590.8 590.8 0 0 0 .652-165.747"/><path d="M248.578 751.18h-69.316a.97.97 0 0 1-.719-.317.99.99 0 0 1-.25-.746l17.016-176.125-9.383-101.719a.977.977 0 0 1 .879-1.058c.53-.055 1.004.351 1.054.883l9.391 101.808a.7.7 0 0 1 0 .184l-16.918 175.148h67.406l13.344-91.61a589.7 589.7 0 0 0 .648-165.472l-14.117-102.554a.97.97 0 0 1 .832-1.094.97.97 0 0 1 1.094.828L263.66 491.89a591.7 591.7 0 0 1-.656 166.02l-13.465 92.44a.97.97 0 0 1-.96.829"/><path d="M204.238 472.727h-43.754a.972.972 0 0 1 0-1.941h43.754a.97.97 0 1 1 0 1.941"/><path fill="#6155ff" d="M209.648 457.234h-.015c-11.176 0-20.235-9.062-20.235-20.234v-23.54h40.485V437c0 11.172-9.059 20.234-20.235 20.234"/><path d="M126.406 590.23a.94.94 0 0 1-.48-.128l-31.117-17.66a.97.97 0 0 1-.45-1.118.99.99 0 0 1 .989-.699l26.68 1.59a.977.977 0 0 1 .913 1.031c-.035.535-.484.926-1.03.914l-22.505-1.344 27.48 15.594c.466.27.63.86.364 1.328a.97.97 0 0 1-.844.492M214.027 586.086a.96.96 0 0 1-.515-.149l-17.746-11.117a.99.99 0 0 1-.418-1.093.975.975 0 0 1 .937-.704h25.508c.539 0 .969.434.969.973 0 .54-.43.969-.969.969h-22.129l14.879 9.324a.97.97 0 0 1-.516 1.797M119.684 424.598v-35.13h128.824Zm0 0"/><path fill="#fda4ff" d="m291 193.824-9.031 23.227-2.117-13.684 2.18-5.926a6.48 6.48 0 0 1 8.222-3.875z"/><path fill="#fda4ff" d="m325.879 211.672-3.52 26.543-32.437 9.472-9.512-24.73a29.36 29.36 0 0 1-.152-20.687l1.504-4.094z"/><path fill="#fff" d="M268.582 170.965c0 30.558-24.797 55.332-55.383 55.332-30.582 0-55.379-24.774-55.379-55.332 0-30.567 24.797-55.34 55.38-55.34 30.585 0 55.382 24.773 55.382 55.34"/><path fill="#1ec15f" d="M213.2 115.625c-.49 0-.97.027-1.454.035v110.598c.484.015.965.039 1.453.039 30.586 0 55.383-24.774 55.383-55.332 0-30.567-24.797-55.34-55.383-55.34"/><path fill="#fff" d="M210.777 214.152a1 1 0 0 1-.511-.148.97.97 0 0 1-.313-1.336l39.25-62.703a.97.97 0 0 1 1.57-.105l18.657 22.511a.965.965 0 0 1-.13 1.367.966.966 0 0 1-1.366-.129l-17.797-21.476-38.535 61.562c-.184.301-.5.457-.825.457"/><path d="m274.734 201.082 64.079 26.121 5.484-13.441-64.004-26.098Zm64.606 28.363a1 1 0 0 1-.367-.074l-65.875-26.86a.98.98 0 0 1-.532-.519.99.99 0 0 1 0-.746l6.301-15.223a.97.97 0 0 1 1.262-.523l65.8 26.828a1 1 0 0 1 .532.527 1 1 0 0 1 .004.743l-6.227 15.242a.97.97 0 0 1-.898.605M213.2 116.598c-30 0-54.407 24.386-54.407 54.363 0 29.98 24.406 54.371 54.406 54.371s54.406-24.39 54.406-54.371c0-29.977-24.406-54.363-54.406-54.363m0 110.675c-31.071 0-56.352-25.261-56.352-56.312 0-31.043 25.28-56.305 56.351-56.305 31.074 0 56.352 25.262 56.352 56.305 0 31.05-25.278 56.312-56.352 56.312"/><path d="M244.977 203.684a.967.967 0 0 1-.684-1.656c6.676-6.673 10.953-15.106 12.371-24.391a.976.976 0 0 1 1.106-.813.977.977 0 0 1 .816 1.11c-1.48 9.695-5.95 18.5-12.922 25.468a.97.97 0 0 1-.687.282M257.625 165.11a.97.97 0 0 1-.96-.825c-3.243-21.238-21.927-37.254-43.466-37.254a.97.97 0 0 1-.969-.976c0-.535.434-.97.97-.97 22.488 0 42 16.728 45.386 38.903a.975.975 0 0 1-.816 1.11c-.047.011-.098.011-.145.011M274.41 200.348a1 1 0 0 1-.37-.075l-10.837-4.453a.97.97 0 0 1-.531-1.265.965.965 0 0 1 1.27-.528l9.937 4.078 3.605-8.773-10.644-4.371a.974.974 0 0 1-.531-1.27.973.973 0 0 1 1.27-.527l11.546 4.742a.97.97 0 0 1 .527.52.99.99 0 0 1 0 .746l-4.347 10.57a.965.965 0 0 1-.895.606"/><path fill="#fda4ff" d="m302.383 189.387-9.95 27.05-8.949-3.285 9.957-27.058a4.57 4.57 0 0 1 5.86-2.711l.37.129a4.58 4.58 0 0 1 2.712 5.875M312.824 188.605l-10.472 28.473-8.946-3.285 10.477-28.48a4.596 4.596 0 0 1 5.898-2.731l.313.113a4.6 4.6 0 0 1 2.73 5.91M330.707 195.21l-10.309 28.017-8.945-3.282 10.309-28.027a4.64 4.64 0 0 1 5.949-2.754l.242.09a4.64 4.64 0 0 1 2.754 5.957"/><path fill="#fda4ff" d="m330.703 215.844-8.254 22.168-8.988-3.305 13.918-37.562 3.246 8.406c1.27 3.308 1.3 6.96.078 10.293M317.898 187.875l.489.176c2.332.855 3.406 3.777 2.398 6.515l-10.066 27.375-8.95-3.28 10.07-27.38c1.013-2.742 3.724-4.27 6.06-3.406"/><path d="M309.293 199.176q-.169-.001-.332-.055a.976.976 0 0 1-.578-1.25l3.531-9.613a3.58 3.58 0 0 0-.11-2.766 3.6 3.6 0 0 0-2.042-1.883l-.309-.113a3.64 3.64 0 0 0-4.66 2.152l-4.016 10.915a.966.966 0 0 1-1.246.574.97.97 0 0 1-.578-1.246l4.016-10.914a5.583 5.583 0 0 1 7.156-3.305l.305.113a5.52 5.52 0 0 1 3.136 2.887 5.54 5.54 0 0 1 .176 4.258l-3.535 9.613a.97.97 0 0 1-.914.633"/><path d="M317.715 203.875a.97.97 0 0 1-.91-1.305l3.34-9.07a3.52 3.52 0 0 0-.11-2.7 3.5 3.5 0 0 0-1.988-1.831l-.488-.18a3.535 3.535 0 0 0-4.536 2.094l-3.218 8.754a.974.974 0 1 1-1.828-.672l3.222-8.75a5.48 5.48 0 0 1 7.028-3.25l.492.176a5.47 5.47 0 0 1 3.082 2.843 5.46 5.46 0 0 1 .168 4.188l-3.34 9.07a.97.97 0 0 1-.914.633"/><path fill="#fda4ff" d="m322.754 235.879-.957 40.125-34.606-11.047.793-41.848z"/><path d="m322.426 249.559-.63 26.441-34.605-11.043.22-11.582 21.484-2.344zM284.406 211.629q-.17 0-.34-.059a.97.97 0 0 1-.574-1.25l9.035-24.558a5.55 5.55 0 0 1 7.118-3.29l.363.133a5.5 5.5 0 0 1 3.117 2.875 5.48 5.48 0 0 1 .172 4.235l-3.23 8.785a.974.974 0 0 1-1.25.574.963.963 0 0 1-.57-1.246l3.226-8.785a3.54 3.54 0 0 0-.11-2.75 3.6 3.6 0 0 0-2.027-1.867l-.367-.133c-1.856-.684-3.93.277-4.617 2.137l-9.036 24.562a.97.97 0 0 1-.91.637"/><path d="M321.797 276.973q-.151-.001-.3-.043l-34.602-11.047a.97.97 0 0 1-.676-.945l.437-23.032-7.152-18.597a30.5 30.5 0 0 1-.793-19.465.973.973 0 0 1 1.867.55 28.55 28.55 0 0 0 .738 18.215l7.223 18.778q.066.179.063.37l-.426 22.493 32.68 10.43.894-37.243q.001-.157.055-.316l7.988-21.617a13.64 13.64 0 0 0-.078-9.602l-1.852-4.793a1 1 0 0 1-.008-.672l1.938-5.546c.34-.938.3-1.934-.113-2.82a3.64 3.64 0 0 0-2.059-1.907l-.238-.082a3.67 3.67 0 0 0-4.707 2.176l-4.555 12.375a.973.973 0 0 1-1.824-.672l4.555-12.375c1.062-2.902 4.296-4.402 7.195-3.328l.242.086a5.56 5.56 0 0 1 3.156 2.91 5.54 5.54 0 0 1 .176 4.289l-1.812 5.2 1.722 4.46a15.52 15.52 0 0 1 .082 10.973l-7.925 21.472-.922 38.38a.97.97 0 0 1-.97.945"/><path fill="#fed101" d="M304.879 372.73c-16.363-.285-29.395-13.761-29.113-30.109l1.203-83.52 59.5.118-1.461 84.422c-.285 16.351-13.774 29.37-30.13 29.09"/><path d="m277.93 260.074-1.192 82.563c-.133 7.648 2.723 14.886 8.043 20.386 5.317 5.504 12.461 8.606 20.11 8.735 15.804.234 28.87-12.348 29.144-28.133l1.442-83.434Zm27.46 113.633q-.258.002-.53-.008c-8.173-.137-15.801-3.453-21.477-9.328-5.68-5.867-8.727-13.598-8.586-21.766l1.2-83.523a.976.976 0 0 1 .972-.953h.004l59.496.117c.258 0 .508.106.687.293a.97.97 0 0 1 .281.7l-1.46 84.421c-.286 16.676-13.954 30.047-30.586 30.047"/><path fill="#fed101" d="m326.652 322.52-52.976-52.954a114.8 114.8 0 0 0-81.153-33.593H158.23c-23.64 0-45.195 13.523-55.464 34.808l-26.102 54.09c-7.195 14.953-2.848 36.953 12.121 44.14 10.113 4.86 18.574 4.489 27.961-.007l-2.988 33.605 139.512-13.144-7.872-57.371 39.36 32.289z"/><path d="M284.754 365.36a1 1 0 0 1-.613-.22l-63.29-51.93a.965.965 0 0 1-.136-1.362.973.973 0 0 1 1.367-.137l63.29 51.922a.98.98 0 0 1 .136 1.37.98.98 0 0 1-.754.356M326.648 323.5a.98.98 0 0 1-.683-.29l-52.977-52.948c-21.8-21.797-49.949-33.313-81.402-33.313a.97.97 0 0 1-.973-.972.97.97 0 0 1 .973-.973c31.98 0 60.601 11.715 82.777 33.879l52.973 52.953a.96.96 0 0 1 0 1.375.97.97 0 0 1-.688.289M116.895 369.988q-.047-.001-.098-.008a.98.98 0 0 1-.871-1.062l8.336-84.242a.97.97 0 0 1 1.062-.867.97.97 0 0 1 .871 1.062l-8.336 84.242a.97.97 0 0 1-.964.875"/><path d="m124.977 287.316-19.012 85.008s2.883-.246 5.906-1.238c2.152-.711 4.875-2.082 4.875-2.082z"/><path fill="#fda4ff" d="M203.098 203.313c0 10.496.675 25.062-9.832 25.062s-28.223-14.566-28.223-25.062c0-10.5 8.52-19.012 19.027-19.012 10.512 0 19.028 8.512 19.028 19.012"/><path d="M210.082 198.66c-2.902-9.687-11.883-16.746-22.52-16.746-10.632 0-19.289 6.492-21.945 16.746z"/><path fill="#fda4ff" d="M190.89 235.977h-22.007v-32.668h22.008z"/><path d="M190.89 237.281a.975.975 0 0 1-.972-.972v-18.403a.973.973 0 0 1 1.945 0v18.403a.973.973 0 0 1-.972.972M443.82 770.11c-14.191 32.554-52.101 47.445-84.675 33.261-32.575-14.176-47.477-52.058-33.29-84.605 14.192-32.551 52.106-47.446 84.676-33.262 32.578 14.176 47.48 52.058 33.29 84.605"/><path fill="#fff" d="M439.059 765.355c-14.192 32.547-52.102 47.438-84.676 33.262-32.578-14.183-47.48-52.062-33.285-84.613 14.187-32.547 52.101-47.438 84.672-33.254 32.578 14.176 47.48 52.059 33.289 84.605"/><path d="M380.168 676.371c-24.461 0-47.805 14.227-58.184 38.024-6.757 15.503-7.07 32.71-.879 48.449s18.149 28.125 33.665 34.883c32.03 13.941 69.445-.754 83.398-32.758 6.758-15.504 7.07-32.711.879-48.45-6.192-15.742-18.149-28.124-33.664-34.882a63.1 63.1 0 0 0-25.215-5.266m-.184 128.567c-8.695 0-17.523-1.747-25.992-5.43-15.988-6.961-28.312-19.73-34.695-35.957-6.383-16.219-6.059-33.95.91-49.934 14.379-32.988 52.941-48.133 85.953-33.762 15.992 6.961 28.317 19.73 34.7 35.95 6.378 16.222 6.058 33.957-.91 49.937l-.891-.387.89.387c-10.691 24.528-34.754 39.196-59.965 39.196"/><path fill="#4ada85" d="m353.238 768.39 5.528-7.261c-5.004-3.93-8.98-8.895-10.637-12.68l9.129-7.281c1.906 4.082 5.246 8.95 10.27 12.535 4.402 3.152 8.702 3.625 11.027.57 2.215-2.902 1.136-6.5-3.125-12.5-6.18-8.664-8.91-16.515-3.266-23.925 5.121-6.723 13.93-8.567 23.426-4.258l5.527-7.258h.004l7.574 5.414-5.125 6.723c5.008 3.93 7.672 7.488 9.293 10.531l-8.824 7.031c-1.367-2.277-3.586-6.574-9.152-10.554-5.02-3.594-8.278-2.614-9.907-.473-1.921 2.52-.437 6.058 4.274 13.2 6.75 9.784 7.262 16.64 2.02 23.515-5.18 6.793-14.47 9.12-24.524 4.293l-5.937 7.793z"/><path d="M443.82 744.84c-14.191 32.547-52.101 47.437-84.675 33.262-32.575-14.184-47.477-52.067-33.29-84.614 14.192-32.547 52.106-47.437 84.676-33.258 32.578 14.18 47.48 52.063 33.29 84.61"/><path fill="#4ada85" d="M439.059 740.082c-14.192 32.55-52.102 47.441-84.676 33.262-32.578-14.184-47.48-52.063-33.285-84.61 14.187-32.55 52.101-47.441 84.672-33.261 32.578 14.18 47.48 52.062 33.289 84.609"/><path fill="#fff" d="m353.238 743.113 5.528-7.258c-5.004-3.93-8.98-8.898-10.637-12.675l9.129-7.282c1.906 4.079 5.246 8.942 10.27 12.536 4.402 3.148 8.702 3.625 11.027.566 2.215-2.902 1.136-6.504-3.125-12.504-6.18-8.66-8.91-16.516-3.266-23.922 5.121-6.722 13.93-8.566 23.426-4.258l5.527-7.261h.004l7.574 5.418-5.125 6.722c5.008 3.93 7.672 7.485 9.293 10.535l-8.824 7.028c-1.367-2.278-3.586-6.574-9.152-10.559-5.02-3.586-8.278-2.61-9.907-.469-1.921 2.52-.437 6.055 4.274 13.2 6.75 9.785 7.262 16.636 2.02 23.511-5.18 6.801-14.47 9.121-24.524 4.297l-5.937 7.793z"/><path d="M443.82 721.441c-14.191 32.547-52.101 47.438-84.675 33.254-32.575-14.175-47.477-52.058-33.29-84.605 14.192-32.547 52.106-47.438 84.676-33.262 32.578 14.184 47.48 52.059 33.29 84.613"/><path fill="#fff" d="M439.059 716.676c-14.192 32.554-52.102 47.445-84.676 33.261-32.578-14.175-47.48-52.058-33.285-84.605 14.187-32.55 52.101-47.441 84.672-33.262 32.578 14.18 47.48 52.059 33.289 84.606"/><path d="M439.059 716.676h.011Zm-58.891-88.98c-24.461 0-47.805 14.222-58.184 38.023-6.757 15.504-7.07 32.71-.879 48.449 6.192 15.742 18.149 28.125 33.665 34.883 32.035 13.941 69.445-.754 83.398-32.762 6.758-15.5 7.07-32.71.879-48.445-6.192-15.742-18.149-28.125-33.664-34.883a63 63 0 0 0-25.215-5.266m-.184 128.562a65 65 0 0 1-25.992-5.43c-15.988-6.957-28.312-19.726-34.695-35.945-6.383-16.227-6.059-33.961.91-49.942 14.379-32.984 52.941-48.132 85.953-33.765 15.992 6.965 28.317 19.734 34.7 35.953 6.378 16.226 6.058 33.957-.91 49.937-10.692 24.528-34.755 39.192-59.966 39.192"/><path fill="#4ada85" d="m353.238 719.71 5.528-7.257c-5.004-3.933-8.98-8.894-10.637-12.672l9.129-7.281c1.906 4.074 5.246 8.941 10.27 12.527 4.402 3.153 8.702 3.625 11.027.57 2.215-2.902 1.136-6.5-3.125-12.5-6.18-8.663-8.91-16.515-3.266-23.925 5.121-6.723 13.93-8.567 23.426-4.258l5.527-7.258h.004l7.574 5.414v.004l-5.125 6.719c5.008 3.93 7.672 7.488 9.293 10.531l-8.824 7.031c-1.367-2.277-3.586-6.578-9.152-10.554-5.02-3.59-8.278-2.61-9.907-.473-1.921 2.52-.437 6.059 4.274 13.2 6.75 9.784 7.262 16.636 2.02 23.511-5.18 6.797-14.47 9.125-24.524 4.297l-5.937 7.789z"/><path d="M435.387 698.508c-14.188 32.547-52.098 47.437-84.672 33.254-32.578-14.176-47.48-52.059-33.285-84.606 14.187-32.55 52.097-47.445 84.672-33.261 32.578 14.175 47.48 52.058 33.285 84.613"/><path fill="#4ada85" d="M430.629 693.746c-14.192 32.547-52.106 47.442-84.676 33.262-32.578-14.18-47.48-52.063-33.289-84.613 14.195-32.547 52.102-47.438 84.676-33.258s47.476 52.058 33.289 84.61"/><path fill="#fff" d="m344.805 696.777 5.53-7.257c-5.007-3.934-8.983-8.895-10.64-12.68l9.13-7.274c1.905 4.075 5.245 8.942 10.269 12.528 4.406 3.152 8.703 3.625 11.031.57 2.21-2.902 1.133-6.5-3.133-12.5-6.172-8.664-8.906-16.516-3.262-23.926 5.125-6.722 13.934-8.57 23.426-4.258l5.531-7.257 7.575 5.414-5.121 6.722c5.004 3.93 7.668 7.489 9.285 10.532l-8.817 7.03c-1.367-2.276-3.586-6.573-9.152-10.554-5.027-3.594-8.277-2.61-9.906-.472-1.922 2.523-.438 6.058 4.265 13.199 6.758 9.785 7.27 16.64 2.028 23.511-5.18 6.797-14.477 9.125-24.528 4.297l-5.937 7.79z"/><path d="M443.82 678.145c-14.191 32.546-52.101 47.44-84.675 33.261-32.575-14.18-47.477-52.062-33.29-84.61 14.192-32.55 52.106-47.44 84.676-33.26 32.578 14.179 47.48 52.062 33.29 84.609"/><path fill="#fff" d="M439.059 673.387c-14.192 32.547-52.102 47.441-84.676 33.258-32.578-14.176-47.48-52.06-33.285-84.606 14.187-32.547 52.101-47.441 84.672-33.262 32.578 14.18 47.48 52.059 33.289 84.61"/><path d="M380.168 584.398c-24.461 0-47.805 14.227-58.184 38.028-6.757 15.504-7.07 32.71-.879 48.445 6.192 15.742 18.149 28.129 33.665 34.887 32.03 13.941 69.445-.754 83.398-32.762 6.758-15.504 7.07-32.707.879-48.45-6.192-15.734-18.149-28.124-33.664-34.878a63.1 63.1 0 0 0-25.215-5.27m-.184 128.567c-8.695 0-17.523-1.746-25.992-5.426-15.988-6.96-28.312-19.73-34.695-35.953-6.383-16.219-6.059-33.957.91-49.934 14.379-32.992 52.941-48.136 85.953-33.765 15.992 6.96 28.317 19.726 34.7 35.953 6.378 16.222 6.058 33.953-.91 49.933l-.891-.386.89.386c-10.691 24.532-34.754 39.192-59.965 39.192"/><path fill="#4ada85" d="m361.156 682.313 3.543-8.41c-5.824-2.56-10.918-6.383-13.46-9.63l7.023-9.32c2.867 3.473 7.312 7.356 13.07 9.582 5.055 1.953 9.332 1.344 10.828-2.191 1.414-3.367-.523-6.586-6.148-11.332-8.14-6.856-12.746-13.778-9.121-22.36 3.285-7.785 11.351-11.761 21.62-9.957l3.548-8.402 8.687 3.36-3.285 7.78c5.824 2.563 9.293 5.348 11.621 7.895l-6.789 9c-1.895-1.867-5.113-5.473-11.496-7.945-5.758-2.227-8.664-.469-9.715 2.012-1.227 2.918 1.09 5.976 7.43 11.718 8.98 7.797 11.18 14.305 7.82 22.266-3.324 7.871-11.742 12.441-22.684 10.27l-3.808 9.019z"/><g clip-path="url(#b)"><path fill="#fff" d="M352.664 596.707h62.875v94.797h-62.875Zm0 0"/></g><g clip-path="url(#c)"><g clip-path="url(#d)"><g clip-path="url(#e)"><path fill="#49d884" d="m419.875 621.508-8.2 7.863-9.952-3.992q.392 1.166.539 2.812a10 10 0 0 1-.192 3.125l11.946 4.793-8.196 7.86-7.605-3.047q-1.776 2.918-4.426 4.805a18.6 18.6 0 0 1-5.832 2.78c-2.125.598-4.367.864-6.73.81a26.8 26.8 0 0 1-7.102-1.16l13.633 34.425-15.387-6.172-12.082-32.996 3.852-9.605 6.433 2.582q1.214.487 3.153 1.062c1.289.383 2.632.625 4.02.727a12.6 12.6 0 0 0 4.046-.34c1.312-.336 2.41-1.059 3.297-2.184l-20.86-8.367 8.2-7.863 16.468 6.61q.177-1.946-.812-3.509-.989-1.553-2.723-2.832-1.736-1.271-4.07-2.363a99 99 0 0 0-4.902-2.117l-6.301-2.528 8.195-7.859Zm0 0"/></g></g></g></svg>